<?xml version="1.0" encoding="utf-8"?>
<!-- Generator: Adobe Illustrator 23.0.3, SVG Export Plug-In . SVG Version: 6.00 Build 0)  -->
<svg version="1.1" id="Layer_1" xmlns="http://www.w3.org/2000/svg" xmlns:xlink="http://www.w3.org/1999/xlink" x="0px" y="0px"
	 viewBox="0 0 150 150" style="enable-background:new 0 0 150 150;" xml:space="preserve">
<style type="text/css">
	.st0{display:none;}
	.st1{display:inline;fill:#231F20;}
	.st2{display:inline;}
	.st3{fill:#231F20;}
	.st4{display:inline;fill:none;stroke:#231F20;stroke-width:3;stroke-miterlimit:10;}
	.st5{display:inline;fill:none;}
	.st6{display:inline;fill:none;stroke:#231F20;stroke-width:2;stroke-miterlimit:10;}
	.st7{fill:none;stroke:#231F20;stroke-width:3;stroke-miterlimit:10;}
	.st8{fill:none;stroke:#231F20;stroke-width:4;stroke-miterlimit:10;}
	.st9{display:inline;fill:none;stroke:#231F20;stroke-miterlimit:10;}
	.st10{display:inline;fill:#FFFFFF;stroke:#231F20;stroke-miterlimit:10;}
	.st11{fill:#FFFFFF;}
	.st12{fill:none;stroke:#231F20;stroke-miterlimit:10;}
	.st13{display:inline;opacity:0.71;fill:#231F20;}
	.st14{display:inline;fill:#FFFFFF;stroke:#231F20;stroke-width:3;stroke-miterlimit:10;}
</style>
<g class="st0">
	<path class="st1" d="M129.48,43.81H49.04c-2.33,0-4.22-1.89-4.22-4.22V28.28c0-2.33,1.89-4.22,4.22-4.22h80.45
		c2.33,0,4.22,1.89,4.22,4.22v11.31C133.71,41.92,131.82,43.81,129.48,43.81z"/>
	<path class="st1" d="M37.06,116.62h-14.6c-2.33,0-4.22-1.89-4.22-4.22V28.28c0-2.33,1.89-4.22,4.22-4.22h14.6
		c2.33,0,4.22,1.89,4.22,4.22v84.12C41.28,114.73,39.39,116.62,37.06,116.62z"/>
	<g class="st2">
		<path class="st3" d="M81.1,116.62H48.97c-2.3,0-4.16-1.86-4.16-4.16V98.42c0-2.3,1.86-4.16,4.16-4.16H81.1
			c2.3,0,4.16,1.86,4.16,4.16v14.03C85.26,114.76,83.39,116.62,81.1,116.62z"/>
		<path class="st3" d="M129.55,116.62H97.42c-2.3,0-4.16-1.86-4.16-4.16V98.42c0-2.3,1.86-4.16,4.16-4.16h32.13
			c2.3,0,4.16,1.86,4.16,4.16v14.03C133.71,114.76,131.84,116.62,129.55,116.62z"/>
	</g>
	<g class="st2">
		<path class="st3" d="M81.1,80.21H48.97c-2.3,0-4.16-1.86-4.16-4.16V62.02c0-2.3,1.86-4.16,4.16-4.16H81.1
			c2.3,0,4.16,1.86,4.16,4.16v14.03C85.26,78.35,83.39,80.21,81.1,80.21z"/>
		<path class="st3" d="M129.55,80.21H97.42c-2.3,0-4.16-1.86-4.16-4.16V62.02c0-2.3,1.86-4.16,4.16-4.16h32.13
			c2.3,0,4.16,1.86,4.16,4.16v14.03C133.71,78.35,131.84,80.21,129.55,80.21z"/>
	</g>
</g>
<g class="st0">
	<path class="st4" d="M130.02,116.5H27.48c-4.41,0-7.98-3.57-7.98-7.98v-76.1c0-4.41,3.57-7.98,7.98-7.98h102.54
		c4.41,0,7.98,3.57,7.98,7.98v76.1C138,112.93,134.43,116.5,130.02,116.5z"/>
	<path class="st1" d="M47.79,51.43l-17.46-0.08c-1.67-0.01-3.02-1.37-3.02-3.04L27.38,34c0.01-1.67,1.37-3.02,3.04-3.02l17.46,0.08
		c1.67,0.01,3.02,1.37,3.02,3.04l-0.06,14.32C50.82,50.09,49.46,51.44,47.79,51.43z"/>
	<path class="st1" d="M87.43,51.43l-17.46-0.08c-1.67-0.01-3.02-1.37-3.02-3.04L67.02,34c0.01-1.67,1.37-3.02,3.04-3.02l17.46,0.08
		c1.67,0.01,3.02,1.37,3.02,3.04l-0.06,14.32C90.47,50.09,89.11,51.44,87.43,51.43z"/>
	<path class="st1" d="M127.08,51.43l-17.46-0.08c-1.67-0.01-3.02-1.37-3.02-3.04L106.67,34c0.01-1.67,1.37-3.02,3.04-3.02
		l17.46,0.08c1.67,0.01,3.02,1.37,3.02,3.04l-0.06,14.32C130.12,50.09,128.75,51.44,127.08,51.43z"/>
	<g class="st2">
		<path class="st3" d="M47.79,81.13l-17.46-0.08c-1.67-0.01-3.02-1.37-3.02-3.04l0.06-14.32c0.01-1.67,1.37-3.02,3.04-3.02
			l17.46,0.08c1.67,0.01,3.02,1.37,3.02,3.04l-0.06,14.32C50.82,79.78,49.46,81.13,47.79,81.13z"/>
		<path class="st3" d="M87.43,81.13l-17.46-0.08c-1.67-0.01-3.02-1.37-3.02-3.04l0.06-14.32c0.01-1.67,1.37-3.02,3.04-3.02
			l17.46,0.08c1.67,0.01,3.02,1.37,3.02,3.04l-0.06,14.32C90.47,79.78,89.11,81.13,87.43,81.13z"/>
		<path class="st3" d="M127.08,81.13l-17.46-0.08c-1.67-0.01-3.02-1.37-3.02-3.04l0.06-14.32c0.01-1.67,1.37-3.02,3.04-3.02
			l17.46,0.08c1.67,0.01,3.02,1.37,3.02,3.04l-0.06,14.32C130.12,79.78,128.75,81.13,127.08,81.13z"/>
	</g>
	<g class="st2">
		<path class="st3" d="M47.79,110.82l-17.46-0.08c-1.67-0.01-3.02-1.37-3.02-3.04l0.06-14.32c0.01-1.67,1.37-3.02,3.04-3.02
			l17.46,0.08c1.67,0.01,3.02,1.37,3.02,3.04l-0.06,14.32C50.82,109.48,49.46,110.83,47.79,110.82z"/>
		<path class="st3" d="M87.43,110.82l-17.46-0.08c-1.67-0.01-3.02-1.37-3.02-3.04l0.06-14.32c0.01-1.67,1.37-3.02,3.04-3.02
			l17.46,0.08c1.67,0.01,3.02,1.37,3.02,3.04l-0.06,14.32C90.47,109.48,89.11,110.83,87.43,110.82z"/>
		<path class="st3" d="M127.08,110.82l-17.46-0.08c-1.67-0.01-3.02-1.37-3.02-3.04l0.06-14.32c0.01-1.67,1.37-3.02,3.04-3.02
			l17.46,0.08c1.67,0.01,3.02,1.37,3.02,3.04l-0.06,14.32C130.12,109.48,128.75,110.83,127.08,110.82z"/>
	</g>
</g>
<g class="st0">
	<path class="st4" d="M128.97,116.69H25.77c-4.44,0-8.03-3.6-8.03-8.03V32.06c0-4.44,3.6-8.03,8.03-8.03h103.19
		c4.44,0,8.03,3.6,8.03,8.03v76.59C137,113.09,133.4,116.69,128.97,116.69z"/>
	<rect x="24.12" y="31.26" class="st5" width="24.32" height="20.35"/>
	<g class="st2">
		<path class="st3" d="M45.02,51.2l-17.57-0.08c-1.68-0.01-3.04-1.38-3.03-3.06l0.06-14.41c0.01-1.68,1.38-3.04,3.06-3.03
			l17.57,0.08c1.68,0.01,3.04,1.38,3.03,3.06l-0.06,14.41C48.08,49.85,46.71,51.21,45.02,51.2z"/>
		<path class="st3" d="M45.02,80.61l-17.57-0.08c-1.68-0.01-3.04-1.38-3.03-3.06l0.06-14.41c0.01-1.68,1.38-3.04,3.06-3.03
			l17.57,0.08c1.68,0.01,3.04,1.38,3.03,3.06l-0.06,14.41C48.08,79.26,46.71,80.62,45.02,80.61z"/>
		<path class="st3" d="M45.02,110.02l-17.57-0.08c-1.68-0.01-3.04-1.38-3.03-3.06l0.06-14.41c0.01-1.68,1.38-3.04,3.06-3.03
			l17.57,0.08c1.68,0.01,3.04,1.38,3.03,3.06l-0.06,14.41C48.08,108.67,46.71,110.03,45.02,110.02z"/>
	</g>
	<g class="st2">
		<path class="st3" d="M72.44,51.2l-17.57-0.08c-1.68-0.01-3.04-1.38-3.03-3.06l0.06-14.41c0.01-1.68,1.38-3.04,3.06-3.03
			l17.57,0.08c1.68,0.01,3.04,1.38,3.03,3.06L75.5,48.16C75.5,49.85,74.13,51.21,72.44,51.2z"/>
		<path class="st3" d="M72.44,80.61l-17.57-0.08c-1.68-0.01-3.04-1.38-3.03-3.06l0.06-14.41c0.01-1.68,1.38-3.04,3.06-3.03
			l17.57,0.08c1.68,0.01,3.04,1.38,3.03,3.06L75.5,77.57C75.5,79.26,74.13,80.62,72.44,80.61z"/>
		<path class="st3" d="M72.44,110.02l-17.57-0.08c-1.68-0.01-3.04-1.38-3.03-3.06l0.06-14.41c0.01-1.68,1.38-3.04,3.06-3.03
			l17.57,0.08c1.68,0.01,3.04,1.38,3.03,3.06l-0.06,14.41C75.5,108.67,74.13,110.03,72.44,110.02z"/>
	</g>
	<g class="st2">
		<path class="st3" d="M99.86,51.2l-17.57-0.08c-1.68-0.01-3.04-1.38-3.03-3.06l0.06-14.41c0.01-1.68,1.38-3.04,3.06-3.03
			l17.57,0.08c1.68,0.01,3.04,1.38,3.03,3.06l-0.06,14.41C102.92,49.85,101.55,51.21,99.86,51.2z"/>
		<path class="st3" d="M99.86,80.61l-17.57-0.08c-1.68-0.01-3.04-1.38-3.03-3.06l0.06-14.41c0.01-1.68,1.38-3.04,3.06-3.03
			l17.57,0.08c1.68,0.01,3.04,1.38,3.03,3.06l-0.06,14.41C102.92,79.26,101.55,80.62,99.86,80.61z"/>
		<path class="st3" d="M99.86,110.02l-17.57-0.08c-1.68-0.01-3.04-1.38-3.03-3.06l0.06-14.41c0.01-1.68,1.38-3.04,3.06-3.03
			l17.57,0.08c1.68,0.01,3.04,1.38,3.03,3.06l-0.06,14.41C102.92,108.67,101.55,110.03,99.86,110.02z"/>
	</g>
	<g class="st2">
		<path class="st3" d="M127.28,51.2l-17.57-0.08c-1.68-0.01-3.04-1.38-3.03-3.06l0.06-14.41c0.01-1.68,1.38-3.04,3.06-3.03
			l17.57,0.08c1.68,0.01,3.04,1.38,3.03,3.06l-0.06,14.41C130.34,49.85,128.97,51.21,127.28,51.2z"/>
		<path class="st3" d="M127.28,80.61l-17.57-0.08c-1.68-0.01-3.04-1.38-3.03-3.06l0.06-14.41c0.01-1.68,1.38-3.04,3.06-3.03
			l17.57,0.08c1.68,0.01,3.04,1.38,3.03,3.06l-0.06,14.41C130.34,79.26,128.97,80.62,127.28,80.61z"/>
		<path class="st3" d="M127.28,110.02l-17.57-0.08c-1.68-0.01-3.04-1.38-3.03-3.06l0.06-14.41c0.01-1.68,1.38-3.04,3.06-3.03
			l17.57,0.08c1.68,0.01,3.04,1.38,3.03,3.06l-0.06,14.41C130.34,108.67,128.97,110.03,127.28,110.02z"/>
	</g>
</g>
<g class="st0">
	<path class="st6" d="M130.88,117.28H26.61c-4.48,0-8.12-3.63-8.12-8.12V31.77c0-4.48,3.63-8.12,8.12-8.12h104.27
		c4.48,0,8.12,3.63,8.12,8.12v77.39C139,113.64,135.37,117.28,130.88,117.28z"/>
	<path class="st1" d="M84.81,73.62H73.5c-2.16,0-3.92-1.75-3.92-3.92V39.8c0-2.16,1.75-3.92,3.92-3.92h11.3
		c2.16,0,3.92,1.75,3.92,3.92v29.9C88.72,71.87,86.97,73.62,84.81,73.62z"/>
	<g class="st2">
		<path class="st3" d="M48.06,105.59l-17.75-0.08c-1.7-0.01-3.07-1.39-3.07-3.09l0.06-14.56c0.01-1.7,1.39-3.07,3.09-3.07
			l17.75,0.08c1.7,0.01,3.07,1.39,3.07,3.09l-0.06,14.56C51.15,104.22,49.76,105.6,48.06,105.59z"/>
		<path class="st3" d="M87.42,105.59l-17.75-0.08c-1.7-0.01-3.07-1.39-3.07-3.09l0.06-14.56c0.01-1.7,1.39-3.07,3.09-3.07
			l17.75,0.08c1.7,0.01,3.07,1.39,3.07,3.09l-0.06,14.56C90.5,104.22,89.12,105.6,87.42,105.59z"/>
		<path class="st3" d="M127.09,105.59l-17.75-0.08c-1.7-0.01-3.07-1.39-3.07-3.09l0.06-14.56c0.01-1.7,1.39-3.07,3.09-3.07
			l17.75,0.08c1.7,0.01,3.07,1.39,3.07,3.09l-0.06,14.56C130.18,104.22,128.79,105.6,127.09,105.59z"/>
		<g>
			<path class="st3" d="M44.88,73.07h-11.3c-2.16,0-3.92-1.75-3.92-3.92v-29.9c0-2.16,1.75-3.92,3.92-3.92h11.3
				c2.16,0,3.92,1.75,3.92,3.92v29.9C48.8,71.32,47.04,73.07,44.88,73.07z"/>
			<path class="st3" d="M123.91,73.07h-11.3c-2.16,0-3.92-1.75-3.92-3.92v-29.9c0-2.16,1.75-3.92,3.92-3.92h11.3
				c2.16,0,3.92,1.75,3.92,3.92v29.9C127.83,71.32,126.07,73.07,123.91,73.07z"/>
		</g>
	</g>
</g>
<g class="st0">
	<path class="st6" d="M128.09,116.1H26.48c-4.37,0-7.91-3.54-7.91-7.91V32.78c0-4.37,3.54-7.91,7.91-7.91h101.61
		c4.37,0,7.91,3.54,7.91,7.91v75.41C136,112.56,132.46,116.1,128.09,116.1z"/>
	<path class="st1" d="M48.32,68.73H36.38c-1.85,0-3.35-1.5-3.35-3.35V43.74c0-1.85,1.5-3.35,3.35-3.35h11.94
		c1.85,0,3.35,1.5,3.35,3.35v21.64C51.67,67.23,50.17,68.73,48.32,68.73z"/>
	<path class="st1" d="M50.02,38.86H34.67c-0.91,0-1.65-0.74-1.65-1.65v-3.56c0-0.91,0.74-1.65,1.65-1.65h15.35
		c0.91,0,1.65,0.74,1.65,1.65v3.56C51.67,38.13,50.93,38.86,50.02,38.86z"/>
	<path class="st1" d="M85.41,38.86H70.06c-0.91,0-1.65-0.74-1.65-1.65v-3.56c0-0.91,0.74-1.65,1.65-1.65h15.35
		c0.91,0,1.65,0.74,1.65,1.65v3.56C87.06,38.13,86.32,38.86,85.41,38.86z"/>
	<path class="st1" d="M119.9,38.86h-15.35c-0.91,0-1.65-0.74-1.65-1.65v-3.56c0-0.91,0.74-1.65,1.65-1.65h15.35
		c0.91,0,1.65,0.74,1.65,1.65v3.56C121.54,38.13,120.8,38.86,119.9,38.86z"/>
	<path class="st1" d="M83.71,68.73H71.76c-1.85,0-3.35-1.5-3.35-3.35V43.74c0-1.85,1.5-3.35,3.35-3.35h11.94
		c1.85,0,3.35,1.5,3.35,3.35v21.64C87.06,67.23,85.56,68.73,83.71,68.73z"/>
	<path class="st1" d="M118.19,68.73h-11.94c-1.85,0-3.35-1.5-3.35-3.35V43.74c0-1.85,1.5-3.35,3.35-3.35h11.94
		c1.85,0,3.35,1.5,3.35,3.35v21.64C121.54,67.23,120.04,68.73,118.19,68.73z"/>
	<path class="st1" d="M50.02,78.94H34.67c-0.91,0-1.65-0.74-1.65-1.65v-3.56c0-0.91,0.74-1.65,1.65-1.65h15.35
		c0.91,0,1.65,0.74,1.65,1.65v3.56C51.67,78.2,50.93,78.94,50.02,78.94z"/>
	<path class="st1" d="M85.41,78.94H70.06c-0.91,0-1.65-0.74-1.65-1.65v-3.56c0-0.91,0.74-1.65,1.65-1.65h15.35
		c0.91,0,1.65,0.74,1.65,1.65v3.56C87.06,78.2,86.32,78.94,85.41,78.94z"/>
	<path class="st1" d="M119.9,78.94h-15.35c-0.91,0-1.65-0.74-1.65-1.65v-3.56c0-0.91,0.74-1.65,1.65-1.65h15.35
		c0.91,0,1.65,0.74,1.65,1.65v3.56C121.54,78.2,120.8,78.94,119.9,78.94z"/>
	<path class="st1" d="M118.19,108.95h-11.94c-1.85,0-3.35-1.5-3.35-3.35V83.97c0-1.85,1.5-3.35,3.35-3.35h11.94
		c1.85,0,3.35,1.5,3.35,3.35v21.64C121.54,107.45,120.04,108.95,118.19,108.95z"/>
	<path class="st1" d="M83.71,108.95H71.76c-1.85,0-3.35-1.5-3.35-3.35V83.97c0-1.85,1.5-3.35,3.35-3.35h11.94
		c1.85,0,3.35,1.5,3.35,3.35v21.64C87.06,107.45,85.56,108.95,83.71,108.95z"/>
	<path class="st1" d="M48.32,108.95H36.38c-1.85,0-3.35-1.5-3.35-3.35V83.97c0-1.85,1.5-3.35,3.35-3.35h11.94
		c1.85,0,3.35,1.5,3.35,3.35v21.64C51.67,107.45,50.17,108.95,48.32,108.95z"/>
</g>
<g class="st0">
	<path class="st6" d="M129.9,116.66H25.88c-4.47,0-8.1-3.63-8.1-8.1V31.35c0-4.47,3.63-8.1,8.1-8.1H129.9c4.47,0,8.1,3.63,8.1,8.1
		v77.21C138,113.03,134.37,116.66,129.9,116.66z"/>
	<g class="st2">
		<path class="st3" d="M48.42,42.56H32.71c-0.93,0-1.69-0.75-1.69-1.69v-3.64c0-0.93,0.75-1.69,1.69-1.69h15.71
			c0.93,0,1.69,0.75,1.69,1.69v3.64C50.11,41.8,49.35,42.56,48.42,42.56z"/>
		<path class="st3" d="M87.37,42.56H71.66c-0.93,0-1.69-0.75-1.69-1.69v-3.64c0-0.93,0.75-1.69,1.69-1.69h15.71
			c0.93,0,1.69,0.75,1.69,1.69v3.64C89.06,41.8,88.31,42.56,87.37,42.56z"/>
		<path class="st3" d="M123.07,42.56h-15.71c-0.93,0-1.69-0.75-1.69-1.69v-3.64c0-0.93,0.75-1.69,1.69-1.69h15.71
			c0.93,0,1.69,0.75,1.69,1.69v3.64C124.76,41.8,124,42.56,123.07,42.56z"/>
		<path class="st3" d="M123.07,104.37h-15.71c-0.93,0-1.69-0.75-1.69-1.69v-3.64c0-0.93,0.75-1.69,1.69-1.69h15.71
			c0.93,0,1.69,0.75,1.69,1.69v3.64C124.76,103.62,124,104.37,123.07,104.37z"/>
		<path class="st3" d="M87.37,104.37H71.66c-0.93,0-1.69-0.75-1.69-1.69v-3.64c0-0.93,0.75-1.69,1.69-1.69h15.71
			c0.93,0,1.69,0.75,1.69,1.69v3.64C89.06,103.62,88.31,104.37,87.37,104.37z"/>
		<path class="st3" d="M48.42,104.37H32.71c-0.93,0-1.69-0.75-1.69-1.69v-3.64c0-0.93,0.75-1.69,1.69-1.69h15.71
			c0.93,0,1.69,0.75,1.69,1.69v3.64C50.11,103.62,49.35,104.37,48.42,104.37z"/>
		<path class="st3" d="M46.2,88.68H34.93c-2.16,0-3.91-1.75-3.91-3.91V54.95c0-2.16,1.75-3.91,3.91-3.91H46.2
			c2.16,0,3.91,1.75,3.91,3.91v29.83C50.11,86.94,48.36,88.68,46.2,88.68z"/>
		<path class="st3" d="M85.15,88.68H73.88c-2.16,0-3.91-1.75-3.91-3.91V54.95c0-2.16,1.75-3.91,3.91-3.91h11.27
			c2.16,0,3.91,1.75,3.91,3.91v29.83C89.06,86.94,87.31,88.68,85.15,88.68z"/>
		<path class="st3" d="M120.85,88.68h-11.27c-2.16,0-3.91-1.75-3.91-3.91V54.95c0-2.16,1.75-3.91,3.91-3.91h11.27
			c2.16,0,3.91,1.75,3.91,3.91v29.83C124.76,86.94,123.01,88.68,120.85,88.68z"/>
	</g>
</g>
<g>
	<g>
		<path class="st3" d="M133.3,37.17v13.59c0,2.61-2.12,4.73-4.73,4.73H22c-2.61,0-4.73-2.12-4.73-4.73V37.17
			c0-2.61,2.12-4.73,4.73-4.73h106.57C131.18,32.44,133.3,34.56,133.3,37.17z"/>
		<path class="st3" d="M133.3,68.71v13.59c0,2.61-2.12,4.73-4.73,4.73H22c-2.61,0-4.73-2.12-4.73-4.73V68.71
			c0-2.61,2.12-4.73,4.73-4.73h106.57C131.18,63.98,133.3,66.09,133.3,68.71z"/>
		<path class="st3" d="M133.3,100.24v13.59c0,2.61-2.12,4.73-4.73,4.73H22c-2.61,0-4.73-2.12-4.73-4.73v-13.59
			c0-2.61,2.12-4.73,4.73-4.73h106.57C131.18,95.51,133.3,97.63,133.3,100.24z"/>
	</g>
	<path class="st7" d="M131.53,126H19.04c-4.84,0-8.76-3.92-8.76-8.76V33.76c0-4.84,3.92-8.76,8.76-8.76h112.49
		c4.84,0,8.76,3.92,8.76,8.76v83.49C140.29,122.08,136.37,126,131.53,126z"/>
</g>
<g class="st0">
	<g class="st2">
		<path class="st8" d="M133.84,37.17v13.59c0,2.61-2.12,4.73-4.73,4.73H22.54c-2.61,0-4.73-2.12-4.73-4.73V37.17
			c0-2.61,2.12-4.73,4.73-4.73h106.57C131.72,32.44,133.84,34.56,133.84,37.17z"/>
		<path class="st8" d="M133.84,68.71v13.59c0,2.61-2.12,4.73-4.73,4.73H22.54c-2.61,0-4.73-2.12-4.73-4.73V68.71
			c0-2.61,2.12-4.73,4.73-4.73h106.57C131.72,63.98,133.84,66.09,133.84,68.71z"/>
		<path class="st8" d="M133.84,100.24v13.59c0,2.61-2.12,4.73-4.73,4.73H22.54c-2.61,0-4.73-2.12-4.73-4.73v-13.59
			c0-2.61,2.12-4.73,4.73-4.73h106.57C131.72,95.51,133.84,97.63,133.84,100.24z"/>
	</g>
	<path class="st6" d="M132.07,126H19.58c-4.84,0-8.76-3.92-8.76-8.76V33.76c0-4.84,3.92-8.76,8.76-8.76h112.49
		c4.84,0,8.76,3.92,8.76,8.76v83.49C140.82,122.08,136.9,126,132.07,126z"/>
</g>
<g class="st0">
	<g class="st2">
		<path class="st3" d="M64.55,117.18H33.29c-3.16,0-5.71-2.56-5.71-5.71V82.94c0-3.16,2.56-5.71,5.71-5.71h31.26
			c3.16,0,5.71,2.56,5.71,5.71v28.52C70.27,114.62,67.71,117.18,64.55,117.18z"/>
		<path class="st3" d="M115.69,117.18H84.43c-3.16,0-5.71-2.56-5.71-5.71V82.94c0-3.16,2.56-5.71,5.71-5.71h31.26
			c3.16,0,5.71,2.56,5.71,5.71v28.52C121.41,114.62,118.85,117.18,115.69,117.18z"/>
	</g>
	<g class="st2">
		<path class="st3" d="M64.55,66.71H33.29c-3.16,0-5.71-2.56-5.71-5.71V32.47c0-3.16,2.56-5.71,5.71-5.71h31.26
			c3.16,0,5.71,2.56,5.71,5.71v28.52C70.27,64.15,67.71,66.71,64.55,66.71z"/>
		<path class="st3" d="M115.69,66.71H84.43c-3.16,0-5.71-2.56-5.71-5.71V32.47c0-3.16,2.56-5.71,5.71-5.71h31.26
			c3.16,0,5.71,2.56,5.71,5.71v28.52C121.41,64.15,118.85,66.71,115.69,66.71z"/>
	</g>
	<path class="st6" d="M130.74,122H18.25c-4.84,0-8.76-3.92-8.76-8.76V29.76c0-4.84,3.92-8.76,8.76-8.76h112.49
		c4.84,0,8.76,3.92,8.76,8.76v83.49C139.49,118.08,135.57,122,130.74,122z"/>
</g>
<g class="st0">
	<path class="st9" d="M131.74,122.5H19.26c-4.84,0-8.76-3.92-8.76-8.76V30.26c0-4.84,3.92-8.76,8.76-8.76h112.49
		c4.84,0,8.76,3.92,8.76,8.76v83.49C140.5,118.58,136.58,122.5,131.74,122.5z"/>
	<path class="st4" d="M41.53,51.12l-19.15-0.08c-1.83-0.01-3.32-1.5-3.31-3.34l0.07-15.71c0.01-1.83,1.5-3.32,3.34-3.31l19.15,0.08
		c1.83,0.01,3.32,1.5,3.31,3.34l-0.07,15.71C44.86,49.64,43.37,51.12,41.53,51.12z"/>
	<path class="st4" d="M85.03,51.12l-19.15-0.08c-1.83-0.01-3.32-1.5-3.31-3.34l0.07-15.71c0.01-1.83,1.5-3.32,3.34-3.31l19.15,0.08
		c1.83,0.01,3.32,1.5,3.31,3.34l-0.07,15.71C88.36,49.64,86.86,51.12,85.03,51.12z"/>
	<path class="st4" d="M128.52,51.12l-19.15-0.08c-1.83-0.01-3.32-1.5-3.31-3.34l0.07-15.71c0.01-1.83,1.5-3.32,3.34-3.31l19.15,0.08
		c1.83,0.01,3.32,1.5,3.31,3.34l-0.07,15.71C131.85,49.64,130.36,51.12,128.52,51.12z"/>
	<g class="st2">
		<path class="st7" d="M41.53,83.69l-19.15-0.08c-1.83-0.01-3.32-1.5-3.31-3.34l0.07-15.71c0.01-1.83,1.5-3.32,3.34-3.31l19.15,0.08
			c1.83,0.01,3.32,1.5,3.31,3.34l-0.07,15.71C44.86,82.22,43.37,83.7,41.53,83.69z"/>
		<path class="st7" d="M85.03,83.69l-19.15-0.08c-1.83-0.01-3.32-1.5-3.31-3.34l0.07-15.71c0.01-1.83,1.5-3.32,3.34-3.31l19.15,0.08
			c1.83,0.01,3.32,1.5,3.31,3.34l-0.07,15.71C88.36,82.22,86.86,83.7,85.03,83.69z"/>
		<path class="st7" d="M128.52,83.69l-19.15-0.08c-1.83-0.01-3.32-1.5-3.31-3.34l0.07-15.71c0.01-1.83,1.5-3.32,3.34-3.31
			l19.15,0.08c1.83,0.01,3.32,1.5,3.31,3.34l-0.07,15.71C131.85,82.22,130.36,83.7,128.52,83.69z"/>
	</g>
	<g class="st2">
		<path class="st7" d="M41.53,116.27l-19.15-0.08c-1.83-0.01-3.32-1.5-3.31-3.34l0.07-15.71c0.01-1.83,1.5-3.32,3.34-3.31
			l19.15,0.08c1.83,0.01,3.32,1.5,3.31,3.34l-0.07,15.71C44.86,114.8,43.37,116.28,41.53,116.27z"/>
		<path class="st7" d="M85.03,116.27l-19.15-0.08c-1.83-0.01-3.32-1.5-3.31-3.34l0.07-15.71c0.01-1.83,1.5-3.32,3.34-3.31
			l19.15,0.08c1.83,0.01,3.32,1.5,3.31,3.34l-0.07,15.71C88.36,114.8,86.86,116.28,85.03,116.27z"/>
		<path class="st7" d="M128.52,116.27l-19.15-0.08c-1.83-0.01-3.32-1.5-3.31-3.34l0.07-15.71c0.01-1.83,1.5-3.32,3.34-3.31
			l19.15,0.08c1.83,0.01,3.32,1.5,3.31,3.34l-0.07,15.71C131.85,114.8,130.36,116.28,128.52,116.27z"/>
	</g>
</g>
<g class="st0">
	<g class="st2">
		<path class="st3" d="M39.5,124.72h-3.4c-0.88,0-1.6-0.72-1.6-1.6V80.04c0-0.88,0.72-1.6,1.6-1.6h3.4c0.88,0,1.6,0.72,1.6,1.6
			v43.09C41.1,124.01,40.38,124.72,39.5,124.72z"/>
		<path class="st3" d="M13.93,124.72H9.97c-0.73,0-1.32-0.59-1.32-1.32V94.62c0-0.73,0.59-1.32,1.32-1.32h3.96
			c0.73,0,1.32,0.59,1.32,1.32v28.79C15.24,124.14,14.65,124.72,13.93,124.72z"/>
		<path class="st3" d="M26.39,124.72h-3.03c-0.98,0-1.78-0.8-1.78-1.78V68.83c0-0.98,0.8-1.78,1.78-1.78h3.03
			c0.98,0,1.78,0.8,1.78,1.78v54.11C28.17,123.93,27.37,124.72,26.39,124.72z"/>
		<path class="st3" d="M65.17,124.72h-3.03c-0.98,0-1.78-0.8-1.78-1.78V68.83c0-0.98,0.8-1.78,1.78-1.78h3.03
			c0.98,0,1.78,0.8,1.78,1.78v54.11C66.95,123.93,66.15,124.72,65.17,124.72z"/>
		<path class="st3" d="M77.85,124.72h-2.54c-1.12,0-2.03-0.91-2.03-2.03V52.35c0-1.12,0.91-2.03,2.03-2.03h2.54
			c1.12,0,2.03,0.91,2.03,2.03v70.34C79.88,123.82,78.97,124.72,77.85,124.72z"/>
		<path class="st3" d="M52.04,124.72h-2.63c-1.09,0-1.98-0.89-1.98-1.98V55.52c0-1.09,0.89-1.98,1.98-1.98h2.63
			c1.09,0,1.98,0.89,1.98,1.98v67.23C54.02,123.84,53.14,124.72,52.04,124.72z"/>
	</g>
	<path class="st10" d="M8.67,61.28"/>
	<g class="st2">
		<polyline class="st11" points="7.16,53.31 19.24,31.82 36.48,49.5 53.12,29.36 66.2,48.8 80.58,26.28 		"/>
		<g>
			<polyline class="st12" points="8.8,50.38 19.24,31.82 36.48,49.5 53.12,29.36 66.2,48.8 77.33,31.36 			"/>
			<g>
				<path class="st3" d="M11.97,51.96c-0.96,1.7-3.11,2.3-4.81,1.35c-1.7-0.96-2.3-3.11-1.35-4.81c0.96-1.7,3.11-2.3,4.81-1.35
					C12.32,48.1,12.93,50.26,11.97,51.96z"/>
			</g>
			<g>
				<path class="st3" d="M80.58,26.28c-0.64,2.96-1.02,6.9-0.59,9.76l-3.08-4.01l-4.93-1.11C74.75,30.1,78.17,28.1,80.58,26.28z"/>
			</g>
		</g>
	</g>
	<path class="st13" d="M144.35,69.46c0,4.47-1.16,8.68-3.21,12.32l-22.01-6.28V44.24C133.06,44.24,144.35,55.53,144.35,69.46z"/>
	<path class="st1" d="M138.29,81.78c-4.32,7.7-12.56,12.9-22.01,12.9V75.5L138.29,81.78z"/>
	<path class="st1" d="M116.28,44.24v50.44c-13.93,0-25.22-11.29-25.22-25.22c0-0.38,0.01-0.76,0.03-1.14
		C91.68,54.92,102.73,44.24,116.28,44.24z"/>
	<line class="st14" x1="119.81" y1="116.18" x2="143.68" y2="116.18"/>
	<line class="st14" x1="95.3" y1="116.18" x2="114.92" y2="116.18"/>
	<line class="st14" x1="95.3" y1="123.34" x2="144.69" y2="123.34"/>
</g>
</svg>
