<?xml version="1.0" encoding="utf-8"?>
<!-- Generator: Adobe Illustrator 23.0.3, SVG Export Plug-In . SVG Version: 6.00 Build 0)  -->
<svg version="1.1" id="Layer_1" xmlns="http://www.w3.org/2000/svg" xmlns:xlink="http://www.w3.org/1999/xlink" x="0px" y="0px"
	 viewBox="0 0 150 150" style="enable-background:new 0 0 150 150;" xml:space="preserve">
<style type="text/css">
	.st0{display:none;}
	.st1{display:inline;fill:#231F20;}
	.st2{display:inline;}
	.st3{fill:#231F20;}
	.st4{display:none;fill:#231F20;}
</style>
<g class="st0">
	<path class="st1" d="M162.29,31.81H81.84c-2.33,0-4.22-1.89-4.22-4.22V16.28c0-2.33,1.89-4.22,4.22-4.22h80.45
		c2.33,0,4.22,1.89,4.22,4.22v11.31C166.51,29.92,164.62,31.81,162.29,31.81z"/>
	<path class="st1" d="M162.29,68.21H81.84c-2.33,0-4.22-1.89-4.22-4.22V52.68c0-2.33,1.89-4.22,4.22-4.22h80.45
		c2.33,0,4.22,1.89,4.22,4.22v11.31C166.51,66.32,164.62,68.21,162.29,68.21z"/>
	<path class="st1" d="M70.58,104.62h-14.6c-2.33,0-4.22-1.89-4.22-4.22V16.28c0-2.33,1.89-4.22,4.22-4.22h14.6
		c2.33,0,4.22,1.89,4.22,4.22v84.12C74.81,102.73,72.91,104.62,70.58,104.62z"/>
	<g class="st2">
		<path class="st3" d="M113.9,104.62H81.78c-2.3,0-4.16-1.86-4.16-4.16V86.42c0-2.3,1.86-4.16,4.16-4.16h32.13
			c2.3,0,4.16,1.86,4.16,4.16v14.03C118.06,102.76,116.2,104.62,113.9,104.62z"/>
		<path class="st3" d="M162.35,104.62h-32.13c-2.3,0-4.16-1.86-4.16-4.16V86.42c0-2.3,1.86-4.16,4.16-4.16h32.13
			c2.3,0,4.16,1.86,4.16,4.16v14.03C166.51,102.76,164.65,104.62,162.35,104.62z"/>
	</g>
</g>
<path class="st4" d="M201.43,127.25h-14.6c-2.33,0-4.22-1.89-4.22-4.22V38.91c0-2.33,1.89-4.22,4.22-4.22h14.6
	c2.33,0,4.22,1.89,4.22,4.22v84.12C205.65,125.35,203.76,127.25,201.43,127.25z"/>
<g>
	<path class="st3" d="M128.85,47.44H48.41c-2.33,0-4.22-1.89-4.22-4.22V31.91c0-2.33,1.89-4.22,4.22-4.22h80.45
		c2.33,0,4.22,1.89,4.22,4.22v11.31C133.08,45.55,131.19,47.44,128.85,47.44z"/>
	<path class="st3" d="M128.85,83.84H48.41c-2.33,0-4.22-1.89-4.22-4.22V68.31c0-2.33,1.89-4.22,4.22-4.22h80.45
		c2.33,0,4.22,1.89,4.22,4.22v11.31C133.08,81.95,131.19,83.84,128.85,83.84z"/>
	<path class="st3" d="M35.93,120.25h-14.6c-2.33,0-4.22-1.89-4.22-4.22V31.91c0-2.33,1.89-4.22,4.22-4.22h14.6
		c2.33,0,4.22,1.89,4.22,4.22v84.12C40.15,118.35,38.26,120.25,35.93,120.25z"/>
	<path class="st3" d="M35.93,120.25h-14.6c-2.33,0-4.22-1.89-4.22-4.22V31.91c0-2.33,1.89-4.22,4.22-4.22h14.6
		c2.33,0,4.22,1.89,4.22,4.22v84.12C40.15,118.35,38.26,120.25,35.93,120.25z"/>
	<path class="st3" d="M80.97,120.12l-33.24-0.57c-2.33-0.04-4.19-1.96-4.15-4.3l0.24-13.9c0.04-2.33,1.96-4.19,4.3-4.15l33.24,0.57
		c2.33,0.04,4.19,1.96,4.15,4.3l-0.24,13.9C85.22,118.3,83.3,120.16,80.97,120.12z"/>
	<path class="st3" d="M129.56,120.95l-19.15-0.33c-1.83-0.03-3.3-1.54-3.27-3.38l0.27-15.71c0.03-1.83,1.54-3.3,3.38-3.27
		l19.15,0.33c1.83,0.03,3.3,1.54,3.27,3.38l-0.27,15.71C132.91,119.52,131.39,120.98,129.56,120.95z"/>
</g>
</svg>
