<svg height='100px' width='100px'  fill="#000000" xmlns:x="http://ns.adobe.com/Extensibility/1.0/" xmlns:i="http://ns.adobe.com/AdobeIllustrator/10.0/" xmlns:graph="http://ns.adobe.com/Graphs/1.0/" xmlns="http://www.w3.org/2000/svg" xmlns:xlink="http://www.w3.org/1999/xlink" version="1.1" x="0px" y="0px" viewBox="0 0 64 64" enable-background="new 0 0 64 64" xml:space="preserve"><metadata><sfw xmlns="http://ns.adobe.com/SaveForWeb/1.0/"><slices></slices><sliceSourceBounds y="-8160" x="-8165" width="16389" height="16384" bottomLeftOrigin="true"></sliceSourceBounds><optimizationSettings><targetSettings targetSettingsID="0" fileFormat="PNG24Format"><PNG24Format transparency="true" filtered="false" interlaced="false" noMatteColor="false" matteColor="#FFFFFF"></PNG24Format></targetSettings></optimizationSettings></sfw></metadata><g><g><path d="M14,41h36c0.553,0,1-0.447,1-1V16c0-0.552-0.447-1-1-1H14c-0.552,0-1,0.448-1,1v24C13,40.553,13.448,41,14,41z M15,17h34    v22H15V17z"></path><path d="M56,47H8c-0.552,0-1,0.447-1,1s0.448,1,1,1h48c0.553,0,1-0.447,1-1S56.553,47,56,47z"></path></g></g></svg>