<?xml version="1.0" encoding="UTF-8" standalone="no"?>
<!-- Generator: Adobe Illustrator 23.0.6, SVG Export Plug-In . SVG Version: 6.00 Build 0)  -->

<svg
   xmlns:dc="http://purl.org/dc/elements/1.1/"
   xmlns:cc="http://creativecommons.org/ns#"
   xmlns:rdf="http://www.w3.org/1999/02/22-rdf-syntax-ns#"
   xmlns:svg="http://www.w3.org/2000/svg"
   xmlns="http://www.w3.org/2000/svg"
   xmlns:sodipodi="http://sodipodi.sourceforge.net/DTD/sodipodi-0.dtd"
   xmlns:inkscape="http://www.inkscape.org/namespaces/inkscape"
   version="1.1"
   id="Layer_1"
   x="0px"
   y="0px"
   viewBox="0 0 72.599997 98.601641"
   xml:space="preserve"
   sodipodi:docname="frmdb.svg"
   width="72.599998"
   height="98.601639"
   inkscape:version="0.92.4 (5da689c313, 2019-01-14)"><metadata
   id="metadata11"><rdf:RDF><cc:Work
       rdf:about=""><dc:format>image/svg+xml</dc:format><dc:type
         rdf:resource="http://purl.org/dc/dcmitype/StillImage" /><dc:title></dc:title></cc:Work></rdf:RDF></metadata><defs
   id="defs9" /><sodipodi:namedview
   pagecolor="#ffffff"
   bordercolor="#666666"
   borderopacity="1"
   objecttolerance="10"
   gridtolerance="10"
   guidetolerance="10"
   inkscape:pageopacity="0"
   inkscape:pageshadow="2"
   inkscape:window-width="1842"
   inkscape:window-height="1051"
   id="namedview7"
   showgrid="false"
   fit-margin-top="0"
   fit-margin-left="0"
   fit-margin-right="0"
   fit-margin-bottom="0"
   inkscape:zoom="1.0265333"
   inkscape:cx="40.062927"
   inkscape:cy="49.251644"
   inkscape:window-x="-9"
   inkscape:window-y="-9"
   inkscape:window-maximized="1"
   inkscape:current-layer="Layer_1" />
<style
   type="text/css"
   id="style2">
	.st0{stroke:#000000;stroke-miterlimit:10;}
</style>
<path
   class="st0"
   d="m 72.1,90 h -1 c 0,3 -14.6,7.5 -34.8,7.5 C 17.5,97.5 1.5,94.1 1.5,90 h -1 c 0,4.6 15.7,8.1 35.8,8.1 19.8,0.1 35.8,-4.4 35.8,-8.1 z M 1,90 V 8.1 M 1.5,90 V 8.1 C 1.5,7.9 1.3,7.7 1,7.7 0.7,7.7 0.5,7.9 0.5,8.1 V 90 c 0,0.2 0.2,0.4 0.5,0.4 0.3,0 0.5,-0.1 0.5,-0.4 z m 70.1,0 V 8.1 M 72.1,90 V 8.1 c 0,-0.2 -0.2,-0.4 -0.5,-0.4 -0.3,0 -0.5,0.2 -0.5,0.4 V 90 c 0,0.2 0.2,0.4 0.5,0.4 0.3,0 0.5,-0.1 0.5,-0.4 z m 0,-82.1 C 72.1,3.3 53.9,0.5 36.3,0.5 18.7,0.5 0.5,3.3 0.5,7.9 c 0,4.6 18.2,7.4 35.8,7.4 17.6,0 35.8,-2.8 35.8,-7.4 z m -1,0 c 0,3.2 -14,6.6 -34.8,6.6 -20.8,0 -34.8,-3.4 -34.8,-6.6 0,-3.2 14,-6.6 34.8,-6.6 20.8,0 34.8,3.4 34.8,6.6 z m -16.2,63 c -0.5,-0.4 -1.1,-0.6 -1.8,-0.6 -2.6,0 -4.8,1.6 -6.5,4.7 l -0.4,0.8 -0.1,-0.9 C 46,74.5 45.9,74 45.8,73.5 c -0.6,-2.2 -1.7,-3.3 -3.3,-3.3 -2,0 -4.2,1.6 -6.6,4.9 l 1.3,0.8 c 0.1,-0.1 0.2,-0.3 0.5,-0.6 0.3,-0.4 0.6,-0.8 1,-1.3 1.2,-1.4 2.6,-2 3.4,-2 0.9,0 1.4,0.8 1.6,2.5 0.1,0.7 0.2,1.3 0.2,1.8 0,0.5 0,0.9 0,1.4 v 0.8 0.3 h -0.8 -3.6 l -0.3,0.4 h 3.8 0.9 v 0.3 c -0.2,1.8 -0.8,3.3 -1.7,4.6 C 41.3,85.4 39.8,86 39,86 h -0.3 v -0.3 c -0.2,-1.1 -0.4,-1.9 -0.6,-2.5 -0.2,-0.4 -0.4,-0.6 -0.7,-0.7 -0.3,-0.1 -0.8,-0.2 -1.3,-0.2 -0.5,0 -1,0.2 -1.3,0.6 -0.4,0.4 -0.6,0.9 -0.6,1.5 0,2 1.1,2.9 3.4,2.9 1.1,0 2.3,-0.4 3.6,-1.3 1.2,-0.8 2.3,-2.1 3,-3.6 l 0.6,0.1 c 0,1.2 0.3,2.3 1,3.3 0.6,1 1.4,1.4 2.4,1.4 1.4,0 3,-0.9 4.7,-2.8 0.8,-0.9 1.6,-2 2.2,-3.1 l -0.8,-0.7 c -2,2.7 -4,4.5 -5.1,4.5 -1.6,0 -2.4,-2.2 -2.4,-5.8 V 79 h 0.3 4.4 l -0.1,-0.4 h -4.3 -0.3 v -0.3 c 0,-1.2 0.8,-2.4 1.4,-3.5 0.6,-1.1 1.4,-2 2.5,-2.7 l 0.3,-0.2 0.1,0.3 0.3,0.7 c 0.2,0.4 0.5,0.8 1,1.2 0.5,0.4 1,0.6 1.6,0.6 0.6,0 1,-0.2 1.4,-0.7 0.4,-0.5 0.5,-1.1 0.5,-1.8 -0.3,-0.4 -0.5,-0.9 -1,-1.3 z M 44,57 44.6,54.5 h -9 c 2.8,-12.2 5.7,-20.6 8.6,-25.2 0.8,-1.2 1.6,-2.1 2.6,-2.8 1,-0.7 1.8,-1 2.5,-1 0.7,0 1.7,0.2 2.9,0.6 -0.7,0.9 -1,1.9 -1,2.9 0,1 0.4,1.8 1.1,2.4 0.7,0.6 1.6,0.9 2.7,0.9 1.1,0 2,-0.3 2.8,-1 0.8,-0.7 1.2,-1.6 1.2,-2.7 0,-2 -0.7,-3.4 -2.2,-4.3 -1.5,-0.9 -3.2,-1.3 -5.3,-1.3 -4.7,0 -8.7,2 -12.1,5.9 -4,4.8 -7.6,13.3 -10.6,25.5 h -7 l -0.6,2.5 h 7.1 l -0.9,3.9 c -0.2,1 -0.6,2.5 -1,4.5 -0.4,2.1 -0.8,3.8 -1.1,5.3 -2.1,9.4 -4.4,14.4 -7,14.8 0.3,-0.6 0.5,-1.1 0.5,-1.8 0,-0.6 -0.3,-1.1 -0.8,-1.5 -0.5,-0.4 -1.1,-0.5 -1.9,-0.5 -0.8,0 -1.4,0.3 -1.9,0.8 -0.5,0.6 -0.8,1.2 -0.8,2 0,0.8 0.3,1.4 0.9,2 0.6,0.6 1.6,0.8 3,0.8 1.4,0 2.8,-0.3 4.2,-0.9 3.4,-1.5 6.1,-5 8.3,-10.5 1.1,-2.9 2.5,-7.9 4.2,-15.1 l 0.9,-3.9 C 35,57 44,57 44,57 Z M 22.7,88.7 c 4,-1.7 7.2,-5.7 9.6,-11.9 1.2,-3 2.6,-8.1 4.3,-15.4 l 0.5,-1.9 h 9 L 47.9,52 h -9.1 c 2.5,-10.2 5,-17.4 7.6,-21.3 0.6,-0.9 1.2,-1.6 1.9,-2.1 0.2,-0.1 0.4,-0.2 0.5,-0.3 0,0.3 0,0.5 0,0.8 0,1.7 0.7,3.2 2,4.3 1.2,1 2.7,1.5 4.3,1.5 1.7,0 3.2,-0.6 4.4,-1.6 1.4,-1.1 2.1,-2.8 2.1,-4.7 0,-3.6 -1.9,-5.5 -3.4,-6.4 -1.8,-1.1 -4.1,-1.6 -6.6,-1.6 -5.5,0 -10.2,2.3 -14,6.8 C 33.5,32.3 30,40.3 27,52 h -7.1 l -1.8,7.5 h 7.1 L 25,60.3 c -0.2,1 -0.5,2.4 -1,4.6 -0.4,2 -0.8,3.8 -1.1,5.3 -1.2,5.3 -2.2,8.4 -3.1,10.2 -0.1,-0.1 -0.2,-0.1 -0.2,-0.2 -0.9,-0.7 -2.1,-1 -3.3,-1 -1.5,0 -2.8,0.6 -3.8,1.6 -0.9,1 -1.4,2.3 -1.4,3.7 0,1.5 0.6,2.8 1.7,3.8 1.1,1 2.6,1.5 4.7,1.5 1.7,0 3.5,-0.4 5.2,-1.1 z m -6.6,-4.3 c 0,-0.1 0,-0.1 0.1,-0.2 z m 0.6,-0.1 z M 39.2,33.6 c -2.1,4.9 -4.1,11.6 -6.1,20.3 l -1.5,6.3 c -1.7,7 -3,12 -4.1,14.7 -0.6,1.4 -1.2,2.7 -1.8,3.9 0.7,-2.1 1.4,-4.7 2,-7.6 0.3,-1.5 0.7,-3.3 1.1,-5.4 0.4,-2.1 0.7,-3.5 1,-4.4 l 1.6,-6.9 h -0.1 c 2.5,-9.2 5.1,-16.2 7.9,-20.9 z m 16.4,-7.1 c 0.5,0.3 1,0.8 1,2.1 0,0.6 -0.2,0.7 -0.3,0.8 -0.3,0.3 -0.7,0.4 -1.2,0.4 -0.6,0 -0.9,-0.2 -1.1,-0.3 -0.2,-0.1 -0.2,-0.2 -0.2,-0.5 0,-0.4 0.2,-0.9 0.5,-1.4 l 1,-1.3 c 0.1,0.1 0.2,0.1 0.3,0.2 z"
   id="path4"
   inkscape:connector-curvature="0"
   style="stroke:#000000;stroke-miterlimit:10" />
</svg>