<?xml version="1.0" encoding="utf-8"?>
<!-- Generator: Adobe Illustrator 23.0.3, SVG Export Plug-In . SVG Version: 6.00 Build 0)  -->
<svg version="1.1" id="Layer_1" xmlns="http://www.w3.org/2000/svg" xmlns:xlink="http://www.w3.org/1999/xlink" x="0px" y="0px"
	 viewBox="0 0 150 150" style="enable-background:new 0 0 150 150;" xml:space="preserve">
<style type="text/css">
	.st0{display:none;}
	.st1{display:inline;fill:#231F20;}
	.st2{display:inline;}
	.st3{fill:#231F20;}
	.st4{display:inline;fill:none;stroke:#231F20;stroke-width:3;stroke-miterlimit:10;}
	.st5{display:inline;fill:none;}
	.st6{display:inline;fill:none;stroke:#231F20;stroke-width:2;stroke-miterlimit:10;}
	.st7{fill:none;stroke:#231F20;stroke-width:4;stroke-miterlimit:10;}
	.st8{display:inline;fill:none;stroke:#231F20;stroke-miterlimit:10;}
	.st9{fill:none;stroke:#231F20;stroke-width:3;stroke-miterlimit:10;}
	.st10{display:inline;fill:#FFFFFF;stroke:#231F20;stroke-miterlimit:10;}
	.st11{fill:#FFFFFF;}
	.st12{fill:none;stroke:#231F20;stroke-miterlimit:10;}
	.st13{display:inline;opacity:0.71;fill:#231F20;}
	.st14{display:inline;fill:#FFFFFF;stroke:#231F20;stroke-width:3;stroke-miterlimit:10;}
	.st15{display:none;fill:#231F20;}
	.st16{fill:#010101;}
	.st17{display:inline;fill:#020101;stroke:#231F20;stroke-miterlimit:10;}
	.st18{fill:#FFFFFF;stroke:#231F20;stroke-miterlimit:10;}
	.st19{fill:#020101;stroke:#231F20;stroke-miterlimit:10;}
	.st20{display:inline;fill:#FFFFFF;}
	.st21{fill:none;stroke:#231F20;stroke-width:1.5;stroke-linecap:square;stroke-miterlimit:10;}
	.st22{fill:none;stroke:#231F20;stroke-width:1.5;stroke-linecap:square;stroke-miterlimit:10;stroke-dasharray:0.0201,3.9996;}
	.st23{fill:none;stroke:#231F20;stroke-width:1.5;stroke-linecap:square;stroke-miterlimit:10;stroke-dasharray:0.0203,4.0444;}
	.st24{fill:none;stroke:#231F20;stroke-width:1.5;stroke-linecap:square;stroke-miterlimit:10;stroke-dasharray:0.0201,3.9922;}
	.st25{fill:none;stroke:#231F20;stroke-width:1.5;stroke-linecap:square;stroke-miterlimit:10;stroke-dasharray:0.0201,3.9963;}
	.st26{fill:#FFFFFF;stroke:#231F20;stroke-width:2;stroke-miterlimit:10;}
	.st27{fill:none;stroke:#231F20;stroke-width:2;stroke-linecap:square;stroke-miterlimit:10;stroke-dasharray:0,4;}
	.st28{display:inline;fill:none;stroke:#231F20;stroke-width:2;stroke-linecap:square;stroke-miterlimit:10;stroke-dasharray:0,4;}
	
		.st29{display:inline;fill:#231F20;stroke:#FFFFFF;stroke-width:2;stroke-linecap:square;stroke-miterlimit:10;stroke-dasharray:0,4;}
	.st30{display:inline;fill:none;stroke:#231F20;stroke-width:3;stroke-linecap:square;stroke-miterlimit:10;stroke-dasharray:0,4;}
</style>
<g class="st0">
	<path class="st1" d="M129.48,43.81H49.04c-2.33,0-4.22-1.89-4.22-4.22V28.28c0-2.33,1.89-4.22,4.22-4.22h80.45
		c2.33,0,4.22,1.89,4.22,4.22v11.31C133.71,41.92,131.82,43.81,129.48,43.81z"/>
	<path class="st1" d="M37.06,116.62h-14.6c-2.33,0-4.22-1.89-4.22-4.22V28.28c0-2.33,1.89-4.22,4.22-4.22h14.6
		c2.33,0,4.22,1.89,4.22,4.22v84.12C41.28,114.73,39.39,116.62,37.06,116.62z"/>
	<g class="st2">
		<path class="st3" d="M81.1,116.62H48.97c-2.3,0-4.16-1.86-4.16-4.16V98.42c0-2.3,1.86-4.16,4.16-4.16H81.1
			c2.3,0,4.16,1.86,4.16,4.16v14.03C85.26,114.76,83.39,116.62,81.1,116.62z"/>
		<path class="st3" d="M129.55,116.62H97.42c-2.3,0-4.16-1.86-4.16-4.16V98.42c0-2.3,1.86-4.16,4.16-4.16h32.13
			c2.3,0,4.16,1.86,4.16,4.16v14.03C133.71,114.76,131.84,116.62,129.55,116.62z"/>
	</g>
	<g class="st2">
		<path class="st3" d="M81.1,80.21H48.97c-2.3,0-4.16-1.86-4.16-4.16V62.02c0-2.3,1.86-4.16,4.16-4.16H81.1
			c2.3,0,4.16,1.86,4.16,4.16v14.03C85.26,78.35,83.39,80.21,81.1,80.21z"/>
		<path class="st3" d="M129.55,80.21H97.42c-2.3,0-4.16-1.86-4.16-4.16V62.02c0-2.3,1.86-4.16,4.16-4.16h32.13
			c2.3,0,4.16,1.86,4.16,4.16v14.03C133.71,78.35,131.84,80.21,129.55,80.21z"/>
	</g>
</g>
<g class="st0">
	<path class="st4" d="M130.02,116.5H27.48c-4.41,0-7.98-3.57-7.98-7.98v-76.1c0-4.41,3.57-7.98,7.98-7.98h102.54
		c4.41,0,7.98,3.57,7.98,7.98v76.1C138,112.93,134.43,116.5,130.02,116.5z"/>
	<path class="st1" d="M47.79,51.43l-17.46-0.08c-1.67-0.01-3.02-1.37-3.02-3.04L27.38,34c0.01-1.67,1.37-3.02,3.04-3.02l17.46,0.08
		c1.67,0.01,3.02,1.37,3.02,3.04l-0.06,14.32C50.82,50.09,49.46,51.44,47.79,51.43z"/>
	<path class="st1" d="M87.43,51.43l-17.46-0.08c-1.67-0.01-3.02-1.37-3.02-3.04L67.02,34c0.01-1.67,1.37-3.02,3.04-3.02l17.46,0.08
		c1.67,0.01,3.02,1.37,3.02,3.04l-0.06,14.32C90.47,50.09,89.11,51.44,87.43,51.43z"/>
	<path class="st1" d="M127.08,51.43l-17.46-0.08c-1.67-0.01-3.02-1.37-3.02-3.04L106.67,34c0.01-1.67,1.37-3.02,3.04-3.02
		l17.46,0.08c1.67,0.01,3.02,1.37,3.02,3.04l-0.06,14.32C130.12,50.09,128.75,51.44,127.08,51.43z"/>
	<g class="st2">
		<path class="st3" d="M47.79,81.13l-17.46-0.08c-1.67-0.01-3.02-1.37-3.02-3.04l0.06-14.32c0.01-1.67,1.37-3.02,3.04-3.02
			l17.46,0.08c1.67,0.01,3.02,1.37,3.02,3.04l-0.06,14.32C50.82,79.78,49.46,81.13,47.79,81.13z"/>
		<path class="st3" d="M87.43,81.13l-17.46-0.08c-1.67-0.01-3.02-1.37-3.02-3.04l0.06-14.32c0.01-1.67,1.37-3.02,3.04-3.02
			l17.46,0.08c1.67,0.01,3.02,1.37,3.02,3.04l-0.06,14.32C90.47,79.78,89.11,81.13,87.43,81.13z"/>
		<path class="st3" d="M127.08,81.13l-17.46-0.08c-1.67-0.01-3.02-1.37-3.02-3.04l0.06-14.32c0.01-1.67,1.37-3.02,3.04-3.02
			l17.46,0.08c1.67,0.01,3.02,1.37,3.02,3.04l-0.06,14.32C130.12,79.78,128.75,81.13,127.08,81.13z"/>
	</g>
	<g class="st2">
		<path class="st3" d="M47.79,110.82l-17.46-0.08c-1.67-0.01-3.02-1.37-3.02-3.04l0.06-14.32c0.01-1.67,1.37-3.02,3.04-3.02
			l17.46,0.08c1.67,0.01,3.02,1.37,3.02,3.04l-0.06,14.32C50.82,109.48,49.46,110.83,47.79,110.82z"/>
		<path class="st3" d="M87.43,110.82l-17.46-0.08c-1.67-0.01-3.02-1.37-3.02-3.04l0.06-14.32c0.01-1.67,1.37-3.02,3.04-3.02
			l17.46,0.08c1.67,0.01,3.02,1.37,3.02,3.04l-0.06,14.32C90.47,109.48,89.11,110.83,87.43,110.82z"/>
		<path class="st3" d="M127.08,110.82l-17.46-0.08c-1.67-0.01-3.02-1.37-3.02-3.04l0.06-14.32c0.01-1.67,1.37-3.02,3.04-3.02
			l17.46,0.08c1.67,0.01,3.02,1.37,3.02,3.04l-0.06,14.32C130.12,109.48,128.75,110.83,127.08,110.82z"/>
	</g>
</g>
<g class="st0">
	<path class="st4" d="M128.97,116.69H25.77c-4.44,0-8.03-3.6-8.03-8.03V32.06c0-4.44,3.6-8.03,8.03-8.03h103.19
		c4.44,0,8.03,3.6,8.03,8.03v76.59C137,113.09,133.4,116.69,128.97,116.69z"/>
	<rect x="24.12" y="31.26" class="st5" width="24.32" height="20.35"/>
	<g class="st2">
		<path class="st3" d="M45.02,51.2l-17.57-0.08c-1.68-0.01-3.04-1.38-3.03-3.06l0.06-14.41c0.01-1.68,1.38-3.04,3.06-3.03
			l17.57,0.08c1.68,0.01,3.04,1.38,3.03,3.06l-0.06,14.41C48.08,49.85,46.71,51.21,45.02,51.2z"/>
		<path class="st3" d="M45.02,80.61l-17.57-0.08c-1.68-0.01-3.04-1.38-3.03-3.06l0.06-14.41c0.01-1.68,1.38-3.04,3.06-3.03
			l17.57,0.08c1.68,0.01,3.04,1.38,3.03,3.06l-0.06,14.41C48.08,79.26,46.71,80.62,45.02,80.61z"/>
		<path class="st3" d="M45.02,110.02l-17.57-0.08c-1.68-0.01-3.04-1.38-3.03-3.06l0.06-14.41c0.01-1.68,1.38-3.04,3.06-3.03
			l17.57,0.08c1.68,0.01,3.04,1.38,3.03,3.06l-0.06,14.41C48.08,108.67,46.71,110.03,45.02,110.02z"/>
	</g>
	<g class="st2">
		<path class="st3" d="M72.44,51.2l-17.57-0.08c-1.68-0.01-3.04-1.38-3.03-3.06l0.06-14.41c0.01-1.68,1.38-3.04,3.06-3.03
			l17.57,0.08c1.68,0.01,3.04,1.38,3.03,3.06L75.5,48.16C75.5,49.85,74.13,51.21,72.44,51.2z"/>
		<path class="st3" d="M72.44,80.61l-17.57-0.08c-1.68-0.01-3.04-1.38-3.03-3.06l0.06-14.41c0.01-1.68,1.38-3.04,3.06-3.03
			l17.57,0.08c1.68,0.01,3.04,1.38,3.03,3.06L75.5,77.57C75.5,79.26,74.13,80.62,72.44,80.61z"/>
		<path class="st3" d="M72.44,110.02l-17.57-0.08c-1.68-0.01-3.04-1.38-3.03-3.06l0.06-14.41c0.01-1.68,1.38-3.04,3.06-3.03
			l17.57,0.08c1.68,0.01,3.04,1.38,3.03,3.06l-0.06,14.41C75.5,108.67,74.13,110.03,72.44,110.02z"/>
	</g>
	<g class="st2">
		<path class="st3" d="M99.86,51.2l-17.57-0.08c-1.68-0.01-3.04-1.38-3.03-3.06l0.06-14.41c0.01-1.68,1.38-3.04,3.06-3.03
			l17.57,0.08c1.68,0.01,3.04,1.38,3.03,3.06l-0.06,14.41C102.92,49.85,101.55,51.21,99.86,51.2z"/>
		<path class="st3" d="M99.86,80.61l-17.57-0.08c-1.68-0.01-3.04-1.38-3.03-3.06l0.06-14.41c0.01-1.68,1.38-3.04,3.06-3.03
			l17.57,0.08c1.68,0.01,3.04,1.38,3.03,3.06l-0.06,14.41C102.92,79.26,101.55,80.62,99.86,80.61z"/>
		<path class="st3" d="M99.86,110.02l-17.57-0.08c-1.68-0.01-3.04-1.38-3.03-3.06l0.06-14.41c0.01-1.68,1.38-3.04,3.06-3.03
			l17.57,0.08c1.68,0.01,3.04,1.38,3.03,3.06l-0.06,14.41C102.92,108.67,101.55,110.03,99.86,110.02z"/>
	</g>
	<g class="st2">
		<path class="st3" d="M127.28,51.2l-17.57-0.08c-1.68-0.01-3.04-1.38-3.03-3.06l0.06-14.41c0.01-1.68,1.38-3.04,3.06-3.03
			l17.57,0.08c1.68,0.01,3.04,1.38,3.03,3.06l-0.06,14.41C130.34,49.85,128.97,51.21,127.28,51.2z"/>
		<path class="st3" d="M127.28,80.61l-17.57-0.08c-1.68-0.01-3.04-1.38-3.03-3.06l0.06-14.41c0.01-1.68,1.38-3.04,3.06-3.03
			l17.57,0.08c1.68,0.01,3.04,1.38,3.03,3.06l-0.06,14.41C130.34,79.26,128.97,80.62,127.28,80.61z"/>
		<path class="st3" d="M127.28,110.02l-17.57-0.08c-1.68-0.01-3.04-1.38-3.03-3.06l0.06-14.41c0.01-1.68,1.38-3.04,3.06-3.03
			l17.57,0.08c1.68,0.01,3.04,1.38,3.03,3.06l-0.06,14.41C130.34,108.67,128.97,110.03,127.28,110.02z"/>
	</g>
</g>
<g class="st0">
	<path class="st6" d="M130.88,117.28H26.61c-4.48,0-8.12-3.63-8.12-8.12V31.77c0-4.48,3.63-8.12,8.12-8.12h104.27
		c4.48,0,8.12,3.63,8.12,8.12v77.39C139,113.64,135.37,117.28,130.88,117.28z"/>
	<path class="st1" d="M84.81,73.62H73.5c-2.16,0-3.92-1.75-3.92-3.92V39.8c0-2.16,1.75-3.92,3.92-3.92h11.3
		c2.16,0,3.92,1.75,3.92,3.92v29.9C88.72,71.87,86.97,73.62,84.81,73.62z"/>
	<g class="st2">
		<path class="st3" d="M48.06,105.59l-17.75-0.08c-1.7-0.01-3.07-1.39-3.07-3.09l0.06-14.56c0.01-1.7,1.39-3.07,3.09-3.07
			l17.75,0.08c1.7,0.01,3.07,1.39,3.07,3.09l-0.06,14.56C51.15,104.22,49.76,105.6,48.06,105.59z"/>
		<path class="st3" d="M87.42,105.59l-17.75-0.08c-1.7-0.01-3.07-1.39-3.07-3.09l0.06-14.56c0.01-1.7,1.39-3.07,3.09-3.07
			l17.75,0.08c1.7,0.01,3.07,1.39,3.07,3.09l-0.06,14.56C90.5,104.22,89.12,105.6,87.42,105.59z"/>
		<path class="st3" d="M127.09,105.59l-17.75-0.08c-1.7-0.01-3.07-1.39-3.07-3.09l0.06-14.56c0.01-1.7,1.39-3.07,3.09-3.07
			l17.75,0.08c1.7,0.01,3.07,1.39,3.07,3.09l-0.06,14.56C130.18,104.22,128.79,105.6,127.09,105.59z"/>
		<g>
			<path class="st3" d="M44.88,73.07h-11.3c-2.16,0-3.92-1.75-3.92-3.92v-29.9c0-2.16,1.75-3.92,3.92-3.92h11.3
				c2.16,0,3.92,1.75,3.92,3.92v29.9C48.8,71.32,47.04,73.07,44.88,73.07z"/>
			<path class="st3" d="M123.91,73.07h-11.3c-2.16,0-3.92-1.75-3.92-3.92v-29.9c0-2.16,1.75-3.92,3.92-3.92h11.3
				c2.16,0,3.92,1.75,3.92,3.92v29.9C127.83,71.32,126.07,73.07,123.91,73.07z"/>
		</g>
	</g>
</g>
<g class="st0">
	<path class="st6" d="M128.09,116.1H26.48c-4.37,0-7.91-3.54-7.91-7.91V32.78c0-4.37,3.54-7.91,7.91-7.91h101.61
		c4.37,0,7.91,3.54,7.91,7.91v75.41C136,112.56,132.46,116.1,128.09,116.1z"/>
	<path class="st1" d="M48.32,68.73H36.38c-1.85,0-3.35-1.5-3.35-3.35V43.74c0-1.85,1.5-3.35,3.35-3.35h11.94
		c1.85,0,3.35,1.5,3.35,3.35v21.64C51.67,67.23,50.17,68.73,48.32,68.73z"/>
	<path class="st1" d="M50.02,38.86H34.67c-0.91,0-1.65-0.74-1.65-1.65v-3.56c0-0.91,0.74-1.65,1.65-1.65h15.35
		c0.91,0,1.65,0.74,1.65,1.65v3.56C51.67,38.13,50.93,38.86,50.02,38.86z"/>
	<path class="st1" d="M85.41,38.86H70.06c-0.91,0-1.65-0.74-1.65-1.65v-3.56c0-0.91,0.74-1.65,1.65-1.65h15.35
		c0.91,0,1.65,0.74,1.65,1.65v3.56C87.06,38.13,86.32,38.86,85.41,38.86z"/>
	<path class="st1" d="M119.9,38.86h-15.35c-0.91,0-1.65-0.74-1.65-1.65v-3.56c0-0.91,0.74-1.65,1.65-1.65h15.35
		c0.91,0,1.65,0.74,1.65,1.65v3.56C121.54,38.13,120.8,38.86,119.9,38.86z"/>
	<path class="st1" d="M83.71,68.73H71.76c-1.85,0-3.35-1.5-3.35-3.35V43.74c0-1.85,1.5-3.35,3.35-3.35h11.94
		c1.85,0,3.35,1.5,3.35,3.35v21.64C87.06,67.23,85.56,68.73,83.71,68.73z"/>
	<path class="st1" d="M118.19,68.73h-11.94c-1.85,0-3.35-1.5-3.35-3.35V43.74c0-1.85,1.5-3.35,3.35-3.35h11.94
		c1.85,0,3.35,1.5,3.35,3.35v21.64C121.54,67.23,120.04,68.73,118.19,68.73z"/>
	<path class="st1" d="M50.02,78.94H34.67c-0.91,0-1.65-0.74-1.65-1.65v-3.56c0-0.91,0.74-1.65,1.65-1.65h15.35
		c0.91,0,1.65,0.74,1.65,1.65v3.56C51.67,78.2,50.93,78.94,50.02,78.94z"/>
	<path class="st1" d="M85.41,78.94H70.06c-0.91,0-1.65-0.74-1.65-1.65v-3.56c0-0.91,0.74-1.65,1.65-1.65h15.35
		c0.91,0,1.65,0.74,1.65,1.65v3.56C87.06,78.2,86.32,78.94,85.41,78.94z"/>
	<path class="st1" d="M119.9,78.94h-15.35c-0.91,0-1.65-0.74-1.65-1.65v-3.56c0-0.91,0.74-1.65,1.65-1.65h15.35
		c0.91,0,1.65,0.74,1.65,1.65v3.56C121.54,78.2,120.8,78.94,119.9,78.94z"/>
	<path class="st1" d="M118.19,108.95h-11.94c-1.85,0-3.35-1.5-3.35-3.35V83.97c0-1.85,1.5-3.35,3.35-3.35h11.94
		c1.85,0,3.35,1.5,3.35,3.35v21.64C121.54,107.45,120.04,108.95,118.19,108.95z"/>
	<path class="st1" d="M83.71,108.95H71.76c-1.85,0-3.35-1.5-3.35-3.35V83.97c0-1.85,1.5-3.35,3.35-3.35h11.94
		c1.85,0,3.35,1.5,3.35,3.35v21.64C87.06,107.45,85.56,108.95,83.71,108.95z"/>
	<path class="st1" d="M48.32,108.95H36.38c-1.85,0-3.35-1.5-3.35-3.35V83.97c0-1.85,1.5-3.35,3.35-3.35h11.94
		c1.85,0,3.35,1.5,3.35,3.35v21.64C51.67,107.45,50.17,108.95,48.32,108.95z"/>
</g>
<g class="st0">
	<path class="st6" d="M129.9,116.66H25.88c-4.47,0-8.1-3.63-8.1-8.1V31.35c0-4.47,3.63-8.1,8.1-8.1H129.9c4.47,0,8.1,3.63,8.1,8.1
		v77.21C138,113.03,134.37,116.66,129.9,116.66z"/>
	<g class="st2">
		<path class="st3" d="M48.42,42.56H32.71c-0.93,0-1.69-0.75-1.69-1.69v-3.64c0-0.93,0.75-1.69,1.69-1.69h15.71
			c0.93,0,1.69,0.75,1.69,1.69v3.64C50.11,41.8,49.35,42.56,48.42,42.56z"/>
		<path class="st3" d="M87.37,42.56H71.66c-0.93,0-1.69-0.75-1.69-1.69v-3.64c0-0.93,0.75-1.69,1.69-1.69h15.71
			c0.93,0,1.69,0.75,1.69,1.69v3.64C89.06,41.8,88.31,42.56,87.37,42.56z"/>
		<path class="st3" d="M123.07,42.56h-15.71c-0.93,0-1.69-0.75-1.69-1.69v-3.64c0-0.93,0.75-1.69,1.69-1.69h15.71
			c0.93,0,1.69,0.75,1.69,1.69v3.64C124.76,41.8,124,42.56,123.07,42.56z"/>
		<path class="st3" d="M123.07,104.37h-15.71c-0.93,0-1.69-0.75-1.69-1.69v-3.64c0-0.93,0.75-1.69,1.69-1.69h15.71
			c0.93,0,1.69,0.75,1.69,1.69v3.64C124.76,103.62,124,104.37,123.07,104.37z"/>
		<path class="st3" d="M87.37,104.37H71.66c-0.93,0-1.69-0.75-1.69-1.69v-3.64c0-0.93,0.75-1.69,1.69-1.69h15.71
			c0.93,0,1.69,0.75,1.69,1.69v3.64C89.06,103.62,88.31,104.37,87.37,104.37z"/>
		<path class="st3" d="M48.42,104.37H32.71c-0.93,0-1.69-0.75-1.69-1.69v-3.64c0-0.93,0.75-1.69,1.69-1.69h15.71
			c0.93,0,1.69,0.75,1.69,1.69v3.64C50.11,103.62,49.35,104.37,48.42,104.37z"/>
		<path class="st3" d="M46.2,88.68H34.93c-2.16,0-3.91-1.75-3.91-3.91V54.95c0-2.16,1.75-3.91,3.91-3.91H46.2
			c2.16,0,3.91,1.75,3.91,3.91v29.83C50.11,86.94,48.36,88.68,46.2,88.68z"/>
		<path class="st3" d="M85.15,88.68H73.88c-2.16,0-3.91-1.75-3.91-3.91V54.95c0-2.16,1.75-3.91,3.91-3.91h11.27
			c2.16,0,3.91,1.75,3.91,3.91v29.83C89.06,86.94,87.31,88.68,85.15,88.68z"/>
		<path class="st3" d="M120.85,88.68h-11.27c-2.16,0-3.91-1.75-3.91-3.91V54.95c0-2.16,1.75-3.91,3.91-3.91h11.27
			c2.16,0,3.91,1.75,3.91,3.91v29.83C124.76,86.94,123.01,88.68,120.85,88.68z"/>
	</g>
</g>
<g class="st0">
	<g class="st2">
		<path class="st7" d="M133.84,37.17v13.59c0,2.61-2.12,4.73-4.73,4.73H22.54c-2.61,0-4.73-2.12-4.73-4.73V37.17
			c0-2.61,2.12-4.73,4.73-4.73h106.57C131.72,32.44,133.84,34.56,133.84,37.17z"/>
		<path class="st7" d="M133.84,68.71v13.59c0,2.61-2.12,4.73-4.73,4.73H22.54c-2.61,0-4.73-2.12-4.73-4.73V68.71
			c0-2.61,2.12-4.73,4.73-4.73h106.57C131.72,63.98,133.84,66.09,133.84,68.71z"/>
		<path class="st7" d="M133.84,100.24v13.59c0,2.61-2.12,4.73-4.73,4.73H22.54c-2.61,0-4.73-2.12-4.73-4.73v-13.59
			c0-2.61,2.12-4.73,4.73-4.73h106.57C131.72,95.51,133.84,97.63,133.84,100.24z"/>
	</g>
	<path class="st6" d="M132.07,126H19.58c-4.84,0-8.76-3.92-8.76-8.76V33.76c0-4.84,3.92-8.76,8.76-8.76h112.49
		c4.84,0,8.76,3.92,8.76,8.76v83.49C140.82,122.08,136.9,126,132.07,126z"/>
</g>
<g class="st0">
	<g class="st2">
		<path class="st3" d="M64.55,117.18H33.29c-3.16,0-5.71-2.56-5.71-5.71V82.94c0-3.16,2.56-5.71,5.71-5.71h31.26
			c3.16,0,5.71,2.56,5.71,5.71v28.52C70.27,114.62,67.71,117.18,64.55,117.18z"/>
		<path class="st3" d="M115.69,117.18H84.43c-3.16,0-5.71-2.56-5.71-5.71V82.94c0-3.16,2.56-5.71,5.71-5.71h31.26
			c3.16,0,5.71,2.56,5.71,5.71v28.52C121.41,114.62,118.85,117.18,115.69,117.18z"/>
	</g>
	<g class="st2">
		<path class="st3" d="M64.55,66.71H33.29c-3.16,0-5.71-2.56-5.71-5.71V32.47c0-3.16,2.56-5.71,5.71-5.71h31.26
			c3.16,0,5.71,2.56,5.71,5.71v28.52C70.27,64.15,67.71,66.71,64.55,66.71z"/>
		<path class="st3" d="M115.69,66.71H84.43c-3.16,0-5.71-2.56-5.71-5.71V32.47c0-3.16,2.56-5.71,5.71-5.71h31.26
			c3.16,0,5.71,2.56,5.71,5.71v28.52C121.41,64.15,118.85,66.71,115.69,66.71z"/>
	</g>
	<path class="st6" d="M130.74,122H18.25c-4.84,0-8.76-3.92-8.76-8.76V29.76c0-4.84,3.92-8.76,8.76-8.76h112.49
		c4.84,0,8.76,3.92,8.76,8.76v83.49C139.49,118.08,135.57,122,130.74,122z"/>
</g>
<g class="st0">
	<path class="st8" d="M131.74,122.5H19.26c-4.84,0-8.76-3.92-8.76-8.76V30.26c0-4.84,3.92-8.76,8.76-8.76h112.49
		c4.84,0,8.76,3.92,8.76,8.76v83.49C140.5,118.58,136.58,122.5,131.74,122.5z"/>
	<path class="st4" d="M41.53,51.12l-19.15-0.08c-1.83-0.01-3.32-1.5-3.31-3.34l0.07-15.71c0.01-1.83,1.5-3.32,3.34-3.31l19.15,0.08
		c1.83,0.01,3.32,1.5,3.31,3.34l-0.07,15.71C44.86,49.64,43.37,51.12,41.53,51.12z"/>
	<path class="st4" d="M85.03,51.12l-19.15-0.08c-1.83-0.01-3.32-1.5-3.31-3.34l0.07-15.71c0.01-1.83,1.5-3.32,3.34-3.31l19.15,0.08
		c1.83,0.01,3.32,1.5,3.31,3.34l-0.07,15.71C88.36,49.64,86.86,51.12,85.03,51.12z"/>
	<path class="st4" d="M128.52,51.12l-19.15-0.08c-1.83-0.01-3.32-1.5-3.31-3.34l0.07-15.71c0.01-1.83,1.5-3.32,3.34-3.31l19.15,0.08
		c1.83,0.01,3.32,1.5,3.31,3.34l-0.07,15.71C131.85,49.64,130.36,51.12,128.52,51.12z"/>
	<g class="st2">
		<path class="st9" d="M41.53,83.69l-19.15-0.08c-1.83-0.01-3.32-1.5-3.31-3.34l0.07-15.71c0.01-1.83,1.5-3.32,3.34-3.31l19.15,0.08
			c1.83,0.01,3.32,1.5,3.31,3.34l-0.07,15.71C44.86,82.22,43.37,83.7,41.53,83.69z"/>
		<path class="st9" d="M85.03,83.69l-19.15-0.08c-1.83-0.01-3.32-1.5-3.31-3.34l0.07-15.71c0.01-1.83,1.5-3.32,3.34-3.31l19.15,0.08
			c1.83,0.01,3.32,1.5,3.31,3.34l-0.07,15.71C88.36,82.22,86.86,83.7,85.03,83.69z"/>
		<path class="st9" d="M128.52,83.69l-19.15-0.08c-1.83-0.01-3.32-1.5-3.31-3.34l0.07-15.71c0.01-1.83,1.5-3.32,3.34-3.31
			l19.15,0.08c1.83,0.01,3.32,1.5,3.31,3.34l-0.07,15.71C131.85,82.22,130.36,83.7,128.52,83.69z"/>
	</g>
	<g class="st2">
		<path class="st9" d="M41.53,116.27l-19.15-0.08c-1.83-0.01-3.32-1.5-3.31-3.34l0.07-15.71c0.01-1.83,1.5-3.32,3.34-3.31
			l19.15,0.08c1.83,0.01,3.32,1.5,3.31,3.34l-0.07,15.71C44.86,114.8,43.37,116.28,41.53,116.27z"/>
		<path class="st9" d="M85.03,116.27l-19.15-0.08c-1.83-0.01-3.32-1.5-3.31-3.34l0.07-15.71c0.01-1.83,1.5-3.32,3.34-3.31
			l19.15,0.08c1.83,0.01,3.32,1.5,3.31,3.34l-0.07,15.71C88.36,114.8,86.86,116.28,85.03,116.27z"/>
		<path class="st9" d="M128.52,116.27l-19.15-0.08c-1.83-0.01-3.32-1.5-3.31-3.34l0.07-15.71c0.01-1.83,1.5-3.32,3.34-3.31
			l19.15,0.08c1.83,0.01,3.32,1.5,3.31,3.34l-0.07,15.71C131.85,114.8,130.36,116.28,128.52,116.27z"/>
	</g>
</g>
<g class="st0">
	<g class="st2">
		<path class="st3" d="M39.5,124.72h-3.4c-0.88,0-1.6-0.72-1.6-1.6V80.04c0-0.88,0.72-1.6,1.6-1.6h3.4c0.88,0,1.6,0.72,1.6,1.6
			v43.09C41.1,124.01,40.38,124.72,39.5,124.72z"/>
		<path class="st3" d="M13.93,124.72H9.97c-0.73,0-1.32-0.59-1.32-1.32V94.62c0-0.73,0.59-1.32,1.32-1.32h3.96
			c0.73,0,1.32,0.59,1.32,1.32v28.79C15.24,124.14,14.65,124.72,13.93,124.72z"/>
		<path class="st3" d="M26.39,124.72h-3.03c-0.98,0-1.78-0.8-1.78-1.78V68.83c0-0.98,0.8-1.78,1.78-1.78h3.03
			c0.98,0,1.78,0.8,1.78,1.78v54.11C28.17,123.93,27.37,124.72,26.39,124.72z"/>
		<path class="st3" d="M65.17,124.72h-3.03c-0.98,0-1.78-0.8-1.78-1.78V68.83c0-0.98,0.8-1.78,1.78-1.78h3.03
			c0.98,0,1.78,0.8,1.78,1.78v54.11C66.95,123.93,66.15,124.72,65.17,124.72z"/>
		<path class="st3" d="M77.85,124.72h-2.54c-1.12,0-2.03-0.91-2.03-2.03V52.35c0-1.12,0.91-2.03,2.03-2.03h2.54
			c1.12,0,2.03,0.91,2.03,2.03v70.34C79.88,123.82,78.97,124.72,77.85,124.72z"/>
		<path class="st3" d="M52.04,124.72h-2.63c-1.09,0-1.98-0.89-1.98-1.98V55.52c0-1.09,0.89-1.98,1.98-1.98h2.63
			c1.09,0,1.98,0.89,1.98,1.98v67.23C54.02,123.84,53.14,124.72,52.04,124.72z"/>
	</g>
	<path class="st10" d="M8.67,61.28"/>
	<g class="st2">
		<polyline class="st11" points="7.16,53.31 19.24,31.82 36.48,49.5 53.12,29.36 66.2,48.8 80.58,26.28 		"/>
		<g>
			<polyline class="st12" points="8.8,50.38 19.24,31.82 36.48,49.5 53.12,29.36 66.2,48.8 77.33,31.36 			"/>
			<g>
				<path class="st3" d="M11.97,51.96c-0.96,1.7-3.11,2.3-4.81,1.35c-1.7-0.96-2.3-3.11-1.35-4.81c0.96-1.7,3.11-2.3,4.81-1.35
					C12.32,48.1,12.93,50.26,11.97,51.96z"/>
			</g>
			<g>
				<path class="st3" d="M80.58,26.28c-0.64,2.96-1.02,6.9-0.59,9.76l-3.08-4.01l-4.93-1.11C74.75,30.1,78.17,28.1,80.58,26.28z"/>
			</g>
		</g>
	</g>
	<path class="st13" d="M144.35,69.46c0,4.47-1.16,8.68-3.21,12.32l-22.01-6.28V44.24C133.06,44.24,144.35,55.53,144.35,69.46z"/>
	<path class="st1" d="M138.29,81.78c-4.32,7.7-12.56,12.9-22.01,12.9V75.5L138.29,81.78z"/>
	<path class="st1" d="M116.28,44.24v50.44c-13.93,0-25.22-11.29-25.22-25.22c0-0.38,0.01-0.76,0.03-1.14
		C91.68,54.92,102.73,44.24,116.28,44.24z"/>
	<line class="st14" x1="119.81" y1="116.18" x2="143.68" y2="116.18"/>
	<line class="st14" x1="95.3" y1="116.18" x2="114.92" y2="116.18"/>
	<line class="st14" x1="95.3" y1="123.34" x2="144.69" y2="123.34"/>
</g>
<path class="st15" d="M129.77,109.5H22.81c-2.33,0-4.22-1.89-4.22-4.22V29.5c0-2.33,1.89-4.22,4.22-4.22h106.96
	c2.33,0,4.22,1.89,4.22,4.22v75.77C133.99,107.61,132.1,109.5,129.77,109.5z"/>
<g class="st0">
	<g class="st2">
		<g>
			<path d="M76.31,43.27c6.73,0,13.46,0.01,20.19,0c2.39,0,4.44,1.57,5.07,3.79c0.11,0.39,0.19,0.79,0.19,1.2
				c0,12.82,0,25.64-0.01,38.45c0,1-0.42,1.9-1.01,2.7c-0.87,1.18-2.07,1.82-3.5,2.07c-0.29,0.05-0.59,0.04-0.89,0.04
				c-13.35,0-26.69,0-40.04,0c-1.54,0-2.89-0.47-3.98-1.57c-0.79-0.8-1.29-1.77-1.44-2.91c-0.04-0.32-0.05-0.64-0.05-0.95
				c0-12.61-0.02-25.22,0.01-37.83c0-1.53,0.7-2.8,1.9-3.8c0.73-0.6,1.55-0.95,2.46-1.13c0.29-0.06,0.59-0.06,0.89-0.06
				C62.82,43.27,69.57,43.27,76.31,43.27z"/>
			<path class="st11" d="M54.85,67.66c0-5.24,0.01-10.48-0.01-15.71c0-0.83,0.35-1.39,0.97-1.84c0.95-0.68,2.05-1.02,3.15-1.31
				c1.73-0.47,3.5-0.76,5.29-0.99c2.15-0.27,4.3-0.44,6.46-0.56c2.52-0.14,5.05-0.16,7.57-0.11c1.68,0.03,3.36,0.11,5.04,0.25
				c1.46,0.12,2.92,0.24,4.37,0.43c2.37,0.32,4.74,0.7,6.98,1.59c0.73,0.29,1.44,0.64,1.93,1.29c0.23,0.31,0.34,0.66,0.34,1.05
				c0,10.6,0,21.2,0,31.81c0,0.89-0.57,1.41-1.26,1.82c-1.09,0.66-2.3,1-3.52,1.3c-1.59,0.39-3.21,0.64-4.83,0.84
				c-2.26,0.28-4.53,0.46-6.8,0.55c-1.82,0.07-3.64,0.16-5.47,0.12c-2.08-0.05-4.17-0.09-6.25-0.25c-1.33-0.1-2.67-0.2-3.99-0.37
				c-2.59-0.33-5.17-0.7-7.63-1.66c-0.75-0.29-1.48-0.65-1.99-1.32c-0.25-0.33-0.34-0.7-0.34-1.11
				C54.85,78.21,54.85,72.94,54.85,67.66z"/>
			<path d="M56.44,53.69c1.6,0.78,3.29,1.15,4.97,1.48c1.14,0.22,2.29,0.37,3.45,0.51c1.36,0.17,2.73,0.29,4.09,0.38
				c1.2,0.08,2.4,0.13,3.6,0.17c1.66,0.06,3.33,0.09,4.99,0.05c1.87-0.05,3.73-0.1,5.59-0.25c1.12-0.09,2.24-0.16,3.35-0.3
				c2.76-0.34,5.51-0.72,8.13-1.72c0.08-0.03,0.17-0.07,0.25-0.11c0.46-0.2,0.46-0.2,0.46,0.29c0,9.67,0,19.34,0.01,29.01
				c0,0.36-0.13,0.58-0.41,0.76c-0.92,0.57-1.95,0.86-2.98,1.12c-1.66,0.43-3.36,0.69-5.06,0.9c-2.25,0.27-4.51,0.44-6.77,0.52
				c-1.72,0.06-3.44,0.14-5.16,0.1c-1.89-0.04-3.78-0.09-5.66-0.21c-1.93-0.12-3.85-0.31-5.76-0.6c-1.86-0.28-3.71-0.61-5.49-1.25
				c-0.47-0.17-0.93-0.37-1.33-0.67c-0.17-0.12-0.28-0.25-0.28-0.5c0.01-9.83,0.01-19.66,0.01-29.5
				C56.44,53.84,56.44,53.79,56.44,53.69z"/>
			<path d="M75.92,48.72c1.93-0.05,3.85,0.04,5.77,0.15c1.52,0.08,3.03,0.21,4.54,0.39c1.85,0.21,3.7,0.47,5.51,0.91
				c1.12,0.27,2.24,0.56,3.23,1.2c0.45,0.29,0.45,0.36,0.01,0.66c-0.75,0.51-1.61,0.77-2.46,1.01c-1.54,0.42-3.12,0.69-4.7,0.92
				c-1.4,0.2-2.81,0.35-4.22,0.46c-1.53,0.11-3.06,0.19-4.59,0.23c-1.44,0.04-2.89,0.08-4.33,0.05c-1.99-0.04-3.98-0.1-5.97-0.26
				c-1.29-0.1-2.57-0.2-3.85-0.36c-2.31-0.3-4.61-0.63-6.82-1.44c-0.5-0.18-0.99-0.4-1.41-0.74c-0.2-0.16-0.18-0.27,0.01-0.41
				c0.58-0.46,1.26-0.7,1.96-0.92c1.43-0.46,2.9-0.73,4.38-0.98c1.68-0.28,3.37-0.46,5.06-0.6c1.37-0.11,2.74-0.19,4.11-0.23
				C73.4,48.74,74.66,48.69,75.92,48.72z"/>
			<path class="st11" d="M64.93,68.01c-0.05-0.32,0.14-0.44,0.35-0.55c0.47-0.24,0.99-0.34,1.51-0.34c0.27,0,0.35-0.09,0.36-0.34
				c0.04-0.9,0.11-1.8,0.25-2.69c0.24-1.52,0.56-3.01,1.55-4.26c1.26-1.59,3.61-2.23,5.28-1.39c0.56,0.28,1,0.69,1.13,1.33
				c0.1,0.48-0.03,0.87-0.4,1.19c-0.35,0.3-1.03,0.26-1.34,0.14c-0.16-0.06-0.1-0.18-0.06-0.28c0.09-0.23,0.18-0.46,0.18-0.72
				c-0.01-0.68-0.39-1.14-1.05-1.26c-1.18-0.21-2.14,0.26-2.75,1.32c-0.43,0.74-0.61,1.56-0.75,2.39c-0.23,1.42-0.25,2.85-0.32,4.27
				c-0.01,0.29,0.08,0.3,0.29,0.29c0.91-0.01,1.81,0,2.72,0c0.14,0,0.32-0.06,0.34,0.16c0.02,0.21,0.07,0.45-0.19,0.56
				c-0.16,0.07-0.32,0.1-0.5,0.1c-0.79,0.01-1.58-0.04-2.37-0.13c-0.13-0.02-0.31-0.1-0.32,0.19c-0.06,1.54-0.13,3.09-0.26,4.63
				c-0.15,1.8-0.34,3.58-0.78,5.33c-0.39,1.55-0.98,3-2.19,4.13c-1.19,1.11-3.24,1.35-4.54,0.53c-0.19-0.12-0.35-0.26-0.47-0.45
				c-0.4-0.67,0.1-1.23,0.69-1.34c0.18-0.03,0.23,0.1,0.32,0.21c0.4,0.55,0.9,0.91,1.58,1.04c0.99,0.19,1.72-0.2,2.27-0.98
				c0.59-0.83,0.85-1.8,1.03-2.78c0.35-1.86,0.46-3.74,0.51-5.62c0.03-1.1,0.05-2.2,0.07-3.3c0.01-0.46,0.02-0.92,0.04-1.37
				c0.01-0.15-0.02-0.22-0.2-0.22C66.26,67.8,65.6,67.8,64.93,68.01z"/>
			<path class="st11" d="M81.02,75.99c-0.5,0.84-0.96,1.66-1.62,2.34c-0.36,0.37-0.75,0.7-1.27,0.82c-0.41,0.1-0.92-0.06-1.11-0.35
				c-0.19-0.28-0.16-0.75,0.07-1.06c0.05-0.07,0.08-0.16,0.24-0.1c1.04,0.42,1.81-0.01,2.45-0.81c0.03-0.04,0.06-0.07,0.09-0.11
				c0.32-0.42,0.67-0.84,0.82-1.33c0.16-0.51-0.26-0.96-0.41-1.45c-0.15-0.51-0.34-1-0.55-1.49c-0.34-0.8-0.78-1.01-1.63-0.82
				c-0.16,0.03-0.42,0.23-0.49-0.14c-0.02-0.11,0.01-0.17,0.11-0.21c0.68-0.2,1.35-0.48,2.07-0.52c0.31-0.02,0.54,0.12,0.72,0.38
				c0.22,0.31,0.34,0.66,0.47,1.01c0.2,0.56,0.41,1.12,0.64,1.72c0.33-0.59,0.61-1.16,0.97-1.68c0.36-0.52,0.74-1.02,1.33-1.31
				c0.29-0.14,0.57-0.19,0.89-0.13c0.36,0.07,0.61,0.24,0.72,0.6c0.13,0.4-0.01,0.73-0.29,1.02c-0.09,0.09-0.14,0.12-0.27,0.01
				c-0.53-0.43-1.08-0.41-1.61,0.04c-0.67,0.57-1.06,1.33-1.46,2.09c-0.03,0.07-0.02,0.13,0.01,0.2c0.33,0.84,0.62,1.7,1.07,2.49
				c0.56,0.98,1.18,1.21,2.27,0.9c0.12-0.03,0.29-0.23,0.4,0.02c0.11,0.24-0.12,0.29-0.25,0.37c-0.63,0.35-1.29,0.61-2.03,0.62
				c-0.56,0.01-0.92-0.28-1.21-0.7c-0.46-0.68-0.73-1.45-1.04-2.21C81.09,76.14,81.06,76.08,81.02,75.99z"/>
			<path class="st11" d="M72.39,74.14c0.04-3.88,1.24-7.27,3.69-10.2c0.08-0.1,0.13-0.38,0.41-0.18c0.22,0.16,0.19,0.27,0.05,0.45
				c-1.46,1.88-2.35,4.01-2.81,6.34c-0.26,1.31-0.34,2.64-0.26,3.96c0.15,2.52,0.8,4.88,2.46,6.87c0.26,0.31,0.53,0.6,0.86,0.84
				c0.2,0.15,0.17,0.26-0.01,0.4c-0.33,0.25-0.69,0.22-1.03,0.05c-0.55-0.27-0.93-0.74-1.27-1.22c-0.93-1.32-1.44-2.81-1.78-4.38
				C72.49,76.07,72.41,75.08,72.39,74.14z"/>
			<path class="st11" d="M90.35,72.5c-0.07,3.73-1.27,7.16-3.78,10.11c-0.14,0.16-0.22,0.17-0.38,0.03
				c-0.15-0.13-0.17-0.19-0.04-0.36c1.36-1.73,2.24-3.7,2.74-5.84c0.29-1.25,0.44-2.52,0.4-3.8c-0.07-2.46-0.56-4.82-1.99-6.9
				c-0.39-0.57-0.85-1.08-1.38-1.53c-0.19-0.16-0.15-0.25,0-0.37c0.28-0.22,0.59-0.23,0.9-0.12c0.57,0.2,0.93,0.65,1.28,1.1
				c0.99,1.31,1.52,2.82,1.88,4.4C90.23,70.27,90.35,71.32,90.35,72.5z"/>
		</g>
	</g>
</g>
<path class="st15" d="M129.26,108.69H22.3c-2.33,0-4.22-1.89-4.22-4.22V28.7c0-2.33,1.89-4.22,4.22-4.22h106.96
	c2.33,0,4.22,1.89,4.22,4.22v75.77C133.49,106.8,131.6,108.69,129.26,108.69z"/>
<g class="st0">
	<g class="st2">
		<path class="st16" d="M54.02,66.56c0-5.88,0.01-11.76-0.01-17.63c0-0.88,0.38-1.48,1.04-1.96c1.09-0.8,2.37-1.17,3.65-1.52
			c1.63-0.46,3.31-0.75,4.98-0.99c1.5-0.21,3.01-0.38,4.53-0.49c1.85-0.14,3.71-0.23,5.56-0.32c2.15-0.09,4.29-0.07,6.44-0.05
			c1.78,0.01,3.56,0.11,5.34,0.23c1.58,0.11,3.16,0.26,4.73,0.46c2.53,0.33,5.06,0.72,7.49,1.54c0.88,0.3,1.74,0.65,2.49,1.23
			c0.6,0.47,0.91,1.06,0.91,1.83c0,11.68-0.02,23.36,0.01,35.04c0,1.24-0.54,2.01-1.55,2.58c-1.2,0.68-2.5,1.06-3.82,1.38
			c-1.59,0.39-3.2,0.65-4.82,0.86c-1.8,0.24-3.6,0.42-5.41,0.54c-1.73,0.12-3.45,0.18-5.18,0.24c-1.63,0.05-3.26,0.08-4.89,0.03
			c-1.81-0.05-3.61-0.11-5.42-0.21c-1.42-0.08-2.83-0.21-4.24-0.38c-2.98-0.35-5.95-0.77-8.8-1.77c-0.75-0.26-1.48-0.6-2.11-1.09
			c-0.56-0.44-0.91-0.99-0.91-1.75C54.02,78.42,54.02,72.49,54.02,66.56z"/>
		<path class="st11" d="M55.79,50.94c1.2,0.59,2.42,0.95,3.67,1.25c1.33,0.31,2.67,0.55,4.03,0.75c1.17,0.18,2.35,0.33,3.53,0.44
			c1.17,0.11,2.34,0.19,3.52,0.26c2.91,0.18,5.82,0.26,8.73,0.21c2.01-0.03,4.02-0.11,6.03-0.24c1.61-0.1,3.21-0.25,4.8-0.46
			c2.86-0.37,5.71-0.79,8.42-1.84c0.26-0.1,0.64-0.35,0.74-0.27c0.21,0.18,0.08,0.55,0.08,0.83c0,10.69,0,21.37,0.01,32.06
			c0,0.46-0.16,0.73-0.54,0.96c-1.04,0.61-2.18,0.92-3.33,1.22c-1.63,0.43-3.3,0.69-4.97,0.91c-1.35,0.18-2.71,0.3-4.07,0.41
			c-2.42,0.2-4.84,0.25-7.26,0.34c-1.97,0.08-3.93-0.04-5.89-0.06c-1.7-0.02-3.4-0.14-5.1-0.3c-3.08-0.29-6.16-0.64-9.16-1.46
			c-1.02-0.28-2.03-0.59-2.92-1.19c-0.24-0.16-0.35-0.35-0.35-0.66c0.01-10.92,0.01-21.84,0.01-32.76
			C55.79,51.23,55.79,51.1,55.79,50.94z"/>
		<path class="st11" d="M77.39,52.07c-1.38,0.07-2.93-0.05-4.48-0.09c-1.62-0.04-3.25-0.15-4.87-0.3c-2.62-0.25-5.23-0.55-7.8-1.15
			c-1.31-0.31-2.63-0.61-3.81-1.31c-0.86-0.51-0.77-0.55,0-1.02c1.04-0.64,2.23-0.92,3.4-1.21c1.5-0.38,3.03-0.62,4.56-0.83
			c1.02-0.14,2.05-0.23,3.08-0.34c1.68-0.17,3.37-0.25,5.05-0.36c1.14-0.08,2.28-0.07,3.43-0.08c1.32-0.01,2.65-0.03,3.97,0
			c1.81,0.05,3.61,0.12,5.42,0.23c1.38,0.09,2.75,0.21,4.12,0.38c2.69,0.34,5.37,0.71,7.94,1.61c0.57,0.2,1.12,0.45,1.63,0.78
			c0.39,0.26,0.39,0.36,0.02,0.63c-0.85,0.63-1.85,0.92-2.83,1.19c-1.56,0.44-3.15,0.73-4.75,0.95c-1.62,0.23-3.24,0.41-4.86,0.54
			c-1.3,0.11-2.6,0.2-3.91,0.25C80.98,52.02,79.28,52.1,77.39,52.07z"/>
		<path class="st16" d="M65.3,66.98c-0.07-0.35,0.15-0.5,0.39-0.62c0.55-0.28,1.15-0.38,1.76-0.38c0.23,0,0.29-0.04,0.31-0.29
			c0.09-1.2,0.16-2.39,0.37-3.58c0.27-1.54,0.65-3.04,1.67-4.3c1.38-1.71,3.68-2.46,5.71-1.64c0.73,0.29,1.27,0.77,1.47,1.57
			c0.21,0.86-0.46,1.65-1.22,1.59c-0.08-0.01-0.15,0-0.23,0c-0.61-0.01-0.66-0.07-0.47-0.64c0.17-0.53,0.23-1.06-0.2-1.5
			c-0.47-0.48-1.07-0.61-1.72-0.53c-1.65,0.2-2.33,1.38-2.75,2.77c-0.41,1.35-0.51,2.75-0.58,4.15c-0.03,0.73-0.06,1.46-0.1,2.19
			c-0.02,0.28,0.18,0.19,0.31,0.19c1.03,0.01,2.05,0,3.08,0c0.14,0,0.34-0.07,0.36,0.16c0.02,0.23,0.1,0.5-0.19,0.64
			c-0.17,0.09-0.35,0.13-0.55,0.13c-0.91,0.01-1.82-0.03-2.72-0.15c-0.15-0.02-0.31-0.06-0.32,0.23c-0.06,1.54-0.11,3.07-0.23,4.6
			c-0.18,2.29-0.39,4.59-1,6.82c-0.43,1.59-1.05,3.09-2.29,4.26c-1.07,1.01-2.34,1.38-3.79,1.16c-0.67-0.1-1.28-0.3-1.76-0.8
			c-0.28-0.29-0.39-0.64-0.25-1.02c0.14-0.37,0.45-0.57,0.83-0.66c0.21-0.06,0.31,0.09,0.42,0.24c0.52,0.74,1.24,1.17,2.15,1.21
			c1.05,0.04,1.78-0.53,2.3-1.39c0.62-1.02,0.89-2.16,1.08-3.32c0.32-1.95,0.42-3.91,0.51-5.88c0.05-1.18,0-2.36,0.06-3.54
			c0.03-0.55,0.03-1.1,0.05-1.65c0.01-0.18-0.01-0.27-0.24-0.27C66.78,66.75,66.04,66.73,65.3,66.98z"/>
		<path class="st16" d="M83.32,75.91c-0.43,0.74-0.84,1.47-1.37,2.12c-0.5,0.61-1.02,1.21-1.84,1.42c-0.45,0.11-1.04-0.05-1.26-0.36
			c-0.21-0.3-0.19-0.83,0.05-1.18c0.06-0.09,0.1-0.21,0.29-0.14c1.41,0.49,2.05-0.08,2.87-1.1c0.03-0.04,0.07-0.08,0.1-0.12
			c0.96-1.29,0.96-1.29,0.38-2.8c-0.23-0.61-0.42-1.24-0.68-1.84c-0.36-0.87-0.88-1.1-1.8-0.87c-0.14,0.03-0.27,0.02-0.41,0.06
			c-0.1,0.03-0.08-0.15-0.13-0.22c-0.06-0.1-0.02-0.19,0.1-0.23c0.73-0.23,1.45-0.5,2.22-0.59c0.51-0.05,0.83,0.21,1.05,0.64
			c0.42,0.82,0.64,1.72,1,2.56c0.03,0.07,0.06,0.14,0.11,0.25c0.36-0.63,0.67-1.25,1.06-1.83c0.33-0.49,0.69-0.95,1.18-1.3
			c0.64-0.47,1.47-0.49,1.92-0.03c0.48,0.49,0.23,1.23-0.15,1.55c-0.09,0.08-0.15,0.07-0.25-0.01c-0.67-0.52-1.3-0.46-1.91,0.11
			c-0.68,0.63-1.09,1.43-1.52,2.22c-0.05,0.09-0.05,0.16-0.01,0.25c0.38,0.96,0.71,1.95,1.24,2.85c0.63,1.08,1.27,1.26,2.48,0.96
			c0.06-0.02,0.13-0.02,0.18-0.05c0.11-0.05,0.21-0.12,0.28,0.04c0.07,0.15,0.05,0.26-0.11,0.35c-0.83,0.47-1.68,0.84-2.67,0.77
			c-0.53-0.03-0.85-0.37-1.12-0.77c-0.52-0.77-0.83-1.63-1.17-2.49C83.4,76.08,83.36,76.01,83.32,75.91z"/>
		<path class="st16" d="M73.66,73.93c0.03-4.21,1.26-7.86,3.75-11.07c0.15-0.19,0.32-0.37,0.47-0.56c0.13-0.16,0.22-0.2,0.42-0.05
			c0.23,0.17,0.16,0.27,0.04,0.42c-1.54,1.94-2.5,4.14-3.07,6.53c-0.4,1.69-0.52,3.41-0.41,5.14c0.15,2.39,0.73,4.67,2.07,6.7
			c0.46,0.69,0.98,1.35,1.66,1.85c0.23,0.17,0.17,0.3-0.03,0.44c-0.44,0.32-1.09,0.22-1.62-0.26c-0.98-0.88-1.61-1.99-2.1-3.19
			c-0.57-1.41-0.92-2.88-1.09-4.39C73.69,74.91,73.77,74.34,73.66,73.93z"/>
		<path class="st16" d="M93.78,71.7c-0.07,4.28-1.31,7.98-3.89,11.21c-0.09,0.11-0.21,0.2-0.27,0.32c-0.17,0.31-0.34,0.31-0.58,0.06
			c-0.11-0.12-0.1-0.15-0.02-0.26c1.75-2.21,2.8-4.72,3.29-7.48c0.2-1.12,0.33-2.25,0.29-3.39c-0.1-2.75-0.63-5.39-2.23-7.72
			c-0.45-0.65-0.97-1.23-1.56-1.74c-0.21-0.18-0.13-0.26,0.01-0.39c0.38-0.34,1.05-0.27,1.57,0.16c0.97,0.81,1.57,1.87,2.07,3
			c0.66,1.49,1.03,3.06,1.22,4.67C93.74,70.71,93.83,71.29,93.78,71.7z"/>
	</g>
</g>
<g class="st0">
	<path class="st1" d="M86.82,116.48h-19.8c-2.63,0-4.76-2.13-4.76-4.76V28.68c0-2.63,2.13-4.76,4.76-4.76h19.8
		c2.63,0,4.76,2.13,4.76,4.76v83.03C91.59,114.35,89.45,116.48,86.82,116.48z"/>
	<path class="st1" d="M115.45,110.03h-11.9c-1.97,0-3.56-1.59-3.56-3.56V33.92c0-1.97,1.59-3.56,3.56-3.56h11.9
		c1.97,0,3.56,1.59,3.56,3.56v72.56C119.01,108.44,117.42,110.03,115.45,110.03z"/>
	<path class="st1" d="M49.59,110.03h-11.9c-1.97,0-3.56-1.59-3.56-3.56V33.92c0-1.97,1.59-3.56,3.56-3.56h11.9
		c1.97,0,3.56,1.59,3.56,3.56v72.56C53.15,108.44,51.55,110.03,49.59,110.03z"/>
</g>
<g class="st0">
	<path class="st1" d="M128.41,115.11l-106.96-0.91c-2.33-0.02-4.21-1.93-4.19-4.26l0.64-75.77c0.02-2.33,1.93-4.21,4.26-4.19
		l106.96,0.91c2.33,0.02,4.21,1.93,4.19,4.26l-0.64,75.77C132.65,113.26,130.74,115.13,128.41,115.11z"/>
	<path class="st6" d="M131.1,123.53l-112.48-0.96c-4.84-0.04-8.72-3.99-8.68-8.83l0.71-83.48c0.04-4.84,3.99-8.72,8.83-8.68
		l112.48,0.96c4.84,0.04,8.72,3.99,8.68,8.83l-0.71,83.48C139.89,119.68,135.94,123.57,131.1,123.53z"/>
</g>
<g class="st0">
	<path class="st1" d="M128.55,109.37H21.59c-2.33,0-4.22-1.89-4.22-4.22V29.38c0-2.33,1.89-4.22,4.22-4.22h106.96
		c2.33,0,4.22,1.89,4.22,4.22v75.77C132.77,107.48,130.88,109.37,128.55,109.37z"/>
</g>
<g class="st0">
	<path class="st8" d="M126.71,112.25H19.75c-2.33,0-4.22-1.89-4.22-4.22V32.25c0-2.33,1.89-4.22,4.22-4.22h106.96
		c2.33,0,4.22,1.89,4.22,4.22v75.77C130.93,110.35,129.04,112.25,126.71,112.25z"/>
	<path class="st17" d="M126.38,28.03H19.78c-2.35,0-4.25,1.9-4.25,4.25v37.86h115.1V32.28C130.63,29.93,128.72,28.03,126.38,28.03z"
		/>
</g>
<g class="st0">
	<path class="st10" d="M129.71,31.17v76.46c0,2.29-1.85,4.14-4.14,4.14H75.38V27.03h50.19C127.85,27.03,129.71,28.88,129.71,31.17z"
		/>
	<path class="st17" d="M21.05,31.31v76.27c0,2.34,1.9,4.24,4.24,4.24h52.58V27.07H25.28C22.95,27.07,21.05,28.97,21.05,31.31z"/>
</g>
<g class="st0">
	<path class="st17" d="M129.2,28.4l-106.6-0.91c-2.35-0.02-4.27,1.87-4.29,4.21L18,69.56l115.1,0.98l0.32-37.86
		C133.44,30.34,131.55,28.42,129.2,28.4z"/>
	<path class="st10" d="M128.48,112.88l-106.6-0.91c-2.35-0.02-4.23-1.94-4.21-4.29L18,69.83l115.1,0.98l-0.32,37.86
		C132.75,111.01,130.83,112.89,128.48,112.88z"/>
	<path class="st6" d="M131.36,120.98l-112.48-0.96c-4.84-0.04-8.72-3.99-8.68-8.83l0.71-83.48c0.04-4.84,3.99-8.72,8.83-8.68
		l112.48,0.96c4.84,0.04,8.72,3.99,8.68,8.83l-0.71,83.48C140.15,117.14,136.2,121.02,131.36,120.98z"/>
</g>
<g class="st0">
	<path class="st10" d="M129.3,37.25v76.46c0,2.29-1.85,4.14-4.14,4.14H74.97V33.11h50.19C127.44,33.11,129.3,34.97,129.3,37.25z"/>
	<path class="st17" d="M20.64,37.39v76.27c0,2.34,1.9,4.24,4.24,4.24h52.58V33.16H24.87C22.53,33.16,20.64,35.05,20.64,37.39z"/>
	<path class="st6" d="M130.71,126.03H18.22c-4.84,0-8.76-3.92-8.76-8.76V33.79c0-4.84,3.92-8.76,8.76-8.76h112.49
		c4.84,0,8.76,3.92,8.76,8.76v83.49C139.47,122.11,135.55,126.03,130.71,126.03z"/>
</g>
<g class="st0">
	<g class="st2">
		<path class="st18" d="M129.5,31.17v76.46c0,2.29-1.85,4.14-4.14,4.14H75.17V27.03h50.19C127.65,27.03,129.5,28.88,129.5,31.17z"/>
		<path class="st19" d="M20.84,31.31v76.27c0,2.34,1.9,4.24,4.24,4.24h52.58V27.07H25.08C22.74,27.07,20.84,28.97,20.84,31.31z"/>
	</g>
	<line class="st5" x1="80.39" y1="78.44" x2="80.39" y2="73.21"/>
	<line class="st5" x1="80.39" y1="65.63" x2="80.39" y2="57.94"/>
	<path class="st1" d="M62.74,67.29c0-1.01,0.82-1.82,1.82-1.82"/>
	<path class="st1" d="M88.01,67.48v3.94c0,1.01-0.81,1.82-1.82,1.82h-8.5v-7.58h8.5C87.2,65.66,88.01,66.48,88.01,67.48z"/>
	<path class="st20" d="M67.31,67.48v3.94c0,1.01,0.81,1.82,1.82,1.82h8.5v-7.58h-8.5C68.12,65.66,67.31,66.48,67.31,67.48z"/>
	<line class="st5" x1="62.98" y1="66.38" x2="62.99" y2="66.38"/>
</g>
<g class="st0">
	<path class="st1" d="M113.07,74.26H96.08c-1.01,0-1.82-0.82-1.82-1.82V68.5c0-1.01,0.82-1.82,1.82-1.82h16.99
		c1.01,0,1.82,0.82,1.82,1.82v3.94C114.89,73.45,114.08,74.26,113.07,74.26z"/>
	<path class="st10" d="M132.24,32.08v76.65c0,2.24-1.81,4.05-4.05,4.05H80.4V28.03h47.8C130.43,28.03,132.24,29.84,132.24,32.08z"/>
	<path class="st17" d="M23.08,32.31v76.27c0,2.34,1.9,4.24,4.24,4.24h52.58V28.07H27.32C24.98,28.07,23.08,29.97,23.08,32.31z"/>
	<line class="st5" x1="82.63" y1="79.44" x2="82.63" y2="74.21"/>
	<line class="st5" x1="82.63" y1="66.63" x2="82.63" y2="58.94"/>
	<path class="st1" d="M64.98,68.29c0-1.01,0.82-1.82,1.82-1.82"/>
	<line class="st5" x1="65.22" y1="67.38" x2="65.23" y2="67.38"/>
	<path class="st1" d="M114.82,73.66H97.82c-1.01,0-1.82-0.82-1.82-1.82v-3.94c0-1.01,0.82-1.82,1.82-1.82h16.99
		c1.01,0,1.82,0.82,1.82,1.82v3.94C116.64,72.84,115.82,73.66,114.82,73.66z"/>
	<path class="st20" d="M59.98,73.66H42.99c-1.01,0-1.82-0.82-1.82-1.82v-3.94c0-1.01,0.82-1.82,1.82-1.82h16.99
		c1.01,0,1.82,0.82,1.82,1.82v3.94C61.81,72.84,60.99,73.66,59.98,73.66z"/>
</g>
<g class="st0">
	<path class="st6" d="M133.06,30.97v18.9c0,0.33-0.07,0.63-0.19,0.9c-0.35,0.78-1.12,1.32-2.03,1.32H20.71
		c-1.22,0-2.21-0.99-2.21-2.22v-18.9c0-1.22,0.99-2.21,2.21-2.21h110.14C132.07,28.75,133.06,29.75,133.06,30.97z"/>
	<g class="st2">
		<g>
			<polyline class="st21" points="132.87,50.73 132.87,50.73 132.87,50.74 			"/>
			<path class="st22" d="M132.87,54.73v53.76c0,2.14-1.73,3.86-3.86,3.86H22.18c-2.13,0-3.86-1.73-3.86-3.86V46.04"/>
			<polyline class="st21" points="18.49,44.06 18.49,44.05 18.49,44.06 			"/>
			<path class="st23" d="M18.49,48.1v1.72c0,1.23,0.99,2.23,2.21,2.23h110.14c0.18,0,0.35-0.02,0.51-0.06"/>
		</g>
	</g>
	<path class="st1" d="M44.63,44.31H27.76c-1,0-1.81-0.81-1.81-1.81v-3.91c0-1,0.81-1.81,1.81-1.81h16.87c1,0,1.81,0.81,1.81,1.81
		v3.91C46.44,43.5,45.63,44.31,44.63,44.31z"/>
	<path class="st1" d="M125.82,44.19H63.37c-1,0-1.81-0.81-1.81-1.81v-3.91c0-1,0.81-1.81,1.81-1.81h62.45c1,0,1.81,0.81,1.81,1.81
		v3.91C127.63,43.38,126.82,44.19,125.82,44.19z"/>
</g>
<g class="st0">
	<path class="st1" d="M134.34,34.11v36.46c0,0.63-0.07,1.21-0.19,1.74c-0.35,1.51-1.12,2.55-2.03,2.55H21.99
		c-1.22,0-2.21-1.92-2.21-4.29V34.11c0-2.36,0.99-4.27,2.21-4.27h110.14C133.35,29.84,134.34,31.75,134.34,34.11z"/>
	<g class="st2">
		<g>
			<polyline class="st21" points="133.08,73.02 133.08,73.02 133.08,73.03 			"/>
			<path class="st24" d="M133.08,77.02v32.95c0,1.37-1.69,2.47-3.78,2.47H24.83c-2.09,0-3.78-1.11-3.78-2.47V70.73"/>
			<polyline class="st21" points="21.22,68.76 21.23,68.75 21.23,68.76 			"/>
			<path class="st25" d="M21.28,72.75c0.21,0.64,1.08,1.12,2.11,1.12H131.1c0.08,0,0.15,0,0.22-0.01"/>
		</g>
	</g>
</g>
<g>
	<g>
		<path class="st26" d="M132.84,112.97H25.88c-2.33,0-4.22-1.89-4.22-4.22V32.98c0-2.33,1.89-4.22,4.22-4.22h106.96
			c2.33,0,4.22,1.89,4.22,4.22v75.77C137.07,111.08,135.18,112.97,132.84,112.97z"/>
	</g>
	<line class="st27" x1="-5.78" y1="70.86" x2="167.55" y2="70.86"/>
</g>
<g class="st0">
	<g class="st2">
		<path class="st3" d="M128.81,112.97H21.85c-2.33,0-4.22-1.89-4.22-4.22V32.98c0-2.33,1.89-4.22,4.22-4.22h106.96
			c2.33,0,4.22,1.89,4.22,4.22v75.77C133.03,111.08,131.14,112.97,128.81,112.97z"/>
	</g>
	<line class="st28" x1="-9.57" y1="70.86" x2="163.77" y2="70.86"/>
	<line class="st29" x1="18.63" y1="70.86" x2="132.22" y2="70.86"/>
</g>
<g class="st0">
	<rect x="19.38" y="74.58" class="st30" width="112.03" height="38.39"/>
	<path class="st4" d="M127.02,28.75H23.77c-2.42,0-4.39,1.96-4.39,4.39v41.44h112.03V33.14C131.41,30.72,129.45,28.75,127.02,28.75z
		"/>
</g>
</svg>
