<?xml version="1.0" encoding="UTF-8" standalone="no"?>
<svg
   xmlns:dc="http://purl.org/dc/elements/1.1/"
   xmlns:cc="http://creativecommons.org/ns#"
   xmlns:rdf="http://www.w3.org/1999/02/22-rdf-syntax-ns#"
   xmlns:svg="http://www.w3.org/2000/svg"
   xmlns="http://www.w3.org/2000/svg"
   xmlns:sodipodi="http://sodipodi.sourceforge.net/DTD/sodipodi-0.dtd"
   xmlns:inkscape="http://www.inkscape.org/namespaces/inkscape"
   viewBox="0 0 384 512"
   version="1.1"
   id="svg4"
   sodipodi:docname="header.svg"
   inkscape:version="0.92.4 (5da689c313, 2019-01-14)">
  <metadata
     id="metadata10">
    <rdf:RDF>
      <cc:Work
         rdf:about="">
        <dc:format>image/svg+xml</dc:format>
        <dc:type
           rdf:resource="http://purl.org/dc/dcmitype/StillImage" />
      </cc:Work>
    </rdf:RDF>
  </metadata>
  <defs
     id="defs8" />
  <sodipodi:namedview
     pagecolor="#ffffff"
     bordercolor="#666666"
     borderopacity="1"
     objecttolerance="10"
     gridtolerance="10"
     guidetolerance="10"
     inkscape:pageopacity="0"
     inkscape:pageshadow="2"
     inkscape:window-width="1842"
     inkscape:window-height="1051"
     id="namedview6"
     showgrid="false"
     inkscape:zoom="0.921875"
     inkscape:cx="76.251523"
     inkscape:cy="256"
     inkscape:window-x="-9"
     inkscape:window-y="-9"
     inkscape:window-maximized="1"
     inkscape:current-layer="svg4" />
  <path
     d="M369.9 97.9L286 14C277 5 264.8-.1 252.1-.1H48C21.5 0 0 21.5 0 48v416c0 26.5 21.5 48 48 48h288c26.5 0 48-21.5 48-48V131.9c0-12.7-5.1-25-14.1-34zM332.1 128H256V51.9l76.1 76.1zM48 464V48h160v104c0 13.3 10.7 24 24 24h104v288H48z"
     id="path2" />
  <g
     id="g848"
     transform="translate(-3.0681243,10.738435)">
    <path
       inkscape:connector-curvature="0"
       id="path821"
       d="m 84.610169,195.25424 c 0,-4.33899 0,-8.67797 0,-13.01695 0,-0.72317 -0.323408,-1.52268 0,-2.16949 0.457369,-0.91474 1.712123,-1.25476 2.169492,-2.16949 0.323409,-0.64682 -0.323409,-1.52268 0,-2.1695 1.301695,-2.60339 5.20678,-3.90508 6.508475,-6.50847 0.681786,-1.36357 -0.681787,-7.31439 0,-8.67797 0.457369,-0.91474 1.712122,-1.25475 2.169491,-2.16949 0.646818,-1.29363 -1.022708,-3.31627 0,-4.33898 0.0873,-0.0873 7.881253,0 8.677963,0 0.72317,0 1.65814,-0.51136 2.16949,0 0.51136,0.51135 -0.3234,1.52267 0,2.16949 3.308,6.616 1.7199,-3.96788 4.33899,6.50847 0.35078,1.40315 -0.35079,2.93584 0,4.33899 0.78438,3.13752 3.5546,5.54044 4.33898,8.67796 0.35079,1.40315 -0.35079,2.93584 0,4.33899 0.39219,1.56876 1.65814,2.80492 2.16949,4.33898 0.45737,1.37211 -0.45737,2.96688 0,4.33898 0.51136,1.53406 1.65814,2.80492 2.16949,4.33899 0.5085,1.5255 -0.59468,10.25277 0,10.84745 0.51136,0.51136 1.44633,0 2.1695,0 0.52616,0 6.4387,0.0698 6.50847,0 1.08475,-1.08474 -1.08475,-5.42373 0,-6.50847 0.51135,-0.51136 1.52267,0.32341 2.16949,0 9.02891,-4.51445 -2.31926,0.14977 2.16949,-4.33898 0.51136,-0.51136 1.65814,0.51135 2.16949,0 0.51136,-0.51136 0,-1.44633 0,-2.1695 0,-3.61581 0,-7.23163 0,-10.84745 0,-0.72317 -0.51135,-1.65814 0,-2.16949 0.51136,-0.51136 1.44633,0 2.1695,0 1.53774,0 12.45602,-0.28047 13.01695,0 2.48714,1.24357 3.01778,4.52667 4.33898,6.50847 0.56729,0.85094 1.71212,1.25475 2.16949,2.16949 0.32341,0.64682 0,1.44633 0,2.16949 0,1.44633 0,2.89266 0,4.33899 0,0.72316 -0.51135,-1.65814 0,-2.1695 0.51135,-0.51135 1.65814,0.51136 2.16949,0 0.51136,-0.51135 0,-1.44632 0,-2.16949 0,-0.72316 0,-1.44632 0,-2.16949 0,-5.08784 -0.51135,1.02271 2.16949,-4.33898 0.32341,-0.64682 -0.51135,-1.65814 0,-2.16949 0.0698,-0.0698 5.98232,0 6.50848,0 0.79671,0 8.59066,-0.0873 8.67796,0 0.51136,0.51135 -0.51135,1.65813 0,2.16949 0.51136,0.51135 1.44633,0 2.1695,0 0.72316,0 1.44632,0 2.16949,0 9.40113,0 18.80226,0 28.20339,0 0.52616,0 6.4387,-0.0698 6.50847,0 0.51136,0.51135 -0.32341,1.52267 0,2.16949 0.45737,0.91474 1.71212,1.25475 2.16949,2.16949 0.32341,0.64682 -0.51135,1.65814 0,2.16949 1.02271,1.02271 3.04535,-0.64681 4.33899,0 1.82947,0.91474 2.5095,3.42425 4.33898,4.33899 1.17692,0.58846 8.08434,-0.59362 8.67796,0 0.51136,0.51135 -0.51135,1.65813 0,2.16949 2.89266,2.89265 2.1695,-3.61582 2.1695,2.16949"
       style="fill:none;fill-opacity:1;stroke:#000000;stroke-width:0;stroke-linecap:butt;stroke-linejoin:miter;stroke-miterlimit:4;stroke-dasharray:none;stroke-opacity:1" />
    <rect
       y="206.49649"
       x="71.829971"
       height="52.857399"
       width="245.99118"
       id="rect829"
       style="fill:#000000;fill-opacity:1;stroke:#666666;stroke-width:0;stroke-linecap:square;stroke-linejoin:miter;stroke-miterlimit:4;stroke-dasharray:none;stroke-dashoffset:0;stroke-opacity:1;paint-order:markers stroke fill" />
    <path
       transform="rotate(-43.072726,-166.05681,-708.48771)"
       inkscape:transform-center-y="-26.38265"
       inkscape:transform-center-x="-1.5212811"
       d="m -494.64408,86.779663 -30.44313,123.881427 -92.0629,-88.30523 z"
       inkscape:randomized="0"
       inkscape:rounded="0"
       inkscape:flatsided="true"
       sodipodi:arg2="0.24096907"
       sodipodi:arg1="-0.80622848"
       sodipodi:r2="36.825481"
       sodipodi:r1="73.650963"
       sodipodi:cy="139.93221"
       sodipodi:cx="-545.62714"
       sodipodi:sides="3"
       id="path837"
       style="fill:#000000;fill-opacity:1;stroke:#666666;stroke-width:0;stroke-linecap:square;stroke-linejoin:miter;stroke-miterlimit:4;stroke-dasharray:none;stroke-dashoffset:0;stroke-opacity:1;paint-order:markers stroke fill"
       sodipodi:type="star" />
  </g>
</svg>
