<?xml version="1.0" encoding="utf-8"?>
<!-- Generator: Adobe Illustrator 23.0.3, SVG Export Plug-In . SVG Version: 6.00 Build 0)  -->
<svg version="1.1" id="Layer_1" xmlns="http://www.w3.org/2000/svg" xmlns:xlink="http://www.w3.org/1999/xlink" x="0px" y="0px"
	 viewBox="0 0 150 150" style="enable-background:new 0 0 150 150;" xml:space="preserve">
<style type="text/css">
	.st0{fill:none;stroke:#231F20;stroke-miterlimit:10;}
</style>
<g>
	<path class="st0" d="M129.56,46.05H49.11c-2.33,0-4.22-1.89-4.22-4.22V30.52c0-2.33,1.89-4.22,4.22-4.22h80.45
		c2.33,0,4.22,1.89,4.22,4.22v11.31C133.78,44.16,131.89,46.05,129.56,46.05z"/>
	<path class="st0" d="M129.56,82.5H49.11c-2.33,0-4.22-1.89-4.22-4.22V66.96c0-2.33,1.89-4.22,4.22-4.22h80.45
		c2.33,0,4.22,1.89,4.22,4.22v11.31C133.78,80.61,131.89,82.5,129.56,82.5z"/>
	<path class="st0" d="M129.56,118.94H49.11c-2.33,0-4.22-1.89-4.22-4.22v-11.31c0-2.33,1.89-4.22,4.22-4.22h80.45
		c2.33,0,4.22,1.89,4.22,4.22v11.31C133.78,117.05,131.89,118.94,129.56,118.94z"/>
	<path class="st0" d="M35.32,118.94h-14.6c-2.33,0-4.22-1.89-4.22-4.22V30.6c0-2.33,1.89-4.22,4.22-4.22h14.6
		c2.33,0,4.22,1.89,4.22,4.22v84.12C39.54,117.05,37.65,118.94,35.32,118.94z"/>
</g>
</svg>
