<?xml version="1.0" encoding="utf-8"?>
<!-- Generator: Adobe Illustrator 23.0.3, SVG Export Plug-In . SVG Version: 6.00 Build 0)  -->
<svg version="1.1" id="Layer_1" xmlns="http://www.w3.org/2000/svg" xmlns:xlink="http://www.w3.org/1999/xlink" x="0px" y="0px"
	 viewBox="0 0 503.06 229.94" style="enable-background:new 0 0 503.06 229.94;" xml:space="preserve">
<style type="text/css">
	.st0{display:none;fill:#584898;stroke:#000000;stroke-miterlimit:10;}
	.st1{fill:#FFFFFF;stroke:#FFFFFF;stroke-miterlimit:10;}
	.st2{fill:#FFFFFF;}
	.st3{fill:none;}
	.st4{fill:#FFFFFF;stroke:#FFFFFF;}
	.st5{fill:#FFFFFF;stroke:#FFFFFF;stroke-width:5;}
</style>
<rect x="0.18" y="0.59" class="st0" width="502.35" height="228.76"/>
<g>
	<g>
		<path class="st1" d="M74.91,151.86"/>
	</g>
	<g>
		<path class="st1" d="M145.47,152.91"/>
	</g>
	<g>
		<path class="st1" d="M74.91,151.86"/>
	</g>
	<g>
		<path class="st1" d="M145.47,151.86"/>
	</g>
	<g>
		<path class="st2" d="M111.3,163.78c-20.06,0-35.78-3.58-35.78-8.15h1c0,4.08,15.93,7.53,34.78,7.53c20.18,0,34.78-4.5,34.78-7.53
			h1C147.08,159.32,131.12,163.78,111.3,163.78z"/>
	</g>
	<g>
		<line class="st2" x1="76.02" y1="155.64" x2="76.02" y2="73.72"/>
		<path class="st2" d="M76.02,156.03c-0.28,0-0.5-0.18-0.5-0.39l0-81.92c0-0.22,0.22-0.39,0.5-0.39s0.5,0.18,0.5,0.39l0,81.92
			C76.52,155.85,76.3,156.03,76.02,156.03z"/>
	</g>
	<g>
		<path class="st2" d="M111.3,80.91c-17.59,0-35.78-2.77-35.78-7.39c0-4.63,18.19-7.39,35.78-7.39s35.78,2.77,35.78,7.39
			C147.08,78.14,128.89,80.91,111.3,80.91z M111.3,66.91c-20.8,0-34.78,3.42-34.78,6.61c0,3.19,13.98,6.61,34.78,6.61
			s34.78-3.42,34.78-6.61C146.08,70.32,132.11,66.91,111.3,66.91z"/>
	</g>
	<path class="st3" d="M142.61,115.72c-0.92,1.32-1.38,3.44-1.38,6.36c0,2.92,0.46,5.04,1.38,6.36c0.79,1.13,1.95,1.78,3.47,1.94
		v-16.6C144.56,113.94,143.4,114.59,142.61,115.72z"/>
	<path class="st2" d="M146.58,114.12l0-40.44L146.58,114.12c0.09-0.01,0.19-0.01,0.29-0.01h0.21V73.68c0-0.2-0.22-0.36-0.5-0.36
		c-0.28,0-0.5,0.16-0.5,0.36v40.45C146.24,114.12,146.41,114.12,146.58,114.12C146.58,114.12,146.58,114.12,146.58,114.12z"/>
	<path class="st2" d="M146.58,137.99l0,17.51L146.58,137.99C146.58,137.99,146.58,137.99,146.58,137.99c-0.17,0.01-0.34,0-0.5-0.01
		v17.52c0,0.3,0.23,0.53,0.5,0.53c0.28,0,0.5-0.23,0.5-0.53V138h-0.21C146.77,138,146.67,138,146.58,137.99z"/>
	<path class="st4" d="M158.54,110.58c-2.74-2.69-6.56-4.06-11.46-4.1v7.27c1.82,0.04,3.16,0.7,4.05,1.97
		c0.92,1.32,1.38,3.44,1.38,6.36c0,2.92-0.46,5.04-1.38,6.36c-0.89,1.27-2.23,1.93-4.05,1.97v7.27c4.9-0.04,8.72-1.41,11.46-4.11
		c2.78-2.74,4.17-6.57,4.17-11.49C162.71,117.16,161.32,113.33,158.54,110.58z"/>
	<path class="st4" d="M142.61,128.44c-0.92-1.32-1.38-3.44-1.38-6.36c0-2.92,0.46-5.04,1.38-6.36c0.79-1.13,1.95-1.78,3.47-1.94
		v-7.28c-4.62,0.13-8.25,1.5-10.88,4.08c-2.78,2.75-4.17,6.58-4.17,11.5c0,4.92,1.39,8.75,4.17,11.49
		c2.63,2.59,6.26,3.96,10.88,4.09v-7.28C144.56,130.22,143.4,129.57,142.61,128.44z"/>
	<path class="st4" d="M190.37,107.14l-1.08,8.64c-0.4-0.24-0.94-0.45-1.62-0.63c-0.68-0.18-1.4-0.27-2.16-0.27
		c-1.92,0-3.52,0.61-4.8,1.83c-1.28,1.22-1.92,2.97-1.92,5.25v15.12h-10.2v-30h9l0.42,6.48c0.72-2.28,1.85-4.03,3.39-5.25
		c1.54-1.22,3.45-1.83,5.73-1.83C188.48,106.48,189.56,106.7,190.37,107.14z"/>
	<path class="st4" d="M240.85,109.24c1.9,1.84,2.85,4.46,2.85,7.86v19.98h-10.2v-17.64c0-3.44-1.36-5.16-4.08-5.16
		c-1.6,0-2.88,0.58-3.84,1.74c-0.96,1.16-1.44,2.84-1.44,5.04v16.02h-10.2v-17.64c0-3.44-1.36-5.16-4.08-5.16
		c-1.52,0-2.78,0.58-3.78,1.74c-1,1.16-1.5,2.9-1.5,5.22v15.84h-10.2v-30h9.12l0.3,5.76c0.96-2.08,2.3-3.66,4.02-4.74
		c1.72-1.08,3.74-1.62,6.06-1.62c2.28,0,4.25,0.52,5.91,1.56c1.66,1.04,2.85,2.54,3.57,4.5c0.96-1.96,2.33-3.46,4.11-4.5
		c1.78-1.04,3.77-1.56,5.97-1.56C236.48,106.48,238.95,107.4,240.85,109.24z"/>
	<path class="st4" d="M280.72,107.08v30h-9.12l-0.3-5.58c-1.88,4.12-5.34,6.18-10.38,6.18c-3.2,0-5.71-0.85-7.53-2.55
		c-1.82-1.7-2.73-4.37-2.73-8.01v-20.04h10.2v17.46c0,1.96,0.34,3.34,1.02,4.14c0.68,0.8,1.72,1.2,3.12,1.2
		c1.68,0,3.02-0.57,4.02-1.71c1-1.14,1.5-2.87,1.5-5.19v-15.9H280.72z"/>
	<path class="st4" d="M298.12,126.7c0,1.36,0.2,2.32,0.6,2.88c0.4,0.56,1.12,0.84,2.16,0.84c0.96,0,1.98-0.18,3.06-0.54l-0.66,6.3
		c-0.72,0.44-1.66,0.8-2.82,1.08c-1.16,0.28-2.3,0.42-3.42,0.42c-3.2,0-5.52-0.75-6.96-2.25c-1.44-1.5-2.16-3.91-2.16-7.23V94.35
		h10.2V126.7z"/>
	<path class="st4" d="M338.62,131.02l-0.78,5.7c-1.16,0.64-2.52,0.96-4.08,0.96c-4.32,0-6.9-1.54-7.74-4.62
		c-1.8,3.08-5.36,4.62-10.68,4.62c-3,0-5.3-0.64-6.9-1.92c-1.6-1.28-2.4-3.14-2.4-5.58c0-2.56,0.91-4.63,2.73-6.21
		c1.82-1.58,4.81-2.79,8.97-3.63l6.78-1.32v-1.08c0-1.36-0.38-2.44-1.14-3.24c-0.76-0.8-1.8-1.2-3.12-1.2
		c-1.52,0-2.76,0.36-3.72,1.08s-1.58,1.9-1.86,3.54l-8.28-2.4c0.52-2.92,1.96-5.19,4.32-6.81c2.36-1.62,5.54-2.43,9.54-2.43
		c4.68,0,8.24,0.96,10.68,2.88c2.44,1.92,3.66,4.8,3.66,8.64v10.92c0,1.56,0.72,2.34,2.16,2.34
		C337.52,131.26,338.14,131.18,338.62,131.02z M322.84,129.91c1.12-0.78,1.68-1.81,1.68-3.09v-2.58l-4.86,1.14
		c-1.28,0.32-2.19,0.71-2.73,1.17c-0.54,0.46-0.81,1.11-0.81,1.95s0.26,1.48,0.78,1.92c0.52,0.44,1.24,0.66,2.16,0.66
		C320.46,131.08,321.72,130.69,322.84,129.91z"/>
	<path class="st4" d="M372.82,94.35v42.72h-9.18l-0.36-5.7c-0.88,1.96-2.17,3.5-3.87,4.62c-1.7,1.12-3.67,1.68-5.91,1.68
		c-3.88,0-6.91-1.36-9.09-4.08c-2.18-2.72-3.27-6.52-3.27-11.4c0-4.96,1.1-8.82,3.3-11.58c2.2-2.76,5.24-4.14,9.12-4.14
		c2.12,0,3.94,0.5,5.46,1.5c1.52,1,2.72,2.38,3.6,4.14V94.35H372.82z M360.97,128.41c0.98-1.18,1.53-2.89,1.65-5.13v-2.4
		c-0.12-2.2-0.67-3.9-1.65-5.1c-0.98-1.2-2.29-1.8-3.93-1.8c-1.8,0-3.19,0.66-4.17,1.98c-0.98,1.32-1.47,3.36-1.47,6.12
		s0.49,4.8,1.47,6.12c0.98,1.32,2.37,1.98,4.17,1.98C358.68,130.18,359.99,129.59,360.97,128.41z"/>
	<path class="st4" d="M408.4,110.62c2.2,2.76,3.3,6.62,3.3,11.58c0,4.88-1.08,8.68-3.24,11.4c-2.16,2.72-5.2,4.08-9.12,4.08
		c-2.36,0-4.41-0.63-6.15-1.89c-1.74-1.26-3.03-2.95-3.87-5.07l-0.3,6.36h-8.94V94.35h10.2v17.76c0.84-1.76,2.03-3.14,3.57-4.14
		c1.54-1,3.37-1.5,5.49-1.5C403.18,106.48,406.2,107.85,408.4,110.62z M399.97,128.2c0.98-1.32,1.47-3.36,1.47-6.12
		s-0.49-4.8-1.47-6.12c-0.98-1.32-2.37-1.98-4.17-1.98c-1.76,0-3.12,0.68-4.08,2.04c-0.96,1.36-1.44,3.28-1.44,5.76v0.6
		c0,2.56,0.49,4.5,1.47,5.82c0.98,1.32,2.33,1.98,4.05,1.98C397.6,130.18,398.99,129.52,399.97,128.2z"/>
	<g>
		<path class="st2" d="M129.92,136.49c-0.47-0.37-1.06-0.56-1.75-0.56c-2.57,0-4.76,1.59-6.49,4.72l-0.43,0.78l-0.11-0.89
			c-0.05-0.43-0.16-0.89-0.3-1.37c-0.63-2.19-1.7-3.25-3.29-3.25c-1.97,0-4.18,1.65-6.55,4.89l1.26,0.75
			c0.07-0.09,0.23-0.3,0.47-0.61c0.3-0.4,0.62-0.81,0.97-1.25c1.15-1.37,2.63-2.04,3.45-2.04c0.89,0,1.43,0.83,1.62,2.47
			c0.09,0.72,0.15,1.33,0.17,1.81c0.02,0.48,0.03,0.94,0.03,1.39v0.78v0.29h-0.82h-3.56l-0.25,0.35h3.75h0.86l-0.04,0.33
			c-0.23,1.8-0.81,3.34-1.73,4.58c-0.95,1.3-2.37,1.93-3.23,1.93h-0.25l-0.03-0.25c-0.15-1.08-0.36-1.92-0.63-2.49
			c-0.16-0.36-0.39-0.6-0.69-0.74c-0.33-0.15-0.78-0.23-1.35-0.23c-0.53,0-0.97,0.2-1.34,0.6c-0.38,0.41-0.56,0.9-0.56,1.49
			c0,1.98,1.12,2.94,3.42,2.94c1.14,0,2.35-0.43,3.59-1.27c1.24-0.84,2.26-2.06,3-3.61l0.55,0.13c0,1.18,0.33,2.29,0.97,3.3
			c0.63,0.98,1.4,1.45,2.36,1.45c1.42,0,3-0.94,4.69-2.79c0.85-0.94,1.6-1.98,2.23-3.09l-0.81-0.73c-2,2.73-3.98,4.5-5.11,4.5
			c-1.63,0-2.4-2.19-2.4-5.76v-0.29h0.29h4.43l-0.14-0.35h-4.29h-0.29v-0.29c0-1.2,0.75-2.37,1.36-3.48
			c0.61-1.11,1.44-2.01,2.46-2.68l0.28-0.18l0.14,0.31l0.31,0.68c0.17,0.4,0.5,0.81,0.97,1.22c0.46,0.4,0.98,0.59,1.59,0.59
			c0.59,0,1.04-0.22,1.37-0.66c0.35-0.47,0.52-1.07,0.52-1.81C130.6,137.37,130.38,136.85,129.92,136.49z"/>
	</g>
	<g>
		<path class="st5" d="M110.02,122.6l-0.91,3.86c-1.69,7.14-3.09,12.16-4.2,15.06c-2.14,5.52-4.89,9.02-8.25,10.48
			c-1.39,0.61-2.79,0.91-4.22,0.91c-1.42,0-2.43-0.27-3.01-0.81c-0.58-0.54-0.87-1.2-0.87-1.97s0.25-1.43,0.76-1.99
			c0.51-0.56,1.14-0.83,1.91-0.83c0.77,0,1.41,0.18,1.91,0.53c0.51,0.35,0.76,0.84,0.76,1.46c0,0.62-0.18,1.2-0.53,1.76
			c2.6-0.4,4.93-5.32,7-14.76c0.33-1.49,0.7-3.26,1.12-5.32c0.42-2.06,0.74-3.56,0.97-4.52l0.91-3.86h-7.11l0.6-2.5h7.04
			c3-12.18,6.52-20.69,10.56-25.5c3.33-3.96,7.35-5.94,12.07-5.94c2.12,0,3.9,0.43,5.35,1.29c1.45,0.86,2.18,2.28,2.18,4.28
			c0,1.16-0.4,2.08-1.19,2.74c-0.79,0.67-1.73,1-2.8,1s-1.98-0.31-2.72-0.93c-0.74-0.62-1.12-1.42-1.12-2.4
			c0-0.98,0.34-1.94,1.02-2.88c-1.24-0.43-2.21-0.64-2.91-0.64s-1.55,0.35-2.52,1.04c-0.97,0.69-1.84,1.62-2.59,2.78
			c-2.95,4.54-5.83,12.93-8.63,25.16h9.04l-0.61,2.5H110.02z"/>
	</g>
</g>
</svg>
