<svg id="Layer_1" data-name="Layer 1" xmlns="http://www.w3.org/2000/svg" viewBox="0 0 503.35294 229.76471"><title>l2</title><rect x="0.5" y="0.5" width="502.35294" height="228.76471" fill="#584898" stroke="#1d1d1b" stroke-miterlimit="10"/><path d="M74.91058,151.8554" transform="translate(0.32119 -0.08824)" fill="#fff" stroke="#fff" stroke-miterlimit="10"/><path d="M145.47111,152.91093" transform="translate(0.32119 -0.08824)" fill="#fff" stroke="#fff" stroke-miterlimit="10"/><path d="M74.91058,151.8554" transform="translate(0.32119 -0.08824)" fill="#fff" stroke="#fff" stroke-miterlimit="10"/><path d="M145.47111,151.8554" transform="translate(0.32119 -0.08824)" fill="#fff" stroke="#fff" stroke-miterlimit="10"/><path d="M111.30371,167.33154c-20.06348,0-35.78027-5.74756-35.78027-13.08447h1c0,6.55029,15.92724,12.08447,34.78027,12.08447,20.17578,0,34.78027-7.21826,34.78027-12.08447h1C147.084,160.17334,131.12354,167.33154,111.30371,167.33154Z" transform="translate(0.32119 -0.08824)" fill="#fff"/><line x1="146.9041" y1="154.13291" x2="146.90195" y2="49.82027" fill="#fff"/><path d="M146.583,154.72119a.49971.49971,0,0,1-.5-.5l-.00244-104.3125a.5.5,0,0,1,1,0l.00244,104.3125A.49971.49971,0,0,1,146.583,154.72119Z" transform="translate(0.32119 -0.08824)" fill="#fff"/><line x1="76.34464" y1="154.13279" x2="76.34249" y2="49.82015" fill="#fff"/><path d="M76.02344,154.72119a.49971.49971,0,0,1-.5-.5l-.002-104.313a.5.5,0,1,1,1,0l.002,104.313A.49972.49972,0,0,1,76.02344,154.72119Z" transform="translate(0.32119 -0.08824)" fill="#fff"/><path d="M111.30176,59.06445c-17.58789,0-35.78028-3.52148-35.78028-9.415,0-5.89306,18.19239-9.41455,35.78028-9.41455S147.082,43.75635,147.082,49.64941C147.082,55.543,128.88965,59.06445,111.30176,59.06445Zm0-17.82959c-20.80469,0-34.78028,4.35108-34.78028,8.41455,0,4.064,13.97559,8.415,34.78028,8.415s34.78027-4.35107,34.78027-8.415C146.082,45.58594,132.10645,41.23486,111.30176,41.23486Z" transform="translate(0.32119 -0.08824)" fill="#fff"/><path d="M109.228,112.9707l-1.05664,4.48731a156.819,156.819,0,0,1-4.88282,17.50976q-3.73974,9.63429-9.59082,12.18653A12.15451,12.15451,0,0,1,88.79248,148.21a5.09941,5.09941,0,0,1-3.49707-.94531,3.02041,3.02041,0,0,1-1.0127-2.28809,3.31783,3.31783,0,0,1,.87989-2.30957,2.87579,2.87579,0,0,1,2.22168-.96777,3.78309,3.78309,0,0,1,2.22168.61523,1.95559,1.95559,0,0,1,.87988,1.69434,3.74693,3.74693,0,0,1-.61523,2.0459q4.53075-.70459,8.13867-17.15821.57129-2.59423,1.29785-6.18066.7251-3.58593,1.12207-5.25781l1.05566-4.48731h-8.2705l.70312-2.90332h8.18359q5.23389-21.249,12.27344-29.65136,5.8081-6.90675,14.03418-6.90723a12.04693,12.04693,0,0,1,6.22559,1.49609,5.317,5.317,0,0,1,2.52929,4.97071,3.945,3.945,0,0,1-1.38574,3.18945,4.89883,4.89883,0,0,1-3.25586,1.166,4.78334,4.78334,0,0,1-3.167-1.07812,3.46017,3.46017,0,0,1-1.29785-2.793,5.61073,5.61073,0,0,1,1.1875-3.34375,11.1532,11.1532,0,0,0-3.3877-.748,5.33417,5.33417,0,0,0-2.9248,1.21,11.87533,11.87533,0,0,0-3.01367,3.23339q-5.14746,7.91895-10.03125,29.25586h10.51465l-.70411,2.90332Z" transform="translate(0.32119 -0.08824)" fill="#fff" stroke="#fff" stroke-width="6"/><path d="M158.53613,110.585q4.16968,4.11108,4.16992,11.49024,0,7.37988-4.16992,11.49023-4.17114,4.11034-11.66992,4.10986-7.50073,0-11.66992-4.10986-4.17114-4.10962-4.16992-11.49023,0-7.37989,4.16992-11.49024,4.16967-4.10889,11.66992-4.10986Q154.36548,106.4751,158.53613,110.585ZM142.606,115.71533q-1.38062,1.97975-1.37989,6.35987,0,4.38062,1.37989,6.35986a5.57279,5.57279,0,0,0,8.52,0q1.37988-1.97974,1.38037-6.35986,0-4.37916-1.38037-6.35987a5.57279,5.57279,0,0,0-8.52,0Z" transform="translate(0.32119 -0.08824)" fill="#fff" stroke="#fff"/><path d="M190.36523,107.13525l-1.08007,8.64014a6.36478,6.36478,0,0,0-1.61963-.63037,8.43267,8.43267,0,0,0-2.16016-.27,6.685,6.685,0,0,0-4.80029,1.83008,6.91075,6.91075,0,0,0-1.91992,5.25V137.0752H168.58545v-30h9l.41992,6.48a10.508,10.508,0,0,1,3.39014-5.25,8.9387,8.9387,0,0,1,5.73-1.83008A6.74647,6.74647,0,0,1,190.36523,107.13525Z" transform="translate(0.32119 -0.08824)" fill="#fff" stroke="#fff"/><path d="M240.855,109.23535q2.84911,2.7605,2.8501,7.85986v19.98h-10.2002V119.43506q0-5.15917-4.07959-5.15967a4.73251,4.73251,0,0,0-3.84033,1.73975,7.72709,7.72709,0,0,0-1.43994,5.04v16.02H213.94531V119.43506q0-5.15917-4.08008-5.15967a4.7783,4.7783,0,0,0-3.78027,1.73975,7.8197,7.8197,0,0,0-1.5,5.22021V137.0752H194.38525v-30h9.11963l.3003,5.75976a10.72107,10.72107,0,0,1,4.02-4.73975,11.1535,11.1535,0,0,1,6.06005-1.62011,10.90571,10.90571,0,0,1,5.90967,1.56006,8.65725,8.65725,0,0,1,3.57031,4.5,10.33032,10.33032,0,0,1,4.10987-4.5,11.616,11.616,0,0,1,5.97021-1.56006A10.20827,10.20827,0,0,1,240.855,109.23535Z" transform="translate(0.32119 -0.08824)" fill="#fff" stroke="#fff"/><path d="M280.72461,107.0752v30h-9.12012l-.2998-5.58008q-2.82129,6.1809-10.37989,6.18017a10.595,10.595,0,0,1-7.53027-2.55029q-2.7312-2.54957-2.73-8.00977v-20.04h10.2002v17.46q0,2.94067,1.02,4.14013a3.86638,3.86638,0,0,0,3.11962,1.19971,5.07864,5.07864,0,0,0,4.02-1.71,7.69433,7.69433,0,0,0,1.5-5.18994V107.0752Z" transform="translate(0.32119 -0.08824)" fill="#fff" stroke="#fff"/><path d="M298.12451,126.69531a5.13947,5.13947,0,0,0,.59961,2.87989,2.48062,2.48062,0,0,0,2.16065.83984,9.67826,9.67826,0,0,0,3.05957-.54l-.66016,6.30029a9.87225,9.87225,0,0,1-2.81934,1.08008,14.595,14.595,0,0,1-3.42041.41992q-4.801,0-6.96-2.25-2.16064-2.25-2.16015-7.23V94.355h10.20019Z" transform="translate(0.32119 -0.08824)" fill="#fff" stroke="#fff"/><path d="M338.624,131.01514l-.77929,5.70019a8.32223,8.32223,0,0,1-4.08008.96q-6.48047,0-7.74024-4.62011-2.6997,4.62084-10.67968,4.62011-4.5,0-6.90039-1.91992a6.7217,6.7217,0,0,1-2.40039-5.58008,7.82914,7.82914,0,0,1,2.73046-6.21q2.729-2.36938,8.96973-3.63037l6.78027-1.31982v-1.08008a4.51273,4.51273,0,0,0-1.14062-3.23975,4.09755,4.09755,0,0,0-3.11914-1.20019,6.03381,6.03381,0,0,0-3.7207,1.08008,5.32514,5.32514,0,0,0-1.85938,3.54l-8.28027-2.3999a10.05159,10.05159,0,0,1,4.32031-6.81006q3.53906-2.43016,9.54-2.43017,7.01953,0,10.67969,2.87988,3.65917,2.88062,3.66015,8.64014V128.915q0,2.34009,2.16016,2.34033A5.99422,5.99422,0,0,0,338.624,131.01514Zm-15.77929-1.10987a3.6016,3.6016,0,0,0,1.67968-3.08984v-2.58008l-4.86035,1.13965a6.9213,6.9213,0,0,0-2.72949,1.17041,2.42132,2.42132,0,0,0-.81055,1.94971,2.37235,2.37235,0,0,0,.78028,1.91992,3.23526,3.23526,0,0,0,2.16015.66016A6.46486,6.46486,0,0,0,322.84473,129.90527Z" transform="translate(0.32119 -0.08824)" fill="#fff" stroke="#fff"/><path d="M372.82422,94.355V137.0752h-9.17969l-.36035-5.7002a10.35461,10.35461,0,0,1-9.78027,6.30029,10.99717,10.99717,0,0,1-9.08985-4.08008q-3.271-4.07958-3.26953-11.3999,0-7.43921,3.29981-11.58008a11.01561,11.01561,0,0,1,9.12011-4.14013,9.71656,9.71656,0,0,1,5.46,1.5,10.40759,10.40759,0,0,1,3.59961,4.14013V94.355Zm-11.84961,34.05029a8.597,8.597,0,0,0,1.64941-5.12988V120.875a8.64586,8.64586,0,0,0-1.64941-5.09961,4.81829,4.81829,0,0,0-3.93066-1.80029,4.88624,4.88624,0,0,0-4.16993,1.98q-1.4707,1.98047-1.46972,6.12012,0,4.13964,1.46972,6.12011a5.317,5.317,0,0,0,8.10059.21Z" transform="translate(0.32119 -0.08824)" fill="#fff" stroke="#fff"/><path d="M408.4043,110.61523q3.29883,4.13966,3.2998,11.58008,0,7.32056-3.24023,11.3999a10.979,10.979,0,0,1-9.12012,4.08008,10.20452,10.20452,0,0,1-6.15039-1.89013,11.18725,11.18725,0,0,1-3.86914-5.06983l-.30078,6.35987H380.084V94.355h10.2002v17.76025a9.55367,9.55367,0,0,1,9.05957-5.64013A10.95633,10.95633,0,0,1,408.4043,110.61523Zm-8.43067,17.58008q1.46925-1.98047,1.46973-6.12011,0-4.13965-1.46973-6.12012a4.88741,4.88741,0,0,0-4.16992-1.98,4.70072,4.70072,0,0,0-4.08008,2.04,9.887,9.887,0,0,0-1.43945,5.76025v.59961a9.68027,9.68027,0,0,0,1.46973,5.82031,4.76592,4.76592,0,0,0,4.0498,1.98A4.88741,4.88741,0,0,0,399.97363,128.19531Z" transform="translate(0.32119 -0.08824)" fill="#fff" stroke="#fff"/><path d="M130.37125,133.76713a3.21391,3.21391,0,0,0-2.03652-.65387c-3.00078,0-5.54546,1.85226-7.56321,5.50526l-.50308.91067-.129-1.03237a9.42259,9.42259,0,0,0-.35117-1.59393c-.73231-2.55206-1.98682-3.78963-3.8372-3.78963-2.30092,0-4.86791,1.918-7.63308,5.70215l1.46734.87584q.12377-.15917.547-.71519.5278-.6954,1.1255-1.45683a6.19165,6.19165,0,0,1,4.02154-2.37547c1.03284,0,1.66824.9675,1.88862,2.87565.10966.83731.17729,1.54731.20031,2.10522q.03151.83412.03234,1.61548V142.987H112.495l-.28766.4129H117.582l-.04922.3818a11.34329,11.34329,0,0,1-2.01208,5.3413,5.27925,5.27925,0,0,1-3.76328,2.25135h-.29557l-.03978-.29279a10.48072,10.48072,0,0,0-.73125-2.90682,1.63678,1.63678,0,0,0-.80927-.86,3.84521,3.84521,0,0,0-1.57558-.26624,2.03155,2.03155,0,0,0-1.56673.69991,2.45308,2.45308,0,0,0-.65393,1.736c0,2.30571,1.30433,3.42655,3.98746,3.42655a7.53094,7.53094,0,0,0,4.18589-1.478,10.45427,10.45427,0,0,0,3.501-4.20891l.64319.147a7.00412,7.00412,0,0,0,1.13518,3.8454,3.17706,3.17706,0,0,0,2.75313,1.69451c1.65408,0,3.49206-1.09617,5.46295-3.25793a19.989,19.989,0,0,0,2.59826-3.59882l-.94242-.85466c-2.336,3.17678-4.63628,5.24813-5.95512,5.24813-1.8944,0-2.79948-2.54841-2.79948-6.70938v-.33842h5.49851l-.16278-.4129h-5.33573v-.33842c0-1.39539.86939-2.76169,1.588-4.06094a8.70693,8.70693,0,0,1,2.86833-3.1243l.32921-.21524.16372.35771.36262.79222a4.19178,4.19178,0,0,0,1.13624,1.421,2.718,2.718,0,0,0,1.85922.69318,1.86123,1.86123,0,0,0,1.59364-.77138,3.45155,3.45155,0,0,0,.61-2.10935A2.2076,2.2076,0,0,0,130.37125,133.76713Z" transform="translate(0.32119 -0.08824)" fill="#fff"/></svg>