<?xml version="1.0" encoding="utf-8"?>
<!-- Generator: Adobe Illustrator 23.0.3, SVG Export Plug-In . SVG Version: 6.00 Build 0)  -->
<svg version="1.1" id="Layer_1" xmlns="http://www.w3.org/2000/svg" xmlns:xlink="http://www.w3.org/1999/xlink" x="0px" y="0px"
	 viewBox="0 0 150 150" style="enable-background:new 0 0 150 150;" xml:space="preserve">
<style type="text/css">
	.st0{fill:#231F20;}
	.st1{display:none;fill:#231F20;}
</style>
<g>
	<path class="st0" d="M133.29,43.81H52.84c-2.33,0-4.22-1.89-4.22-4.22V28.28c0-2.33,1.89-4.22,4.22-4.22h80.45
		c2.33,0,4.22,1.89,4.22,4.22v11.31C137.51,41.92,135.62,43.81,133.29,43.81z"/>
	<path class="st0" d="M133.29,80.21H52.84c-2.33,0-4.22-1.89-4.22-4.22V64.68c0-2.33,1.89-4.22,4.22-4.22h80.45
		c2.33,0,4.22,1.89,4.22,4.22v11.31C137.51,78.32,135.62,80.21,133.29,80.21z"/>
	<path class="st0" d="M41.58,116.62h-14.6c-2.33,0-4.22-1.89-4.22-4.22V28.28c0-2.33,1.89-4.22,4.22-4.22h14.6
		c2.33,0,4.22,1.89,4.22,4.22v84.12C45.81,114.73,43.91,116.62,41.58,116.62z"/>
	<g>
		<path class="st0" d="M84.9,116.62H52.78c-2.3,0-4.16-1.86-4.16-4.16V98.42c0-2.3,1.86-4.16,4.16-4.16H84.9
			c2.3,0,4.16,1.86,4.16,4.16v14.03C89.06,114.76,87.2,116.62,84.9,116.62z"/>
		<path class="st0" d="M133.35,116.62h-32.13c-2.3,0-4.16-1.86-4.16-4.16V98.42c0-2.3,1.86-4.16,4.16-4.16h32.13
			c2.3,0,4.16,1.86,4.16,4.16v14.03C137.51,114.76,135.65,116.62,133.35,116.62z"/>
	</g>
</g>
<path class="st1" d="M201.43,127.25h-14.6c-2.33,0-4.22-1.89-4.22-4.22V38.91c0-2.33,1.89-4.22,4.22-4.22h14.6
	c2.33,0,4.22,1.89,4.22,4.22v84.12C205.65,125.35,203.76,127.25,201.43,127.25z"/>
</svg>
