<?xml version="1.0" encoding="utf-8"?>
<!-- Generator: Adobe Illustrator 23.0.6, SVG Export Plug-In . SVG Version: 6.00 Build 0)  -->
<svg version="1.1" id="Layer_1" xmlns="http://www.w3.org/2000/svg" xmlns:xlink="http://www.w3.org/1999/xlink" x="0px" y="0px"
	 viewBox="0 0 1450.2 1025.4" style="enable-background:new 0 0 1450.2 1025.4;" xml:space="preserve">
<style type="text/css">
	.st0{display:none;fill:#5A64AC;stroke:#000000;stroke-miterlimit:10;}
	.st1{display:none;fill:none;stroke:#000000;stroke-width:0.5;stroke-miterlimit:10;}
	.st2{opacity:0.93;fill:none;stroke:#DBDCF0;stroke-width:2;stroke-miterlimit:10;}
	.st3{display:none;}
	.st4{fill:none;stroke:#DBDCF0;stroke-width:22;stroke-miterlimit:10;}
	.st5{fill:none;stroke:#DBDCF0;stroke-miterlimit:10;}
	.st6{fill:none;}
	.st7{fill:#FDE7DB;}
	.st8{fill:#F8BB97;}
	.st9{fill:#F2DFD7;}
	.st10{fill:none;stroke:#010202;stroke-miterlimit:10;}
	.st11{fill:none;stroke:#FFFFFF;stroke-miterlimit:10;}
	.st12{fill:none;stroke:#000000;stroke-linecap:round;stroke-linejoin:round;stroke-miterlimit:10;}
	.st13{fill:none;stroke:#000000;stroke-width:0.5;stroke-linecap:round;stroke-linejoin:round;stroke-miterlimit:10;}
	.st14{fill:none;stroke:#000000;stroke-miterlimit:10;}
	.st15{stroke:#50579F;stroke-miterlimit:10;}
	.st16{fill:none;stroke:#000000;stroke-width:0.5;stroke-miterlimit:10;}
	.st17{fill:#5A64AC;}
	.st18{fill:none;stroke:#000000;stroke-linecap:round;stroke-miterlimit:10;}
	.st19{fill:#FFFFFF;}
	.st20{fill:none;stroke:#010202;stroke-width:0.25;stroke-miterlimit:10;}
	.st21{fill:#5A64AC;stroke:#000000;stroke-miterlimit:10;}
	.st22{fill:#5A64AC;stroke:#FFFFFF;stroke-miterlimit:10;}
	.st23{fill:#50579F;}
	.st24{fill:none;stroke:#52B583;stroke-width:0.5;stroke-miterlimit:10;}
	.st25{fill:#DBDCF0;}
	.st26{fill:#F8BB97;stroke:#FFFFFF;stroke-miterlimit:10;}
	.st27{fill:none;stroke:#FDE7DB;stroke-width:0.25;stroke-miterlimit:10;}
	.st28{fill:none;stroke:#FFFFFF;stroke-width:0.25;stroke-linecap:round;stroke-miterlimit:10;}
	.st29{fill:#F8BB97;stroke:#FFFFFF;stroke-linecap:round;stroke-miterlimit:10;}
	.st30{fill:none;stroke:#5A64AC;stroke-miterlimit:10;}
	.st31{display:none;fill:#5A64AC;}
	.st32{fill:#F7F7F0;}
	.st33{fill:none;stroke:#F7F7F0;stroke-width:0.5;stroke-miterlimit:10;}
	.st34{fill:none;stroke:#B0BCE1;stroke-miterlimit:10;}
	.st35{fill:#FAFAFA;}
	.st36{fill:none;stroke:#020304;stroke-linecap:round;stroke-miterlimit:10;}
	.st37{fill:none;stroke:#020304;stroke-miterlimit:10;}
	.st38{fill:none;stroke:#50579F;stroke-miterlimit:10;}
	.st39{fill:none;stroke:#364372;stroke-miterlimit:10;}
	.st40{fill:#52B583;}
	.st41{fill:#5A64AC;stroke:#364372;stroke-miterlimit:10;}
	.st42{fill:#111110;}
	.st43{fill:none;stroke:#52B583;stroke-miterlimit:10;}
	.st44{fill:none;stroke:#DBDCF0;stroke-width:0.5;stroke-miterlimit:10;}
	.st45{fill:none;stroke:#000000;stroke-width:0.75;stroke-miterlimit:10;}
	.st46{fill:none;stroke:#FFFFFF;stroke-width:0.25;stroke-miterlimit:10;}
	.st47{clip-path:url(#SVGID_2_);}
	.st48{clip-path:url(#SVGID_4_);fill:#FFFFFF;}
	.st49{clip-path:url(#SVGID_6_);fill:#FFFFFF;}
	.st50{clip-path:url(#SVGID_8_);fill:#FFFFFF;}
	.st51{clip-path:url(#SVGID_10_);fill:#FFFFFF;}
	.st52{clip-path:url(#SVGID_12_);fill:#FFFFFF;}
	.st53{clip-path:url(#SVGID_14_);fill:#FFFFFF;}
	.st54{clip-path:url(#SVGID_16_);fill:#FFFFFF;}
	.st55{clip-path:url(#SVGID_18_);fill:none;stroke:#FFFFFF;stroke-width:1.7552;}
	.st56{clip-path:url(#SVGID_20_);}
	.st57{clip-path:url(#SVGID_22_);fill:#FFFFFF;}
	.st58{clip-path:url(#SVGID_24_);fill:#FFFFFF;}
	.st59{clip-path:url(#SVGID_26_);fill:#FFFFFF;}
	.st60{clip-path:url(#SVGID_28_);fill:#FFFFFF;}
	.st61{clip-path:url(#SVGID_30_);fill:#FFFFFF;}
	.st62{clip-path:url(#SVGID_32_);fill:#FFFFFF;}
	.st63{clip-path:url(#SVGID_34_);fill:#FFFFFF;}
	.st64{clip-path:url(#SVGID_36_);fill:none;stroke:#FFFFFF;stroke-width:2.9132;}
	.st65{clip-path:url(#SVGID_38_);}
	.st66{clip-path:url(#SVGID_40_);fill:#FFFFFF;}
	.st67{clip-path:url(#SVGID_42_);fill:#FFFFFF;}
	.st68{clip-path:url(#SVGID_44_);fill:#FFFFFF;}
	.st69{clip-path:url(#SVGID_46_);fill:#FFFFFF;}
	.st70{clip-path:url(#SVGID_48_);fill:#FFFFFF;}
	.st71{clip-path:url(#SVGID_50_);fill:#FFFFFF;}
	.st72{clip-path:url(#SVGID_52_);fill:#FFFFFF;}
	.st73{clip-path:url(#SVGID_54_);fill:none;stroke:#FFFFFF;stroke-width:1.4557;}
	.st74{fill:none;stroke:#F8BB97;stroke-miterlimit:10;}
	.st75{fill:#E8C6B3;}
	.st76{fill:#EFD4C3;}
	.st77{fill:none;stroke:#EFD4C3;stroke-linecap:round;stroke-miterlimit:10;}
	.st78{fill:#010202;}
	.st79{fill:none;stroke:#010202;stroke-width:0.5;stroke-linecap:round;stroke-miterlimit:10;}
	.st80{clip-path:url(#SVGID_56_);}
	.st81{clip-path:url(#SVGID_58_);fill:#FFFFFF;}
	.st82{clip-path:url(#SVGID_60_);fill:#FFFFFF;}
	.st83{clip-path:url(#SVGID_62_);fill:#FFFFFF;}
	.st84{clip-path:url(#SVGID_64_);fill:#FFFFFF;}
	.st85{clip-path:url(#SVGID_66_);fill:#FFFFFF;}
	.st86{clip-path:url(#SVGID_68_);fill:#FFFFFF;}
	.st87{clip-path:url(#SVGID_70_);fill:#FFFFFF;}
	.st88{clip-path:url(#SVGID_72_);fill:none;stroke:#FFFFFF;stroke-width:2.5061;}
	.st89{fill:none;stroke:#DBDCF0;stroke-linecap:round;stroke-miterlimit:10;}
	.st90{fill:none;stroke:#DBDCF0;stroke-linecap:round;stroke-miterlimit:10;stroke-dasharray:2.9984,2.9984,2.9984,2.9984;}
	
		.st91{fill:none;stroke:#DBDCF0;stroke-linecap:round;stroke-miterlimit:10;stroke-dasharray:2.9984,2.9984,2.9984,2.9984,2.9984,2.9984;}
	.st92{fill:none;stroke:#FDFDFD;stroke-width:0.75;stroke-linecap:round;stroke-miterlimit:10;}
	.st93{fill:none;stroke:#E4E4EA;stroke-width:0.5;stroke-miterlimit:10;}
	.st94{fill:none;stroke:#E4E4EA;stroke-linecap:round;stroke-miterlimit:10;}
	.st95{fill:none;stroke:#E4E4EA;stroke-width:0.5;stroke-linecap:round;stroke-miterlimit:10;}
	.st96{fill:none;stroke:#13110A;stroke-linecap:round;stroke-linejoin:round;stroke-miterlimit:10;}
	.st97{fill:#5261A9;stroke:#000000;stroke-miterlimit:10;}
	.st98{fill:#13110A;}
	.st99{fill:#6F6FB2;}
	.st100{fill:none;stroke:#080909;stroke-miterlimit:10;}
	.st101{fill:#5A64AC;stroke:#000000;stroke-width:0.5;stroke-miterlimit:10;}
	.st102{fill:none;stroke:#13110A;stroke-width:0.25;stroke-miterlimit:10;}
	.st103{fill:none;stroke:#13110A;stroke-linecap:round;stroke-miterlimit:10;}
	.st104{fill:none;stroke:#13110A;stroke-width:0.75;stroke-linecap:round;stroke-miterlimit:10;}
	.st105{clip-path:url(#SVGID_74_);}
	.st106{clip-path:url(#SVGID_76_);fill:#FFFFFF;}
	.st107{clip-path:url(#SVGID_78_);fill:#FFFFFF;}
	.st108{clip-path:url(#SVGID_80_);fill:#FFFFFF;}
	.st109{clip-path:url(#SVGID_82_);fill:#FFFFFF;}
	.st110{clip-path:url(#SVGID_84_);fill:#FFFFFF;}
	.st111{clip-path:url(#SVGID_86_);fill:#FFFFFF;}
	.st112{clip-path:url(#SVGID_88_);fill:#FFFFFF;}
	.st113{clip-path:url(#SVGID_90_);fill:none;stroke:#FFFFFF;stroke-width:1.494;}
</style>
<rect y="0" class="st0" width="1453" height="1024.6"/>
<image style="display:none;overflow:visible;enable-background:new    ;" width="5312" height="2988" xlink:href="20190823_234712_HDR.jpg"  transform="matrix(1.890094e-09 0.1585 -0.1585 1.890094e-09 657.775 -91.6495)">
</image>
<path class="st1" d="M706.3,261.1l3.5-4.4c0.8-1.1,2.4-1.3,3.5-0.6l10.8,6.6c1.8,1.1,3.4,2.5,4.7,4.1c1.1,1.3,1.5,3.1,1.2,4.8
	l-0.1,0.4c-0.3,1.3,0.1,2.7,1.1,3.7c0,0,18.5,17.7,21.8,23.5s8.1,25.2,8.1,25.2c6,26.8-6.1,27.6-6.1,27.6"/>
<rect x="806.8" y="92" class="st2" width="411.6" height="359.7"/>
<image style="display:none;overflow:visible;enable-background:new    ;" width="564" height="376" xlink:href="people/eaffb23e4ce2d2b1f4b2ee2360bb64d6.jpg"  transform="matrix(1 0 0 1 84.5199 159.7509)">
</image>
<image style="display:none;overflow:visible;enable-background:new    ;" width="564" height="376" xlink:href="people/73320d05054a85861d7505618d6b0d28.jpg"  transform="matrix(1 0 0 1 304.1588 292.574)">
</image>
<image style="display:none;overflow:visible;enable-background:new    ;" width="564" height="564" xlink:href="people/aede9e6a474bbd5f9c5c519217308fbb.jpg"  transform="matrix(1 0 0 1 268.8087 55.3538)">
</image>
<path class="st3" d="M729.2,304.9c0,0,2.8,8.3-0.3,9c0,0-2.6,1.5-3.1,0.5l-1.3,4.3l6.2,5.5l10.1-6.2l-3.8-9.4l-4.9-5.2L729.2,304.9z
	"/>
<path class="st0" d="M711.2,286.1l16.7,15.5c0,0,9.1,11.9-3.5,17.1c0,0,10.4,18.7,20.9,25.8c0,0,5.1,9.7,10.2,8.2
	c5.1-1.5,7.5-8.3,7.4-14.4c0,0-2.6-31.1-10.9-41.2l-21-21.5l-7.1-6.1l-2.3,3.5c0,0,25,21.1,25,23c0,0,2,12.1-0.5,12.2
	c0,0-2.1-1.4-4.4-3.5c0,0-14.8-5.7-28.5-20.4L711.2,286.1z"/>
<line class="st4" x1="1020.8" y1="287.1" x2="1020.8" y2="357.1"/>
<line class="st4" x1="986.4" y1="264.9" x2="986.4" y2="358.1"/>
<line class="st4" x1="1056.8" y1="252" x2="1056.8" y2="357.1"/>
<path class="st5" d="M1116.9,190.2h-239c-6.6,0-12-5.4-12-12v-10.3c0-6.6,5.4-12,12-12h239c6.6,0,12,5.4,12,12v10.3
	C1128.9,184.8,1123.5,190.2,1116.9,190.2z"/>
<path class="st6" d="M978.3,465.4"/>
<g>
	<g>
		<path class="st7" d="M1357.4,275l-67.2,88.9l-94.4-78.4c21.3-23.5,52.1-38.2,86.3-38.2C1310.8,247.4,1337.1,257.8,1357.4,275z"/>
		<path class="st8" d="M1400.3,370.3c0,64.4-52.2,116.5-116.5,116.5c-24,0-46.4-7.3-64.9-19.8l73.1-96.8l67.2-88.9
			C1384.2,302.8,1400.3,334.7,1400.3,370.3z"/>
		<path class="st9" d="M1290.3,370.3l-73.1,96.8c-31.1-20.9-51.6-56.5-51.6-96.8c0-30.2,11.5-57.6,30.3-78.4L1290.3,370.3z"/>
	</g>
	<g>
		<path class="st10" d="M1259.3,334.4"/>
		<path class="st11" d="M1258.7,361.5l45.3,42.2l0,0c0.2,0.4,10.4,18.3-2.5,17.7c-0.1,0-0.2,0.2-0.1,0.2l9.2,4"/>
		<path class="st12" d="M1246.1,376.7c0,0,5.7,23.7,11.5,22.8"/>
		<path class="st13" d="M1367.2,382.8c0,0-6.3-9.7-4-17.2c0,0,4.1-8.6-13.6-10.3c-16.6-1.6-19.2-16.4-19.5-18.3
			c0-0.1-0.1-0.3-0.1-0.4c-0.6-1.5-4.8-10.2-16.8-5.5c-12.3,4.9-26.1-6.5-27.8-8c-0.1-0.1-0.2-0.2-0.4-0.2"/>
		<path d="M1246.8,330.7c0,0-0.6,8.5-0.2,9.2s3.4-1.7,3.4-1.7L1246.8,330.7z"/>
		<path class="st14" d="M1229.4,335.1"/>
		<path class="st15" d="M1299.5,425.5c-0.9,1.4-2.7,2-4.3,1.2l-31.5-15.2c-1.1-0.5-2.3-0.9-3.6-0.9c-5-0.3-17.2,0.6-14.9,15.9
			c0.3,1.9,1.2,3.6,2.6,4.8l29.7,26.5"/>
		<path class="st16" d="M1257.1,399.9c-46.7,24.3-57.8,24.1-57.8,24.1l-4.1-9.3l50.7-37.7"/>
		<line class="st10" x1="1320.1" y1="493.2" x2="1334.9" y2="491.8"/>
		<polyline class="st14" points="1269.1,266 1262.9,248.1 1261.6,249.5 		"/>
		<polyline class="st14" points="1271.9,263.2 1265.8,246.2 1264.7,248.8 		"/>
		<polyline class="st14" points="1276.3,261.2 1270.1,246 1269.3,248.1 		"/>
		<path class="st14" d="M1278.4,249.8l2.4,10.7l4.1,18.6c0,0,26,57.6,23.8,74.8l-9.8-1.8l-14.4-8.8l-10.6-63.2l-4.8-7.6l-7.9-7.2"/>
		<polyline class="st14" points="1195.1,414.8 1186.7,418.7 1178.8,412.5 		"/>
		<polyline class="st14" points="1184.4,424.5 1179.3,426.7 1178,427.3 1178.9,423.9 		"/>
		<polyline class="st14" points="1183.6,422 1179.6,423.8 1178.3,424.4 1179.2,421 		"/>
		<polyline class="st14" points="1185.3,426.9 1179.8,429.4 1178.5,430 1179.4,426.6 		"/>
		<polyline class="st14" points="1179.8,429.1 1178.8,432.5 1180.2,431.9 1186,429.5 1199.3,423.4 		"/>
		<path class="st17" d="M1272.4,328.1c3.2,8.7,0.5,17.7-6,20.1s-14.4-2.7-17.6-11.4c-1.2-3.3-1.6-6.6-1.2-9.5c0.6-5,3.1-9,7.2-10.5
			C1261.4,314.3,1269.2,319.4,1272.4,328.1z"/>
		<path class="st18" d="M1255.9,346.7c0,0,3,0.5,3-3.4"/>
		<g>
			<circle cx="1251.5" cy="330.4" r="2"/>
			<path class="st13" d="M1252.4,326c0,0-3.7,0.4-4.2,2.8"/>
			<polygon class="st19" points="1249.4,331 1250.7,330.5 1250.3,332.1 			"/>
		</g>
		<ellipse class="st20" cx="1263.2" cy="335.7" rx="3.4" ry="4.8"/>
		<ellipse class="st20" cx="1263.2" cy="337.4" rx="2.2" ry="3"/>
		<line class="st14" x1="1285" y1="279.1" x2="1273.9" y2="280.1"/>
		<path class="st21" d="M1290.9,427.7"/>
		<path class="st14" d="M1283.7,379.6"/>
		<path class="st22" d="M1281.8,383.2"/>
		<path d="M1276.9,455.7l18.4,5.1c0,0,9.1-7,9.2-12c0.1-4.9-3.8-10.8-3.4-13.6c0.3-2.8-1.6-8.8-1.6-8.8l-21.1,0.8L1276.9,455.7z"/>
		<path class="st23" d="M1305.2,460.3"/>
		<path class="st15" d="M1299.5,425.5c0,6.5,9.3,17.5,15.1,21.3c5.9,3.8,17.6,2.5,20.5,13.3l4.5,10.3l-22.8,10l4.8,16.2l-67.2,18.8
			c-0.8,0-1.6-0.1-2.3-0.2c-4.8-0.6-8.9-3.9-10.7-8.4l-2.4-6c-3.8-10.9,11.5-22.4,11.5-22.4l46.4-36.4"/>
		<polygon points="1300.9,424.8 1299.9,427.9 1303.5,435.3 1308.3,441.3 1311.8,439.1 		"/>
		<path class="st8" d="M1245.8,376.7c0,0,5.7,21.7,11.8,22.6l18.7-15.3v6.2l28.4-34.6l-15.2-9.5c0,0-7-10-13.6,1.8
			c0,0,0.2,7-8.6,8.2c0,0-5.5-2.1-10.3,6.6L1245.8,376.7z"/>
		<circle class="st14" cx="1308.1" cy="357.8" r="3.6"/>
		<circle class="st14" cx="1304.7" cy="348" r="3.6"/>
		<circle class="st11" cx="1317.2" cy="357.3" r="3.6"/>
		<polygon class="st11" points="1281.8,383.2 1283.9,380.3 1261.5,358.1 1258.7,361.5 		"/>
		<path class="st17" d="M1261.6,348.4l6.9,10c0,0,6.6-2.7,8.7-6.3l-7.1-7.8L1261.6,348.4z"/>
		<line class="st24" x1="1335.7" y1="476.4" x2="1347.6" y2="503.6"/>
		<line class="st10" x1="1317.4" y1="482.8" x2="1329.1" y2="481.8"/>
		<path class="st25" d="M1327.3,481c0,0,4.7-0.3,4,10.6c0,0,8.4,12.6,15.3,12.1l1.7-0.5c0,0-8-23.7-11-27.6
			C1337.3,475.6,1331.2,476.2,1327.3,481z"/>
		<g>
			<path class="st24" d="M1334.4,492.5c0,0-2.6-0.1-1.8,1.5"/>
			<g>
				<path class="st24" d="M1342,502.9l-0.3-1.6c0,0,0.4-1.9,0.5-2.2c0.1-0.3,0.4-3.6,0.3-4.1c-0.1-0.6-0.8-1.3-0.5-3.8"/>
				<path class="st24" d="M1329.3,479.7c0,0,0.3,2.2,3,2.4l6.4,0.7"/>
				<path class="st24" d="M1335.4,494.5c0,0-2.9,0.1-1.7,1.3"/>
				<path class="st24" d="M1337.1,495.8c0,0-3.6,1.3-1.5,1.7"/>
				<path class="st24" d="M1339,498c0,0-3.9,0.6-2.1,1.1"/>
				<line class="st24" x1="1334.3" y1="490.1" x2="1336.5" y2="484.9"/>
				<line class="st24" x1="1336.3" y1="491.8" x2="1338.4" y2="488"/>
				<line class="st24" x1="1338.9" y1="493.5" x2="1339.8" y2="491.2"/>
			</g>
		</g>
		<g>
			<circle class="st11" cx="1264.3" cy="364.2" r="3.6"/>
			<circle class="st11" cx="1254.2" cy="381.3" r="3.6"/>
			<path class="st11" d="M1269,389.4c-1.8,1.6-3.6,3.1-5.4,4.5c-0.8-1.4-0.7-3.2,0.5-4.4C1265.5,388.2,1267.7,388.2,1269,389.4z"/>
			<circle class="st11" cx="1264.5" cy="382.5" r="3.6"/>
			<circle class="st11" cx="1278.6" cy="372.9" r="3.6"/>
			<circle class="st11" cx="1286.2" cy="361.2" r="3.6"/>
			<circle class="st11" cx="1284.9" cy="345.4" r="3.6"/>
			<circle class="st11" cx="1294.6" cy="365.1" r="3.6"/>
			<circle class="st11" cx="1278.6" cy="354.8" r="3.6"/>
		</g>
		<polygon class="st11" points="1276,348.2 1277.6,346.3 1299.4,362 1295.5,365.9 		"/>
		<path class="st26" d="M1304.5,356.1c44.4,41.3,44.7,94.4,44.7,94.4c2.2,16-9.4,19.5-10,19.4s-0.9-3.2-0.9-3.2
			c-2.3-9.4-9.2-15.5-9.2-15.5c-6.9-2.9-16.2-6.1-16.2-6.1c-10.7-8.6-14.2-20-14.2-20c4.9-12.9-6.7-21-6.7-21
			c-1.6-4.3-5.4-2.9-5.4-2.9c-8.7,4.7-10.9-12.2-10.9-12.2"/>
		<path d="M1251.6,322.1c0.2,3.7,1.7,9.4,8.5,10.3c0.5,0.1,1.1-0.2,1.4-0.6c1-1.2,3.4-3.1,5.2,3.8c0,0,0.8,10.5,7.6,3.2
			c0.2-0.2,0.3-0.4,0.4-0.6l0,0c0.5-1.6,2.8-1.5,3.1,0.1c0.7,3.3,3.8,7.8,16.1,6.4c0.8-0.1,1.5,0.4,1.7,1.2
			c1.1,4.1,5.3,16.6,13.7,20.6c0.2,0.1,0.4,0.1,0.6,0.1c2.5,0.2,19.6,1.9,19,18.4c0,0-12,26.6,18.8,11.5c0.1-0.1,0.2-0.1,0.3-0.1
			c2-0.5,22.1-5.4,17.9-12.2c0,0-6.3-9.7-4-17.2c0,0,4.1-8.6-13.6-10.3c-16.6-1.6-19.2-16.4-19.5-18.3c0-0.1-0.1-0.3-0.1-0.4
			c-0.6-1.5-4.8-10.2-16.8-5.5c-12.3,4.9-26.1-6.5-27.8-8c-0.1-0.1-0.2-0.2-0.4-0.2c-1.2-0.5-6.9-2.6-7,3.9
			c-0.1,6.8-3.7-5.5-4.1-6.9c0-0.1-0.1-0.2-0.1-0.3c-0.7-1.4-7.9-14.8-19-4C1252.2,318.3,1251.5,320.2,1251.6,322.1z"/>
		<path class="st27" d="M1337.9,390.7"/>
		<path class="st11" d="M1261.5,358.1c0,0,44.6,47,59.8,50.2c1.4,0.3,2.6,1.1,3.6,2.2c2.4,2.7,6.4,5.4,3.6-12.2
			c-0.3-2-1.3-3.9-2.9-5.3l-49.6-44.8l1.6-1.8l29.5,21.3"/>
		<g>
			<circle class="st11" cx="1299.1" cy="392.3" r="3.6"/>
			<circle class="st11" cx="1309.7" cy="388.7" r="3.6"/>
			<circle class="st11" cx="1307.8" cy="366.3" r="3.6"/>
			<circle class="st11" cx="1296.1" cy="374.7" r="3.6"/>
			<circle class="st11" cx="1325.3" cy="409.7" r="3.6"/>
			<circle class="st11" cx="1319.6" cy="415.1" r="3.6"/>
			<circle class="st11" cx="1333.8" cy="413.7" r="3.6"/>
			<circle class="st11" cx="1322.7" cy="390.4" r="3.6"/>
			<circle class="st11" cx="1312.6" cy="407.5" r="3.6"/>
			<circle class="st11" cx="1304.6" cy="420.9" r="3.6"/>
			<circle class="st11" cx="1300.6" cy="403.1" r="3.6"/>
			<circle class="st11" cx="1312.6" cy="424.7" r="3.6"/>
			<circle class="st11" cx="1282.9" cy="398.7" r="3.6"/>
		</g>
		<g>
			<path class="st28" d="M1298.8,426.1l5.7,3.6c1.6,1,3.4,1.5,5.2,1.6l4.9,0.2"/>
			<line class="st28" x1="1299.5" y1="421.7" x2="1310.7" y2="426"/>
			<line class="st28" x1="1299.1" y1="424.3" x2="1305.4" y2="426.6"/>
		</g>
		<polyline class="st29" points="1342.6,460.4 1340.4,467.5 1344.2,462.8 		"/>
		<line class="st11" x1="1280.7" y1="382.1" x2="1283.1" y2="379.9"/>
		<line class="st11" x1="1295.5" y1="365.9" x2="1299.4" y2="362"/>
	</g>
</g>
<g>
	<polygon class="st25" points="274.2,123.7 300.6,148.6 268.7,150.6 274.7,142.7 275.3,141.9 	"/>
	<line class="st30" x1="300.6" y1="148.6" x2="275.3" y2="141.9"/>
</g>
<g>
	<polygon class="st25" points="656.5,661.4 627.1,660 650,681.9 648.7,673 648.6,672.1 	"/>
	<g>
		<line class="st30" x1="627.1" y1="660" x2="648.6" y2="672.1"/>
	</g>
</g>
<g>
	<polygon class="st25" points="916.1,455.5 945.5,454.1 922.6,476 923.9,467.2 924.1,466.3 	"/>
	<line class="st30" x1="945.5" y1="454.1" x2="924.1" y2="466.3"/>
</g>
<g>
	<polygon class="st25" points="550.9,293.6 574.8,310.8 543.2,313.7 549.7,307.6 550.4,307 	"/>
	<line class="st30" x1="574.8" y1="310.8" x2="550.4" y2="307"/>
</g>
<g>
	<polygon class="st25" points="1311,585.3 1282,590.2 1302.1,565.7 1301.9,574.7 1301.9,575.6 	"/>
	<line class="st30" x1="1282" y1="590.2" x2="1301.9" y2="575.6"/>
</g>
<path class="st31" d="M203,210.5h-82.1c-6.6,0-12-5.4-12-12v-93c0-6.6,5.4-12,12-12H203c6.6,0,12,5.4,12,12v93
	C215,205.1,209.6,210.5,203,210.5z"/>
<g>
	<path class="st23" d="M186.3,195c0,8.7,5.3,15.7,11.7,15.7c2.1,0,4-0.7,5.7-2c0.2-0.1,0.3-0.3,0.5-0.4c0.2-0.2,0.4-0.4,0.6-0.6
		c3-2.8,4.9-7.5,4.9-12.7c0-8.7-5.3-15.7-11.7-15.7S186.3,186.3,186.3,195z"/>
	<path class="st14" d="M295.9,219.9"/>
	<path class="st14" d="M199.4,351.3"/>
	<g>
		<circle cx="202.4" cy="190.9" r="1.9"/>
		<path class="st13" d="M199.1,188.3c0,0,2.9-1.8,4.7-0.4"/>
		<polygon class="st19" points="204.2,190.2 203,190.5 204.2,191.6 		"/>
	</g>
	<polygon points="209.3,188.2 214.4,202.4 211.4,202.6 209.7,200.1 	"/>
	<path class="st32" d="M211.5,182.7c0,0-2.6,9.5-14.1-1.9c0,0-1.3,4.8-4.5,5.3s-4.3,3.6-4.4,8.1s-3.2,2.3-2.2,5.1s-5.6,5.9-6.5,2.5
		s-0.1-18.6-0.1-18.6s0.4-9,4-10.7s5.4-1.3,7.3,0.3c1.9,1.6,11.1-5.9,15.3,0c4.1,5.9,6,4.4,5.4,7.3
		C211.2,182.9,211.5,182.7,211.5,182.7z"/>
	<path class="st33" d="M185.7,200.7c1.2,3.1-6.6,6.6-7.6,2.8s-0.1-20.9-0.1-20.9s0.5-10.1,4.7-11.9c4.2-1.9,6.3-1.4,8.5,0.4
		c2.2,1.8,11.2-6,16,0.6"/>
	<line class="st6" x1="187.1" y1="200.9" x2="179.9" y2="216.4"/>
	<path class="st14" d="M195.4,221"/>
	<path class="st14" d="M197.5,211.1"/>
	<polyline class="st23" points="179.5,215.7 187.3,201.5 198.1,209.2 195.3,221 193,224.5 177.8,221.4 179.5,215.7 	"/>
	<polygon class="st34" points="374,203.4 348,269.7 315.9,264.9 263.9,257 284.5,191.2 	"/>
	<polygon class="st34" points="315.1,294.7 319.2,266.1 300.7,263.1 295.5,295.5 	"/>
	<line class="st34" x1="325.4" y1="206.9" x2="297.6" y2="203.7"/>
	<line class="st34" x1="307.3" y1="210.8" x2="293.6" y2="209"/>
	<path class="st14" d="M300.4,216.6"/>
	<line class="st34" x1="284.1" y1="213.8" x2="300.4" y2="216.6"/>
	<polygon class="st34" points="309.5,252.3 314.6,247.4 312.9,240.5 306,238.5 300.9,243.5 302.7,250.3 	"/>
	<g>
		<polyline class="st34" points="342,261.4 340.9,249.6 336.3,260.5 335.2,248.7 330.5,259.6 329.4,247.8 324.8,258.7 323.7,246.9 
			319,257.8 		"/>
	</g>
	<g>
		<path class="st35" d="M293.9,490.9H313l12.8,5c0,0,4.7-0.4,3.2,9.1l-35.8,0.9l-0.2-15H293.9z"/>
		<line class="st36" x1="293.8" y1="500.1" x2="328.7" y2="501"/>
		<path class="st36" d="M293.6,491.4c0,0,6.6,2.6,6.3,8.9"/>
		<path class="st37" d="M318.9,500.8l4.6-3.4c0.7-0.5,0.5-1.6-0.4-1.8c-13.4-3.2-10.8-4.9-10.8-4.9l3,1.1"/>
	</g>
	<line class="st36" x1="305.8" y1="484.3" x2="309.5" y2="491.1"/>
	<line class="st36" x1="295.3" y1="487.3" x2="297.4" y2="491.6"/>
	<line class="st10" x1="211.1" y1="466.2" x2="206.4" y2="472.2"/>
	<line class="st34" x1="317.9" y1="283.5" x2="336.9" y2="293.2"/>
	<line class="st34" x1="297.5" y1="280.9" x2="274.6" y2="292.5"/>
	<line class="st38" x1="318.2" y1="236.2" x2="308" y2="240.4"/>
	<line class="st38" x1="317.6" y1="232.3" x2="307.2" y2="236.9"/>
	<path class="st38" d="M319.5,213.9l-16.8,16c0,0-5.9,0.2-6.9,5.2c-1,4.9-1.6,6.2-1.6,6.2l-34.9,29l-2.9-1.7L232,254.4"/>
	<polyline class="st39" points="241.1,473.9 161.7,473.9 122.3,473.9 	"/>
	<polygon class="st39" points="161.7,473.9 162.3,369.4 201.7,369.4 201.7,473.1 	"/>
	<line class="st14" x1="225.5" y1="370.2" x2="133.1" y2="370.2"/>
	<path class="st40" d="M225,370.6l0.3-9c0-2.4-6.7-4.3-14.9-4.3h-62.1c-8.2,0-14.9,1.9-14.9,4.3l0.2,9.1"/>
	<polygon points="187.7,359.8 191.9,356 198.2,355.5 199.4,359.1 193.7,360.6 	"/>
	<path d="M225.1,326.4l-3.6,1.4c0,0-13.9,6.9-16.9,13.2c0,0-2.6,2.2-2.3,6.8c0.4,4.6,13.9-6.4,14.1-6.5s7.5-8.8,7.5-8.8L225.1,326.4
		z"/>
	<path class="st41" d="M364,293.6v14.5l-32-1l-121-1l-4.8-0.2l0.1-12.9c0,0,15.8,0,37.5,0l7,4c0,0,1.4,3.2,14.3-4
		C310,293.2,364.3,293.3,364,293.6z"/>
	<line class="st39" x1="333.3" y1="306.7" x2="333.3" y2="472"/>
	<line class="st39" x1="300.4" y1="307.3" x2="300.4" y2="472.6"/>
	<path class="st18" d="M204,208.6c-3.5-3.5-1.9-6.4-1.9-6.4"/>
	<line class="st38" x1="243.8" y1="293" x2="222.1" y2="280.5"/>
	<path class="st38" d="M309.6,243.3l8.9-4l-13.2,6.1c0,0-24.4,38.6-38.7,46.8c-0.5,0.3-1,0.6-1.5,0.8"/>
	<path class="st38" d="M305,235.1l10.2-6.2c4.7,4.2,3.3,10.3,3.3,10.3"/>
	<path class="st14" d="M302.7,229.9"/>
	<polygon points="192.6,365.2 239.1,367.7 261.4,390.3 260.1,418.1 241.4,400.3 234.1,391.8 217.3,385.6 195.5,372.4 	"/>
	<path d="M222.3,344.6L191.9,356l-14.4,3.5c0,0,36.2,31.2,55.2,34.4c0,0,29,70.4,60.4,93.6l15.8-3.9l-31.4-66.8"/>
	<line class="st6" x1="229.2" y1="372.8" x2="218" y2="345.9"/>
	<path class="st42" d="M193,355.8l60.4,34.2l-45.8,73.6l14.6,12.3l69.6-74.2c10.7-22.3,0-27.8,0-27.8l-67.2-47.5l-19.3-0.2
		c0,0-13.9,6.5-13.9,8.4S193,355.8,193,355.8z"/>
	<path class="st19" d="M204.9,471.4l13.4,8.7c0,0-2.3,5.6,4.8,11.9c0,0,6.8,4.1,3.3,10.4l-11.6-1.8l-17.3-18.1
		C197.4,482.7,200.9,472.4,204.9,471.4z"/>
	<g>
		<path class="st43" d="M205.1,472.6c0,0,4.7,6.8-2,10.4"/>
		<polyline class="st43" points="200.6,480.8 214.7,497.1 227.1,499.2 		"/>
		<path class="st43" d="M223.9,493.2c0,0-6.4-2.4-11,1.3"/>
		<path class="st43" d="M217.2,479.1l-3.2-0.4c0,0-1.4,5.6,1.6,9.4"/>
	</g>
	<line class="st10" x1="219.1" y1="472.9" x2="214" y2="478.7"/>
	<polygon class="st17" points="218.5,472.7 214.3,477.4 207.1,472.7 211.7,468.8 	"/>
	<path class="st44" d="M212.7,341.9c0,0,82.3,36,69.4,52"/>
	<line class="st44" x1="277.8" y1="399" x2="246.2" y2="435.8"/>
	<line class="st44" x1="243" y1="441.7" x2="236.5" y2="448.8"/>
	<line class="st44" x1="230.7" y1="454.2" x2="229.8" y2="456.2"/>
	<line class="st44" x1="224.9" y1="462.6" x2="217.2" y2="469.7"/>
	<path class="st25" d="M179.4,214.4c0,0-11-1.3-21.3,24.5c0,0-9,18.4-5.8,61.6s7.1,55.2,7.1,55.2s21.9,7.9,33.6,0
		c10.9-7.3,9.7-8.9,9.7-8.9s-3.1-9.5,25.2-22.1c0,0-21.8-36.6-21.6-43.3v-6.7l14.8,8.6l11.6-31.9c0,0-2.8-3.1-7.2-7.5
		c-6.9-6.8-18-16.6-29.2-22.9C196.2,221.2,179.4,220.1,179.4,214.4z"/>
	<line class="st45" x1="206.2" y1="274.8" x2="193" y2="267"/>
	<path class="st16" d="M161.3,353.2c0,0,4.5,4.4,17.8,2.6"/>
	<path class="st16" d="M161.5,351.1c0,0,4.5,4.4,17.8,2.6"/>
	<path class="st16" d="M179.4,214.4c0,0-3.2,3.2,7.6,6.2"/>
	<path class="st25" d="M136.3,260.4"/>
	<line class="st45" x1="221.2" y1="240.1" x2="232.7" y2="251.5"/>
	<polyline class="st44" points="258.1,387 253.3,390 257.8,390.7 	"/>
	<path class="st46" d="M232.7,393.9c0,0,7.3-1.1,7.3-3.7"/>
	<g>
		<g>
			<g>
				<defs>
					
						<rect id="SVGID_1_" x="301.6" y="182.9" transform="matrix(0.2339 -0.9723 0.9723 0.2339 44.4456 505.6288)" width="83" height="83.4"/>
				</defs>
				<clipPath id="SVGID_2_">
					<use xlink:href="#SVGID_1_"  style="overflow:visible;"/>
				</clipPath>
				<g class="st47">
					<g>
						<defs>
							
								<rect id="SVGID_3_" x="301.6" y="182.9" transform="matrix(0.2339 -0.9723 0.9723 0.2339 44.4456 505.6288)" width="83" height="83.4"/>
						</defs>
						<clipPath id="SVGID_4_">
							<use xlink:href="#SVGID_3_"  style="overflow:visible;"/>
						</clipPath>
						<path class="st48" d="M337.5,241.4c-7-1.7-12.3-4.3-11.9-5.9l0.4,0.1c-0.3,1.4,5,4,11.6,5.6c7.1,1.7,12.6,1.4,12.8,0.3
							l0.4,0.1C350.4,242.9,344.4,243.1,337.5,241.4"/>
					</g>
					<g>
						<defs>
							
								<rect id="SVGID_5_" x="301.6" y="182.9" transform="matrix(0.2339 -0.9723 0.9723 0.2339 44.4456 505.6288)" width="83" height="83.4"/>
						</defs>
						<clipPath id="SVGID_6_">
							<use xlink:href="#SVGID_5_"  style="overflow:visible;"/>
						</clipPath>
						<path class="st49" d="M325.7,235.7c-0.1,0-0.2-0.1-0.1-0.2l6.9-28.8c0-0.1,0.1-0.1,0.2-0.1s0.2,0.1,0.1,0.2l-6.9,28.8
							C325.9,235.7,325.8,235.7,325.7,235.7"/>
					</g>
					<g>
						<defs>
							
								<rect id="SVGID_7_" x="301.6" y="182.9" transform="matrix(0.2339 -0.9723 0.9723 0.2339 44.4456 505.6288)" width="83" height="83.4"/>
						</defs>
						<clipPath id="SVGID_8_">
							<use xlink:href="#SVGID_7_"  style="overflow:visible;"/>
						</clipPath>
						<path class="st50" d="M344.5,212.3c-6.2-1.5-12.3-4-11.9-5.6s7-1.1,13.2,0.4s12.3,4,11.9,5.6S350.6,213.8,344.5,212.3
							 M345.7,207.4c-7.3-1.8-12.5-1.7-12.8-0.6s4.3,3.5,11.7,5.3c7.3,1.8,12.5,1.7,12.8,0.6C357.6,211.5,353,209.2,345.7,207.4"/>
					</g>
					<g>
						<defs>
							
								<rect id="SVGID_9_" x="301.6" y="182.9" transform="matrix(0.2339 -0.9723 0.9723 0.2339 44.4456 505.6288)" width="83" height="83.4"/>
						</defs>
						<clipPath id="SVGID_10_">
							<use xlink:href="#SVGID_9_"  style="overflow:visible;"/>
						</clipPath>
						<path class="st51" d="M357.5,212.6c-0.1,0-0.2,0-0.2,0.1l-3.4,14.2c0.1,0,0.1,0,0.2,0h0.1h0.1l3.4-14.2
							C357.7,212.7,357.6,212.7,357.5,212.6"/>
					</g>
					<g>
						<defs>
							
								<rect id="SVGID_11_" x="301.6" y="182.9" transform="matrix(0.2339 -0.9723 0.9723 0.2339 44.4456 505.6288)" width="83" height="83.4"/>
						</defs>
						<clipPath id="SVGID_12_">
							<use xlink:href="#SVGID_11_"  style="overflow:visible;"/>
						</clipPath>
						<path class="st52" d="M355.9,219.1c-0.1,0-0.1,0-0.2-0.1l-5.3,21.9c-0.1,0.4-0.1,0.7,0,0.7s0.2-0.2,0.3-0.6L355.9,219.1
							L355.9,219.1C356,219.1,356,219.1,355.9,219.1"/>
					</g>
					<g>
						<defs>
							
								<rect id="SVGID_13_" x="301.6" y="182.9" transform="matrix(0.2339 -0.9723 0.9723 0.2339 44.4456 505.6288)" width="83" height="83.4"/>
						</defs>
						<clipPath id="SVGID_14_">
							<use xlink:href="#SVGID_13_"  style="overflow:visible;"/>
						</clipPath>
						<path class="st53" d="M346.3,233.4c-0.1-0.2-0.3-0.3-0.6-0.3c-0.9-0.2-1.8,0.2-2.7,1.1l-0.2,0.2v-0.3c0-0.2,0-0.3,0-0.5
							c0-0.8-0.3-1.3-0.9-1.4c-0.7-0.2-1.6,0.2-2.7,1.2l0.4,0.4c0,0,0.1-0.1,0.2-0.2c0.1-0.1,0.3-0.2,0.4-0.4
							c0.5-0.4,1.1-0.5,1.4-0.4s0.4,0.4,0.4,1c0,0.3-0.1,0.5-0.1,0.6c0,0.2-0.1,0.3-0.1,0.5l-0.1,0.3v0.1l-0.3-0.1l-1.2-0.3
							l-0.1,0.1l1.3,0.3l0.3,0.1v0.1c-0.2,0.6-0.6,1.1-1,1.5s-1,0.5-1.3,0.4h-0.1v-0.1c0-0.4,0-0.7,0-0.9c0-0.1-0.1-0.2-0.2-0.3
							s-0.3-0.1-0.5-0.2c-0.2,0-0.4,0-0.5,0.1c-0.2,0.1-0.3,0.3-0.3,0.5c-0.2,0.7,0.1,1.1,1,1.3c0.4,0.1,0.9,0,1.4-0.1
							c0.5-0.2,1-0.5,1.4-1l0.2,0.1c-0.1,0.4-0.1,0.8,0.1,1.2c0.1,0.4,0.4,0.6,0.7,0.7c0.5,0.1,1.1-0.1,1.9-0.6
							c0.4-0.3,0.7-0.6,1-0.9l-0.2-0.3c-0.9,0.8-1.8,1.2-2.2,1.1c-0.6-0.1-0.7-1-0.4-2.2v-0.1h0.1l1.6,0.4V236l-1.5-0.4h-0.1v-0.1
							c0.1-0.4,0.5-0.8,0.8-1.1s0.7-0.6,1.1-0.7h0.1v0.1l0.1,0.3c0,0.2,0.1,0.3,0.2,0.5s0.3,0.3,0.5,0.3s0.4,0,0.5-0.1
							c0.2-0.1,0.3-0.3,0.3-0.6C346.5,233.8,346.4,233.6,346.3,233.4"/>
					</g>
					<g>
						<defs>
							
								<rect id="SVGID_15_" x="301.6" y="182.9" transform="matrix(0.2339 -0.9723 0.9723 0.2339 44.4456 505.6288)" width="83" height="83.4"/>
						</defs>
						<clipPath id="SVGID_16_">
							<use xlink:href="#SVGID_15_"  style="overflow:visible;"/>
						</clipPath>
						<path class="st54" d="M340.5,226.9l-0.6,1.3c-1.2,2.4-2.1,4-2.7,4.9c-1.2,1.8-2.5,2.8-3.8,3c-0.5,0.1-1.1,0.1-1.6,0
							s-0.8-0.3-1-0.5s-0.2-0.5-0.1-0.8s0.2-0.5,0.4-0.6c0.2-0.2,0.5-0.2,0.7-0.1c0.3,0.1,0.5,0.2,0.6,0.3c0.1,0.2,0.2,0.4,0.1,0.6
							c-0.1,0.2-0.2,0.4-0.3,0.6c0.9,0.1,2.2-1.5,3.7-4.6c0.2-0.5,0.5-1.1,0.8-1.8s0.6-1.2,0.7-1.5l0.6-1.3l-2.5-0.6l0.4-0.8
							l2.5,0.6c2.1-4,4-6.7,5.9-8.1c1.5-1.1,3.1-1.5,4.7-1.1c0.7,0.2,1.3,0.5,1.8,0.9s0.6,1,0.4,1.7c-0.1,0.4-0.3,0.7-0.6,0.9
							c-0.3,0.2-0.7,0.2-1.1,0.1c-0.4-0.1-0.7-0.3-0.9-0.6c-0.2-0.3-0.3-0.6-0.2-0.9c0.1-0.3,0.3-0.7,0.6-0.9
							c-0.4-0.3-0.7-0.4-1-0.5c-0.2-0.1-0.6,0-1,0.2s-0.8,0.4-1.1,0.8c-1.4,1.3-3.1,4-5.2,8.1l3.2,0.8l-0.4,0.8L340.5,226.9z"/>
					</g>
					<g>
						<defs>
							
								<rect id="SVGID_17_" x="301.6" y="182.9" transform="matrix(0.2339 -0.9723 0.9723 0.2339 44.4456 505.6288)" width="83" height="83.4"/>
						</defs>
						<clipPath id="SVGID_18_">
							<use xlink:href="#SVGID_17_"  style="overflow:visible;"/>
						</clipPath>
						<path class="st55" d="M340.5,226.9l-0.6,1.3c-1.2,2.4-2.1,4-2.7,4.9c-1.2,1.8-2.5,2.8-3.8,3c-0.5,0.1-1.1,0.1-1.6,0
							s-0.8-0.3-1-0.5s-0.2-0.5-0.1-0.8s0.2-0.5,0.4-0.6c0.2-0.2,0.5-0.2,0.7-0.1c0.3,0.1,0.5,0.2,0.6,0.3c0.1,0.2,0.2,0.4,0.1,0.6
							c-0.1,0.2-0.2,0.4-0.3,0.6c0.9,0.1,2.2-1.5,3.7-4.6c0.2-0.5,0.5-1.1,0.8-1.8s0.6-1.2,0.7-1.5l0.6-1.3l-2.5-0.6l0.4-0.8
							l2.5,0.6c2.1-4,4-6.7,5.9-8.1c1.5-1.1,3.1-1.5,4.7-1.1c0.7,0.2,1.3,0.5,1.8,0.9s0.6,1,0.4,1.7c-0.1,0.4-0.3,0.7-0.6,0.9
							c-0.3,0.2-0.7,0.2-1.1,0.1c-0.4-0.1-0.7-0.3-0.9-0.6c-0.2-0.3-0.3-0.6-0.2-0.9c0.1-0.3,0.3-0.7,0.6-0.9
							c-0.4-0.3-0.7-0.4-1-0.5c-0.2-0.1-0.6,0-1,0.2s-0.8,0.4-1.1,0.8c-1.4,1.3-3.1,4-5.2,8.1l3.2,0.8l-0.4,0.8L340.5,226.9z"/>
					</g>
				</g>
			</g>
		</g>
	</g>
</g>
<g>
	<g>
		<g>
			<defs>
				<rect id="SVGID_19_" x="1139.8" y="295.9" width="134.6" height="134"/>
			</defs>
			<clipPath id="SVGID_20_">
				<use xlink:href="#SVGID_19_"  style="overflow:visible;"/>
			</clipPath>
			<g class="st56">
				<g>
					<defs>
						<rect id="SVGID_21_" x="1139.8" y="295.9" width="134.6" height="134"/>
					</defs>
					<clipPath id="SVGID_22_">
						<use xlink:href="#SVGID_21_"  style="overflow:visible;"/>
					</clipPath>
					<path class="st57" d="M1204.7,391.3c-11.7,0-20.8-2.1-20.8-4.7h0.6c0,2.4,9.3,4.4,20.3,4.4c11.8,0,20.3-2.6,20.3-4.4h0.6
						C1225.5,388.7,1216.2,391.3,1204.7,391.3"/>
				</g>
				<g>
					<defs>
						<rect id="SVGID_23_" x="1139.8" y="295.9" width="134.6" height="134"/>
					</defs>
					<clipPath id="SVGID_24_">
						<use xlink:href="#SVGID_23_"  style="overflow:visible;"/>
					</clipPath>
					<path class="st58" d="M1184.1,386.8c-0.2,0-0.3-0.1-0.3-0.2v-47.7c0-0.1,0.1-0.2,0.3-0.2s0.3,0.1,0.3,0.2v47.7
						C1184.4,386.7,1184.3,386.8,1184.1,386.8"/>
				</g>
				<g>
					<defs>
						<rect id="SVGID_25_" x="1139.8" y="295.9" width="134.6" height="134"/>
					</defs>
					<clipPath id="SVGID_26_">
						<use xlink:href="#SVGID_25_"  style="overflow:visible;"/>
					</clipPath>
					<path class="st59" d="M1204.7,343.1c-10.2,0-20.8-1.6-20.8-4.3c0-2.7,10.6-4.3,20.8-4.3s20.8,1.6,20.8,4.3
						C1225.5,341.4,1214.9,343.1,1204.7,343.1 M1204.7,334.9c-12.1,0-20.3,2-20.3,3.9s8.1,3.9,20.3,3.9s20.3-2,20.3-3.9
						C1224.9,336.9,1216.8,334.9,1204.7,334.9"/>
				</g>
				<g>
					<defs>
						<rect id="SVGID_27_" x="1139.8" y="295.9" width="134.6" height="134"/>
					</defs>
					<clipPath id="SVGID_28_">
						<use xlink:href="#SVGID_27_"  style="overflow:visible;"/>
					</clipPath>
					<path class="st60" d="M1225.2,338.6c-0.2,0-0.3,0.1-0.3,0.2v23.6c0.1,0,0.2,0,0.3,0c0.1,0,0.1,0,0.2,0h0.1v-23.6
						C1225.5,338.7,1225.4,338.6,1225.2,338.6"/>
				</g>
				<g>
					<defs>
						<rect id="SVGID_29_" x="1139.8" y="295.9" width="134.6" height="134"/>
					</defs>
					<clipPath id="SVGID_30_">
						<use xlink:href="#SVGID_29_"  style="overflow:visible;"/>
					</clipPath>
					<path class="st61" d="M1225.2,349.4c-0.1,0-0.2,0-0.3,0v36.4c0,0.6,0.1,1.1,0.3,1.1c0.2,0,0.3-0.5,0.3-1.1v-36.3h-0.1
						C1225.3,349.4,1225.3,349.4,1225.2,349.4"/>
				</g>
				<g>
					<defs>
						<rect id="SVGID_31_" x="1139.8" y="295.9" width="134.6" height="134"/>
					</defs>
					<clipPath id="SVGID_32_">
						<use xlink:href="#SVGID_31_"  style="overflow:visible;"/>
					</clipPath>
					<path class="st62" d="M1215.5,375.4c-0.3-0.2-0.6-0.3-1-0.3c-1.5,0-2.8,0.9-3.8,2.8l-0.3,0.5l-0.1-0.5c0-0.3-0.1-0.5-0.2-0.8
						c-0.4-1.3-1-1.9-1.9-1.9c-1.1,0-2.4,1-3.8,2.8l0.7,0.4c0-0.1,0.1-0.2,0.3-0.4c0.2-0.2,0.4-0.5,0.6-0.7c0.7-0.8,1.5-1.2,2-1.2
						s0.8,0.5,0.9,1.4c0.1,0.4,0.1,0.8,0.1,1.1c0,0.3,0,0.5,0,0.8v0.5v0.2h-0.5h-2.1l-0.1,0.2h2.2h0.5v0.2c-0.1,1-0.5,1.9-1,2.7
						c-0.6,0.8-1.4,1.1-1.9,1.1h-0.1v-0.1c-0.1-0.6-0.2-1.1-0.4-1.5c-0.1-0.2-0.2-0.3-0.4-0.4c-0.2-0.1-0.5-0.1-0.8-0.1
						s-0.6,0.1-0.8,0.3c-0.2,0.2-0.3,0.5-0.3,0.9c0,1.2,0.7,1.7,2,1.7c0.7,0,1.4-0.3,2.1-0.7c0.7-0.5,1.3-1.2,1.7-2.1l0.3,0.1
						c0,0.7,0.2,1.3,0.6,1.9s0.8,0.8,1.4,0.8c0.8,0,1.7-0.5,2.7-1.6c0.5-0.5,0.9-1.2,1.3-1.8l-0.5-0.4c-1.2,1.6-2.3,2.6-3,2.6
						c-0.9,0-1.4-1.3-1.4-3.4v-0.2h0.2h2.6l-0.1-0.2h-2.5h-0.2v-0.2c0-0.7,0.4-1.4,0.8-2s0.8-1.2,1.4-1.6l0.2-0.1l0.1,0.2l0.2,0.4
						c0.1,0.2,0.3,0.5,0.6,0.7c0.3,0.2,0.6,0.3,0.9,0.3s0.6-0.1,0.8-0.4c0.2-0.3,0.3-0.6,0.3-1.1
						C1215.9,376,1215.8,375.6,1215.5,375.4"/>
				</g>
				<g>
					<defs>
						<rect id="SVGID_33_" x="1139.8" y="295.9" width="134.6" height="134"/>
					</defs>
					<clipPath id="SVGID_34_">
						<use xlink:href="#SVGID_33_"  style="overflow:visible;"/>
					</clipPath>
					<path class="st63" d="M1203.9,367.3l-0.5,2.2c-1,4.2-1.8,7.1-2.4,8.8c-1.2,3.2-2.8,5.3-4.8,6.1c-0.8,0.4-1.6,0.5-2.5,0.5
						c-0.8,0-1.4-0.2-1.8-0.5c-0.3-0.3-0.5-0.7-0.5-1.1s0.1-0.8,0.4-1.2c0.3-0.3,0.7-0.5,1.1-0.5s0.8,0.1,1.1,0.3
						c0.3,0.2,0.4,0.5,0.4,0.9s-0.1,0.7-0.3,1c1.5-0.2,2.9-3.1,4.1-8.6c0.2-0.9,0.4-1.9,0.7-3.1s0.4-2.1,0.6-2.6l0.5-2.2h-4.1
						l0.3-1.5h4.1c1.7-7.1,3.8-12.1,6.2-14.9c1.9-2.3,4.3-3.5,7-3.5c1.2,0,2.3,0.3,3.1,0.8c0.8,0.5,1.3,1.3,1.3,2.5
						c0,0.7-0.2,1.2-0.7,1.6s-1,0.6-1.6,0.6s-1.2-0.2-1.6-0.5c-0.4-0.4-0.7-0.8-0.7-1.4s0.2-1.1,0.6-1.7c-0.7-0.3-1.3-0.4-1.7-0.4
						c-0.4,0-0.9,0.2-1.5,0.6s-1.1,0.9-1.5,1.6c-1.7,2.6-3.4,7.5-5,14.7h5.3l-0.4,1.5L1203.9,367.3L1203.9,367.3z"/>
				</g>
				<g>
					<defs>
						<rect id="SVGID_35_" x="1139.8" y="295.9" width="134.6" height="134"/>
					</defs>
					<clipPath id="SVGID_36_">
						<use xlink:href="#SVGID_35_"  style="overflow:visible;"/>
					</clipPath>
					<path class="st64" d="M1203.9,367.3l-0.5,2.2c-1,4.2-1.8,7.1-2.4,8.8c-1.2,3.2-2.8,5.3-4.8,6.1c-0.8,0.4-1.6,0.5-2.5,0.5
						c-0.8,0-1.4-0.2-1.8-0.5c-0.3-0.3-0.5-0.7-0.5-1.1s0.1-0.8,0.4-1.2c0.3-0.3,0.7-0.5,1.1-0.5s0.8,0.1,1.1,0.3
						c0.3,0.2,0.4,0.5,0.4,0.9s-0.1,0.7-0.3,1c1.5-0.2,2.9-3.1,4.1-8.6c0.2-0.9,0.4-1.9,0.7-3.1s0.4-2.1,0.6-2.6l0.5-2.2h-4.1
						l0.3-1.5h4.1c1.7-7.1,3.8-12.1,6.2-14.9c1.9-2.3,4.3-3.5,7-3.5c1.2,0,2.3,0.3,3.1,0.8c0.8,0.5,1.3,1.3,1.3,2.5
						c0,0.7-0.2,1.2-0.7,1.6s-1,0.6-1.6,0.6s-1.2-0.2-1.6-0.5c-0.4-0.4-0.7-0.8-0.7-1.4s0.2-1.1,0.6-1.7c-0.7-0.3-1.3-0.4-1.7-0.4
						c-0.4,0-0.9,0.2-1.5,0.6s-1.1,0.9-1.5,1.6c-1.7,2.6-3.4,7.5-5,14.7h5.3l-0.4,1.5L1203.9,367.3L1203.9,367.3z"/>
				</g>
			</g>
		</g>
	</g>
</g>
<g>
	<g>
		<g>
			<defs>
				
					<rect id="SVGID_37_" x="1137.2" y="681" transform="matrix(0.9944 -0.1059 0.1059 0.9944 -69.193 127.9389)" width="65.9" height="69.1"/>
			</defs>
			<clipPath id="SVGID_38_">
				<use xlink:href="#SVGID_37_"  style="overflow:visible;"/>
			</clipPath>
			<g class="st65">
				<g>
					<defs>
						
							<rect id="SVGID_39_" x="1137.2" y="681" transform="matrix(0.9944 -0.1059 0.1059 0.9944 -69.193 127.9389)" width="65.9" height="69.1"/>
					</defs>
					<clipPath id="SVGID_40_">
						<use xlink:href="#SVGID_39_"  style="overflow:visible;"/>
					</clipPath>
					<path class="st66" d="M1170.6,730.2c-5.7,0.6-10.3,0-10.4-1.4h0.3c0.1,1.2,4.8,1.8,10.1,1.2c5.7-0.6,9.7-2.4,9.6-3.3h0.3
						C1180.6,727.8,1176.2,729.6,1170.6,730.2"/>
				</g>
				<g>
					<defs>
						
							<rect id="SVGID_41_" x="1137.2" y="681" transform="matrix(0.9944 -0.1059 0.1059 0.9944 -69.193 127.9389)" width="65.9" height="69.1"/>
					</defs>
					<clipPath id="SVGID_42_">
						<use xlink:href="#SVGID_41_"  style="overflow:visible;"/>
					</clipPath>
					<path class="st67" d="M1160.3,729c-0.1,0-0.1,0-0.2-0.1l-2.6-24.5c0-0.1,0.1-0.1,0.1-0.1c0.1,0,0.1,0,0.2,0.1L1160.3,729
						C1160.4,728.9,1160.4,729,1160.3,729"/>
				</g>
				<g>
					<defs>
						
							<rect id="SVGID_43_" x="1137.2" y="681" transform="matrix(0.9944 -0.1059 0.1059 0.9944 -69.193 127.9389)" width="65.9" height="69.1"/>
					</defs>
					<clipPath id="SVGID_44_">
						<use xlink:href="#SVGID_43_"  style="overflow:visible;"/>
					</clipPath>
					<path class="st68" d="M1167.9,705.4c-5,0.5-10.2,0.3-10.4-1.1c-0.1-1.4,4.9-2.8,9.9-3.3s10.2-0.3,10.4,1.1
						C1178,703.5,1172.9,704.9,1167.9,705.4 M1167.5,701.3c-5.9,0.6-9.8,2.1-9.7,3s4.2,1.6,10.1,0.9s9.8-2.1,9.7-3
						C1177.4,701.2,1173.4,700.6,1167.5,701.3"/>
				</g>
				<g>
					<defs>
						
							<rect id="SVGID_45_" x="1137.2" y="681" transform="matrix(0.9944 -0.1059 0.1059 0.9944 -69.193 127.9389)" width="65.9" height="69.1"/>
					</defs>
					<clipPath id="SVGID_46_">
						<use xlink:href="#SVGID_45_"  style="overflow:visible;"/>
					</clipPath>
					<path class="st69" d="M1177.7,702.1C1177.6,702.1,1177.6,702.2,1177.7,702.1l1.2,12.2h0.1h0.1h0.1l-1.3-12.1
						C1177.8,702.1,1177.8,702.1,1177.7,702.1"/>
				</g>
				<g>
					<defs>
						
							<rect id="SVGID_47_" x="1137.2" y="681" transform="matrix(0.9944 -0.1059 0.1059 0.9944 -69.193 127.9389)" width="65.9" height="69.1"/>
					</defs>
					<clipPath id="SVGID_48_">
						<use xlink:href="#SVGID_47_"  style="overflow:visible;"/>
					</clipPath>
					<path class="st70" d="M1178.3,707.6L1178.3,707.6l1.9,18.7c0,0.3,0.1,0.6,0.2,0.5c0.1,0,0.1-0.3,0.1-0.6l-2-18.6L1178.3,707.6
						L1178.3,707.6"/>
				</g>
				<g>
					<defs>
						
							<rect id="SVGID_49_" x="1137.2" y="681" transform="matrix(0.9944 -0.1059 0.1059 0.9944 -69.193 127.9389)" width="65.9" height="69.1"/>
					</defs>
					<clipPath id="SVGID_50_">
						<use xlink:href="#SVGID_49_"  style="overflow:visible;"/>
					</clipPath>
					<path class="st71" d="M1175,721.5c-0.1-0.1-0.3-0.1-0.5-0.1c-0.7,0.1-1.3,0.6-1.7,1.6l-0.1,0.2l-0.1-0.3c0-0.1-0.1-0.3-0.1-0.4
						c-0.2-0.6-0.6-0.9-1-0.9c-0.6,0.1-1.1,0.6-1.7,1.7l0.4,0.2c0,0,0.1-0.1,0.1-0.2c0.1-0.1,0.2-0.3,0.2-0.4
						c0.3-0.4,0.7-0.7,0.9-0.7c0.3,0,0.4,0.2,0.5,0.7c0,0.2,0.1,0.4,0.1,0.5s0,0.3,0.1,0.4v0.2v0.1h-0.2l-1,0.1l-0.1,0.1l1.1-0.1
						h0.2v0.1c0,0.5-0.1,1-0.3,1.4c-0.2,0.4-0.6,0.6-0.9,0.7h-0.1v-0.1c-0.1-0.3-0.2-0.6-0.3-0.7c-0.1-0.1-0.1-0.2-0.2-0.2
						s-0.2,0-0.4,0c-0.2,0-0.3,0.1-0.4,0.2c-0.1,0.1-0.1,0.3-0.1,0.5c0.1,0.6,0.4,0.8,1.1,0.8c0.3,0,0.7-0.2,1-0.5s0.6-0.7,0.7-1.2
						h0.2c0,0.4,0.2,0.7,0.4,1c0.2,0.3,0.4,0.4,0.7,0.4c0.4,0,0.8-0.4,1.2-1c0.2-0.3,0.4-0.6,0.5-1l-0.3-0.2c-0.5,0.9-1,1.5-1.3,1.5
						c-0.5,0-0.8-0.6-0.9-1.6v-0.1h0.1l1.3-0.1l-0.1-0.1l-1.2,0.1h-0.1V724c0-0.4,0.1-0.7,0.3-1.1c0.1-0.4,0.3-0.6,0.6-0.9l0.1-0.1
						v0.1l0.1,0.2c0.1,0.1,0.2,0.2,0.3,0.3c0.1,0.1,0.3,0.1,0.5,0.1s0.3-0.1,0.4-0.2c0.1-0.2,0.1-0.3,0.1-0.6
						C1175.2,721.7,1175.1,721.6,1175,721.5"/>
				</g>
				<g>
					<defs>
						
							<rect id="SVGID_51_" x="1137.2" y="681" transform="matrix(0.9944 -0.1059 0.1059 0.9944 -69.193 127.9389)" width="65.9" height="69.1"/>
					</defs>
					<clipPath id="SVGID_52_">
						<use xlink:href="#SVGID_51_"  style="overflow:visible;"/>
					</clipPath>
					<path class="st72" d="M1168.9,717.9l-0.1,1.2c-0.3,2.2-0.5,3.7-0.7,4.6c-0.4,1.7-1.1,2.8-2,3.4c-0.4,0.2-0.8,0.4-1.2,0.4
						c-0.4,0-0.7,0-0.9-0.2c-0.2-0.1-0.3-0.3-0.3-0.6c0-0.2,0-0.4,0.2-0.6c0.1-0.2,0.3-0.3,0.5-0.3s0.4,0,0.6,0.1s0.2,0.2,0.3,0.4
						s0,0.4-0.1,0.5c0.7-0.2,1.2-1.7,1.5-4.6c0-0.5,0.1-1,0.1-1.6c0.1-0.6,0.1-1.1,0.1-1.4l0.1-1.2l-2,0.2l0.1-0.8l2-0.2
						c0.5-3.7,1.2-6.4,2.2-7.9c0.8-1.3,1.9-2,3.2-2.1c0.6-0.1,1.1,0,1.6,0.2s0.7,0.6,0.8,1.2c0,0.3,0,0.6-0.3,0.9
						c-0.2,0.2-0.5,0.4-0.8,0.4s-0.6,0-0.8-0.2c-0.2-0.2-0.4-0.4-0.4-0.7s0-0.6,0.2-0.9c-0.4-0.1-0.6-0.1-0.8-0.1
						c-0.2,0-0.4,0.2-0.7,0.4c-0.3,0.2-0.5,0.5-0.6,0.9c-0.7,1.4-1.2,4-1.6,7.8l2.6-0.3l-0.1,0.8L1168.9,717.9z"/>
				</g>
				<g>
					<defs>
						
							<rect id="SVGID_53_" x="1137.2" y="681" transform="matrix(0.9944 -0.1059 0.1059 0.9944 -69.193 127.9389)" width="65.9" height="69.1"/>
					</defs>
					<clipPath id="SVGID_54_">
						<use xlink:href="#SVGID_53_"  style="overflow:visible;"/>
					</clipPath>
					<path class="st73" d="M1168.9,717.9l-0.1,1.2c-0.3,2.2-0.5,3.7-0.7,4.6c-0.4,1.7-1.1,2.8-2,3.4c-0.4,0.2-0.8,0.4-1.2,0.4
						c-0.4,0-0.7,0-0.9-0.2c-0.2-0.1-0.3-0.3-0.3-0.6c0-0.2,0-0.4,0.2-0.6c0.1-0.2,0.3-0.3,0.5-0.3s0.4,0,0.6,0.1s0.2,0.2,0.3,0.4
						s0,0.4-0.1,0.5c0.7-0.2,1.2-1.7,1.5-4.6c0-0.5,0.1-1,0.1-1.6c0.1-0.6,0.1-1.1,0.1-1.4l0.1-1.2l-2,0.2l0.1-0.8l2-0.2
						c0.5-3.7,1.2-6.4,2.2-7.9c0.8-1.3,1.9-2,3.2-2.1c0.6-0.1,1.1,0,1.6,0.2s0.7,0.6,0.8,1.2c0,0.3,0,0.6-0.3,0.9
						c-0.2,0.2-0.5,0.4-0.8,0.4s-0.6,0-0.8-0.2c-0.2-0.2-0.4-0.4-0.4-0.7s0-0.6,0.2-0.9c-0.4-0.1-0.6-0.1-0.8-0.1
						c-0.2,0-0.4,0.2-0.7,0.4c-0.3,0.2-0.5,0.5-0.6,0.9c-0.7,1.4-1.2,4-1.6,7.8l2.6-0.3l-0.1,0.8L1168.9,717.9z"/>
				</g>
			</g>
		</g>
	</g>
</g>
<g>
	<ellipse transform="matrix(0.866 -0.5 0.5 0.866 -64.5044 439.6859)" class="st14" cx="788.2" cy="340.2" rx="11.9" ry="15.8"/>
	<g>
		<circle cx="793.1" cy="334" r="1.9"/>
		<path class="st13" d="M788.9,333.3c0,0,1.7-3,4-2.6"/>
		<polygon class="st19" points="794.4,332.5 793.5,333.4 795,333.7 		"/>
	</g>
	<polygon points="793.4,328.4 804.5,332.5 800.4,337.7 	"/>
	<path class="st74" d="M746.1,420.9c-0.4-1.3-1.1-2.5-1.9-3.5c-4.1-4.7-13.8-16.9-7.4-22.9c0,0,9.2-5.5,6.8-18.8
		c-0.5-2.8,0.1-5.6,1.9-7.8c1.3-1.6,3-3.3,5-4.4c3.7-2.1,5.7-6.3,4.8-10.4c0-0.2-0.1-0.4-0.1-0.7c-0.8-3.9,1-7.8,4.4-9.9
		c2.6-1.6,4.4-3.5,5-5.4c0,0,9.6-15.8,19.2-14.7"/>
	<path class="st75" d="M781.3,520.1l6.9,21.3l-27.4,64.7l9.1,2.2l36.9-49.1c0,0,17.5-11.8,1.1-52"/>
	<polyline class="st76" points="842.2,607.8 861.6,626 861,631.8 848.1,625.5 836.2,617.5 836,608.8 	"/>
	<polyline class="st76" points="769.9,608.4 778,631 768.6,628.8 760.4,613.4 760.8,606.2 	"/>
	<path class="st77" d="M747.5,404.1c0,0-19.9,25.7-18.1,45.5l-0.3,64.2l-3.6,7.2l-0.5,9"/>
	<path class="st77" d="M757.7,415.3c0,0-12.3,23.8-14.5,46.6l-5.5,53.9l1,6.2c0,0,1.6,1.4,0.3,4.2"/>
	<line class="st77" x1="728.4" y1="521.4" x2="728.2" y2="531.2"/>
	<polyline class="st77" points="730.9,521.5 730.9,529.1 730.9,532.9 	"/>
	<line class="st77" x1="733.8" y1="522.2" x2="733.6" y2="531.3"/>
	<path class="st40" d="M838.6,634.9l-9.8-1.8c0,0-1-22.1,5.9-26.2c0,0,16.9,20.5,30.8,19c0,0,9.1,3.8,5.6,13.9l-23.8-6.5l-6.2-11.4
		L838.6,634.9z"/>
	<path class="st78" d="M757.1,628.6l4.8-6l1.1,10.8l9.3,7.3l14.9,0.2c0,0,1.1-8.2-9.1-12.1c0,0-8-1-9.4-11.4c0,0,0.1-10.9-5.7-14.7
		c0,0-7.2,2.7-13.3,20.4L757.1,628.6z"/>
	<path class="st76" d="M832.9,482.2c0,0-2.4-8.9-6.3-5.9c-3.9,3-26.3,26.1-26.3,26.1l2.5,6.3c0,0,12,14.2,29.1,14.5l-0.2,0.2
		l4.2,85.4l6.2-1l13.7-74.3c0,0,9.4-16.5-2-28.7c-5.6-6-14.3-16.3-21.9-25.8"/>
	<path class="st14" d="M812,442.2l-55.1,2.6l-4.6,0.3l3.3-23.5l11.4-38.4c0,0,9.8,22.3,22.8,0"/>
	<path class="st14" d="M835.4,477.1c0,0-9.4,31.4-68.1,47.2c0,0-21.6-46.1-11.2-77.4"/>
	<path class="st14" d="M788.8,355.9l6.3,10.6c0.3,0.5,0.4,1.2,0.2,1.8c-2.1,6.3-13.9,43.1-1.8,52.7c0.1,0.1,0.3,0.2,0.4,0.3
		c1.7,0.8,12.3,5.6,12.5-5.3c0.2-11.1,8-22.8,9-24.3c0.1-0.1,0.2-0.2,0.2-0.3l4.9-4.9c0.7-0.7,0.8-1.7,0.4-2.5l-13.7-25.3
		c-0.7-1.3-2.5-1.5-3.5-0.4l-8.1,9.1"/>
	<g>
		<path class="st8" d="M791.9,329.2c0,0-10.5,8-9.2,16.7c0.2,1.4,0.8,2.6,1.6,3.8c1.6,2.2,4.6,7.2,3.7,11.5
			c-1.2,5.6,9,10.1,6.3,19.1s-3.5,13.9-6.1,19.5s0.4,15.7-5.4,19.5c-5.2,3.4-6.2,11-11.3,8.5c-1.7-0.8-3.6-1.2-5.4-1
			c-5.3,0.6-15.5,0.8-17.1-5.4c-0.4-1.3-1.1-2.5-1.9-3.5c-4.1-4.7-13.8-16.9-7.4-22.9c0,0,9.2-5.5,6.8-18.8
			c-0.5-2.8,0.1-5.6,1.9-7.8c1.3-1.6,3-3.3,5-4.4c3.7-2.1,5.7-6.3,4.8-10.4c0-0.2-0.1-0.4-0.1-0.7c-0.8-3.9,1-7.8,4.4-9.9
			c2.6-1.6,4.8-3.6,5-5.4c0,0,6.5-16.9,16.1-15.9C783.2,321.8,799.3,324.1,791.9,329.2z"/>
		<g>
			<path class="st79" d="M759.6,375.1c-0.9,4.3-4.2,3.6-5.2,8c-0.9,4.3,2.4,5,1.5,9.4c-0.9,4.3-4.2,3.6-5.2,8
				c-0.9,4.3,2.4,5,1.5,9.4c-0.9,4.3-4.2,3.6-5.2,8c-0.9,4.3,2.4,5,1.5,9.4c-0.9,4.3-4.2,3.6-5.2,8c-0.9,4.3,2.4,5,1.5,9.4"/>
		</g>
		<g>
			<path class="st79" d="M767.2,377.5c-0.9,4.3-2.6,4-3.5,8.3s0.7,4.7-0.2,9s-2.6,4-3.5,8.3s0.7,4.7-0.2,9s-2.6,4-3.5,8.3
				s0.7,4.7-0.2,9s-2.6,4-3.5,8.3s0.7,4.7-0.2,9"/>
		</g>
		<g>
			<path class="st79" d="M775.8,379.5c-0.9,4.3-2.9,3.9-3.8,8.3c-0.9,4.3,1,4.7,0.1,9.1c-0.9,4.3-2.9,3.9-3.8,8.3
				c-0.9,4.3,1,4.7,0.1,9.1c-0.9,4.3-2.9,3.9-3.8,8.3c-0.9,4.3,1,4.7,0.1,9.1c-0.9,4.3-2.9,3.9-3.8,8.3c-0.9,4.3,1,4.8,0.1,9.1"/>
		</g>
	</g>
	<path d="M752.9,446.4l0.6-1.6l58.7-2.9c0,0,15.9,30.3,24.4,35.8c0,0-15.5,36.2-71.8,49.5c0,0-27.1-51.6-11.4-82.4"/>
	<path class="st21" d="M812.5,442.7c0,0-7.1-19.4-6-26.9"/>
	<line class="st5" x1="768.6" y1="443.3" x2="776.9" y2="505"/>
	<line class="st5" x1="788.2" y1="443.7" x2="797.8" y2="491.1"/>
	<line class="st5" x1="803.4" y1="442.9" x2="820.8" y2="484.6"/>
	<path d="M832,523.2l0.3-3L832,523.2z"/>
	<g>
		<path class="st77" d="M806.9,357.3c0,0,37.1-50.2,38-57.7l1.1-6.2"/>
		<path class="st77" d="M818.8,378.7c0,0,21.9-29.2,25.6-52.3l9.3-25.2l3.6-11.4"/>
		<line class="st77" x1="852.2" y1="296.9" x2="855.8" y2="287.4"/>
		<line class="st77" x1="849.6" y1="295.6" x2="854.7" y2="283.5"/>
		<line class="st77" x1="847.5" y1="294" x2="851.7" y2="284.2"/>
	</g>
	<g>
		<g>
			<g>
				<defs>
					<rect id="SVGID_55_" x="816.7" y="234.4" width="115.8" height="115.3"/>
				</defs>
				<clipPath id="SVGID_56_">
					<use xlink:href="#SVGID_55_"  style="overflow:visible;"/>
				</clipPath>
				<g class="st80">
					<g>
						<defs>
							<rect id="SVGID_57_" x="816.7" y="234.4" width="115.8" height="115.3"/>
						</defs>
						<clipPath id="SVGID_58_">
							<use xlink:href="#SVGID_57_"  style="overflow:visible;"/>
						</clipPath>
						<path class="st81" d="M872.5,316.5c-10.1,0-17.9-1.8-17.9-4.1h0.5c0,2,8,3.8,17.4,3.8c10.1,0,17.4-2.3,17.4-3.8h0.5
							C890.4,314.3,882.4,316.5,872.5,316.5"/>
					</g>
					<g>
						<defs>
							<rect id="SVGID_59_" x="816.7" y="234.4" width="115.8" height="115.3"/>
						</defs>
						<clipPath id="SVGID_60_">
							<use xlink:href="#SVGID_59_"  style="overflow:visible;"/>
						</clipPath>
						<path class="st82" d="M854.8,312.6c-0.1,0-0.3-0.1-0.3-0.2v-41.1c0-0.1,0.1-0.2,0.3-0.2c0.1,0,0.3,0.1,0.3,0.2v41.1
							C855.1,312.5,855,312.6,854.8,312.6"/>
					</g>
					<g>
						<defs>
							<rect id="SVGID_61_" x="816.7" y="234.4" width="115.8" height="115.3"/>
						</defs>
						<clipPath id="SVGID_62_">
							<use xlink:href="#SVGID_61_"  style="overflow:visible;"/>
						</clipPath>
						<path class="st83" d="M872.5,275c-8.8,0-17.9-1.4-17.9-3.7c0-2.3,9.1-3.7,17.9-3.7c8.8,0,17.9,1.4,17.9,3.7
							S881.3,275,872.5,275 M872.5,268c-10.4,0-17.4,1.7-17.4,3.3s7,3.3,17.4,3.3s17.4-1.7,17.4-3.3S882.9,268,872.5,268"/>
					</g>
					<g>
						<defs>
							<rect id="SVGID_63_" x="816.7" y="234.4" width="115.8" height="115.3"/>
						</defs>
						<clipPath id="SVGID_64_">
							<use xlink:href="#SVGID_63_"  style="overflow:visible;"/>
						</clipPath>
						<path class="st84" d="M890.2,271.2c-0.1,0-0.3,0.1-0.3,0.2v20.3c0.1,0,0.2,0,0.3,0h0.1h0.1v-20.3
							C890.4,271.3,890.3,271.2,890.2,271.2"/>
					</g>
					<g>
						<defs>
							<rect id="SVGID_65_" x="816.7" y="234.4" width="115.8" height="115.3"/>
						</defs>
						<clipPath id="SVGID_66_">
							<use xlink:href="#SVGID_65_"  style="overflow:visible;"/>
						</clipPath>
						<path class="st85" d="M890.2,280.4c-0.1,0-0.2,0-0.3,0v31.3c0,0.5,0.1,0.9,0.3,0.9c0.1,0,0.3-0.4,0.3-0.9v-31.3h-0.1
							C890.3,280.4,890.2,280.4,890.2,280.4"/>
					</g>
					<g>
						<defs>
							<rect id="SVGID_67_" x="816.7" y="234.4" width="115.8" height="115.3"/>
						</defs>
						<clipPath id="SVGID_68_">
							<use xlink:href="#SVGID_67_"  style="overflow:visible;"/>
						</clipPath>
						<path class="st86" d="M881.8,302.8c-0.2-0.2-0.5-0.3-0.9-0.3c-1.3,0-2.4,0.8-3.3,2.4l-0.2,0.4l-0.1-0.4c0-0.2-0.1-0.4-0.2-0.7
							c-0.3-1.1-0.9-1.6-1.6-1.6c-1,0-2.1,0.8-3.3,2.5l0.6,0.4c0,0,0.1-0.1,0.2-0.3c0.2-0.2,0.3-0.4,0.5-0.6c0.6-0.7,1.3-1,1.7-1
							s0.7,0.4,0.8,1.2c0,0.4,0.1,0.7,0.1,0.9c0,0.2,0,0.5,0,0.7v0.4v0.1h-0.4h-1.8l0.1,0.1h1.9h0.4v0.2c-0.1,0.9-0.4,1.7-0.9,2.3
							c-0.5,0.7-1.2,1-1.6,1h-0.1v-0.1c-0.1-0.5-0.2-1-0.3-1.2s-0.2-0.3-0.3-0.4c-0.2-0.1-0.4-0.1-0.7-0.1s-0.5,0.1-0.7,0.3
							c-0.2,0.2-0.3,0.5-0.3,0.7c0,1,0.6,1.5,1.7,1.5c0.6,0,1.2-0.2,1.8-0.6s1.1-1,1.5-1.8l0.3,0.1c0,0.6,0.2,1.1,0.5,1.7
							c0.3,0.5,0.7,0.7,1.2,0.7c0.7,0,1.5-0.5,2.4-1.4c0.4-0.5,0.8-1,1.1-1.5l-0.4-0.4c-1,1.4-2,2.3-2.6,2.3c-0.8,0-1.2-1.1-1.2-2.9
							V307h0.1h2.2l-0.1-0.2h-2.2h-0.1v-0.1c0-0.6,0.4-1.2,0.7-1.7c0.3-0.6,0.7-1,1.2-1.3l0.1-0.1l0.1,0.2l0.2,0.3
							c0.1,0.2,0.3,0.4,0.5,0.6s0.5,0.3,0.8,0.3s0.5-0.1,0.7-0.3c0.2-0.2,0.3-0.5,0.3-0.9C882.2,303.3,882.1,303,881.8,302.8"/>
					</g>
					<g>
						<defs>
							<rect id="SVGID_69_" x="816.7" y="234.4" width="115.8" height="115.3"/>
						</defs>
						<clipPath id="SVGID_70_">
							<use xlink:href="#SVGID_69_"  style="overflow:visible;"/>
						</clipPath>
						<path class="st87" d="M871.9,295.9l-0.5,1.9c-0.8,3.6-1.5,6.1-2.1,7.5c-1.1,2.8-2.5,4.5-4.1,5.3c-0.7,0.3-1.4,0.5-2.1,0.5
							c-0.7,0-1.2-0.1-1.5-0.4s-0.4-0.6-0.4-1s0.1-0.7,0.4-1c0.3-0.3,0.6-0.4,1-0.4s0.7,0.1,1,0.3c0.3,0.2,0.4,0.4,0.4,0.7
							s-0.1,0.6-0.3,0.9c1.3-0.2,2.5-2.7,3.5-7.4c0.2-0.7,0.4-1.6,0.6-2.7s0.4-1.8,0.5-2.3l0.5-1.9H865l0.3-1.3h3.5
							c1.5-6.1,3.3-10.4,5.3-12.8c1.7-2,3.7-3,6-3c1.1,0,2,0.2,2.7,0.6s1.1,1.1,1.1,2.1c0,0.6-0.2,1-0.6,1.4
							c-0.4,0.3-0.9,0.5-1.4,0.5s-1-0.2-1.4-0.5s-0.6-0.7-0.6-1.2s0.2-1,0.5-1.4c-0.6-0.2-1.1-0.3-1.5-0.3s-0.8,0.2-1.3,0.5
							s-0.9,0.8-1.3,1.4c-1.5,2.3-2.9,6.5-4.3,12.6h4.5l-0.3,1.3L871.9,295.9L871.9,295.9z"/>
					</g>
					<g>
						<defs>
							<rect id="SVGID_71_" x="816.7" y="234.4" width="115.8" height="115.3"/>
						</defs>
						<clipPath id="SVGID_72_">
							<use xlink:href="#SVGID_71_"  style="overflow:visible;"/>
						</clipPath>
						<path class="st88" d="M871.9,295.9l-0.5,1.9c-0.8,3.6-1.5,6.1-2.1,7.5c-1.1,2.8-2.5,4.5-4.1,5.3c-0.7,0.3-1.4,0.5-2.1,0.5
							c-0.7,0-1.2-0.1-1.5-0.4s-0.4-0.6-0.4-1s0.1-0.7,0.4-1c0.3-0.3,0.6-0.4,1-0.4s0.7,0.1,1,0.3c0.3,0.2,0.4,0.4,0.4,0.7
							s-0.1,0.6-0.3,0.9c1.3-0.2,2.5-2.7,3.5-7.4c0.2-0.7,0.4-1.6,0.6-2.7s0.4-1.8,0.5-2.3l0.5-1.9H865l0.3-1.3h3.5
							c1.5-6.1,3.3-10.4,5.3-12.8c1.7-2,3.7-3,6-3c1.1,0,2,0.2,2.7,0.6s1.1,1.1,1.1,2.1c0,0.6-0.2,1-0.6,1.4
							c-0.4,0.3-0.9,0.5-1.4,0.5s-1-0.2-1.4-0.5s-0.6-0.7-0.6-1.2s0.2-1,0.5-1.4c-0.6-0.2-1.1-0.3-1.5-0.3s-0.8,0.2-1.3,0.5
							s-0.9,0.8-1.3,1.4c-1.5,2.3-2.9,6.5-4.3,12.6h4.5l-0.3,1.3L871.9,295.9L871.9,295.9z"/>
					</g>
				</g>
			</g>
		</g>
	</g>
	<g>
		<path class="st11" d="M714.2,584.7c0.9-2.2,2.8-3.7,5-4.1l-0.5,1.2c-0.1,0.3-0.2,0.5-0.2,0.8c-0.2,1.4,0.4,2.6,1.8,3.2l1.6,0.7
			c1.5,0.6,3.3-0.1,3.9-1.6l0.5-1.1c1.1,1.7,1.3,4,0.5,6c-1.4,3.5-5.3,5.2-8.8,3.8C714.6,592.1,712.9,588.1,714.2,584.7z"/>
		<g>
			<path class="st11" d="M713.4,559.2"/>
			<path class="st11" d="M735.3,569.8"/>
			<path class="st11" d="M729.9,554.5"/>
			<path class="st11" d="M729.6,555.2"/>
			<path class="st11" d="M746.4,553.3c4.2-9.9-0.2-21.3-9.9-25.4c-9.7-4.1-20.9,0.7-25.1,10.6"/>
			<path class="st11" d="M736.1,560.4c6.7,4.1,8.1-1.9,10.6-7.8"/>
			<polyline class="st11" points="738.5,554.6 736.1,560.4 728.2,579.1 			"/>
			<line class="st11" x1="727" y1="561.2" x2="721" y2="576.2"/>
			<path class="st11" d="M713.9,552.4l-4.4,10.5c-0.6,1.5,0.1,3.3,1.6,3.9l1.6,0.7c1.5,0.6,3.3-0.1,3.9-1.6l4.4-10.5"/>
			<path class="st11" d="M707.9,546.8l-3.4,8c-0.6,1.5,0.1,3.3,1.6,3.9l1.6,0.7c1.5,0.6,3.3-0.1,3.9-1.6l3.4-8"/>
			<line class="st11" x1="711.4" y1="538.6" x2="705.3" y2="553.1"/>
			<path class="st11" d="M720.3,557.2l-4.3,10.3c-0.6,1.5,0.1,3.3,1.6,3.9l1.6,0.7c1.5,0.6,3.3-0.1,3.9-1.6l4.3-10.3"/>
		</g>
		<path class="st11" d="M711,582.7c1.8-4.2,5.8-6.7,10.1-6.6l-1.8,4.5l-0.5,1.2c-0.1,0.3-0.2,0.5-0.2,0.8c-0.2,1.4,0.4,2.6,1.8,3.2
			l1.6,0.7c1.5,0.6,3.3-0.1,3.9-1.6l0.5-1.1l2-4.7c3.3,3,4.5,7.9,2.7,12.3c-2.3,5.5-8.7,8.1-14.2,5.8
			C711.2,594.6,708.6,588.3,711,582.7z"/>
	</g>
</g>
<path class="st11" d="M-111,229.2"/>
<g>
	<g>
		<path class="st89" d="M-43.1,316.9c-0.1,0.5-0.1,1-0.2,1.5"/>
		<path class="st90" d="M-43.5,321.4c-0.1,3.6,0.5,7,1.4,10.4"/>
		<path class="st91" d="M-41.6,333.2c4.1,12.5,14.6,23.1,26.1,29.4c15.8,8.6,34,11.2,51.8,13.6c37.5,5.1,75.2,10.2,113,11
			c34.6,0.7,72.4-3.5,97-27.9c18.3-18.2,26-44.5,41.8-64.9c22.7-29.4,59.6-43.8,95.2-54.3c33.6-9.8,70-17.2,103-5.7
			c53.2,18.6,78.2,77.5,101.3,128.9S647.8,471.1,704.1,473c67.1,2.2,119.2-76.2,185.8-67.5c29.7,3.9,55.2,25.9,68.1,52.9
			c10,21.1,12.8,47.3,0.5,67.2c-12.3,19.8-42.8,28.2-60.2,12.6c-17.9-16.2-12-48,6.4-63.6c18.3-15.7,44.2-18.9,68.3-18.7
			c92.9,0.5,181.4,40.1,260.1,89.4c40,25.1,81.3,53.8,128.5,54.7c7,0.1,14.4-0.5,20.4-4.1c6.9-4.1,11.1-11.5,15-18.5
			c18.7-33.9,36.7-78.6,11.7-108.1c-15.2-18-40.9-22.2-64.2-25.3c-33.5-4.4-71.1-7.8-97.7,13.1c-21,16.5-29.5,43.9-36.8,69.5
			c-9.9,34.6-19.8,69.3-29.7,103.9c-7.9,27.6-16.7,56.7-38.1,75.7c-34.2,30.3-87.7,23.8-129.5,5.4c-41.8-18.4-79.8-46.8-124.4-56.7
			c-34.6-7.7-71.8-3.3-103.7,12.2c-32.1,15.6-57.9-5.6-88,13.5C606.5,738,482,669.1,375.4,656.7"/>
		<path class="st89" d="M374,656.4c-0.5-0.1-1-0.1-1.5-0.2"/>
	</g>
</g>
<g>
	<g>
		<circle cx="1243.5" cy="643.8" r="2.4"/>
		<path class="st13" d="M1244.6,638.6c0,0-4.4,0.5-5,3.4"/>
		<polygon class="st19" points="1241,644.6 1242.5,644 1242.1,645.9 		"/>
	</g>
	<path d="M1239.7,633.5c-0.7,0.1-1.4-0.2-1.8-0.7c-3.2-3.4-12.8-14.2-3.3-13.8c0.9,0,2,0.2,3.3,0.4c0.4,0.1,0.8,0.3,1.1,0.5
		c2.2,2,12.2,10.6,16.7,9.6c0.4-0.1,0.7-0.1,1.1,0c3.8,1.5,25.3,10.8,9.9,27.4c-0.8,0.8-2,1-3,0.4l0,0c-0.8-0.5-1.2-1.4-1-2.3
		c0.7-4.7,2.3-18.7-4.6-13.2c-0.8,0.7-2.1,0.7-2.9,0C1251.7,639.3,1243.5,633,1239.7,633.5z"/>
	<path class="st14" d="M1256.4,641.7c-3.4-2.8-11.6-9-15.3-8.5c-0.7,0.1-1.4-0.2-1.8-0.7c-3.2-3.4-12.8-14.2-3.3-13.8
		c0.9,0,2,0.2,3.3,0.4"/>
	<path class="st14" d="M1257,629.4c0.4-0.1,0.7-0.1,1.1,0c3.8,1.5,25.3,10.8,9.9,27.4c-0.8,0.8-2,1-3,0.4l0,0"/>
	<path d="M1231.8,620.2c0,0,11.5-21,27.3,8.1C1274.9,657.4,1231.8,620.2,1231.8,620.2z"/>
	<path class="st18" d="M1237.6,615.3c4.5-4.2,13.3-7.9,24.2,12.1c2.3,4.3,3.4,7.1,3.5,8.9"/>
	<path class="st8" d="M1231.7,667.2c0,0.5,1.2-19.6,1.2-19.6l5.6,18.5L1231.7,667.2z"/>
	<path class="st14" d="M1243.6,667.6c0,0,7.5-1,4.8-6.6"/>
	<path class="st23" d="M1065.7,751.5v-24.4l-6.4-16.3c0,0,0.5-6-11.6-4.1l-1.1,45.7l19.1,0.3V751.5z"/>
	<line class="st92" x1="1053.9" y1="751.6" x2="1052.7" y2="707"/>
	<path class="st92" d="M1064.9,751.9c0,0-3.3-8.4-11.3-8"/>
	<path class="st92" d="M1053,719.6l4.3-5.9c0.7-0.9,2.1-0.6,2.3,0.5c4.1,17.1,6.3,13.8,6.3,13.8l-1.4-3.8"/>
	<path class="st23" d="M1111.8,759.3v-24.4l-6.4-16.3c0,0,0.5-6-11.6-4.1l-1.1,45.7l19.1,0.3V759.3z"/>
	<line class="st92" x1="1100.1" y1="759.4" x2="1098.8" y2="714.9"/>
	<path class="st92" d="M1111,759.7c0,0-3.3-8.4-11.3-8"/>
	<line class="st10" x1="1067.4" y1="733.9" x2="1079.7" y2="734.7"/>
	<line class="st10" x1="1066.5" y1="748.7" x2="1081.4" y2="750.3"/>
	<line class="st10" x1="1111" y1="740.5" x2="1122.1" y2="743.7"/>
	<line class="st10" x1="1110.6" y1="755.3" x2="1120.5" y2="756.9"/>
	<path class="st10" d="M1122.9,741.3l-2.7,17.2c0,0,45,12.1,51.2,4.9c6.2-7.1,4.8,31.5,37.7,52.2c0,0,26.9,13.3,45.4-20.2
		c0,0,6.6-5.9-21.1-27.7l-15.1-10.4l-29.9,3.6l-17.3-16.2L1122.9,741.3z"/>
	<polygon class="st78" points="1079.2,727.3 1093.4,728.1 1093.2,754.5 1080.8,753.9 	"/>
	<polyline class="st78" points="1121.2,743 1111.4,740.1 1109.9,730.2 1111.3,730 1156.8,729.7 1171.1,744.6 1122.9,741.3 
		1122.1,743.7 	"/>
	<path class="st78" d="M1222.2,737.8l-15.6-4.3l-1.4-9.5l19.8,1.9l16.7-32.5c0,0,2.7-9.3,9.3-10.3c0,0,10.3,0.9,19.1-8.2
		c0,0,25.7,14.6,28.2,24.7c0,0,2.2,19.4-14,54.4c0,0-4,18.5-10.9,16.1l-47.1-17.7l-8.6-2.9l1.9-12.4"/>
	<line class="st10" x1="1263.6" y1="660.6" x2="1268.9" y2="679.3"/>
	<line class="st10" x1="1253.9" y1="669.6" x2="1258.6" y2="687.5"/>
	<path class="st78" d="M1273.2,769.9c0,0-12.2,25.9-18.7,25.5l1.1-5.2c0,0-5.9-14-35.1-32.7l-1.4-2.5c0,0,2.3-5.5-1.7-5.7
		s11.9-0.9,11.9-0.9l43.9,18.1L1273.2,769.9L1273.2,769.9z"/>
	<polygon class="st10" points="1151.9,680.3 1156.8,729.7 1188.4,760.8 1219.2,755 1219.7,752.3 1212,744.8 1192.8,727 
		1183.7,729.5 1179.4,697.6 	"/>
	<polyline class="st10" points="1183.7,729.5 1187.9,757.6 1188.4,760.8 	"/>
	<line class="st10" x1="1219.7" y1="752.3" x2="1188.6" y2="758.4"/>
	<polyline class="st14" points="1187.9,733.7 1190.4,722 1205.4,725.3 	"/>
	<polyline class="st14" points="1190.3,735.8 1191.5,726.3 1195.1,726.3 	"/>
	<polyline class="st14" points="1193,734.7 1193.4,729.2 1195.2,728.5 	"/>
	<polyline class="st14" points="1195.2,733 1195.3,729.7 1198.9,731.4 	"/>
	<polyline class="st14" points="1193.1,744.6 1197.5,736.6 1206.3,737 1218.6,738.8 1220.3,739.1 1219.3,745.8 1208,743.2 
		1204.5,743.6 1203.5,746.6 	"/>
	<polyline class="st14" points="1195.6,748 1199.3,739.9 1205.7,739.5 	"/>
	<polyline class="st14" points="1199.8,746.8 1201.7,742 1207.2,741.4 	"/>
	<path class="st92" d="M1099.1,727.4l4.3-5.9c0.7-0.9,2.1-0.6,2.3,0.5c4.1,17.1,6.3,13.8,6.3,13.8l-1.4-3.8"/>
	<path class="st93" d="M1230.1,737.4c0,0,17.4,0,27.6,1.7c3.1,0.5,5.5,1.2,6.5,2"/>
	<line class="st93" x1="1272.4" y1="711.6" x2="1259.9" y2="739.5"/>
	<line class="st93" x1="1224.8" y1="726.7" x2="1221.9" y2="732.8"/>
	<path class="st93" d="M1255.9,777.1c4.3,2.7,0.8,15.6,0.8,15.6s3.4-5.8,3.7-7.5"/>
	<path class="st14" d="M1263.1,645.5c3.8,10.4,0.6,21.1-7.2,24c-7.8,2.9-17.2-3.2-21-13.6c-1.4-3.9-1.9-7.8-1.5-11.4
		c0.7-5.9,3.8-10.8,8.6-12.6C1249.9,629,1259.2,635.1,1263.1,645.5z"/>
	<line class="st93" x1="1235.4" y1="748.4" x2="1259.5" y2="762.1"/>
	<path class="st93" d="M1269.7,766.7c0,0,2.8,2.9,4.6,2.7l-1.6-2.8"/>
	<line class="st93" x1="1250.2" y1="694.9" x2="1237" y2="719"/>
	<path class="st94" d="M1143.7,751.4"/>
	<path class="st94" d="M1132.1,751.4"/>
	<path class="st94" d="M1145.3,795.4"/>
	<path class="st95" d="M1234.1,805.5c0,0-20.2,18.3-51.5-41.2c0,0-1.2-9.7-16.5-11.1"/>
	<path class="st95" d="M1157.5,752.8c-2.5,0-18.9-0.8-18.9-0.8"/>
</g>
<polygon class="st6" points="533.1,994.5 531.1,994.5 531.1,994.5 "/>
<g>
	<polyline class="st96" points="451,371.6 457.4,349.6 451,371.6 	"/>
	<path class="st17" d="M460,354.8"/>
	<path class="st6" d="M466.2,341c0,0-10.8-1.3-4.6,9.4s3.9-1.2,3.9-1.2"/>
	<path class="st20" d="M560.4,646.1"/>
	<path class="st96" d="M466.3,360.8l-1.3,10.8L466.3,360.8z"/>
	<line class="st96" x1="492.3" y1="429.7" x2="524.9" y2="416.9"/>
	<path class="st96" d="M502.2,464.6c0,0,14,47.8,21,62.8c3.1,6.5,4.5,12,5.2,16.1"/>
	<line class="st96" x1="487" y1="560.1" x2="448.6" y2="485.6"/>
	<polygon class="st97" points="502.4,590.1 481.8,626.9 464.1,623 487,560.1 	"/>
	<path class="st96" d="M511.7,447.1l26.8,58.1c0.6,1.3,1.3,2.6,2,3.8c2,3.3,6.1,12.3-2.2,19.7c-2.1,1.9-3.9,4-5.3,6.5l-4.6,8.3"/>
	<path class="st98" d="M481.4,333.5c-0.4,1-1.5,1.6-2.6,1.4c-3.7-0.8-12-2.9-12.6,3.1c-0.8,7.6-2.2-2.4-4.2,7.2s-6.8,10.6-9.2,9.6
		c-2.3-1-7.1-6.6-0.7-15.1c0.4-0.5,1-0.7,1.6-1.1c1.2-0.8,2.8-1.8,4-5.3c0.2-0.7,0.5-1.3,1.1-1.7l3.1-2.2c0.3-0.2,0.7-0.4,1.2-0.5
		c2.5-0.4,3.3-0.7,5.7-3.5c3.4-4,10.3-0.5,10.5,0C479.4,325.9,482.8,329.4,481.4,333.5z"/>
	<polygon class="st8" points="480.7,339.7 485.2,353.3 480.6,351.4 	"/>
	<path class="st13" d="M471.7,353.4c0,0,0.8,5.9,4.4,4.8"/>
	<g>
		<circle cx="475.6" cy="342.7" r="1.9"/>
		<path class="st13" d="M472.3,340c0,0,3-1.8,4.8-0.4"/>
		<polygon class="st19" points="477.5,342 476.3,342.3 477.5,343.3 		"/>
	</g>
	<g>
		<polygon class="st99" points="526.8,646.5 545.8,639.8 583.2,645.4 586.1,652.3 551.3,663.8 546.8,661.8 548.7,666.3 535.4,670.1 
					"/>
		<polyline class="st37" points="532.1,652.1 542.1,653.5 546.7,662.5 562.6,657.4 585.5,649.9 		"/>
		<line class="st37" x1="535.5" y1="665.4" x2="546.7" y2="662.5"/>
		<path class="st37" d="M562.6,657.4c0,0,0-7.2,4.6-8.1c0,0,8.8,0.1,7.8-3.9"/>
		<line class="st37" x1="555.4" y1="646.2" x2="562.1" y2="641"/>
		<line class="st37" x1="549.9" y1="645.6" x2="555.5" y2="640.7"/>
	</g>
	<g>
		<path class="st99" d="M448.4,648.5l11.9,9.4l0.8-3.3l4.6,0.9l2.1,9.4l19.7,3.1l11.7-1.7l-0.4-7.1l-10.4-3.5c0,0-7,0.6-8.6-10.5
			l-18.9-10.9C461.1,634.6,463.3,627.1,448.4,648.5z"/>
		<polyline class="st100" points="457.4,644.2 470.2,655.7 472.9,663.2 491.8,664.3 		"/>
		<polyline class="st100" points="462.1,647.8 466.7,641.2 465.9,634.2 		"/>
	</g>
	<path class="st100" d="M481,627.2"/>
	<line class="st100" x1="481" y1="627.2" x2="474.3" y2="641.5"/>
	<line class="st100" x1="465.9" y1="624" x2="461.1" y2="634.6"/>
	<path class="st100" d="M459.4,668.2"/>
	<line class="st100" x1="518.5" y1="617.2" x2="529.3" y2="645.4"/>
	<line class="st100" x1="538" y1="610.2" x2="543.1" y2="641.3"/>
	<path class="st14" d="M550.3,406.8l-2.2,10.7l-8.9,7.9l-10.8,9.6l3.1,2.4c-8.2-2.9-7.5-14.4-6.9-18.8c0.1-1.1,0.3-1.7,0.3-1.7
		s0.1-1.3,1.5-0.4"/>
	<polyline class="st14" points="541.3,419.1 545.7,415.2 548.9,404.4 	"/>
	<polyline class="st14" points="538.9,416.7 543.3,412.8 546.5,402 	"/>
	<path class="st14" d="M544.3,400.5l-3.2,10.7l-4.4,3.9c0,0-3.3,1.2-4.2-1.5l-1.5-1.5"/>
	<polyline class="st14" points="524.9,421.5 530.3,412.5 534.3,405.1 	"/>
	<line class="st96" x1="483.6" y1="654" x2="479" y2="655.4"/>
	<line class="st96" x1="488.7" y1="655.9" x2="483.3" y2="658"/>
	<ellipse class="st14" cx="469.4" cy="345.2" rx="12" ry="16"/>
	<line class="st93" x1="469.3" y1="479" x2="472.3" y2="484.9"/>
	<line class="st93" x1="476.2" y1="491.2" x2="505.1" y2="556.9"/>
	<line class="st93" x1="508.1" y1="565.6" x2="514" y2="579.8"/>
	<line class="st93" x1="517.5" y1="589.5" x2="519.7" y2="593.3"/>
	<path class="st44" d="M529,544.1c-6.5,2.5-13.6-0.5-13.6-0.5"/>
	<polyline class="st96" points="528.6,542.9 541.3,609.2 516.6,617.7 502.4,590.1 	"/>
	<path class="st96" d="M498.1,434.2"/>
	<path class="st96" d="M494.8,439.3c0,0,1-1.8,3.3-5.1l-4.6,1.3"/>
	<polyline class="st96" points="482.8,450.9 477.7,455.5 483.2,454.1 	"/>
	<path class="st76" d="M466.8,395c0,0,20.4-2.8,23.7,0.4s20.2,23.2,20.2,23.2s-29.4,6.6-30.7,6.6S466.8,395,466.8,395z"/>
	<g>
		<path class="st76" d="M474,370l-2.2-1.3c0,0-25.1-9.4-25,1.8l-15.3,53.7c0,0-3.8,34.3,0,52.3c0,0-0.7,17.6-1.7,21.4
			c-0.9,3.8,2.3,17.9,9.2,12.8c6.9-5.1,13.7-12.2,13.7-12.2l-4.2-12.8c0,0-0.8-19.7,28.3-34.1c0,0-2.1,11.4,17.4,4.1"/>
		<path class="st76" d="M531.4,437.5l-41,20c-15,2.8-13.6-5.9-13.6-5.9L452.7,417"/>
		<path class="st76" d="M531.4,437.5c0,0-7.2-2.6-7.3-15s-8-9.3-8-9.3l-29.2,6.4c0,0-4.4,8.2-4,8.5c0.3,0.2,28.6,12.7,28.6,12.7
			L531.4,437.5z"/>
	</g>
	<path class="st101" d="M590.8,391.4l-90.7,42.2c-1.8,0.8-3.9,0.1-4.7-1.7l-25.8-55.5c-0.8-1.8-0.1-3.9,1.7-4.7l90.7-42.2
		c1.8-0.8,3.9-0.1,4.7,1.7l25.8,55.5C593.3,388.5,592.5,390.6,590.8,391.4z"/>
	<g>
		
			<rect x="511.6" y="349.8" transform="matrix(0.9066 -0.422 0.422 0.9066 -98.5742 259.8224)" class="st5" width="52.1" height="5.6"/>
		
			<rect x="516.8" y="361" transform="matrix(0.9066 -0.422 0.422 0.9066 -102.8186 263.0628)" class="st5" width="52.1" height="5.6"/>
		
			<rect x="522" y="372.2" transform="matrix(0.9066 -0.422 0.422 0.9066 -107.063 266.3033)" class="st5" width="52.1" height="5.6"/>
		<g>
			
				<rect x="557.2" y="375.9" transform="matrix(0.9066 -0.422 0.422 0.9066 -108.9638 275.7943)" class="st5" width="22.7" height="16.3"/>
			<g>
				<g>
					<path class="st5" d="M559.4,381.8c0.8-0.4,1.7,1.5,2.5,1.2c0.8-0.4-0.1-2.3,0.8-2.7c0.8-0.4,1.7,1.5,2.5,1.2
						c0.8-0.4-0.1-2.3,0.8-2.7c0.8-0.4,1.7,1.5,2.5,1.2c0.8-0.4-0.1-2.3,0.8-2.7c0.8-0.4,1.7,1.5,2.6,1.1c0.8-0.4-0.1-2.3,0.8-2.7"
						/>
				</g>
				<g>
					<path class="st5" d="M561.5,386.2c0.8-0.4,1.7,1.5,2.5,1.2c0.8-0.4-0.1-2.3,0.8-2.7c0.8-0.4,1.7,1.5,2.5,1.2
						c0.8-0.4-0.1-2.3,0.8-2.7c0.8-0.4,1.7,1.5,2.5,1.2c0.8-0.4-0.1-2.3,0.8-2.7c0.8-0.4,1.7,1.5,2.6,1.1c0.8-0.4-0.1-2.3,0.8-2.7"
						/>
				</g>
				<g>
					<path class="st5" d="M563.5,390.6c0.8-0.4,1.7,1.5,2.5,1.2c0.8-0.4-0.1-2.3,0.8-2.7c0.8-0.4,1.7,1.5,2.5,1.2
						c0.8-0.4-0.1-2.3,0.8-2.7c0.8-0.4,1.7,1.5,2.5,1.2c0.8-0.4-0.1-2.3,0.8-2.7c0.8-0.4,1.7,1.5,2.6,1.1c0.8-0.4-0.1-2.3,0.8-2.7"
						/>
				</g>
			</g>
		</g>
		<g>
			
				<rect x="531" y="388.1" transform="matrix(0.9066 -0.422 0.422 0.9066 -116.5539 265.8721)" class="st5" width="22.7" height="16.3"/>
			<line class="st5" x1="533.2" y1="396.3" x2="542" y2="392.1"/>
			<line class="st5" x1="535.2" y1="400.7" x2="539.7" y2="398.6"/>
			<line class="st5" x1="544.1" y1="396.6" x2="548.5" y2="394.5"/>
			<line class="st5" x1="546.1" y1="401" x2="550.5" y2="398.9"/>
			<line class="st5" x1="546.1" y1="401" x2="537.3" y2="405.1"/>
		</g>
	</g>
	<g>
		<g>
			<polyline class="st102" points="459.5,434.8 463.1,432.8 461.5,429.1 465.1,427.2 463.5,423.5 467,421.5 465.5,417.8 			"/>
		</g>
		<g>
			<polyline class="st102" points="471,430.4 473.8,426.8 470.3,423.8 473.1,420.1 469.6,417.2 472.4,413.5 468.8,410.5 			"/>
		</g>
		<g>
			<polyline class="st102" points="464.4,438.1 468.9,437.8 469.9,433.4 474.4,433.1 475.4,428.8 479.9,428.5 480.9,424.1 			"/>
		</g>
		<g>
			<polyline class="st102" points="470,450 474.2,447.5 472.1,443.1 476.3,440.6 474.2,436.2 478.4,433.7 476.3,429.3 			"/>
		</g>
		<g>
			<polyline class="st102" points="473.2,421.9 477.6,420.2 476.7,415.6 481.1,413.9 480.3,409.3 484.7,407.6 483.8,403 			"/>
		</g>
	</g>
	<g>
		<g>
			<polyline class="st102" points="433.6,460.4 437.1,458.5 435.5,454.8 439.1,452.8 437.5,449.1 441.1,447.2 439.5,443.5 			"/>
		</g>
		<g>
			<polyline class="st102" points="445,456 447.8,452.4 444.3,449.4 447.1,445.8 443.6,442.8 446.4,439.1 442.9,436.2 			"/>
		</g>
		<g>
			<polyline class="st102" points="438.4,463.7 442.9,463.4 443.9,459.1 448.4,458.8 449.4,454.4 453.9,454.1 454.9,449.8 			"/>
		</g>
		<g>
			<polyline class="st102" points="444.1,475.6 448.3,473.1 446.2,468.7 450.4,466.2 448.2,461.8 452.5,459.3 450.3,454.9 			"/>
		</g>
		<g>
			<polyline class="st102" points="447.3,447.5 451.7,445.9 450.8,441.2 455.2,439.6 454.3,434.9 458.7,433.3 457.8,428.7 			"/>
		</g>
	</g>
	<g>
		<polyline class="st102" points="484.5,461.7 488,459.8 486.5,456.1 490,454.1 488.5,450.4 492,448.5 490.5,444.8 		"/>
	</g>
	<g>
		<polyline class="st102" points="496,457.4 498.8,453.7 495.3,450.7 498.1,447.1 494.5,444.1 497.3,440.5 493.8,437.5 		"/>
	</g>
	<g>
		<polyline class="st102" points="498.2,448.8 502.6,447.2 501.7,442.5 506.1,440.9 505.2,436.3 509.6,434.6 508.8,430 		"/>
	</g>
	<polyline class="st103" points="487.6,439.7 494.6,435.9 489.9,441 	"/>
	<path class="st104" d="M473.9,438.3l3,13.3c0,0-1.4,5.3,5.8,6.6"/>
	<g>
		<g>
			<g>
				<defs>
					
						<rect id="SVGID_73_" x="462.3" y="345.9" transform="matrix(0.9212 -0.389 0.389 0.9212 -109.7049 224.5906)" width="74.9" height="74.6"/>
				</defs>
				<clipPath id="SVGID_74_">
					<use xlink:href="#SVGID_73_"  style="overflow:visible;"/>
				</clipPath>
				<g class="st105">
					<g>
						<defs>
							
								<rect id="SVGID_75_" x="462.3" y="345.9" transform="matrix(0.9212 -0.389 0.389 0.9212 -109.7049 224.5907)" width="74.9" height="74.6"/>
						</defs>
						<clipPath id="SVGID_76_">
							<use xlink:href="#SVGID_75_"  style="overflow:visible;"/>
						</clipPath>
						<path class="st106" d="M504.7,398.3c-6,2.5-11.1,3.4-11.7,2.1l0.3-0.1c0.5,1.2,5.7,0.2,11.3-2.1c6-2.5,9.8-5.7,9.4-6.6
							l0.3-0.1C514.8,392.4,510.6,395.8,504.7,398.3"/>
					</g>
					<g>
						<defs>
							
								<rect id="SVGID_77_" x="462.3" y="345.9" transform="matrix(0.9212 -0.389 0.389 0.9212 -109.7049 224.5907)" width="74.9" height="74.6"/>
						</defs>
						<clipPath id="SVGID_78_">
							<use xlink:href="#SVGID_77_"  style="overflow:visible;"/>
						</clipPath>
						<path class="st107" d="M493.2,400.4c-0.1,0-0.2,0-0.2-0.1l-10.3-24.5c0-0.1,0-0.1,0.1-0.2c0.1,0,0.2,0,0.2,0.1l10.3,24.5
							C493.3,400.3,493.2,400.4,493.2,400.4"/>
					</g>
					<g>
						<defs>
							
								<rect id="SVGID_79_" x="462.3" y="345.9" transform="matrix(0.9212 -0.389 0.389 0.9212 -109.7049 224.5907)" width="74.9" height="74.6"/>
						</defs>
						<clipPath id="SVGID_80_">
							<use xlink:href="#SVGID_79_"  style="overflow:visible;"/>
						</clipPath>
						<path class="st108" d="M494.2,373.5c-5.3,2.2-11,3.7-11.6,2.3c-0.6-1.4,4.5-4.5,9.8-6.7s11-3.7,11.6-2.3
							S499.5,371.3,494.2,373.5 M492.4,369.3c-6.2,2.6-10,5.4-9.6,6.4s5,0.2,11.2-2.4s10-5.4,9.6-6.4
							C503.3,366,498.7,366.7,492.4,369.3"/>
					</g>
					<g>
						<defs>
							
								<rect id="SVGID_81_" x="462.3" y="345.9" transform="matrix(0.9212 -0.389 0.389 0.9212 -109.7049 224.5907)" width="74.9" height="74.6"/>
						</defs>
						<clipPath id="SVGID_82_">
							<use xlink:href="#SVGID_81_"  style="overflow:visible;"/>
						</clipPath>
						<path class="st109" d="M503.8,366.8c-0.1,0-0.1,0.1-0.1,0.2l5.1,12.1c0,0,0.1,0,0.1-0.1h0.1h0.1l-5.1-12.1
							C504,366.8,503.9,366.8,503.8,366.8"/>
					</g>
					<g>
						<defs>
							
								<rect id="SVGID_83_" x="462.3" y="345.9" transform="matrix(0.9212 -0.389 0.389 0.9212 -109.7049 224.5907)" width="74.9" height="74.6"/>
						</defs>
						<clipPath id="SVGID_84_">
							<use xlink:href="#SVGID_83_"  style="overflow:visible;"/>
						</clipPath>
						<path class="st110" d="M506.1,372.3c0,0-0.1,0-0.2,0.1l7.9,18.7c0.1,0.3,0.3,0.5,0.4,0.5c0.1,0,0-0.3-0.1-0.6l-7.9-18.6
							L506.1,372.3C506.2,372.3,506.2,372.3,506.1,372.3"/>
					</g>
					<g>
						<defs>
							
								<rect id="SVGID_85_" x="462.3" y="345.9" transform="matrix(0.9212 -0.389 0.389 0.9212 -109.7049 224.5907)" width="74.9" height="74.6"/>
						</defs>
						<clipPath id="SVGID_86_">
							<use xlink:href="#SVGID_85_"  style="overflow:visible;"/>
						</clipPath>
						<path class="st111" d="M506.8,387.8c-0.2-0.1-0.4,0-0.6,0.1c-0.8,0.3-1.2,1.1-1.3,2.2v0.3l-0.1-0.3c-0.1-0.1-0.2-0.2-0.3-0.4
							c-0.5-0.6-0.9-0.8-1.4-0.6c-0.6,0.2-1,1-1.3,2.3l0.5,0.1c0,0,0-0.1,0.1-0.2c0-0.2,0.1-0.3,0.1-0.5c0.2-0.6,0.5-0.9,0.8-1
							s0.5,0.1,0.8,0.5c0.1,0.2,0.2,0.4,0.3,0.5c0.1,0.1,0.1,0.3,0.2,0.4l0.1,0.2v0.1l-0.2,0.1l-1.1,0.4v0.1l1.1-0.5l0.3-0.1v0.1
							c0.2,0.6,0.2,1.1,0.1,1.6s-0.5,0.9-0.7,1h-0.1v-0.1c-0.2-0.3-0.3-0.5-0.5-0.7c-0.1-0.1-0.2-0.1-0.3-0.1c-0.1,0-0.3,0-0.4,0.1
							c-0.2,0.1-0.3,0.2-0.3,0.3c-0.1,0.2-0.1,0.3,0,0.5c0.2,0.6,0.7,0.7,1.4,0.4c0.3-0.1,0.6-0.4,0.9-0.8s0.4-0.9,0.4-1.5h0.2
							c0.1,0.4,0.4,0.6,0.7,0.9c0.3,0.2,0.6,0.3,0.9,0.1c0.4-0.2,0.8-0.7,1-1.4c0.1-0.4,0.2-0.8,0.3-1.2l-0.3-0.1
							c-0.3,1.1-0.6,1.8-1,2c-0.5,0.2-1-0.4-1.4-1.4v-0.1h0.1l1.3-0.6l-0.1-0.1l-1.3,0.5h-0.1v-0.1c-0.2-0.4-0.1-0.8,0-1.2
							c0-0.4,0.2-0.8,0.4-1.1l0.1-0.1l0.1,0.1l0.2,0.2c0.1,0.1,0.3,0.2,0.4,0.2c0.2,0.1,0.4,0.1,0.5,0c0.2-0.1,0.3-0.2,0.3-0.4
							c0-0.2,0-0.4-0.1-0.6C507.1,388,507,387.8,506.8,387.8"/>
					</g>
					<g>
						<defs>
							
								<rect id="SVGID_87_" x="462.3" y="345.9" transform="matrix(0.9212 -0.389 0.389 0.9212 -109.7049 224.5907)" width="74.9" height="74.6"/>
						</defs>
						<clipPath id="SVGID_88_">
							<use xlink:href="#SVGID_87_"  style="overflow:visible;"/>
						</clipPath>
						<path class="st112" d="M499.1,386.1l0.2,1.3c0.4,2.3,0.6,4,0.6,5c0.1,1.9-0.3,3.3-1.1,4.2c-0.3,0.4-0.7,0.6-1.1,0.8
							c-0.4,0.2-0.8,0.2-1,0.1s-0.4-0.2-0.5-0.5c-0.1-0.2-0.1-0.5,0-0.7s0.2-0.4,0.5-0.5c0.2-0.1,0.4-0.1,0.6-0.1s0.3,0.2,0.4,0.3
							s0.1,0.4,0.1,0.6c0.7-0.4,0.8-2.2,0.2-5.3c-0.1-0.5-0.2-1.1-0.3-1.7c-0.1-0.7-0.2-1.2-0.3-1.5l-0.2-1.3l-2.1,0.9l-0.1-0.8
							l2.1-0.9c-0.6-4-0.7-7-0.1-9c0.5-1.6,1.4-2.7,2.9-3.3c0.6-0.3,1.2-0.4,1.8-0.3c0.5,0.1,0.9,0.4,1.2,1c0.1,0.3,0.1,0.7,0,1
							c-0.2,0.3-0.4,0.5-0.7,0.7s-0.6,0.2-0.9,0.1s-0.5-0.3-0.6-0.6c-0.1-0.3-0.1-0.6-0.1-1c-0.4,0-0.7,0.1-1,0.2
							c-0.2,0.1-0.4,0.3-0.6,0.6c-0.2,0.3-0.3,0.7-0.4,1.2c-0.3,1.7-0.1,4.6,0.6,8.6l2.7-1.1l0.1,0.8L499.1,386.1z"/>
					</g>
					<g>
						<defs>
							
								<rect id="SVGID_89_" x="462.3" y="345.9" transform="matrix(0.9212 -0.389 0.389 0.9212 -109.7049 224.5907)" width="74.9" height="74.6"/>
						</defs>
						<clipPath id="SVGID_90_">
							<use xlink:href="#SVGID_89_"  style="overflow:visible;"/>
						</clipPath>
						<path class="st113" d="M499.1,386.1l0.2,1.3c0.4,2.3,0.6,4,0.6,5c0.1,1.9-0.3,3.3-1.1,4.2c-0.3,0.4-0.7,0.6-1.1,0.8
							c-0.4,0.2-0.8,0.2-1,0.1s-0.4-0.2-0.5-0.5c-0.1-0.2-0.1-0.5,0-0.7s0.2-0.4,0.5-0.5c0.2-0.1,0.4-0.1,0.6-0.1s0.3,0.2,0.4,0.3
							s0.1,0.4,0.1,0.6c0.7-0.4,0.8-2.2,0.2-5.3c-0.1-0.5-0.2-1.1-0.3-1.7c-0.1-0.7-0.2-1.2-0.3-1.5l-0.2-1.3l-2.1,0.9l-0.1-0.8
							l2.1-0.9c-0.6-4-0.7-7-0.1-9c0.5-1.6,1.4-2.7,2.9-3.3c0.6-0.3,1.2-0.4,1.8-0.3c0.5,0.1,0.9,0.4,1.2,1c0.1,0.3,0.1,0.7,0,1
							c-0.2,0.3-0.4,0.5-0.7,0.7s-0.6,0.2-0.9,0.1s-0.5-0.3-0.6-0.6c-0.1-0.3-0.1-0.6-0.1-1c-0.4,0-0.7,0.1-1,0.2
							c-0.2,0.1-0.4,0.3-0.6,0.6c-0.2,0.3-0.3,0.7-0.4,1.2c-0.3,1.7-0.1,4.6,0.6,8.6l2.7-1.1l0.1,0.8L499.1,386.1z"/>
					</g>
				</g>
			</g>
		</g>
	</g>
	<path class="st96" d="M437.9,507.8"/>
	<polyline class="st96" points="438.1,505 434.6,511.1 439.9,506.8 	"/>
	<path class="st96" d="M429.8,497.8l1.2-0.8c2.2-1.5,3.5-4.1,3.5-6.7l0,0"/>
	<g>
		<polyline class="st102" points="427.6,502.5 431.2,500.5 429.6,496.8 433.2,494.9 431.6,491.2 435.2,489.3 433.6,485.5 		"/>
	</g>
	<g>
		<polyline class="st102" points="439.1,498.1 441.9,494.5 438.4,491.5 441.2,487.8 437.7,484.9 440.5,481.2 437,478.2 		"/>
	</g>
	<g>
		<polyline class="st102" points="432.5,505.8 437,505.5 438,501.1 442.5,500.8 443.5,496.5 448,496.2 449,491.8 		"/>
	</g>
	<g>
		<polyline class="st102" points="441.4,489.6 445.7,487.9 444.9,483.3 449.3,481.6 448.4,477 452.8,475.3 451.9,470.7 		"/>
	</g>
	<g>
		<polyline class="st102" points="452.4,377.7 454,382.1 458.6,381.4 460.2,385.8 464.8,385 466.4,389.4 471.1,388.7 		"/>
	</g>
	<g>
		<polyline class="st102" points="443,387.1 446.7,390.4 450.2,386.8 453.9,390 457.4,386.4 461.1,389.7 464.6,386.1 		"/>
	</g>
	<g>
		<g>
			<polyline class="st102" points="439.6,407.8 443.4,408.5 444.8,404.9 448.6,405.7 450.1,402 453.9,402.8 455.3,399.2 			"/>
		</g>
		<g>
			<polyline class="st102" points="451.2,412.3 455.3,411.1 455.1,406.9 459.1,405.7 459,401.5 463,400.3 462.9,396.1 			"/>
		</g>
		<g>
			<polyline class="st102" points="440.9,413 444.4,416.6 448.1,413.2 451.6,416.8 455.3,413.4 458.8,417 462.5,413.7 			"/>
		</g>
		<g>
			<polyline class="st102" points="437.2,426.2 441.9,426.8 443.4,422.4 448,423.1 449.6,418.7 454.2,419.4 455.7,415 			"/>
		</g>
		<g>
			<polyline class="st102" points="458.3,407.1 462.7,409.1 465.1,404.8 469.6,406.8 471.9,402.5 476.4,404.4 478.7,400.2 			"/>
		</g>
	</g>
	<path class="st6" d="M451,367c0,0-8.1-0.1-4.2,3.5c0,0,15.7,10.2,25-1.8c0,0,2.7-3.9-4.2-2.9"/>
	<g>
		<polyline class="st102" points="453.8,372.1 456.8,375 459.8,372.1 462.8,375 465.8,372.1 468.8,375 471.8,372.1 		"/>
	</g>
</g>
</svg>
