<?xml version="1.0" encoding="UTF-8"?>
<svg width="200px" height="59px" viewBox="0 0 200 59" version="1.1" xmlns="http://www.w3.org/2000/svg" xmlns:xlink="http://www.w3.org/1999/xlink">
    <!-- Generator: Sketch 47.1 (45422) - http://www.bohemiancoding.com/sketch -->
    <title>Page 1</title>
    <desc>Created with Sketch.</desc>
    <defs></defs>
    <g id="Page-1" stroke="none" stroke-width="1" fill="none" fill-rule="evenodd">
        <g id="Homepage-#1" transform="translate(-81.000000, -76.000000)">
            <g id="Header---izbornik" transform="translate(0.000000, 60.000000)">
                <g id="Page-1" transform="translate(81.000000, 16.000000)">
                    <path d="M21.6980643,32.9004329 C8.11147882,32.9004329 0,26.7532059 0,16.4523328 C0,4.32295237 10.9728553,0 21.2409799,0 C26.4486286,0 35.5110693,0.979154356 40.0012512,7.25336102 L40.0012512,0.541779932 L63.0252847,0.540369047 C66.8503593,0.540369047 72.546225,0.540369047 76.0302551,3.81785546 L76.0302551,0.541779932 L100.326483,0.541779932 C103.117104,0.541779932 109.299771,1.01160472 111.89652,4.9606725 L111.89652,0.541779932 L125.541126,0.541779932 L125.541126,32.3642965 L111.89652,32.3642965 L111.89652,29.2532946 C108.542681,31.977714 103.240219,32.3642965 98.4118233,32.3642965 L66.7159227,32.3642965 L66.5885617,32.2288515 L54.7807844,19.7820219 L53.8736913,19.7820219 L53.8736913,32.3642965 L40.0012512,32.3642965 L40.0012512,25.682344 C35.8591893,31.608062 27.8750715,32.9004329 21.6980643,32.9004329 L21.6980643,32.9004329 Z M21.2409799,0.866283537 C11.3917314,0.866283537 0.868884856,4.96208339 0.868884856,16.4523328 C0.868884856,30.5160368 15.4347347,32.0341494 21.6980643,32.0341494 C28.0731885,32.0341494 36.4323137,30.6317294 40.0536107,23.9469552 L40.870136,22.4415406 L40.870136,31.498013 L53.0048064,31.498013 L53.0048064,18.9157384 L55.1557917,18.9157384 L55.2831527,19.0511834 L67.09093,31.498013 L98.4118233,31.498013 C103.432676,31.498013 108.977124,31.0803909 112.019636,27.969389 L112.765405,27.207511 L112.765405,31.498013 L124.672241,31.498013 L124.672241,1.40806347 L112.765405,1.40806347 L112.765405,19.0878664 L112.042278,18.4501463 C110.689421,17.2523047 108.596456,16.3916647 105.827062,15.8865678 L103.852967,15.5267921 L105.800175,15.0400367 C108.132296,14.4587519 111.08424,13.1649702 111.913502,10.3065167 L112.390398,8.65295917 L111.913502,7.04313912 C110.403566,1.95689783 103.30673,1.40806347 100.326483,1.40806347 L76.89914,1.40806347 L76.89914,5.82977781 L76.1745975,5.18218148 C76.1321439,5.14408758 76.0882751,5.09188483 76.0415761,5.03544942 C76.0189341,5.00440994 75.982141,4.9606725 75.9651595,4.94797454 L75.8349683,4.85062345 C72.6679254,1.4052417 66.8645105,1.4052417 63.0252847,1.4052417 L40.870136,1.40806347 L40.870136,10.4320855 L40.0564409,8.96053216 C36.15778,1.91739304 26.5943861,0.866283537 21.2409799,0.866283537 L21.2409799,0.866283537 Z M107.611531,15.3913471 C109.349301,15.8414195 110.781404,16.4579763 111.89652,17.236785 L111.89652,12.3353696 C110.990842,13.6446712 109.544587,14.67885 107.611531,15.3913471 L107.611531,15.3913471 Z M76.89914,27.9637454 L67.1602709,17.9930195 L67.9739661,17.8547527 C70.6145835,17.4046803 73.9287991,16.5454512 76.1293136,13.8887543 L76.89914,12.9603918 L76.89914,27.9637454 Z M68.9263431,18.5616062 L76.0302551,25.8333087 L76.0302551,15.2657783 C73.9471957,17.2664136 71.2612943,18.1016576 68.9263431,18.5616062 L68.9263431,18.5616062 Z M95.8108292,25.731725 L88.8767319,25.731725 L88.8767319,18.6123981 L95.7344127,18.6123981 C97.3349155,18.6123981 102.20718,18.6123981 102.20718,22.0902302 C102.20718,24.5056657 100.05478,25.731725 95.8108292,25.731725 L95.8108292,25.731725 Z M89.7456167,24.8654415 L95.8108292,24.8654415 C99.5311847,24.8654415 101.338295,23.9568314 101.338295,22.0902302 C101.338295,19.7495716 98.141535,19.4786816 95.7344127,19.4786816 L89.7456167,19.4786816 L89.7456167,24.8654415 Z M21.1631482,24.8160605 C16.3941874,24.8160605 13.7677211,21.7107021 13.7677211,16.068572 C13.7677211,10.4659467 16.436641,7.25195013 21.0881468,7.25195013 C25.8344657,7.25195013 28.5557451,10.3262691 28.5557451,15.6890439 C28.5557451,21.7445633 26.0679608,24.8160605 21.1631482,24.8160605 L21.1631482,24.8160605 Z M21.0881468,8.11823367 C15.4743581,8.11823367 14.636606,13.1000694 14.636606,16.068572 C14.636606,19.6649185 15.7687035,23.9483661 21.1631482,23.9483661 C25.6137067,23.9483661 27.6868603,21.3255304 27.6868603,15.6890439 C27.6868603,12.8616298 26.8292964,8.11823367 21.0881468,8.11823367 L21.0881468,8.11823367 Z M58.4119873,13.9861054 L53.0048064,13.9861054 L53.0048064,6.78917977 L58.5619902,6.78917977 C60.3620253,6.78917977 64.5805037,6.78917977 64.5805037,10.351665 C64.5805037,13.6319732 60.265797,13.9861054 58.4119873,13.9861054 L58.4119873,13.9861054 Z M53.8736913,13.1198218 L58.4119873,13.1198218 C60.0054145,13.1198218 63.7116188,12.8517536 63.7116188,10.351665 C63.7116188,7.98278869 61.2365706,7.65546331 58.5619902,7.65546331 L53.8736913,7.65546331 L53.8736913,13.1198218 Z M94.8174137,13.5289786 L88.8767319,13.5289786 L88.8767319,6.78917977 L94.8924151,6.78917977 C96.3061219,6.78917977 100.606677,6.78917977 100.606677,10.1231016 C100.606677,13.5289786 96.550938,13.5289786 94.8174137,13.5289786 L94.8174137,13.5289786 Z M89.7456167,12.662695 L94.8174137,12.662695 C97.3731238,12.662695 99.7377925,12.355122 99.7377925,10.1231016 C99.7377925,8.43850462 98.199555,7.65546331 94.8924151,7.65546331 L89.7456167,7.65546331 L89.7456167,12.662695 Z" id="Fill-1" fill="#231F20"></path>
                    <path d="M112.767896,1.40759758 L112.767896,19.0879481 L112.044732,18.4502082 C110.691808,17.2523296 108.598739,16.3916629 105.829207,15.8865503 L103.855014,15.5267635 L105.802319,15.039993 C108.134556,14.4586903 111.086647,13.1648684 111.91595,10.3063264 L112.39287,8.65271767 L111.91595,7.04284776 C110.40594,1.95644893 103.30875,1.40759758 100.328354,1.40759758 L76.8998439,1.40759758 L76.8998439,5.82944887 L76.1752653,5.18042156 C76.1328096,5.14232648 76.0889386,5.09153304 76.0436525,5.03509588 C76.0195942,5.00405544 75.9827992,4.95890571 75.9672321,4.94761828 L75.8356192,4.85026419 C72.6684185,1.40477572 66.8647144,1.40477572 63.0252974,1.40477572 L40.8690449,1.40759758 L40.8690449,10.4318991 L40.0553093,8.96030018 C36.1564542,1.91694292 26.5925838,0.865800866 21.2389109,0.865800866 C11.3905869,0.865800866 0.865800866,4.96031664 0.865800866,16.4523328 C0.865800866,30.5164725 15.4323764,32.034632 21.6960181,32.034632 C28.0714599,32.034632 36.4310015,30.6321687 40.0524789,23.9471874 L40.8690449,22.4403153 L40.8690449,31.498479 L53.0043199,31.498479 L53.0043199,18.9158148 L55.1554124,18.9158148 L55.2827797,19.0512639 L67.0911452,31.498479 L98.413599,31.498479 C103.434702,31.498479 108.980841,31.0794331 112.022089,27.9697458 L112.767896,27.2078441 L112.767896,31.498479 L124.675325,31.498479 L124.675325,1.40759758 L112.767896,1.40759758 Z M21.1610753,24.8149087 C16.3932921,24.8149087 13.7652797,21.7094541 13.7652797,16.0685602 C13.7652797,10.4657614 16.4343326,7.25025431 21.0860701,7.25025431 C25.8326255,7.25025431 28.5540405,10.3260794 28.5540405,15.6890203 C28.5540405,21.7447273 26.0675474,24.8149087 21.1610753,24.8149087 L21.1610753,24.8149087 Z M58.4117701,13.9846181 L53.0043199,13.9846181 L53.0043199,6.78746962 L58.5617805,6.78746962 C60.3619053,6.78746962 64.5820091,6.78746962 64.5820091,10.3514761 C64.5820091,13.6318859 60.2656722,13.9846181 58.4117701,13.9846181 L58.4117701,13.9846181 Z M76.8998439,27.964102 L67.1604896,17.9930672 L67.9742253,17.8547962 C70.6149743,17.4047099 73.929355,16.5454542 76.1313944,13.887264 L76.8998439,12.9602837 L76.8998439,27.964102 Z M88.8780325,6.78746962 L94.8940154,6.78746962 C96.3077927,6.78746962 100.608562,6.78746962 100.608562,10.1229056 C100.608562,13.5288881 96.552621,13.5288881 94.8190103,13.5288881 L88.8780325,13.5288881 L88.8780325,6.78746962 Z M95.8124753,25.7306015 L88.8780325,25.7306015 L88.8780325,18.6110541 L95.7360549,18.6110541 C97.3366376,18.6110541 102.209145,18.6110541 102.209145,22.0904049 C102.209145,24.5059152 100.056637,25.7306015 95.8124753,25.7306015 L95.8124753,25.7306015 Z" id="Fill-2" fill="#C41130"></path>
                    <path d="M189.61039,1.73160173 C186.666437,0.634222408 183.274491,0 179.655767,0 C176.032868,0 172.640923,0.634222408 169.69697,1.73160173 L189.61039,1.73160173 Z" id="Fill-3" fill="#231F20"></path>
                    <path d="M166.463792,3.46320346 C165.442776,3.98494208 164.488876,4.5589734 163.636364,5.19480519 L194.805195,5.19480519 C193.948398,4.5589734 192.994498,3.98494208 191.976338,3.46320346 L166.463792,3.46320346 Z" id="Fill-4" fill="#231F20"></path>
                    <path d="M195.839823,6.92640693 L162.604543,6.92640693 C162.02605,7.47726057 161.496701,8.05243446 161.038961,8.65800866 L197.402597,8.65800866 C196.946262,8.05243446 196.415508,7.47726057 195.839823,6.92640693" id="Fill-5" fill="#231F20"></path>
                    <path d="M184.478172,12.1212121 L200,12.1212121 C199.766914,11.5288221 199.500735,10.9475162 199.164054,10.3896104 L182.683983,10.3896104 C183.388997,10.8305161 183.99905,11.4241377 184.478172,12.1212121" id="Fill-6" fill="#231F20"></path>
                    <path d="M174.031139,12.1212121 C174.494195,11.4241377 175.077506,10.8305161 175.757576,10.3896104 L160.113214,10.3896104 C159.789766,10.9475162 159.529902,11.5288221 159.307359,12.1212121 L174.031139,12.1212121 Z" id="Fill-7" fill="#231F20"></path>
                    <path d="M173.619078,15.5844156 C173.686664,14.9788346 173.806664,14.3912413 174.025974,13.8528139 L159.581842,13.8528139 C159.437014,14.4200213 159.352877,14.9980214 159.307359,15.5844156 L173.619078,15.5844156 Z" id="Fill-8" fill="#231F20"></path>
                    <path d="M200,15.5844156 C199.952412,14.9980214 199.864446,14.4200213 199.713029,13.8528139 L184.415584,13.8528139 C184.644873,14.3912413 184.770333,14.9788346 184.840994,15.5844156 L200,15.5844156 Z" id="Fill-9" fill="#231F20"></path>
                    <path d="M199.742023,19.047619 C199.871012,18.4795343 199.972463,17.9039912 200,17.3160173 L184.785158,17.3160173 C184.744577,17.9238804 184.602545,18.4969374 184.415584,19.047619 L199.742023,19.047619 Z" id="Fill-10" fill="#231F20"></path>
                    <path d="M173.160173,19.047619 C172.981337,18.4969374 172.841318,17.9238804 172.80666,17.3160173 L158.441558,17.3160173 C158.470671,17.9039912 158.564941,18.4795343 158.691097,19.047619 L173.160173,19.047619 Z" id="Fill-11" fill="#231F20"></path>
                    <path d="M198.304226,21.6450216 C198.630635,21.0837438 198.919382,20.5081355 199.134199,19.9134199 L184.216993,19.9134199 C183.815258,20.5929243 183.292165,21.1780863 182.683983,21.6450216 L198.304226,21.6450216 Z" id="Fill-12" fill="#231F20"></path>
                    <path d="M175.757576,21.6450216 C175.139635,21.1780863 174.610575,20.5929243 174.207079,19.9134199 L159.307359,19.9134199 C159.526037,20.5081355 159.819489,21.0837438 160.1468,21.6450216 L175.757576,21.6450216 Z" id="Fill-13" fill="#231F20"></path>
                    <path d="M162.679881,25.1082251 L196.626049,25.1082251 C197.232103,24.5569444 197.792417,23.984773 198.268398,23.3766234 L179.882379,23.3766234 C179.772318,23.3835869 179.667973,23.4114411 179.553624,23.4114411 C179.440703,23.4114411 179.336359,23.3835869 179.222009,23.3766234 L161.038961,23.3766234 C161.510654,23.984773 162.069539,24.5569444 162.679881,25.1082251" id="Fill-14" fill="#231F20"></path>
                    <path d="M192.160248,28.5714286 C193.107819,28.0437142 194.001324,27.4735831 194.805195,26.8398268 L163.636364,26.8398268 C164.435966,27.4735831 165.33374,28.0437142 166.279888,28.5714286 L192.160248,28.5714286 Z" id="Fill-15" fill="#231F20"></path>
                    <path d="M168.831169,30.3030303 C171.884321,31.9450476 175.427276,32.9004329 179.222897,32.9004329 C183.017105,32.9004329 186.557237,31.9450476 189.61039,30.3030303 L168.831169,30.3030303 Z" id="Fill-16" fill="#231F20"></path>
                    <path d="M135.930736,30.3030303 C138.960983,31.9444444 142.477808,32.9004329 146.244233,32.9004329 C151.124038,32.9004329 154.607209,32.3511085 157.575758,30.3030303 L135.930736,30.3030303 Z" id="Fill-17" fill="#231F20"></path>
                    <path d="M155.844156,1.73160173 C152.904317,0.632611833 149.509851,0 145.881139,0 C142.26213,0 138.870574,0.636075036 135.930736,1.73160173 L155.844156,1.73160173 Z" id="Fill-18" fill="#231F20"></path>
                    <path d="M160.104777,5.19480519 L161.038961,4.65757696 C160.402406,4.22707486 159.707464,3.83494622 158.989737,3.46320346 L133.472977,3.46320346 C132.478982,3.97884664 131.577551,4.56763919 130.735931,5.19480519 L160.104777,5.19480519 Z" id="Fill-19" fill="#231F20"></path>
                    <path d="M155.543537,8.65800866 L158.441558,6.92640693 L129.672189,6.92640693 C129.10169,7.4737523 128.590944,8.05468478 128.138528,8.65800866 L155.543537,8.65800866 Z" id="Fill-20" fill="#231F20"></path>
                    <path d="M142.857143,22.5108225 C142.209632,22.0431461 141.650482,21.4567519 141.22249,20.7792208 L126.406926,20.7792208 C126.619542,21.3752084 126.901188,21.9484117 127.224253,22.5108225 L142.857143,22.5108225 Z" id="Fill-21" fill="#231F20"></path>
                    <path d="M152.380952,22.3515152 L151.355844,21.6450216 C151.135738,21.9047619 150.891005,22.1264069 150.649351,22.3515152 L152.380952,22.3515152 Z" id="Fill-22" fill="#231F20"></path>
                    <path d="M129.792574,25.1082251 L158.441558,25.1082251 L154.934064,23.3766234 L147.749797,23.3766234 C147.624991,23.3847312 147.507357,23.4090547 147.38255,23.4090547 C147.262048,23.4090547 147.151587,23.3835729 147.029649,23.3766234 L128.138528,23.3766234 C128.616236,23.9847109 129.180017,24.5580506 129.792574,25.1082251" id="Fill-23" fill="#231F20"></path>
                    <path d="M127.264084,10.3896104 C126.930903,10.9514466 126.633319,11.5257404 126.406926,12.1212121 L141.834918,12.1212121 C142.338961,11.4235884 142.985389,10.836837 143.722944,10.3896104 L127.264084,10.3896104 Z" id="Fill-24" fill="#231F20"></path>
                    <path d="M150.649351,10.3896104 C151.198655,10.8155844 151.719048,11.3073593 152.154231,11.9116883 L154.112554,10.3896104 L150.649351,10.3896104 Z" id="Fill-25" fill="#231F20"></path>
                    <path d="M125.851263,13.8528139 C125.703373,14.4192368 125.585636,14.9952399 125.541126,15.5844156 L140.614388,15.5844156 C140.689051,14.9724872 140.880016,14.3976816 141.125541,13.8528139 L125.851263,13.8528139 Z" id="Fill-26" fill="#231F20"></path>
                    <path d="M125.541126,17.3160173 C125.578839,17.9019257 125.660068,18.4803702 125.792066,19.047619 L141.125541,19.047619 C140.921017,18.5027616 140.802075,17.9193412 140.754207,17.3160173 L125.541126,17.3160173 Z" id="Fill-27" fill="#231F20"></path>
                    <path d="M159.647324,28.5714286 C160.120197,28.2218739 160.583129,27.8387321 161.038961,27.4108076 L159.969673,26.8398268 L130.735931,26.8398268 C131.541092,27.471762 132.442816,28.0439867 133.394241,28.5714286 L159.647324,28.5714286 Z" id="Fill-28" fill="#231F20"></path>
                    <path d="M42.4068004,45.8874459 C45.7483945,45.8874459 46.5303769,47.6094998 46.5303769,49.0158676 C46.5303769,50.224576 45.9664193,51.0607178 44.7483872,51.7148423 C46.6408428,52.104473 47.6190476,53.1724024 47.6190476,54.7934937 C47.6190476,56.7828855 45.9838613,58.008658 43.4591337,58.008658 L39.8268398,58.008658 L39.8268398,45.8874459 L42.4068004,45.8874459 Z M40.7890561,51.5043849 L42.1161006,51.5043849 C44.6204793,51.5043849 45.4954857,50.5246201 45.4954857,49.0869681 C45.4954857,47.2355112 44.0041958,46.6695513 42.0783097,46.6695513 L40.7890561,46.6695513 L40.7890561,51.5043849 Z M40.7890561,57.2279746 L43.3501212,57.2279746 C45.9140934,57.2279746 46.5856099,55.8770652 46.5856099,54.7721635 C46.5856099,53.5847853 45.9286284,52.2864903 42.9329671,52.2864903 L40.7890561,52.2864903 L40.7890561,57.2279746 Z" id="Fill-29" fill="#231F20"></path>
                    <polygon id="Fill-30" fill="#231F20" points="67.3866791 46.6694596 61.5740956 46.6694596 61.5740956 51.52221 67.2408907 51.52221 67.2408907 52.3042236 61.5740956 52.3042236 61.5740956 57.2266443 67.5324675 57.2266443 67.5324675 58.008658 60.6060606 58.008658 60.6060606 45.8874459 67.3866791 45.8874459"></polygon>
                    <path d="M91.7748918,58.008658 L90.8350055,58.008658 L88.9893858,53.84596 L83.3036204,53.84596 L81.4580007,58.008658 L80.5194805,58.008658 L85.9006026,45.8874459 L86.3937697,45.8874459 L91.7748918,58.008658 Z M86.1396725,47.4071834 L83.6451488,53.0698638 L88.6492235,53.0698638 L86.1396725,47.4071834 Z" id="Fill-31" fill="#231F20"></path>
                    <path d="M115.151515,45.8874459 L115.151515,52.4111221 C115.151515,56.5170108 112.479152,58.008658 109.947977,58.008658 C107.146071,58.008658 104.761905,56.2195233 104.761905,52.6216085 L104.761905,45.8874459 L105.726925,45.8874459 L105.726925,52.5879307 C105.726925,55.7255818 107.729741,57.1470669 109.947977,57.1470669 C112.058503,57.1470669 114.187951,55.8701158 114.187951,52.4630421 L114.187951,45.8874459 L115.151515,45.8874459 Z" id="Fill-32" fill="#231F20"></path>
                    <polygon id="Fill-33" fill="#231F20" points="137.662338 46.6694596 132.956637 46.6694596 132.956637 58.008658 131.979899 58.008658 131.979899 46.6694596 127.272727 46.6694596 127.272727 45.8874459 137.662338 45.8874459"></polygon>
                    <polygon id="Fill-34" fill="#231F20" points="155.449444 51.5043849 155.449444 58.008658 154.500139 58.008658 154.500139 51.5043849 149.78355 45.8874459 150.92243 45.8874459 154.984769 50.6838852 159.028578 45.8874459 160.17316 45.8874459"></polygon>
                    <polygon id="Fill-35" fill="#231F20" points="39.8268398 40.3670996 160.17316 40.3670996 160.17316 39.8268398 39.8268398 39.8268398"></polygon>
                </g>
            </g>
        </g>
    </g>
</svg>