<?xml version="1.0" encoding="utf-8"?>
<!-- Generator: Adobe Illustrator 23.0.3, SVG Export Plug-In . SVG Version: 6.00 Build 0)  -->
<svg version="1.1" id="Layer_1" xmlns="http://www.w3.org/2000/svg" xmlns:xlink="http://www.w3.org/1999/xlink" x="0px" y="0px"
	 viewBox="0 0 272.79 272.79" style="enable-background:new 0 0 272.79 272.79;" xml:space="preserve">
<style type="text/css">
	.st0{display:none;}
	.st1{display:inline;fill:#231F20;}
	.st2{display:inline;}
	.st3{fill:#231F20;}
	.st4{display:inline;fill:none;stroke:#231F20;stroke-width:3;stroke-miterlimit:10;}
	.st5{display:inline;fill:none;}
	.st6{display:inline;fill:none;stroke:#231F20;stroke-width:2;stroke-miterlimit:10;}
	.st7{fill:none;stroke:#231F20;stroke-width:4;stroke-miterlimit:10;}
	.st8{display:inline;fill:none;stroke:#231F20;stroke-miterlimit:10;}
	.st9{fill:none;stroke:#231F20;stroke-width:3;stroke-miterlimit:10;}
	.st10{display:inline;fill:#FFFFFF;stroke:#231F20;stroke-miterlimit:10;}
	.st11{fill:#FFFFFF;}
	.st12{fill:none;stroke:#231F20;stroke-miterlimit:10;}
	.st13{display:inline;opacity:0.71;fill:#231F20;}
	.st14{display:inline;fill:#FFFFFF;stroke:#231F20;stroke-width:3;stroke-miterlimit:10;}
	.st15{display:none;fill:#231F20;}
	.st16{fill:#010101;}
	.st17{display:inline;fill:#020101;stroke:#231F20;stroke-miterlimit:10;}
	.st18{fill:#FFFFFF;stroke:#231F20;stroke-miterlimit:10;}
	.st19{fill:#020101;stroke:#231F20;stroke-miterlimit:10;}
	.st20{display:inline;fill:#FFFFFF;}
	.st21{fill:none;stroke:#231F20;stroke-width:1.5;stroke-linecap:square;stroke-miterlimit:10;}
	.st22{fill:none;stroke:#231F20;stroke-width:1.5;stroke-linecap:square;stroke-miterlimit:10;stroke-dasharray:0.0201,3.9996;}
	.st23{fill:none;stroke:#231F20;stroke-width:1.5;stroke-linecap:square;stroke-miterlimit:10;stroke-dasharray:0.0203,4.0444;}
	.st24{fill:none;stroke:#231F20;stroke-width:1.5;stroke-linecap:square;stroke-miterlimit:10;stroke-dasharray:0.0201,3.9922;}
	.st25{fill:none;stroke:#231F20;stroke-width:1.5;stroke-linecap:square;stroke-miterlimit:10;stroke-dasharray:0.0201,3.9963;}
	.st26{fill:#FFFFFF;stroke:#231F20;stroke-width:2;stroke-miterlimit:10;}
	.st27{display:inline;fill:none;stroke:#231F20;stroke-width:2;stroke-linecap:square;stroke-miterlimit:10;stroke-dasharray:0,4;}
	
		.st28{display:inline;fill:#231F20;stroke:#FFFFFF;stroke-width:2;stroke-linecap:square;stroke-miterlimit:10;stroke-dasharray:0,4;}
	.st29{opacity:0.48;fill:#231F20;}
	.st30{opacity:0.48;}
</style>
<g class="st0">
	<path class="st1" d="M190.88,105.2h-80.45c-2.33,0-4.22-1.89-4.22-4.22V89.67c0-2.33,1.89-4.22,4.22-4.22h80.45
		c2.33,0,4.22,1.89,4.22,4.22v11.31C195.1,103.31,193.21,105.2,190.88,105.2z"/>
	<path class="st1" d="M98.45,178.01h-14.6c-2.33,0-4.22-1.89-4.22-4.22V89.67c0-2.33,1.89-4.22,4.22-4.22h14.6
		c2.33,0,4.22,1.89,4.22,4.22v84.12C102.68,176.12,100.78,178.01,98.45,178.01z"/>
	<g class="st2">
		<path class="st3" d="M142.49,178.01h-32.13c-2.3,0-4.16-1.86-4.16-4.16v-14.03c0-2.3,1.86-4.16,4.16-4.16h32.13
			c2.3,0,4.16,1.86,4.16,4.16v14.03C146.65,176.15,144.79,178.01,142.49,178.01z"/>
		<path class="st3" d="M190.94,178.01h-32.13c-2.3,0-4.16-1.86-4.16-4.16v-14.03c0-2.3,1.86-4.16,4.16-4.16h32.13
			c2.3,0,4.16,1.86,4.16,4.16v14.03C195.1,176.15,193.24,178.01,190.94,178.01z"/>
	</g>
	<g class="st2">
		<path class="st3" d="M142.49,141.61h-32.13c-2.3,0-4.16-1.86-4.16-4.16v-14.03c0-2.3,1.86-4.16,4.16-4.16h32.13
			c2.3,0,4.16,1.86,4.16,4.16v14.03C146.65,139.74,144.79,141.61,142.49,141.61z"/>
		<path class="st3" d="M190.94,141.61h-32.13c-2.3,0-4.16-1.86-4.16-4.16v-14.03c0-2.3,1.86-4.16,4.16-4.16h32.13
			c2.3,0,4.16,1.86,4.16,4.16v14.03C195.1,139.74,193.24,141.61,190.94,141.61z"/>
	</g>
</g>
<g class="st0">
	<path class="st4" d="M191.41,177.89H88.88c-4.41,0-7.98-3.57-7.98-7.98v-76.1c0-4.41,3.57-7.98,7.98-7.98h102.54
		c4.41,0,7.98,3.57,7.98,7.98v76.1C199.39,174.32,195.82,177.89,191.41,177.89z"/>
	<path class="st1" d="M109.18,112.82l-17.46-0.08c-1.67-0.01-3.02-1.37-3.02-3.04l0.06-14.32c0.01-1.67,1.37-3.02,3.04-3.02
		l17.46,0.08c1.67,0.01,3.02,1.37,3.02,3.04l-0.06,14.32C112.22,111.48,110.85,112.83,109.18,112.82z"/>
	<path class="st1" d="M148.83,112.82l-17.46-0.08c-1.67-0.01-3.02-1.37-3.02-3.04l0.06-14.32c0.01-1.67,1.37-3.02,3.04-3.02
		l17.46,0.08c1.67,0.01,3.02,1.37,3.02,3.04l-0.06,14.32C151.86,111.48,150.5,112.83,148.83,112.82z"/>
	<path class="st1" d="M188.48,112.82l-17.46-0.08c-1.67-0.01-3.02-1.37-3.02-3.04l0.06-14.32c0.01-1.67,1.37-3.02,3.04-3.02
		l17.46,0.08c1.67,0.01,3.02,1.37,3.02,3.04l-0.06,14.32C191.51,111.48,190.15,112.83,188.48,112.82z"/>
	<g class="st2">
		<path class="st3" d="M109.18,142.52l-17.46-0.08c-1.67-0.01-3.02-1.37-3.02-3.04l0.06-14.32c0.01-1.67,1.37-3.02,3.04-3.02
			l17.46,0.08c1.67,0.01,3.02,1.37,3.02,3.04l-0.06,14.32C112.22,141.18,110.85,142.53,109.18,142.52z"/>
		<path class="st3" d="M148.83,142.52l-17.46-0.08c-1.67-0.01-3.02-1.37-3.02-3.04l0.06-14.32c0.01-1.67,1.37-3.02,3.04-3.02
			l17.46,0.08c1.67,0.01,3.02,1.37,3.02,3.04l-0.06,14.32C151.86,141.18,150.5,142.53,148.83,142.52z"/>
		<path class="st3" d="M188.48,142.52l-17.46-0.08c-1.67-0.01-3.02-1.37-3.02-3.04l0.06-14.32c0.01-1.67,1.37-3.02,3.04-3.02
			l17.46,0.08c1.67,0.01,3.02,1.37,3.02,3.04l-0.06,14.32C191.51,141.18,190.15,142.53,188.48,142.52z"/>
	</g>
	<g class="st2">
		<path class="st3" d="M109.18,172.22l-17.46-0.08c-1.67-0.01-3.02-1.37-3.02-3.04l0.06-14.32c0.01-1.67,1.37-3.02,3.04-3.02
			l17.46,0.08c1.67,0.01,3.02,1.37,3.02,3.04l-0.06,14.32C112.22,170.87,110.85,172.22,109.18,172.22z"/>
		<path class="st3" d="M148.83,172.22l-17.46-0.08c-1.67-0.01-3.02-1.37-3.02-3.04l0.06-14.32c0.01-1.67,1.37-3.02,3.04-3.02
			l17.46,0.08c1.67,0.01,3.02,1.37,3.02,3.04l-0.06,14.32C151.86,170.87,150.5,172.22,148.83,172.22z"/>
		<path class="st3" d="M188.48,172.22l-17.46-0.08c-1.67-0.01-3.02-1.37-3.02-3.04l0.06-14.32c0.01-1.67,1.37-3.02,3.04-3.02
			l17.46,0.08c1.67,0.01,3.02,1.37,3.02,3.04l-0.06,14.32C191.51,170.87,190.15,172.22,188.48,172.22z"/>
	</g>
</g>
<g class="st0">
	<path class="st4" d="M190.36,178.08H87.17c-4.44,0-8.03-3.6-8.03-8.03V93.46c0-4.44,3.6-8.03,8.03-8.03h103.19
		c4.44,0,8.03,3.6,8.03,8.03v76.59C198.39,174.48,194.8,178.08,190.36,178.08z"/>
	<rect x="85.51" y="92.65" class="st5" width="24.32" height="20.35"/>
	<g class="st2">
		<path class="st3" d="M106.42,112.59l-17.57-0.08c-1.68-0.01-3.04-1.38-3.03-3.06l0.06-14.41c0.01-1.68,1.38-3.04,3.06-3.03
			l17.57,0.08c1.68,0.01,3.04,1.38,3.03,3.06l-0.06,14.41C109.47,111.24,108.1,112.6,106.42,112.59z"/>
		<path class="st3" d="M106.42,142l-17.57-0.08c-1.68-0.01-3.04-1.38-3.03-3.06l0.06-14.41c0.01-1.68,1.38-3.04,3.06-3.03
			l17.57,0.08c1.68,0.01,3.04,1.38,3.03,3.06l-0.06,14.41C109.47,140.65,108.1,142.01,106.42,142z"/>
		<path class="st3" d="M106.42,171.41l-17.57-0.08c-1.68-0.01-3.04-1.38-3.03-3.06l0.06-14.41c0.01-1.68,1.38-3.04,3.06-3.03
			l17.57,0.08c1.68,0.01,3.04,1.38,3.03,3.06l-0.06,14.41C109.47,170.06,108.1,171.42,106.42,171.41z"/>
	</g>
	<g class="st2">
		<path class="st3" d="M133.84,112.59l-17.57-0.08c-1.68-0.01-3.04-1.38-3.03-3.06l0.06-14.41c0.01-1.68,1.38-3.04,3.06-3.03
			l17.57,0.08c1.68,0.01,3.04,1.38,3.03,3.06l-0.06,14.41C136.89,111.24,135.52,112.6,133.84,112.59z"/>
		<path class="st3" d="M133.84,142l-17.57-0.08c-1.68-0.01-3.04-1.38-3.03-3.06l0.06-14.41c0.01-1.68,1.38-3.04,3.06-3.03
			l17.57,0.08c1.68,0.01,3.04,1.38,3.03,3.06l-0.06,14.41C136.89,140.65,135.52,142.01,133.84,142z"/>
		<path class="st3" d="M133.84,171.41l-17.57-0.08c-1.68-0.01-3.04-1.38-3.03-3.06l0.06-14.41c0.01-1.68,1.38-3.04,3.06-3.03
			l17.57,0.08c1.68,0.01,3.04,1.38,3.03,3.06l-0.06,14.41C136.89,170.06,135.52,171.42,133.84,171.41z"/>
	</g>
	<g class="st2">
		<path class="st3" d="M161.26,112.59l-17.57-0.08c-1.68-0.01-3.04-1.38-3.03-3.06l0.06-14.41c0.01-1.68,1.38-3.04,3.06-3.03
			l17.57,0.08c1.68,0.01,3.04,1.38,3.03,3.06l-0.06,14.41C164.31,111.24,162.94,112.6,161.26,112.59z"/>
		<path class="st3" d="M161.26,142l-17.57-0.08c-1.68-0.01-3.04-1.38-3.03-3.06l0.06-14.41c0.01-1.68,1.38-3.04,3.06-3.03
			l17.57,0.08c1.68,0.01,3.04,1.38,3.03,3.06l-0.06,14.41C164.31,140.65,162.94,142.01,161.26,142z"/>
		<path class="st3" d="M161.26,171.41l-17.57-0.08c-1.68-0.01-3.04-1.38-3.03-3.06l0.06-14.41c0.01-1.68,1.38-3.04,3.06-3.03
			l17.57,0.08c1.68,0.01,3.04,1.38,3.03,3.06l-0.06,14.41C164.31,170.06,162.94,171.42,161.26,171.41z"/>
	</g>
	<g class="st2">
		<path class="st3" d="M188.68,112.59l-17.57-0.08c-1.68-0.01-3.04-1.38-3.03-3.06l0.06-14.41c0.01-1.68,1.38-3.04,3.06-3.03
			l17.57,0.08c1.68,0.01,3.04,1.38,3.03,3.06l-0.06,14.41C191.73,111.24,190.36,112.6,188.68,112.59z"/>
		<path class="st3" d="M188.68,142l-17.57-0.08c-1.68-0.01-3.04-1.38-3.03-3.06l0.06-14.41c0.01-1.68,1.38-3.04,3.06-3.03
			l17.57,0.08c1.68,0.01,3.04,1.38,3.03,3.06l-0.06,14.41C191.73,140.65,190.36,142.01,188.68,142z"/>
		<path class="st3" d="M188.68,171.41l-17.57-0.08c-1.68-0.01-3.04-1.38-3.03-3.06l0.06-14.41c0.01-1.68,1.38-3.04,3.06-3.03
			l17.57,0.08c1.68,0.01,3.04,1.38,3.03,3.06l-0.06,14.41C191.73,170.06,190.36,171.42,188.68,171.41z"/>
	</g>
</g>
<g class="st0">
	<path class="st6" d="M192.28,178.67H88c-4.48,0-8.12-3.63-8.12-8.12V93.16c0-4.48,3.63-8.12,8.12-8.12h104.27
		c4.48,0,8.12,3.63,8.12,8.12v77.39C200.39,175.04,196.76,178.67,192.28,178.67z"/>
	<path class="st1" d="M146.2,135.01h-11.3c-2.16,0-3.92-1.75-3.92-3.92v-29.9c0-2.16,1.75-3.92,3.92-3.92h11.3
		c2.16,0,3.92,1.75,3.92,3.92v29.9C150.11,133.26,148.36,135.01,146.2,135.01z"/>
	<g class="st2">
		<path class="st3" d="M109.46,166.98l-17.75-0.08c-1.7-0.01-3.07-1.39-3.07-3.09l0.06-14.56c0.01-1.7,1.39-3.07,3.09-3.07
			l17.75,0.08c1.7,0.01,3.07,1.39,3.07,3.09l-0.06,14.56C112.54,165.62,111.16,166.99,109.46,166.98z"/>
		<path class="st3" d="M148.81,166.98l-17.75-0.08c-1.7-0.01-3.07-1.39-3.07-3.09l0.06-14.56c0.01-1.7,1.39-3.07,3.09-3.07
			l17.75,0.08c1.7,0.01,3.07,1.39,3.07,3.09l-0.06,14.56C151.9,165.62,150.51,166.99,148.81,166.98z"/>
		<path class="st3" d="M188.49,166.98l-17.75-0.08c-1.7-0.01-3.07-1.39-3.07-3.09l0.06-14.56c0.01-1.7,1.39-3.07,3.09-3.07
			l17.75,0.08c1.7,0.01,3.07,1.39,3.07,3.09l-0.06,14.56C191.57,165.62,190.19,166.99,188.49,166.98z"/>
		<g>
			<path class="st3" d="M106.27,134.47h-11.3c-2.16,0-3.92-1.75-3.92-3.92v-29.9c0-2.16,1.75-3.92,3.92-3.92h11.3
				c2.16,0,3.92,1.75,3.92,3.92v29.9C110.19,132.71,108.44,134.47,106.27,134.47z"/>
			<path class="st3" d="M185.31,134.47H174c-2.16,0-3.92-1.75-3.92-3.92v-29.9c0-2.16,1.75-3.92,3.92-3.92h11.3
				c2.16,0,3.92,1.75,3.92,3.92v29.9C189.22,132.71,187.47,134.47,185.31,134.47z"/>
		</g>
	</g>
</g>
<g class="st0">
	<path class="st6" d="M189.48,177.49H87.87c-4.37,0-7.91-3.54-7.91-7.91V94.17c0-4.37,3.54-7.91,7.91-7.91h101.61
		c4.37,0,7.91,3.54,7.91,7.91v75.42C197.39,173.95,193.85,177.49,189.48,177.49z"/>
	<path class="st1" d="M109.72,130.12H97.77c-1.85,0-3.35-1.5-3.35-3.35v-21.64c0-1.85,1.5-3.35,3.35-3.35h11.94
		c1.85,0,3.35,1.5,3.35,3.35v21.64C113.06,128.62,111.56,130.12,109.72,130.12z"/>
	<path class="st1" d="M111.42,100.26H96.07c-0.91,0-1.65-0.74-1.65-1.65v-3.56c0-0.91,0.74-1.65,1.65-1.65h15.35
		c0.91,0,1.65,0.74,1.65,1.65v3.56C113.06,99.52,112.33,100.26,111.42,100.26z"/>
	<path class="st1" d="M146.8,100.26h-15.35c-0.91,0-1.65-0.74-1.65-1.65v-3.56c0-0.91,0.74-1.65,1.65-1.65h15.35
		c0.91,0,1.65,0.74,1.65,1.65v3.56C148.45,99.52,147.71,100.26,146.8,100.26z"/>
	<path class="st1" d="M181.29,100.26h-15.35c-0.91,0-1.65-0.74-1.65-1.65v-3.56c0-0.91,0.74-1.65,1.65-1.65h15.35
		c0.91,0,1.65,0.74,1.65,1.65v3.56C182.94,99.52,182.2,100.26,181.29,100.26z"/>
	<path class="st1" d="M145.1,130.12h-11.94c-1.85,0-3.35-1.5-3.35-3.35v-21.64c0-1.85,1.5-3.35,3.35-3.35h11.94
		c1.85,0,3.35,1.5,3.35,3.35v21.64C148.45,128.62,146.95,130.12,145.1,130.12z"/>
	<path class="st1" d="M179.59,130.12h-11.94c-1.85,0-3.35-1.5-3.35-3.35v-21.64c0-1.85,1.5-3.35,3.35-3.35h11.94
		c1.85,0,3.35,1.5,3.35,3.35v21.64C182.94,128.62,181.44,130.12,179.59,130.12z"/>
	<path class="st1" d="M111.42,140.33H96.07c-0.91,0-1.65-0.74-1.65-1.65v-3.56c0-0.91,0.74-1.65,1.65-1.65h15.35
		c0.91,0,1.65,0.74,1.65,1.65v3.56C113.06,139.59,112.33,140.33,111.42,140.33z"/>
	<path class="st1" d="M146.8,140.33h-15.35c-0.91,0-1.65-0.74-1.65-1.65v-3.56c0-0.91,0.74-1.65,1.65-1.65h15.35
		c0.91,0,1.65,0.74,1.65,1.65v3.56C148.45,139.59,147.71,140.33,146.8,140.33z"/>
	<path class="st1" d="M181.29,140.33h-15.35c-0.91,0-1.65-0.74-1.65-1.65v-3.56c0-0.91,0.74-1.65,1.65-1.65h15.35
		c0.91,0,1.65,0.74,1.65,1.65v3.56C182.94,139.59,182.2,140.33,181.29,140.33z"/>
	<path class="st1" d="M179.59,170.35h-11.94c-1.85,0-3.35-1.5-3.35-3.35v-21.64c0-1.85,1.5-3.35,3.35-3.35h11.94
		c1.85,0,3.35,1.5,3.35,3.35V167C182.94,168.85,181.44,170.35,179.59,170.35z"/>
	<path class="st1" d="M145.1,170.35h-11.94c-1.85,0-3.35-1.5-3.35-3.35v-21.64c0-1.85,1.5-3.35,3.35-3.35h11.94
		c1.85,0,3.35,1.5,3.35,3.35V167C148.45,168.85,146.95,170.35,145.1,170.35z"/>
	<path class="st1" d="M109.72,170.35H97.77c-1.85,0-3.35-1.5-3.35-3.35v-21.64c0-1.85,1.5-3.35,3.35-3.35h11.94
		c1.85,0,3.35,1.5,3.35,3.35V167C113.06,168.85,111.56,170.35,109.72,170.35z"/>
</g>
<g class="st0">
	<path class="st6" d="M191.3,178.05H87.27c-4.47,0-8.1-3.63-8.1-8.1V92.75c0-4.47,3.63-8.1,8.1-8.1H191.3c4.47,0,8.1,3.63,8.1,8.1
		v77.21C199.39,174.43,195.77,178.05,191.3,178.05z"/>
	<g class="st2">
		<path class="st3" d="M109.82,103.95H94.1c-0.93,0-1.69-0.75-1.69-1.69v-3.64c0-0.93,0.75-1.69,1.69-1.69h15.71
			c0.93,0,1.69,0.75,1.69,1.69v3.64C111.5,103.19,110.75,103.95,109.82,103.95z"/>
		<path class="st3" d="M148.77,103.95h-15.71c-0.93,0-1.69-0.75-1.69-1.69v-3.64c0-0.93,0.75-1.69,1.69-1.69h15.71
			c0.93,0,1.69,0.75,1.69,1.69v3.64C150.45,103.19,149.7,103.95,148.77,103.95z"/>
		<path class="st3" d="M184.46,103.95h-15.71c-0.93,0-1.69-0.75-1.69-1.69v-3.64c0-0.93,0.75-1.69,1.69-1.69h15.71
			c0.93,0,1.69,0.75,1.69,1.69v3.64C186.15,103.19,185.39,103.95,184.46,103.95z"/>
		<path class="st3" d="M184.46,165.77h-15.71c-0.93,0-1.69-0.75-1.69-1.69v-3.64c0-0.93,0.75-1.69,1.69-1.69h15.71
			c0.93,0,1.69,0.75,1.69,1.69v3.64C186.15,165.01,185.39,165.77,184.46,165.77z"/>
		<path class="st3" d="M148.77,165.77h-15.71c-0.93,0-1.69-0.75-1.69-1.69v-3.64c0-0.93,0.75-1.69,1.69-1.69h15.71
			c0.93,0,1.69,0.75,1.69,1.69v3.64C150.45,165.01,149.7,165.77,148.77,165.77z"/>
		<path class="st3" d="M109.82,165.77H94.1c-0.93,0-1.69-0.75-1.69-1.69v-3.64c0-0.93,0.75-1.69,1.69-1.69h15.71
			c0.93,0,1.69,0.75,1.69,1.69v3.64C111.5,165.01,110.75,165.77,109.82,165.77z"/>
		<path class="st3" d="M107.6,150.08H96.32c-2.16,0-3.91-1.75-3.91-3.91v-29.83c0-2.16,1.75-3.91,3.91-3.91h11.27
			c2.16,0,3.91,1.75,3.91,3.91v29.83C111.5,148.33,109.75,150.08,107.6,150.08z"/>
		<path class="st3" d="M146.55,150.08h-11.27c-2.16,0-3.91-1.75-3.91-3.91v-29.83c0-2.16,1.75-3.91,3.91-3.91h11.27
			c2.16,0,3.91,1.75,3.91,3.91v29.83C150.45,148.33,148.7,150.08,146.55,150.08z"/>
		<path class="st3" d="M182.24,150.08h-11.27c-2.16,0-3.91-1.75-3.91-3.91v-29.83c0-2.16,1.75-3.91,3.91-3.91h11.27
			c2.16,0,3.91,1.75,3.91,3.91v29.83C186.15,148.33,184.4,150.08,182.24,150.08z"/>
	</g>
</g>
<g class="st0">
	<g class="st2">
		<path class="st7" d="M195.23,98.56v13.59c0,2.61-2.12,4.73-4.73,4.73H83.93c-2.61,0-4.73-2.12-4.73-4.73V98.56
			c0-2.61,2.12-4.73,4.73-4.73H190.5C193.12,93.83,195.23,95.95,195.23,98.56z"/>
		<path class="st7" d="M195.23,130.1v13.59c0,2.61-2.12,4.73-4.73,4.73H83.93c-2.61,0-4.73-2.12-4.73-4.73V130.1
			c0-2.61,2.12-4.73,4.73-4.73H190.5C193.12,125.37,195.23,127.49,195.23,130.1z"/>
		<path class="st7" d="M195.23,161.64v13.59c0,2.61-2.12,4.73-4.73,4.73H83.93c-2.61,0-4.73-2.12-4.73-4.73v-13.59
			c0-2.61,2.12-4.73,4.73-4.73H190.5C193.12,156.91,195.23,159.03,195.23,161.64z"/>
	</g>
	<path class="st6" d="M193.46,187.39H80.97c-4.84,0-8.76-3.92-8.76-8.76V95.15c0-4.84,3.92-8.76,8.76-8.76h112.49
		c4.84,0,8.76,3.92,8.76,8.76v83.49C202.22,183.47,198.3,187.39,193.46,187.39z"/>
</g>
<g class="st0">
	<g class="st2">
		<path class="st3" d="M125.95,178.57H94.69c-3.16,0-5.71-2.56-5.71-5.71v-28.52c0-3.16,2.56-5.71,5.71-5.71h31.26
			c3.16,0,5.71,2.56,5.71,5.71v28.52C131.66,176.01,129.1,178.57,125.95,178.57z"/>
		<path class="st3" d="M177.09,178.57h-31.26c-3.16,0-5.71-2.56-5.71-5.71v-28.52c0-3.16,2.56-5.71,5.71-5.71h31.26
			c3.16,0,5.71,2.56,5.71,5.71v28.52C182.8,176.01,180.24,178.57,177.09,178.57z"/>
	</g>
	<g class="st2">
		<path class="st3" d="M125.95,128.1H94.69c-3.16,0-5.71-2.56-5.71-5.71V93.86c0-3.16,2.56-5.71,5.71-5.71h31.26
			c3.16,0,5.71,2.56,5.71,5.71v28.52C131.66,125.54,129.1,128.1,125.95,128.1z"/>
		<path class="st3" d="M177.09,128.1h-31.26c-3.16,0-5.71-2.56-5.71-5.71V93.86c0-3.16,2.56-5.71,5.71-5.71h31.26
			c3.16,0,5.71,2.56,5.71,5.71v28.52C182.8,125.54,180.24,128.1,177.09,128.1z"/>
	</g>
	<path class="st6" d="M192.13,183.39H79.64c-4.84,0-8.76-3.92-8.76-8.76V91.15c0-4.84,3.92-8.76,8.76-8.76h112.49
		c4.84,0,8.76,3.92,8.76,8.76v83.49C200.89,179.47,196.97,183.39,192.13,183.39z"/>
</g>
<g class="st0">
	<path class="st8" d="M193.14,183.89H80.65c-4.84,0-8.76-3.92-8.76-8.76V91.65c0-4.84,3.92-8.76,8.76-8.76h112.49
		c4.84,0,8.76,3.92,8.76,8.76v83.49C201.89,179.97,197.97,183.89,193.14,183.89z"/>
	<path class="st4" d="M102.93,112.51l-19.15-0.08c-1.83-0.01-3.32-1.5-3.31-3.34l0.07-15.71c0.01-1.83,1.5-3.32,3.34-3.31
		l19.15,0.08c1.83,0.01,3.32,1.5,3.31,3.34l-0.07,15.71C106.26,111.04,104.76,112.52,102.93,112.51z"/>
	<path class="st4" d="M146.42,112.51l-19.15-0.08c-1.83-0.01-3.32-1.5-3.31-3.34l0.07-15.71c0.01-1.83,1.5-3.32,3.34-3.31
		l19.15,0.08c1.83,0.01,3.32,1.5,3.31,3.34l-0.07,15.71C149.75,111.04,148.26,112.52,146.42,112.51z"/>
	<path class="st4" d="M189.92,112.51l-19.15-0.08c-1.83-0.01-3.32-1.5-3.31-3.34l0.07-15.71c0.01-1.83,1.5-3.32,3.34-3.31
		l19.15,0.08c1.83,0.01,3.32,1.5,3.31,3.34l-0.07,15.71C193.24,111.04,191.75,112.52,189.92,112.51z"/>
	<g class="st2">
		<path class="st9" d="M102.93,145.09l-19.15-0.08c-1.83-0.01-3.32-1.5-3.31-3.34l0.07-15.71c0.01-1.83,1.5-3.32,3.34-3.31
			l19.15,0.08c1.83,0.01,3.32,1.5,3.31,3.34l-0.07,15.71C106.26,143.61,104.76,145.1,102.93,145.09z"/>
		<path class="st9" d="M146.42,145.09l-19.15-0.08c-1.83-0.01-3.32-1.5-3.31-3.34l0.07-15.71c0.01-1.83,1.5-3.32,3.34-3.31
			l19.15,0.08c1.83,0.01,3.32,1.5,3.31,3.34l-0.07,15.71C149.75,143.61,148.26,145.1,146.42,145.09z"/>
		<path class="st9" d="M189.92,145.09l-19.15-0.08c-1.83-0.01-3.32-1.5-3.31-3.34l0.07-15.71c0.01-1.83,1.5-3.32,3.34-3.31
			l19.15,0.08c1.83,0.01,3.32,1.5,3.31,3.34l-0.07,15.71C193.24,143.61,191.75,145.1,189.92,145.09z"/>
	</g>
	<g class="st2">
		<path class="st9" d="M102.93,177.67l-19.15-0.08c-1.83-0.01-3.32-1.5-3.31-3.34l0.07-15.71c0.01-1.83,1.5-3.32,3.34-3.31
			l19.15,0.08c1.83,0.01,3.32,1.5,3.31,3.34l-0.07,15.71C106.26,176.19,104.76,177.67,102.93,177.67z"/>
		<path class="st9" d="M146.42,177.67l-19.15-0.08c-1.83-0.01-3.32-1.5-3.31-3.34l0.07-15.71c0.01-1.83,1.5-3.32,3.34-3.31
			l19.15,0.08c1.83,0.01,3.32,1.5,3.31,3.34l-0.07,15.71C149.75,176.19,148.26,177.67,146.42,177.67z"/>
		<path class="st9" d="M189.92,177.67l-19.15-0.08c-1.83-0.01-3.32-1.5-3.31-3.34l0.07-15.71c0.01-1.83,1.5-3.32,3.34-3.31
			l19.15,0.08c1.83,0.01,3.32,1.5,3.31,3.34l-0.07,15.71C193.24,176.19,191.75,177.67,189.92,177.67z"/>
	</g>
</g>
<g class="st0">
	<g class="st2">
		<path class="st3" d="M100.89,186.12h-3.4c-0.88,0-1.6-0.72-1.6-1.6v-43.09c0-0.88,0.72-1.6,1.6-1.6h3.4c0.88,0,1.6,0.72,1.6,1.6
			v43.09C102.49,185.4,101.77,186.12,100.89,186.12z"/>
		<path class="st3" d="M75.32,186.12h-3.96c-0.73,0-1.32-0.59-1.32-1.32v-28.79c0-0.73,0.59-1.32,1.32-1.32h3.96
			c0.73,0,1.32,0.59,1.32,1.32v28.79C76.64,185.53,76.05,186.12,75.32,186.12z"/>
		<path class="st3" d="M87.78,186.12h-3.03c-0.98,0-1.78-0.8-1.78-1.78v-54.11c0-0.98,0.8-1.78,1.78-1.78h3.03
			c0.98,0,1.78,0.8,1.78,1.78v54.11C89.56,185.32,88.76,186.12,87.78,186.12z"/>
		<path class="st3" d="M126.56,186.12h-3.03c-0.98,0-1.78-0.8-1.78-1.78v-54.11c0-0.98,0.8-1.78,1.78-1.78h3.03
			c0.98,0,1.78,0.8,1.78,1.78v54.11C128.34,185.32,127.55,186.12,126.56,186.12z"/>
		<path class="st3" d="M139.25,186.12h-2.54c-1.12,0-2.03-0.91-2.03-2.03v-70.34c0-1.12,0.91-2.03,2.03-2.03h2.54
			c1.12,0,2.03,0.91,2.03,2.03v70.34C141.27,185.21,140.36,186.12,139.25,186.12z"/>
		<path class="st3" d="M113.44,186.12h-2.63c-1.09,0-1.98-0.89-1.98-1.98v-67.23c0-1.09,0.89-1.98,1.98-1.98h2.63
			c1.09,0,1.98,0.89,1.98,1.98v67.23C115.42,185.23,114.53,186.12,113.44,186.12z"/>
	</g>
	<path class="st10" d="M70.06,122.67"/>
	<g class="st2">
		<polyline class="st11" points="68.55,114.7 80.64,93.21 97.87,110.89 114.51,90.76 127.59,110.2 141.98,87.67 		"/>
		<g>
			<polyline class="st12" points="70.2,111.78 80.64,93.21 97.87,110.89 114.51,90.76 127.59,110.2 138.73,92.76 			"/>
			<g>
				<path class="st3" d="M73.36,113.35c-0.96,1.7-3.11,2.3-4.81,1.35c-1.7-0.96-2.3-3.11-1.35-4.81c0.96-1.7,3.11-2.3,4.81-1.35
					C73.72,109.5,74.32,111.65,73.36,113.35z"/>
			</g>
			<g>
				<path class="st3" d="M141.98,87.67c-0.64,2.96-1.02,6.9-0.59,9.76l-3.08-4.01l-4.93-1.11C136.15,91.5,139.56,89.5,141.98,87.67z
					"/>
			</g>
		</g>
	</g>
	<path class="st13" d="M205.75,130.86c0,4.47-1.16,8.68-3.21,12.32l-22.01-6.28v-31.26C194.46,105.64,205.75,116.93,205.75,130.86z"
		/>
	<path class="st1" d="M199.68,143.18c-4.32,7.7-12.56,12.9-22.01,12.9V136.9L199.68,143.18z"/>
	<path class="st1" d="M177.67,105.64v50.44c-13.93,0-25.22-11.29-25.22-25.22c0-0.38,0.01-0.76,0.03-1.14
		C153.07,116.32,164.12,105.64,177.67,105.64z"/>
	<line class="st14" x1="181.21" y1="177.57" x2="205.07" y2="177.57"/>
	<line class="st14" x1="156.7" y1="177.57" x2="176.31" y2="177.57"/>
	<line class="st14" x1="156.7" y1="184.74" x2="206.08" y2="184.74"/>
</g>
<path class="st15" d="M191.16,170.89H84.2c-2.33,0-4.22-1.89-4.22-4.22V90.9c0-2.33,1.89-4.22,4.22-4.22h106.96
	c2.33,0,4.22,1.89,4.22,4.22v75.77C195.39,169,193.49,170.89,191.16,170.89z"/>
<g class="st0">
	<g class="st2">
		<g>
			<path d="M137.7,104.66c6.73,0,13.46,0.01,20.19,0c2.39,0,4.44,1.57,5.07,3.79c0.11,0.39,0.19,0.79,0.19,1.2
				c0,12.82,0,25.64-0.01,38.45c0,1-0.42,1.9-1.01,2.7c-0.87,1.18-2.07,1.82-3.5,2.07c-0.29,0.05-0.59,0.04-0.89,0.04
				c-13.35,0-26.69,0-40.04,0c-1.54,0-2.89-0.47-3.98-1.57c-0.79-0.8-1.29-1.77-1.44-2.91c-0.04-0.32-0.05-0.64-0.05-0.95
				c0-12.61-0.02-25.22,0.01-37.83c0-1.53,0.7-2.8,1.9-3.8c0.73-0.6,1.55-0.95,2.46-1.13c0.29-0.06,0.59-0.06,0.89-0.06
				C124.22,104.66,130.96,104.66,137.7,104.66z"/>
			<path class="st11" d="M116.24,129.06c0-5.24,0.01-10.48-0.01-15.71c0-0.83,0.35-1.39,0.97-1.84c0.95-0.68,2.05-1.02,3.15-1.31
				c1.73-0.47,3.5-0.76,5.29-0.99c2.15-0.27,4.3-0.44,6.46-0.56c2.52-0.14,5.05-0.16,7.57-0.11c1.68,0.03,3.36,0.11,5.04,0.25
				c1.46,0.12,2.92,0.24,4.37,0.43c2.37,0.32,4.74,0.7,6.98,1.59c0.73,0.29,1.44,0.64,1.93,1.29c0.23,0.31,0.34,0.66,0.34,1.05
				c0,10.6,0,21.2,0,31.81c0,0.89-0.57,1.41-1.26,1.82c-1.09,0.66-2.3,1-3.52,1.3c-1.59,0.39-3.21,0.64-4.83,0.84
				c-2.26,0.28-4.53,0.46-6.8,0.55c-1.82,0.07-3.64,0.16-5.47,0.12c-2.08-0.05-4.17-0.09-6.25-0.25c-1.33-0.1-2.67-0.2-3.99-0.37
				c-2.59-0.33-5.17-0.7-7.63-1.66c-0.75-0.29-1.48-0.65-1.99-1.32c-0.25-0.33-0.34-0.7-0.34-1.11
				C116.25,139.6,116.24,134.33,116.24,129.06z"/>
			<path d="M117.83,115.09c1.6,0.78,3.29,1.15,4.97,1.48c1.14,0.22,2.29,0.37,3.45,0.51c1.36,0.17,2.73,0.29,4.09,0.38
				c1.2,0.08,2.4,0.13,3.6,0.17c1.66,0.06,3.33,0.09,4.99,0.05c1.87-0.05,3.73-0.1,5.59-0.25c1.12-0.09,2.24-0.16,3.35-0.3
				c2.76-0.34,5.51-0.72,8.13-1.72c0.08-0.03,0.17-0.07,0.25-0.11c0.46-0.2,0.46-0.2,0.46,0.29c0,9.67,0,19.34,0.01,29.01
				c0,0.36-0.13,0.58-0.41,0.76c-0.92,0.57-1.95,0.86-2.98,1.12c-1.66,0.43-3.36,0.69-5.06,0.9c-2.25,0.27-4.51,0.44-6.77,0.52
				c-1.72,0.06-3.44,0.14-5.16,0.1c-1.89-0.04-3.78-0.09-5.66-0.21c-1.93-0.12-3.85-0.31-5.76-0.6c-1.86-0.28-3.71-0.61-5.49-1.25
				c-0.47-0.17-0.93-0.37-1.33-0.67c-0.17-0.12-0.28-0.25-0.28-0.5c0.01-9.83,0.01-19.66,0.01-29.5
				C117.83,115.23,117.83,115.18,117.83,115.09z"/>
			<path d="M137.31,110.11c1.93-0.05,3.85,0.04,5.77,0.15c1.52,0.08,3.03,0.21,4.54,0.39c1.85,0.21,3.7,0.47,5.51,0.91
				c1.12,0.27,2.24,0.56,3.23,1.2c0.45,0.29,0.45,0.36,0.01,0.66c-0.75,0.51-1.61,0.77-2.46,1.01c-1.54,0.42-3.12,0.69-4.7,0.92
				c-1.4,0.2-2.81,0.35-4.22,0.46c-1.53,0.11-3.06,0.19-4.59,0.23c-1.44,0.04-2.89,0.08-4.33,0.05c-1.99-0.04-3.98-0.1-5.97-0.26
				c-1.29-0.1-2.57-0.2-3.85-0.36c-2.31-0.3-4.61-0.63-6.82-1.44c-0.5-0.18-0.99-0.4-1.41-0.74c-0.2-0.16-0.18-0.27,0.01-0.41
				c0.58-0.46,1.26-0.7,1.96-0.92c1.43-0.46,2.9-0.73,4.38-0.98c1.68-0.28,3.37-0.46,5.06-0.6c1.37-0.11,2.74-0.19,4.11-0.23
				C134.79,110.14,136.05,110.08,137.31,110.11z"/>
			<path class="st11" d="M126.32,129.4c-0.05-0.32,0.14-0.44,0.35-0.55c0.47-0.24,0.99-0.34,1.51-0.34c0.27,0,0.35-0.09,0.36-0.34
				c0.04-0.9,0.11-1.8,0.25-2.69c0.24-1.52,0.56-3.01,1.55-4.26c1.26-1.59,3.61-2.23,5.28-1.39c0.56,0.28,1,0.69,1.13,1.33
				c0.1,0.48-0.03,0.87-0.4,1.19c-0.35,0.3-1.03,0.26-1.34,0.14c-0.16-0.06-0.1-0.18-0.06-0.28c0.09-0.23,0.18-0.46,0.18-0.72
				c-0.01-0.68-0.39-1.14-1.05-1.26c-1.18-0.21-2.14,0.26-2.75,1.32c-0.43,0.74-0.61,1.56-0.75,2.39c-0.23,1.42-0.25,2.85-0.32,4.27
				c-0.01,0.29,0.08,0.3,0.29,0.29c0.91-0.01,1.81,0,2.72,0c0.14,0,0.32-0.06,0.34,0.16c0.02,0.21,0.07,0.45-0.19,0.56
				c-0.16,0.07-0.32,0.1-0.5,0.1c-0.79,0.01-1.58-0.04-2.37-0.13c-0.13-0.02-0.31-0.1-0.32,0.19c-0.06,1.54-0.13,3.09-0.26,4.63
				c-0.15,1.8-0.34,3.58-0.78,5.33c-0.39,1.55-0.98,3-2.19,4.13c-1.19,1.11-3.24,1.35-4.54,0.53c-0.19-0.12-0.35-0.26-0.47-0.45
				c-0.4-0.67,0.1-1.23,0.69-1.34c0.18-0.03,0.23,0.1,0.32,0.21c0.4,0.55,0.9,0.91,1.58,1.04c0.99,0.19,1.72-0.2,2.27-0.98
				c0.59-0.83,0.85-1.8,1.03-2.78c0.35-1.86,0.46-3.74,0.51-5.62c0.03-1.1,0.05-2.2,0.07-3.3c0.01-0.46,0.02-0.92,0.04-1.37
				c0.01-0.15-0.02-0.22-0.2-0.22C127.65,129.19,126.99,129.2,126.32,129.4z"/>
			<path class="st11" d="M142.41,137.38c-0.5,0.84-0.96,1.66-1.62,2.34c-0.36,0.37-0.75,0.7-1.27,0.82
				c-0.41,0.1-0.92-0.06-1.11-0.35c-0.19-0.28-0.16-0.75,0.07-1.06c0.05-0.07,0.08-0.16,0.24-0.1c1.04,0.42,1.81-0.01,2.45-0.81
				c0.03-0.04,0.06-0.07,0.09-0.11c0.32-0.42,0.67-0.84,0.82-1.33c0.16-0.51-0.26-0.96-0.41-1.45c-0.15-0.51-0.34-1-0.55-1.49
				c-0.34-0.8-0.78-1.01-1.63-0.82c-0.16,0.03-0.42,0.23-0.49-0.14c-0.02-0.11,0.01-0.17,0.11-0.21c0.68-0.2,1.35-0.48,2.07-0.52
				c0.31-0.02,0.54,0.12,0.72,0.38c0.22,0.31,0.34,0.66,0.47,1.01c0.2,0.56,0.41,1.12,0.64,1.72c0.33-0.59,0.61-1.16,0.97-1.68
				c0.36-0.52,0.74-1.02,1.33-1.31c0.29-0.14,0.57-0.19,0.89-0.13c0.36,0.07,0.61,0.24,0.72,0.6c0.13,0.4-0.01,0.73-0.29,1.02
				c-0.09,0.09-0.14,0.12-0.27,0.01c-0.53-0.43-1.08-0.41-1.61,0.04c-0.67,0.57-1.06,1.33-1.46,2.09c-0.03,0.07-0.02,0.13,0.01,0.2
				c0.33,0.84,0.62,1.7,1.07,2.49c0.56,0.98,1.18,1.21,2.27,0.9c0.12-0.03,0.29-0.23,0.4,0.02c0.11,0.24-0.12,0.29-0.25,0.37
				c-0.63,0.35-1.29,0.61-2.03,0.62c-0.56,0.01-0.92-0.28-1.21-0.7c-0.46-0.68-0.73-1.45-1.04-2.21
				C142.48,137.54,142.45,137.48,142.41,137.38z"/>
			<path class="st11" d="M133.78,135.53c0.04-3.88,1.24-7.27,3.69-10.2c0.08-0.1,0.13-0.38,0.41-0.18c0.22,0.16,0.19,0.27,0.05,0.45
				c-1.46,1.88-2.35,4.01-2.81,6.34c-0.26,1.31-0.34,2.64-0.26,3.96c0.15,2.52,0.8,4.88,2.46,6.87c0.26,0.31,0.53,0.6,0.86,0.84
				c0.2,0.15,0.17,0.26-0.01,0.4c-0.33,0.25-0.69,0.22-1.03,0.05c-0.55-0.27-0.93-0.74-1.27-1.22c-0.93-1.32-1.44-2.81-1.78-4.38
				C133.88,137.47,133.81,136.47,133.78,135.53z"/>
			<path class="st11" d="M151.75,133.9c-0.07,3.73-1.27,7.16-3.78,10.11c-0.14,0.16-0.22,0.17-0.38,0.03
				c-0.15-0.13-0.17-0.19-0.04-0.36c1.36-1.73,2.24-3.7,2.74-5.84c0.29-1.25,0.44-2.52,0.4-3.8c-0.07-2.46-0.56-4.82-1.99-6.9
				c-0.39-0.57-0.85-1.08-1.38-1.53c-0.19-0.16-0.15-0.25,0-0.37c0.28-0.22,0.59-0.23,0.9-0.12c0.57,0.2,0.93,0.65,1.28,1.1
				c0.99,1.31,1.52,2.82,1.88,4.4C151.62,131.66,151.74,132.72,151.75,133.9z"/>
		</g>
	</g>
</g>
<path class="st15" d="M190.66,170.08H83.7c-2.33,0-4.22-1.89-4.22-4.22V90.09c0-2.33,1.89-4.22,4.22-4.22h106.96
	c2.33,0,4.22,1.89,4.22,4.22v75.77C194.88,168.19,192.99,170.08,190.66,170.08z"/>
<g class="st0">
	<g class="st2">
		<path class="st16" d="M115.41,127.96c0-5.88,0.01-11.76-0.01-17.63c0-0.88,0.38-1.48,1.04-1.96c1.09-0.8,2.37-1.17,3.65-1.52
			c1.63-0.46,3.31-0.75,4.98-0.99c1.5-0.21,3.01-0.38,4.53-0.49c1.85-0.14,3.71-0.23,5.56-0.32c2.15-0.09,4.29-0.07,6.44-0.05
			c1.78,0.01,3.56,0.11,5.34,0.23c1.58,0.11,3.16,0.26,4.73,0.46c2.53,0.33,5.06,0.72,7.49,1.54c0.88,0.3,1.74,0.65,2.49,1.23
			c0.6,0.47,0.91,1.06,0.91,1.83c0,11.68-0.02,23.36,0.01,35.04c0,1.24-0.54,2.01-1.55,2.58c-1.2,0.68-2.5,1.06-3.82,1.38
			c-1.59,0.39-3.2,0.65-4.82,0.86c-1.8,0.24-3.6,0.42-5.41,0.54c-1.73,0.12-3.45,0.18-5.18,0.24c-1.63,0.05-3.26,0.08-4.89,0.03
			c-1.81-0.05-3.61-0.11-5.42-0.21c-1.42-0.08-2.83-0.21-4.24-0.38c-2.98-0.35-5.95-0.77-8.8-1.77c-0.75-0.26-1.48-0.6-2.11-1.09
			c-0.56-0.44-0.91-0.99-0.91-1.75C115.41,139.81,115.41,133.88,115.41,127.96z"/>
		<path class="st11" d="M117.19,112.33c1.2,0.59,2.42,0.95,3.67,1.25c1.33,0.31,2.67,0.55,4.03,0.75c1.17,0.18,2.35,0.33,3.53,0.44
			c1.17,0.11,2.34,0.19,3.52,0.26c2.91,0.18,5.82,0.26,8.73,0.21c2.01-0.03,4.02-0.11,6.03-0.24c1.61-0.1,3.21-0.25,4.8-0.46
			c2.86-0.37,5.71-0.79,8.42-1.84c0.26-0.1,0.64-0.35,0.74-0.27c0.21,0.18,0.08,0.55,0.08,0.83c0,10.69,0,21.37,0.01,32.06
			c0,0.46-0.16,0.73-0.54,0.96c-1.04,0.61-2.18,0.92-3.33,1.22c-1.63,0.43-3.3,0.69-4.97,0.91c-1.35,0.18-2.71,0.3-4.07,0.41
			c-2.42,0.2-4.84,0.25-7.26,0.34c-1.97,0.08-3.93-0.04-5.89-0.06c-1.7-0.02-3.4-0.14-5.1-0.3c-3.08-0.29-6.16-0.64-9.16-1.46
			c-1.02-0.28-2.03-0.59-2.92-1.19c-0.24-0.16-0.35-0.35-0.35-0.66c0.01-10.92,0.01-21.84,0.01-32.76
			C117.19,112.62,117.19,112.5,117.19,112.33z"/>
		<path class="st11" d="M138.78,113.47c-1.38,0.07-2.93-0.05-4.48-0.09c-1.62-0.04-3.25-0.15-4.87-0.3
			c-2.62-0.25-5.23-0.55-7.8-1.15c-1.31-0.31-2.63-0.61-3.81-1.31c-0.86-0.51-0.77-0.55,0-1.02c1.04-0.64,2.23-0.92,3.4-1.21
			c1.5-0.38,3.03-0.62,4.56-0.83c1.02-0.14,2.05-0.23,3.08-0.34c1.68-0.17,3.37-0.25,5.05-0.36c1.14-0.08,2.28-0.07,3.43-0.08
			c1.32-0.01,2.65-0.03,3.97,0c1.81,0.05,3.61,0.12,5.42,0.23c1.38,0.09,2.75,0.21,4.12,0.38c2.69,0.34,5.37,0.71,7.94,1.61
			c0.57,0.2,1.12,0.45,1.63,0.78c0.39,0.26,0.39,0.36,0.02,0.63c-0.85,0.63-1.85,0.92-2.83,1.19c-1.56,0.44-3.15,0.73-4.75,0.95
			c-1.62,0.23-3.24,0.41-4.86,0.54c-1.3,0.11-2.6,0.2-3.91,0.25C142.37,113.41,140.67,113.49,138.78,113.47z"/>
		<path class="st16" d="M126.7,128.37c-0.07-0.35,0.15-0.5,0.39-0.62c0.55-0.28,1.15-0.38,1.76-0.38c0.23,0,0.29-0.04,0.31-0.29
			c0.09-1.2,0.16-2.39,0.37-3.58c0.27-1.54,0.65-3.04,1.67-4.3c1.38-1.71,3.68-2.46,5.71-1.64c0.73,0.29,1.27,0.77,1.47,1.57
			c0.21,0.86-0.46,1.65-1.22,1.59c-0.08-0.01-0.15,0-0.23,0c-0.61-0.01-0.66-0.07-0.47-0.64c0.17-0.53,0.23-1.06-0.2-1.5
			c-0.47-0.48-1.07-0.61-1.72-0.53c-1.65,0.2-2.33,1.38-2.75,2.77c-0.41,1.35-0.51,2.75-0.58,4.15c-0.03,0.73-0.06,1.46-0.1,2.19
			c-0.02,0.28,0.18,0.19,0.31,0.19c1.03,0.01,2.05,0,3.08,0c0.14,0,0.34-0.07,0.36,0.16c0.02,0.23,0.1,0.5-0.19,0.64
			c-0.17,0.09-0.35,0.13-0.55,0.13c-0.91,0.01-1.82-0.03-2.72-0.15c-0.15-0.02-0.31-0.06-0.32,0.23c-0.06,1.54-0.11,3.07-0.23,4.6
			c-0.18,2.29-0.39,4.59-1,6.82c-0.43,1.59-1.05,3.09-2.29,4.26c-1.07,1.01-2.34,1.38-3.79,1.16c-0.67-0.1-1.28-0.3-1.76-0.8
			c-0.28-0.29-0.39-0.64-0.25-1.02c0.14-0.37,0.45-0.57,0.83-0.66c0.21-0.06,0.31,0.09,0.42,0.24c0.52,0.74,1.24,1.17,2.15,1.21
			c1.05,0.04,1.78-0.53,2.3-1.39c0.62-1.02,0.89-2.16,1.08-3.32c0.32-1.95,0.42-3.91,0.51-5.88c0.05-1.18,0-2.36,0.06-3.54
			c0.03-0.55,0.03-1.1,0.05-1.65c0.01-0.18-0.01-0.27-0.24-0.27C128.17,128.14,127.43,128.13,126.7,128.37z"/>
		<path class="st16" d="M144.71,137.31c-0.43,0.74-0.84,1.47-1.37,2.12c-0.5,0.61-1.02,1.21-1.84,1.42
			c-0.45,0.11-1.04-0.05-1.26-0.36c-0.21-0.3-0.19-0.83,0.05-1.18c0.06-0.09,0.1-0.21,0.29-0.14c1.41,0.49,2.05-0.08,2.87-1.1
			c0.03-0.04,0.07-0.08,0.1-0.12c0.96-1.29,0.96-1.29,0.38-2.8c-0.23-0.61-0.42-1.24-0.68-1.84c-0.36-0.87-0.88-1.1-1.8-0.87
			c-0.14,0.03-0.27,0.02-0.41,0.06c-0.1,0.03-0.08-0.15-0.13-0.22c-0.06-0.1-0.02-0.19,0.1-0.23c0.73-0.23,1.45-0.5,2.22-0.59
			c0.51-0.05,0.83,0.21,1.05,0.64c0.42,0.82,0.64,1.72,1,2.56c0.03,0.07,0.06,0.14,0.11,0.25c0.36-0.63,0.67-1.25,1.06-1.83
			c0.33-0.49,0.69-0.95,1.18-1.3c0.64-0.47,1.47-0.49,1.92-0.03c0.48,0.49,0.23,1.23-0.15,1.55c-0.09,0.08-0.15,0.07-0.25-0.01
			c-0.67-0.52-1.3-0.46-1.91,0.11c-0.68,0.63-1.09,1.43-1.52,2.22c-0.05,0.09-0.05,0.16-0.01,0.25c0.38,0.96,0.71,1.95,1.24,2.85
			c0.63,1.08,1.27,1.26,2.48,0.96c0.06-0.02,0.13-0.02,0.18-0.05c0.11-0.05,0.21-0.12,0.28,0.04c0.07,0.15,0.05,0.26-0.11,0.35
			c-0.83,0.47-1.68,0.84-2.67,0.77c-0.53-0.03-0.85-0.37-1.12-0.77c-0.52-0.77-0.83-1.63-1.17-2.49
			C144.79,137.47,144.75,137.4,144.71,137.31z"/>
		<path class="st16" d="M135.05,135.32c0.03-4.21,1.26-7.86,3.75-11.07c0.15-0.19,0.32-0.37,0.47-0.56c0.13-0.16,0.22-0.2,0.42-0.05
			c0.23,0.17,0.16,0.27,0.04,0.42c-1.54,1.94-2.5,4.14-3.07,6.53c-0.4,1.69-0.52,3.41-0.41,5.14c0.15,2.39,0.73,4.67,2.07,6.7
			c0.46,0.69,0.98,1.35,1.66,1.85c0.23,0.17,0.17,0.3-0.03,0.44c-0.44,0.32-1.09,0.22-1.62-0.26c-0.98-0.88-1.61-1.99-2.1-3.19
			c-0.57-1.41-0.92-2.88-1.09-4.39C135.09,136.31,135.17,135.73,135.05,135.32z"/>
		<path class="st16" d="M155.17,133.1c-0.07,4.28-1.31,7.98-3.89,11.21c-0.09,0.11-0.21,0.2-0.27,0.32
			c-0.17,0.31-0.34,0.31-0.58,0.06c-0.11-0.12-0.1-0.15-0.02-0.26c1.75-2.21,2.8-4.72,3.29-7.48c0.2-1.12,0.33-2.25,0.29-3.39
			c-0.1-2.75-0.63-5.39-2.23-7.72c-0.45-0.65-0.97-1.23-1.56-1.74c-0.21-0.18-0.13-0.26,0.01-0.39c0.38-0.34,1.05-0.27,1.57,0.16
			c0.97,0.81,1.57,1.87,2.07,3c0.66,1.49,1.03,3.06,1.22,4.67C155.13,132.1,155.23,132.68,155.17,133.1z"/>
	</g>
</g>
<g class="st0">
	<path class="st1" d="M148.22,177.87h-19.8c-2.63,0-4.76-2.13-4.76-4.76V90.07c0-2.63,2.13-4.76,4.76-4.76h19.8
		c2.63,0,4.76,2.13,4.76,4.76v83.03C152.98,175.74,150.85,177.87,148.22,177.87z"/>
	<path class="st1" d="M176.84,171.43h-11.9c-1.97,0-3.56-1.59-3.56-3.56V95.31c0-1.97,1.59-3.56,3.56-3.56h11.9
		c1.97,0,3.56,1.59,3.56,3.56v72.56C180.4,169.83,178.81,171.43,176.84,171.43z"/>
	<path class="st1" d="M110.98,171.43h-11.9c-1.97,0-3.56-1.59-3.56-3.56V95.31c0-1.97,1.59-3.56,3.56-3.56h11.9
		c1.97,0,3.56,1.59,3.56,3.56v72.56C114.54,169.83,112.95,171.43,110.98,171.43z"/>
</g>
<g class="st0">
	<path class="st1" d="M189.8,176.51L82.85,175.6c-2.33-0.02-4.21-1.93-4.19-4.26l0.64-75.77c0.02-2.33,1.93-4.21,4.26-4.19
		l106.96,0.91c2.33,0.02,4.21,1.93,4.19,4.26l-0.64,75.77C194.04,174.65,192.13,176.53,189.8,176.51z"/>
	<path class="st6" d="M192.49,184.92l-112.48-0.96c-4.84-0.04-8.72-3.99-8.68-8.83l0.71-83.48c0.04-4.84,3.99-8.72,8.83-8.68
		l112.48,0.96c4.84,0.04,8.72,3.99,8.68,8.83l-0.71,83.48C201.28,181.08,197.33,184.96,192.49,184.92z"/>
</g>
<g class="st0">
	<path class="st1" d="M189.94,170.76H82.98c-2.33,0-4.22-1.89-4.22-4.22V90.77c0-2.33,1.89-4.22,4.22-4.22h106.96
		c2.33,0,4.22,1.89,4.22,4.22v75.77C194.17,168.87,192.28,170.76,189.94,170.76z"/>
</g>
<g class="st0">
	<path class="st8" d="M188.1,173.64H81.14c-2.33,0-4.22-1.89-4.22-4.22V93.65c0-2.33,1.89-4.22,4.22-4.22H188.1
		c2.33,0,4.22,1.89,4.22,4.22v75.77C192.33,171.75,190.44,173.64,188.1,173.64z"/>
	<path class="st17" d="M187.77,89.42H81.17c-2.35,0-4.25,1.9-4.25,4.25v37.86h115.1V93.67C192.02,91.33,190.12,89.42,187.77,89.42z"
		/>
</g>
<g class="st0">
	<path class="st10" d="M191.1,92.57v76.46c0,2.29-1.85,4.14-4.14,4.14h-50.19V88.42h50.19C189.24,88.42,191.1,90.28,191.1,92.57z"/>
	<path class="st17" d="M82.44,92.7v76.27c0,2.34,1.9,4.24,4.24,4.24h52.58V88.47H86.68C84.34,88.47,82.44,90.36,82.44,92.7z"/>
</g>
<g class="st0">
	<path class="st17" d="M190.6,89.79L84,88.88c-2.35-0.02-4.27,1.87-4.29,4.21l-0.32,37.86l115.1,0.98l0.32-37.86
		C194.83,91.73,192.94,89.81,190.6,89.79z"/>
	<path class="st10" d="M189.88,174.27l-106.6-0.91c-2.35-0.02-4.23-1.94-4.21-4.29l0.32-37.86l115.1,0.98l-0.32,37.86
		C194.14,172.4,192.23,174.29,189.88,174.27z"/>
	<path class="st6" d="M192.75,182.37l-112.48-0.96c-4.84-0.04-8.72-3.99-8.68-8.83L72.3,89.1c0.04-4.84,3.99-8.72,8.83-8.68
		l112.48,0.96c4.84,0.04,8.72,3.99,8.68,8.83l-0.71,83.48C201.54,178.53,197.59,182.42,192.75,182.37z"/>
</g>
<g class="st0">
	<path class="st10" d="M190.69,98.65v76.46c0,2.29-1.85,4.14-4.14,4.14h-50.19V94.5h50.19C188.83,94.5,190.69,96.36,190.69,98.65z"
		/>
	<path class="st17" d="M82.03,98.79v76.27c0,2.34,1.9,4.24,4.24,4.24h52.58V94.55H86.27C83.93,94.55,82.03,96.45,82.03,98.79z"/>
	<path class="st6" d="M192.11,187.42H79.62c-4.84,0-8.76-3.92-8.76-8.76V95.18c0-4.84,3.92-8.76,8.76-8.76h112.49
		c4.84,0,8.76,3.92,8.76,8.76v83.49C200.86,183.5,196.94,187.42,192.11,187.42z"/>
</g>
<g class="st0">
	<g class="st2">
		<path class="st18" d="M190.89,92.57v76.46c0,2.29-1.85,4.14-4.14,4.14h-50.19V88.42h50.19C189.04,88.42,190.89,90.28,190.89,92.57
			z"/>
		<path class="st19" d="M82.24,92.7v76.27c0,2.34,1.9,4.24,4.24,4.24h52.58V88.47H86.47C84.13,88.47,82.24,90.36,82.24,92.7z"/>
	</g>
	<line class="st5" x1="141.79" y1="139.84" x2="141.79" y2="134.61"/>
	<line class="st5" x1="141.79" y1="127.03" x2="141.79" y2="119.34"/>
	<path class="st1" d="M124.13,128.68c0-1.01,0.82-1.82,1.82-1.82"/>
	<path class="st1" d="M149.4,128.87v3.94c0,1.01-0.81,1.82-1.82,1.82h-8.5v-7.58h8.5C148.59,127.05,149.4,127.87,149.4,128.87z"/>
	<path class="st20" d="M128.7,128.87v3.94c0,1.01,0.81,1.82,1.82,1.82h8.5v-7.58h-8.5C129.51,127.05,128.7,127.87,128.7,128.87z"/>
	<line class="st5" x1="124.38" y1="127.77" x2="124.38" y2="127.77"/>
</g>
<g class="st0">
	<path class="st1" d="M174.47,135.66h-16.99c-1.01,0-1.82-0.82-1.82-1.82v-3.94c0-1.01,0.82-1.82,1.82-1.82h16.99
		c1.01,0,1.82,0.82,1.82,1.82v3.94C176.29,134.84,175.47,135.66,174.47,135.66z"/>
	<path class="st10" d="M193.63,93.47v76.65c0,2.24-1.81,4.05-4.05,4.05h-47.8V89.42h47.8C191.82,89.42,193.63,91.23,193.63,93.47z"
		/>
	<path class="st17" d="M84.48,93.7v76.27c0,2.34,1.9,4.24,4.24,4.24h52.58V89.47H88.71C86.37,89.47,84.48,91.36,84.48,93.7z"/>
	<line class="st5" x1="144.02" y1="140.84" x2="144.02" y2="135.61"/>
	<line class="st5" x1="144.02" y1="128.03" x2="144.02" y2="120.34"/>
	<path class="st1" d="M126.37,129.68c0-1.01,0.82-1.82,1.82-1.82"/>
	<line class="st5" x1="126.62" y1="128.77" x2="126.62" y2="128.77"/>
	<path class="st1" d="M176.21,135.05h-16.99c-1.01,0-1.82-0.82-1.82-1.82v-3.94c0-1.01,0.82-1.82,1.82-1.82h16.99
		c1.01,0,1.82,0.82,1.82,1.82v3.94C178.03,134.23,177.22,135.05,176.21,135.05z"/>
	<path class="st20" d="M121.38,135.05h-16.99c-1.01,0-1.82-0.82-1.82-1.82v-3.94c0-1.01,0.82-1.82,1.82-1.82h16.99
		c1.01,0,1.82,0.82,1.82,1.82v3.94C123.2,134.23,122.39,135.05,121.38,135.05z"/>
</g>
<g class="st0">
	<path class="st6" d="M194.45,92.36v18.9c0,0.33-0.07,0.63-0.19,0.9c-0.35,0.78-1.12,1.32-2.03,1.32H82.1
		c-1.22,0-2.21-0.99-2.21-2.22v-18.9c0-1.22,0.99-2.21,2.21-2.21h110.14C193.46,90.15,194.45,91.14,194.45,92.36z"/>
	<g class="st2">
		<g>
			<polyline class="st21" points="194.26,112.13 194.26,112.12 194.26,112.13 			"/>
			<path class="st22" d="M194.26,116.13v53.76c0,2.14-1.73,3.86-3.86,3.86H83.57c-2.13,0-3.86-1.73-3.86-3.86v-62.45"/>
			<polyline class="st21" points="79.88,105.45 79.89,105.44 79.89,105.45 			"/>
			<path class="st23" d="M79.89,109.5v1.72c0,1.23,0.99,2.23,2.21,2.23h110.14c0.18,0,0.35-0.02,0.51-0.06"/>
		</g>
	</g>
	<path class="st1" d="M106.03,105.71H89.16c-1,0-1.81-0.81-1.81-1.81v-3.91c0-1,0.81-1.81,1.81-1.81h16.87c1,0,1.81,0.81,1.81,1.81
		v3.91C107.84,104.9,107.02,105.71,106.03,105.71z"/>
	<path class="st1" d="M187.22,105.58h-62.45c-1,0-1.81-0.81-1.81-1.81v-3.91c0-1,0.81-1.81,1.81-1.81h62.45c1,0,1.81,0.81,1.81,1.81
		v3.91C189.03,104.77,188.22,105.58,187.22,105.58z"/>
</g>
<g class="st0">
	<path class="st1" d="M195.74,95.5v36.46c0,0.63-0.07,1.21-0.19,1.74c-0.35,1.51-1.12,2.55-2.03,2.55H83.38
		c-1.22,0-2.21-1.92-2.21-4.29V95.5c0-2.36,0.99-4.27,2.21-4.27h110.14C194.74,91.23,195.74,93.15,195.74,95.5z"/>
	<g class="st2">
		<g>
			<polyline class="st21" points="194.47,134.42 194.48,134.41 194.48,134.42 			"/>
			<path class="st24" d="M194.48,138.41v32.95c0,1.37-1.69,2.47-3.78,2.47H86.22c-2.09,0-3.78-1.11-3.78-2.47v-39.24"/>
			<polyline class="st21" points="82.62,130.15 82.62,130.14 82.62,130.15 			"/>
			<path class="st25" d="M82.67,134.14c0.21,0.64,1.08,1.12,2.11,1.12H192.5c0.08,0,0.15,0,0.22-0.01"/>
		</g>
	</g>
</g>
<g class="st0">
	<g class="st2">
		<path class="st26" d="M194.24,174.36H87.28c-2.33,0-4.22-1.89-4.22-4.22V94.37c0-2.33,1.89-4.22,4.22-4.22h106.96
			c2.33,0,4.22,1.89,4.22,4.22v75.77C198.46,172.47,196.57,174.36,194.24,174.36z"/>
	</g>
	<line class="st27" x1="55.61" y1="132.25" x2="228.95" y2="132.25"/>
</g>
<g class="st0">
	<g class="st2">
		<path class="st3" d="M190.2,174.36H83.24c-2.33,0-4.22-1.89-4.22-4.22V94.37c0-2.33,1.89-4.22,4.22-4.22H190.2
			c2.33,0,4.22,1.89,4.22,4.22v75.77C194.43,172.47,192.54,174.36,190.2,174.36z"/>
	</g>
	<line class="st27" x1="51.82" y1="132.25" x2="225.16" y2="132.25"/>
	<line class="st28" x1="80.02" y1="132.25" x2="193.61" y2="132.25"/>
</g>
<g>
	<path class="st3" d="M69.44,173.7H18.59c-1.64,0-2.96-1.33-2.96-2.96V92.45c0-1.64,1.33-2.96,2.96-2.96h50.85
		c1.64,0,2.96,1.33,2.96,2.96v78.29C72.4,172.37,71.08,173.7,69.44,173.7z"/>
	<g>
		<g>
			<g>
				<path d="M44.03,117.03c4.08,0,8.16,0,12.24,0c1.45,0,2.69,0.95,3.07,2.29c0.07,0.24,0.11,0.48,0.11,0.73
					c0,7.77,0,15.54-0.01,23.31c0,0.61-0.25,1.15-0.61,1.64c-0.53,0.71-1.26,1.11-2.12,1.25c-0.18,0.03-0.36,0.02-0.54,0.02
					c-8.09,0-16.18,0-24.27,0c-0.93,0-1.75-0.28-2.41-0.95c-0.48-0.49-0.78-1.07-0.87-1.76c-0.03-0.19-0.03-0.39-0.03-0.58
					c0-7.64-0.01-15.29,0.01-22.93c0-0.93,0.42-1.7,1.15-2.3c0.44-0.37,0.94-0.58,1.49-0.69c0.17-0.03,0.36-0.03,0.54-0.03
					C35.85,117.03,39.94,117.03,44.03,117.03z"/>
				<path class="st11" d="M31.02,131.82c0-3.17,0.01-6.35-0.01-9.52c0-0.5,0.21-0.84,0.59-1.12c0.57-0.41,1.24-0.62,1.91-0.8
					c1.05-0.28,2.12-0.46,3.2-0.6c1.3-0.16,2.6-0.26,3.91-0.34c1.53-0.09,3.06-0.09,4.59-0.07c1.02,0.02,2.04,0.07,3.06,0.15
					c0.88,0.07,1.77,0.14,2.65,0.26c1.44,0.2,2.87,0.42,4.23,0.96c0.44,0.18,0.87,0.39,1.17,0.78c0.14,0.19,0.21,0.4,0.21,0.63
					c0,6.43,0,12.85,0,19.28c0,0.54-0.35,0.85-0.76,1.11c-0.66,0.4-1.39,0.61-2.13,0.79c-0.96,0.23-1.94,0.39-2.93,0.51
					c-1.37,0.17-2.74,0.28-4.12,0.33c-1.1,0.04-2.21,0.1-3.31,0.07c-1.26-0.03-2.53-0.05-3.79-0.15c-0.81-0.06-1.62-0.12-2.42-0.22
					c-1.57-0.2-3.14-0.43-4.62-1c-0.46-0.18-0.9-0.39-1.21-0.8c-0.15-0.2-0.21-0.42-0.21-0.68
					C31.02,138.21,31.02,135.01,31.02,131.82z"/>
				<path d="M31.98,123.35c0.97,0.48,1.99,0.7,3.02,0.89c0.69,0.13,1.39,0.23,2.09,0.31c0.83,0.1,1.65,0.18,2.48,0.23
					c0.73,0.05,1.46,0.08,2.18,0.1c1.01,0.04,2.02,0.05,3.02,0.03c1.13-0.03,2.26-0.06,3.39-0.15c0.68-0.05,1.36-0.1,2.03-0.18
					c1.67-0.21,3.34-0.43,4.93-1.04c0.05-0.02,0.1-0.04,0.15-0.06c0.28-0.12,0.28-0.12,0.28,0.18c0,5.86,0,11.72,0,17.59
					c0,0.22-0.08,0.35-0.25,0.46c-0.56,0.35-1.18,0.52-1.8,0.68c-1.01,0.26-2.04,0.42-3.07,0.54c-1.36,0.16-2.73,0.27-4.1,0.32
					c-1.04,0.03-2.08,0.08-3.13,0.06c-1.14-0.03-2.29-0.06-3.43-0.13c-1.17-0.07-2.33-0.19-3.49-0.36
					c-1.13-0.17-2.25-0.37-3.33-0.76c-0.28-0.1-0.56-0.22-0.81-0.4c-0.1-0.08-0.17-0.15-0.17-0.3c0-5.96,0-11.92,0-17.88
					C31.98,123.43,31.98,123.41,31.98,123.35z"/>
				<path d="M43.79,120.33c1.17-0.03,2.33,0.03,3.5,0.09c0.92,0.05,1.84,0.13,2.75,0.23c1.12,0.13,2.24,0.29,3.34,0.55
					c0.68,0.16,1.36,0.34,1.96,0.73c0.27,0.17,0.27,0.22,0.01,0.4c-0.45,0.31-0.97,0.47-1.49,0.61c-0.93,0.26-1.89,0.42-2.85,0.56
					c-0.85,0.12-1.7,0.21-2.56,0.28c-0.93,0.07-1.85,0.12-2.78,0.14c-0.88,0.02-1.75,0.05-2.63,0.03c-1.21-0.03-2.41-0.06-3.62-0.15
					c-0.78-0.06-1.56-0.12-2.34-0.22c-1.4-0.18-2.8-0.38-4.13-0.87c-0.3-0.11-0.6-0.24-0.86-0.45c-0.12-0.1-0.11-0.16,0-0.25
					c0.35-0.28,0.77-0.43,1.19-0.56c0.87-0.28,1.76-0.44,2.65-0.59c1.02-0.17,2.04-0.28,3.07-0.36c0.83-0.07,1.66-0.11,2.49-0.14
					C42.26,120.35,43.02,120.32,43.79,120.33z"/>
				<path class="st11" d="M37.13,132.02c-0.03-0.19,0.09-0.27,0.21-0.33c0.29-0.15,0.6-0.21,0.92-0.2c0.16,0,0.21-0.05,0.22-0.2
					c0.03-0.55,0.06-1.09,0.15-1.63c0.15-0.92,0.34-1.82,0.94-2.58c0.76-0.96,2.19-1.35,3.2-0.84c0.34,0.17,0.6,0.42,0.69,0.81
					c0.06,0.29-0.02,0.53-0.25,0.72c-0.21,0.18-0.63,0.16-0.81,0.08c-0.09-0.04-0.06-0.11-0.04-0.17c0.06-0.14,0.11-0.28,0.11-0.44
					c0-0.41-0.23-0.69-0.64-0.76c-0.72-0.12-1.3,0.16-1.67,0.8c-0.26,0.45-0.37,0.94-0.45,1.45c-0.14,0.86-0.15,1.73-0.19,2.59
					c-0.01,0.17,0.05,0.18,0.18,0.18c0.55,0,1.1,0,1.65,0c0.08,0,0.19-0.04,0.2,0.1c0.01,0.13,0.04,0.27-0.12,0.34
					c-0.09,0.04-0.19,0.06-0.3,0.06c-0.48,0.01-0.96-0.02-1.43-0.08c-0.08-0.01-0.19-0.06-0.19,0.11c-0.04,0.94-0.08,1.87-0.16,2.8
					c-0.09,1.09-0.21,2.17-0.47,3.23c-0.23,0.94-0.59,1.82-1.32,2.5c-0.72,0.67-1.96,0.82-2.75,0.32c-0.11-0.07-0.22-0.16-0.28-0.27
					c-0.24-0.41,0.06-0.75,0.42-0.81c0.11-0.02,0.14,0.06,0.19,0.13c0.24,0.33,0.54,0.55,0.96,0.63c0.6,0.11,1.04-0.12,1.37-0.59
					c0.36-0.5,0.52-1.09,0.63-1.68c0.21-1.13,0.28-2.27,0.31-3.41c0.02-0.67,0.03-1.33,0.04-2c0.01-0.28,0.01-0.56,0.02-0.83
					c0-0.09-0.01-0.13-0.12-0.13C37.93,131.9,37.53,131.9,37.13,132.02z"/>
				<path class="st11" d="M46.88,136.86c-0.3,0.51-0.58,1.01-0.98,1.42c-0.22,0.23-0.45,0.42-0.77,0.5
					c-0.25,0.06-0.56-0.04-0.68-0.21c-0.11-0.17-0.09-0.45,0.04-0.64c0.03-0.04,0.05-0.1,0.14-0.06c0.63,0.25,1.09,0,1.48-0.49
					c0.02-0.02,0.03-0.04,0.05-0.07c0.19-0.25,0.41-0.51,0.5-0.81c0.09-0.31-0.16-0.58-0.25-0.88c-0.09-0.31-0.21-0.61-0.33-0.9
					c-0.2-0.49-0.47-0.61-0.99-0.5c-0.09,0.02-0.25,0.14-0.3-0.09c-0.01-0.07,0-0.11,0.07-0.12c0.41-0.12,0.82-0.29,1.25-0.31
					c0.19-0.01,0.33,0.08,0.44,0.23c0.13,0.19,0.21,0.4,0.28,0.61c0.12,0.34,0.25,0.68,0.39,1.04c0.2-0.36,0.37-0.7,0.59-1.02
					c0.22-0.31,0.45-0.62,0.81-0.79c0.17-0.08,0.35-0.11,0.54-0.08c0.22,0.04,0.37,0.15,0.43,0.36c0.08,0.24-0.01,0.44-0.17,0.62
					c-0.05,0.05-0.09,0.07-0.17,0.01c-0.32-0.26-0.65-0.25-0.98,0.02c-0.41,0.34-0.64,0.81-0.88,1.27c-0.02,0.04-0.01,0.08,0,0.12
					c0.2,0.51,0.38,1.03,0.65,1.51c0.34,0.6,0.71,0.74,1.37,0.54c0.07-0.02,0.18-0.14,0.24,0.01c0.06,0.15-0.07,0.18-0.15,0.22
					c-0.38,0.21-0.78,0.37-1.23,0.38c-0.34,0.01-0.56-0.17-0.73-0.42c-0.28-0.41-0.44-0.88-0.63-1.34
					C46.92,136.96,46.91,136.92,46.88,136.86z"/>
				<path class="st11" d="M41.65,135.74c0.03-2.35,0.75-4.41,2.24-6.18c0.05-0.06,0.08-0.23,0.25-0.11c0.14,0.1,0.12,0.16,0.03,0.27
					c-0.89,1.14-1.43,2.43-1.71,3.84c-0.16,0.8-0.2,1.6-0.15,2.4c0.09,1.53,0.48,2.96,1.49,4.17c0.16,0.19,0.32,0.36,0.52,0.51
					c0.12,0.09,0.1,0.16-0.01,0.24c-0.2,0.15-0.42,0.13-0.62,0.03c-0.33-0.16-0.56-0.45-0.77-0.74c-0.56-0.8-0.87-1.71-1.08-2.65
					C41.71,136.91,41.67,136.31,41.65,135.74z"/>
				<path class="st11" d="M52.54,134.75c-0.04,2.26-0.77,4.34-2.29,6.13c-0.08,0.1-0.13,0.1-0.23,0.02
					c-0.09-0.08-0.1-0.12-0.02-0.22c0.83-1.05,1.36-2.24,1.66-3.54c0.17-0.76,0.27-1.53,0.25-2.31c-0.05-1.49-0.34-2.92-1.2-4.18
					c-0.24-0.35-0.52-0.66-0.83-0.93c-0.11-0.1-0.09-0.15,0-0.22c0.17-0.13,0.36-0.14,0.55-0.07c0.35,0.12,0.57,0.39,0.77,0.67
					c0.6,0.79,0.92,1.71,1.14,2.67C52.46,133.39,52.54,134.03,52.54,134.75z"/>
			</g>
		</g>
	</g>
	<g>
		<path class="st29" d="M131.33,173.7H80.48c-1.64,0-2.96-1.33-2.96-2.96V92.45c0-1.64,1.33-2.96,2.96-2.96h50.85
			c1.64,0,2.96,1.33,2.96,2.96v78.29C134.29,172.37,132.97,173.7,131.33,173.7z"/>
		<g class="st30">
			<g>
				<g>
					<path d="M105.92,117.7c4.08,0,8.16,0,12.24,0c1.45,0,2.69,0.95,3.07,2.29c0.07,0.24,0.11,0.48,0.11,0.73
						c0,7.77,0,15.54-0.01,23.31c0,0.61-0.25,1.15-0.61,1.64c-0.53,0.71-1.26,1.11-2.12,1.25c-0.18,0.03-0.36,0.02-0.54,0.02
						c-8.09,0-16.18,0-24.27,0c-0.93,0-1.75-0.28-2.41-0.95c-0.48-0.49-0.78-1.07-0.87-1.76c-0.03-0.19-0.03-0.39-0.03-0.58
						c0-7.64-0.01-15.29,0.01-22.93c0-0.93,0.42-1.7,1.15-2.3c0.44-0.37,0.94-0.58,1.49-0.69c0.17-0.03,0.36-0.03,0.54-0.03
						C97.75,117.7,101.83,117.7,105.92,117.7z"/>
					<path class="st11" d="M92.91,132.49c0-3.17,0.01-6.35-0.01-9.52c0-0.5,0.21-0.84,0.59-1.12c0.57-0.41,1.24-0.62,1.91-0.8
						c1.05-0.28,2.12-0.46,3.2-0.6c1.3-0.16,2.6-0.26,3.91-0.34c1.53-0.09,3.06-0.09,4.59-0.07c1.02,0.02,2.04,0.07,3.06,0.15
						c0.88,0.07,1.77,0.14,2.65,0.26c1.44,0.2,2.87,0.42,4.23,0.96c0.44,0.18,0.87,0.39,1.17,0.78c0.14,0.19,0.21,0.4,0.21,0.63
						c0,6.43,0,12.85,0,19.28c0,0.54-0.35,0.85-0.76,1.11c-0.66,0.4-1.39,0.61-2.13,0.79c-0.96,0.23-1.94,0.39-2.93,0.51
						c-1.37,0.17-2.74,0.28-4.12,0.33c-1.1,0.04-2.21,0.1-3.31,0.07c-1.26-0.03-2.53-0.05-3.79-0.15c-0.81-0.06-1.62-0.12-2.42-0.22
						c-1.57-0.2-3.14-0.43-4.62-1c-0.46-0.18-0.9-0.39-1.21-0.8c-0.15-0.2-0.21-0.42-0.21-0.68
						C92.91,138.88,92.91,135.68,92.91,132.49z"/>
					<path d="M93.87,124.02c0.97,0.48,1.99,0.7,3.02,0.89c0.69,0.13,1.39,0.23,2.09,0.31c0.83,0.1,1.65,0.18,2.48,0.23
						c0.73,0.05,1.46,0.08,2.18,0.1c1.01,0.03,2.02,0.05,3.02,0.03c1.13-0.03,2.26-0.06,3.39-0.15c0.68-0.05,1.36-0.1,2.03-0.18
						c1.67-0.21,3.34-0.43,4.93-1.04c0.05-0.02,0.1-0.04,0.15-0.06c0.28-0.12,0.28-0.12,0.28,0.18c0,5.86,0,11.72,0,17.59
						c0,0.22-0.08,0.35-0.25,0.46c-0.56,0.35-1.18,0.52-1.8,0.68c-1.01,0.26-2.04,0.42-3.07,0.54c-1.36,0.16-2.73,0.27-4.1,0.32
						c-1.04,0.03-2.08,0.08-3.13,0.06c-1.14-0.03-2.29-0.06-3.43-0.13c-1.17-0.07-2.33-0.19-3.49-0.36
						c-1.13-0.17-2.25-0.37-3.33-0.76c-0.28-0.1-0.56-0.22-0.81-0.4c-0.1-0.08-0.17-0.15-0.17-0.3c0-5.96,0-11.92,0-17.88
						C93.87,124.1,93.87,124.08,93.87,124.02z"/>
					<path d="M105.68,121c1.17-0.03,2.33,0.03,3.5,0.09c0.92,0.05,1.84,0.13,2.75,0.23c1.12,0.13,2.24,0.29,3.34,0.55
						c0.68,0.16,1.36,0.34,1.96,0.73c0.27,0.17,0.27,0.22,0.01,0.4c-0.45,0.31-0.97,0.47-1.49,0.61c-0.93,0.26-1.89,0.42-2.85,0.56
						c-0.85,0.12-1.7,0.21-2.56,0.28c-0.93,0.07-1.85,0.12-2.78,0.14c-0.88,0.02-1.75,0.05-2.63,0.03
						c-1.21-0.03-2.41-0.06-3.62-0.15c-0.78-0.06-1.56-0.12-2.34-0.22c-1.4-0.18-2.8-0.38-4.13-0.87c-0.3-0.11-0.6-0.24-0.86-0.45
						c-0.12-0.1-0.11-0.16,0-0.25c0.35-0.28,0.77-0.43,1.19-0.56c0.87-0.28,1.76-0.44,2.65-0.59c1.02-0.17,2.04-0.28,3.07-0.36
						c0.83-0.07,1.66-0.11,2.49-0.14C104.15,121.02,104.92,120.99,105.68,121z"/>
					<path class="st11" d="M99.02,132.69c-0.03-0.19,0.09-0.27,0.21-0.33c0.29-0.15,0.6-0.21,0.92-0.2c0.16,0,0.21-0.05,0.22-0.2
						c0.03-0.55,0.06-1.09,0.15-1.63c0.15-0.92,0.34-1.82,0.94-2.58c0.76-0.96,2.19-1.35,3.2-0.84c0.34,0.17,0.6,0.42,0.69,0.81
						c0.06,0.29-0.02,0.53-0.25,0.72c-0.21,0.18-0.63,0.16-0.81,0.08c-0.09-0.04-0.06-0.11-0.04-0.17c0.06-0.14,0.11-0.28,0.11-0.44
						c0-0.41-0.23-0.69-0.64-0.76c-0.72-0.12-1.3,0.16-1.67,0.8c-0.26,0.45-0.37,0.94-0.45,1.45c-0.14,0.86-0.15,1.73-0.19,2.59
						c-0.01,0.17,0.05,0.18,0.18,0.18c0.55,0,1.1,0,1.65,0c0.08,0,0.19-0.04,0.2,0.1c0.01,0.13,0.04,0.27-0.12,0.34
						c-0.09,0.04-0.19,0.06-0.3,0.06c-0.48,0.01-0.96-0.02-1.43-0.08c-0.08-0.01-0.19-0.06-0.19,0.11c-0.04,0.94-0.08,1.87-0.16,2.8
						c-0.09,1.09-0.21,2.17-0.47,3.23c-0.23,0.94-0.59,1.82-1.32,2.5c-0.72,0.67-1.96,0.82-2.75,0.32
						c-0.11-0.07-0.22-0.16-0.28-0.27c-0.24-0.41,0.06-0.75,0.42-0.81c0.11-0.02,0.14,0.06,0.19,0.13c0.24,0.33,0.54,0.55,0.96,0.63
						c0.6,0.11,1.04-0.12,1.37-0.59c0.36-0.5,0.52-1.09,0.63-1.68c0.21-1.13,0.28-2.27,0.31-3.41c0.02-0.67,0.03-1.33,0.04-2
						c0.01-0.28,0.01-0.56,0.02-0.83c0-0.09-0.01-0.13-0.12-0.13C99.83,132.57,99.42,132.57,99.02,132.69z"/>
					<path class="st11" d="M108.77,137.53c-0.3,0.51-0.58,1.01-0.98,1.42c-0.22,0.23-0.45,0.42-0.77,0.5
						c-0.25,0.06-0.56-0.04-0.68-0.21c-0.11-0.17-0.09-0.45,0.04-0.64c0.03-0.04,0.05-0.1,0.14-0.06c0.63,0.25,1.09,0,1.48-0.49
						c0.02-0.02,0.03-0.04,0.05-0.07c0.19-0.25,0.41-0.51,0.5-0.81c0.09-0.31-0.16-0.58-0.25-0.88c-0.09-0.31-0.21-0.61-0.33-0.9
						c-0.2-0.49-0.47-0.61-0.99-0.5c-0.09,0.02-0.25,0.14-0.3-0.09c-0.01-0.07,0-0.11,0.07-0.12c0.41-0.12,0.82-0.29,1.25-0.31
						c0.19-0.01,0.33,0.08,0.44,0.23c0.13,0.19,0.21,0.4,0.28,0.61c0.12,0.34,0.25,0.68,0.39,1.04c0.2-0.36,0.37-0.7,0.59-1.02
						c0.22-0.31,0.45-0.62,0.81-0.79c0.17-0.08,0.35-0.11,0.54-0.08c0.22,0.04,0.37,0.15,0.43,0.36c0.08,0.24-0.01,0.44-0.17,0.62
						c-0.05,0.05-0.09,0.07-0.17,0.01c-0.32-0.26-0.65-0.25-0.98,0.02c-0.41,0.34-0.64,0.81-0.88,1.27c-0.02,0.04-0.01,0.08,0,0.12
						c0.2,0.51,0.38,1.03,0.65,1.51c0.34,0.6,0.71,0.74,1.37,0.54c0.07-0.02,0.18-0.14,0.24,0.01c0.06,0.15-0.07,0.18-0.15,0.22
						c-0.38,0.21-0.78,0.37-1.23,0.38c-0.34,0.01-0.56-0.17-0.73-0.42c-0.28-0.41-0.44-0.88-0.63-1.34
						C108.82,137.63,108.8,137.59,108.77,137.53z"/>
					<path class="st11" d="M103.54,136.41c0.03-2.35,0.75-4.41,2.24-6.18c0.05-0.06,0.08-0.23,0.25-0.11
						c0.14,0.1,0.12,0.16,0.03,0.27c-0.89,1.14-1.43,2.43-1.71,3.84c-0.16,0.8-0.2,1.6-0.15,2.4c0.09,1.53,0.48,2.96,1.49,4.17
						c0.16,0.19,0.32,0.36,0.52,0.51c0.12,0.09,0.1,0.16-0.01,0.24c-0.2,0.15-0.42,0.13-0.62,0.03c-0.33-0.16-0.56-0.45-0.77-0.74
						c-0.56-0.8-0.87-1.71-1.08-2.65C103.6,137.58,103.56,136.98,103.54,136.41z"/>
					<path class="st11" d="M114.43,135.42c-0.04,2.26-0.77,4.34-2.29,6.13c-0.08,0.1-0.13,0.1-0.23,0.02
						c-0.09-0.08-0.1-0.12-0.02-0.22c0.83-1.05,1.36-2.24,1.66-3.54c0.17-0.76,0.27-1.53,0.25-2.31c-0.05-1.49-0.34-2.92-1.2-4.18
						c-0.24-0.35-0.52-0.66-0.83-0.93c-0.11-0.1-0.09-0.15,0-0.22c0.17-0.13,0.36-0.14,0.55-0.07c0.35,0.12,0.57,0.39,0.77,0.67
						c0.6,0.79,0.92,1.71,1.14,2.67C114.36,134.07,114.43,134.7,114.43,135.42z"/>
				</g>
			</g>
		</g>
	</g>
	<g>
		<path class="st29" d="M193.22,173.7h-50.85c-1.64,0-2.96-1.33-2.96-2.96V92.45c0-1.64,1.33-2.96,2.96-2.96h50.85
			c1.64,0,2.96,1.33,2.96,2.96v78.29C196.19,172.37,194.86,173.7,193.22,173.7z"/>
		<g class="st30">
			<g>
				<g>
					<path d="M167.81,117.7c4.08,0,8.16,0,12.24,0c1.45,0,2.69,0.95,3.07,2.29c0.07,0.24,0.11,0.48,0.11,0.73
						c0,7.77,0,15.54-0.01,23.31c0,0.61-0.25,1.15-0.61,1.64c-0.53,0.71-1.26,1.11-2.12,1.25c-0.18,0.03-0.36,0.02-0.54,0.02
						c-8.09,0-16.18,0-24.27,0c-0.93,0-1.75-0.28-2.41-0.95c-0.48-0.49-0.78-1.07-0.87-1.76c-0.03-0.19-0.03-0.39-0.03-0.58
						c0-7.64-0.01-15.29,0.01-22.93c0-0.93,0.42-1.7,1.15-2.3c0.44-0.37,0.94-0.58,1.49-0.69c0.17-0.03,0.36-0.03,0.54-0.03
						C159.64,117.7,163.72,117.7,167.81,117.7z"/>
					<path class="st11" d="M154.8,132.49c0-3.17,0.01-6.35-0.01-9.52c0-0.5,0.21-0.84,0.59-1.12c0.57-0.41,1.24-0.62,1.91-0.8
						c1.05-0.28,2.12-0.46,3.2-0.6c1.3-0.16,2.6-0.26,3.91-0.34c1.53-0.09,3.06-0.09,4.59-0.07c1.02,0.02,2.04,0.07,3.06,0.15
						c0.88,0.07,1.77,0.14,2.65,0.26c1.44,0.2,2.87,0.42,4.23,0.96c0.44,0.18,0.87,0.39,1.17,0.78c0.14,0.19,0.21,0.4,0.21,0.63
						c0,6.43,0,12.85,0,19.28c0,0.54-0.35,0.85-0.76,1.11c-0.66,0.4-1.39,0.61-2.13,0.79c-0.96,0.23-1.94,0.39-2.93,0.51
						c-1.37,0.17-2.74,0.28-4.12,0.33c-1.1,0.04-2.21,0.1-3.31,0.07c-1.26-0.03-2.53-0.05-3.79-0.15c-0.81-0.06-1.62-0.12-2.42-0.22
						c-1.57-0.2-3.14-0.43-4.62-1c-0.46-0.18-0.9-0.39-1.21-0.8c-0.15-0.2-0.21-0.42-0.21-0.68
						C154.81,138.88,154.8,135.68,154.8,132.49z"/>
					<path d="M155.77,124.02c0.97,0.48,1.99,0.7,3.02,0.89c0.69,0.13,1.39,0.23,2.09,0.31c0.83,0.1,1.65,0.18,2.48,0.23
						c0.73,0.05,1.46,0.08,2.18,0.1c1.01,0.03,2.02,0.05,3.02,0.03c1.13-0.03,2.26-0.06,3.39-0.15c0.68-0.05,1.36-0.1,2.03-0.18
						c1.67-0.21,3.34-0.43,4.93-1.04c0.05-0.02,0.1-0.04,0.15-0.06c0.28-0.12,0.28-0.12,0.28,0.18c0,5.86,0,11.72,0,17.59
						c0,0.22-0.08,0.35-0.25,0.46c-0.56,0.35-1.18,0.52-1.8,0.68c-1.01,0.26-2.04,0.42-3.07,0.54c-1.36,0.16-2.73,0.27-4.1,0.32
						c-1.04,0.03-2.08,0.08-3.13,0.06c-1.14-0.03-2.29-0.06-3.43-0.13c-1.17-0.07-2.33-0.19-3.49-0.36
						c-1.13-0.17-2.25-0.37-3.33-0.76c-0.28-0.1-0.56-0.22-0.81-0.4c-0.1-0.08-0.17-0.15-0.17-0.3c0-5.96,0-11.92,0-17.88
						C155.77,124.1,155.77,124.08,155.77,124.02z"/>
					<path d="M167.57,121c1.17-0.03,2.33,0.03,3.5,0.09c0.92,0.05,1.84,0.13,2.75,0.23c1.12,0.13,2.24,0.29,3.34,0.55
						c0.68,0.16,1.36,0.34,1.96,0.73c0.27,0.17,0.27,0.22,0.01,0.4c-0.45,0.31-0.97,0.47-1.49,0.61c-0.93,0.26-1.89,0.42-2.85,0.56
						c-0.85,0.12-1.7,0.21-2.56,0.28c-0.93,0.07-1.85,0.12-2.78,0.14c-0.88,0.02-1.75,0.05-2.63,0.03
						c-1.21-0.03-2.41-0.06-3.62-0.15c-0.78-0.06-1.56-0.12-2.34-0.22c-1.4-0.18-2.8-0.38-4.13-0.87c-0.3-0.11-0.6-0.24-0.86-0.45
						c-0.12-0.1-0.11-0.16,0-0.25c0.35-0.28,0.77-0.43,1.19-0.56c0.87-0.28,1.76-0.44,2.65-0.59c1.02-0.17,2.04-0.28,3.07-0.36
						c0.83-0.07,1.66-0.11,2.49-0.14C166.04,121.02,166.81,120.99,167.57,121z"/>
					<path class="st11" d="M160.91,132.69c-0.03-0.19,0.09-0.27,0.21-0.33c0.29-0.15,0.6-0.21,0.92-0.2c0.16,0,0.21-0.05,0.22-0.2
						c0.03-0.55,0.06-1.09,0.15-1.63c0.15-0.92,0.34-1.82,0.94-2.58c0.76-0.96,2.19-1.35,3.2-0.84c0.34,0.17,0.6,0.42,0.69,0.81
						c0.06,0.29-0.02,0.53-0.25,0.72c-0.21,0.18-0.63,0.16-0.81,0.08c-0.09-0.04-0.06-0.11-0.04-0.17c0.06-0.14,0.11-0.28,0.11-0.44
						c0-0.41-0.23-0.69-0.64-0.76c-0.72-0.12-1.3,0.16-1.67,0.8c-0.26,0.45-0.37,0.94-0.45,1.45c-0.14,0.86-0.15,1.73-0.19,2.59
						c-0.01,0.17,0.05,0.18,0.18,0.18c0.55,0,1.1,0,1.65,0c0.08,0,0.19-0.04,0.2,0.1c0.01,0.13,0.04,0.27-0.12,0.34
						c-0.09,0.04-0.19,0.06-0.3,0.06c-0.48,0.01-0.96-0.02-1.43-0.08c-0.08-0.01-0.19-0.06-0.19,0.11c-0.04,0.94-0.08,1.87-0.16,2.8
						c-0.09,1.09-0.21,2.17-0.47,3.23c-0.23,0.94-0.59,1.82-1.32,2.5c-0.72,0.67-1.96,0.82-2.75,0.32
						c-0.11-0.07-0.22-0.16-0.28-0.27c-0.24-0.41,0.06-0.75,0.42-0.81c0.11-0.02,0.14,0.06,0.19,0.13c0.24,0.33,0.54,0.55,0.96,0.63
						c0.6,0.11,1.04-0.12,1.37-0.59c0.36-0.5,0.52-1.09,0.63-1.68c0.21-1.13,0.28-2.27,0.31-3.41c0.02-0.67,0.03-1.33,0.04-2
						c0.01-0.28,0.01-0.56,0.02-0.83c0-0.09-0.01-0.13-0.12-0.13C161.72,132.57,161.32,132.57,160.91,132.69z"/>
					<path class="st11" d="M170.66,137.53c-0.3,0.51-0.58,1.01-0.98,1.42c-0.22,0.23-0.45,0.42-0.77,0.5
						c-0.25,0.06-0.56-0.04-0.68-0.21c-0.11-0.17-0.09-0.45,0.04-0.64c0.03-0.04,0.05-0.1,0.14-0.06c0.63,0.25,1.09,0,1.48-0.49
						c0.02-0.02,0.03-0.04,0.05-0.07c0.19-0.25,0.41-0.51,0.5-0.81c0.09-0.31-0.16-0.58-0.25-0.88c-0.09-0.31-0.21-0.61-0.33-0.9
						c-0.2-0.49-0.47-0.61-0.99-0.5c-0.09,0.02-0.25,0.14-0.3-0.09c-0.01-0.07,0-0.11,0.07-0.12c0.41-0.12,0.82-0.29,1.25-0.31
						c0.19-0.01,0.33,0.08,0.44,0.23c0.13,0.19,0.21,0.4,0.28,0.61c0.12,0.34,0.25,0.68,0.39,1.04c0.2-0.36,0.37-0.7,0.59-1.02
						c0.22-0.31,0.45-0.62,0.81-0.79c0.17-0.08,0.35-0.11,0.54-0.08c0.22,0.04,0.37,0.15,0.43,0.36c0.08,0.24-0.01,0.44-0.17,0.62
						c-0.05,0.05-0.09,0.07-0.17,0.01c-0.32-0.26-0.65-0.25-0.98,0.02c-0.41,0.34-0.64,0.81-0.88,1.27c-0.02,0.04-0.01,0.08,0,0.12
						c0.2,0.51,0.38,1.03,0.65,1.51c0.34,0.6,0.71,0.74,1.37,0.54c0.07-0.02,0.18-0.14,0.24,0.01c0.06,0.15-0.07,0.18-0.15,0.22
						c-0.38,0.21-0.78,0.37-1.23,0.38c-0.34,0.01-0.56-0.17-0.73-0.42c-0.28-0.41-0.44-0.88-0.63-1.34
						C170.71,137.63,170.69,137.59,170.66,137.53z"/>
					<path class="st11" d="M165.43,136.41c0.03-2.35,0.75-4.41,2.24-6.18c0.05-0.06,0.08-0.23,0.25-0.11
						c0.14,0.1,0.12,0.16,0.03,0.27c-0.89,1.14-1.43,2.43-1.71,3.84c-0.16,0.8-0.2,1.6-0.15,2.4c0.09,1.53,0.48,2.96,1.49,4.17
						c0.16,0.19,0.32,0.36,0.52,0.51c0.12,0.09,0.1,0.16-0.01,0.24c-0.2,0.15-0.42,0.13-0.62,0.03c-0.33-0.16-0.56-0.45-0.77-0.74
						c-0.56-0.8-0.87-1.71-1.08-2.65C165.5,137.58,165.45,136.98,165.43,136.41z"/>
					<path class="st11" d="M176.32,135.42c-0.04,2.26-0.77,4.34-2.29,6.13c-0.08,0.1-0.13,0.1-0.23,0.02
						c-0.09-0.08-0.1-0.12-0.02-0.22c0.83-1.05,1.36-2.24,1.66-3.54c0.17-0.76,0.27-1.53,0.25-2.31c-0.05-1.49-0.34-2.92-1.2-4.18
						c-0.24-0.35-0.52-0.66-0.83-0.93c-0.11-0.1-0.09-0.15,0-0.22c0.17-0.13,0.36-0.14,0.55-0.07c0.35,0.12,0.57,0.39,0.77,0.67
						c0.6,0.79,0.92,1.71,1.14,2.67C176.25,134.07,176.32,134.7,176.32,135.42z"/>
				</g>
			</g>
		</g>
	</g>
	<g>
		<path class="st29" d="M255.11,173.7h-50.85c-1.64,0-2.96-1.33-2.96-2.96V92.45c0-1.64,1.33-2.96,2.96-2.96h50.85
			c1.64,0,2.96,1.33,2.96,2.96v78.29C258.08,172.37,256.75,173.7,255.11,173.7z"/>
		<g class="st30">
			<g>
				<g>
					<path d="M229.7,117.7c4.08,0,8.16,0,12.24,0c1.45,0,2.69,0.95,3.07,2.29c0.07,0.24,0.11,0.48,0.11,0.73
						c0,7.77,0,15.54-0.01,23.31c0,0.61-0.25,1.15-0.61,1.64c-0.53,0.71-1.26,1.11-2.12,1.25c-0.18,0.03-0.36,0.02-0.54,0.02
						c-8.09,0-16.18,0-24.27,0c-0.93,0-1.75-0.28-2.41-0.95c-0.48-0.49-0.78-1.07-0.87-1.76c-0.03-0.19-0.03-0.39-0.03-0.58
						c0-7.64-0.01-15.29,0.01-22.93c0-0.93,0.42-1.7,1.15-2.3c0.44-0.37,0.94-0.58,1.49-0.69c0.17-0.03,0.36-0.03,0.54-0.03
						C221.53,117.7,225.62,117.7,229.7,117.7z"/>
					<path class="st11" d="M216.7,132.49c0-3.17,0.01-6.35-0.01-9.52c0-0.5,0.21-0.84,0.59-1.12c0.57-0.41,1.24-0.62,1.91-0.8
						c1.05-0.28,2.12-0.46,3.2-0.6c1.3-0.16,2.6-0.26,3.91-0.34c1.53-0.09,3.06-0.09,4.59-0.07c1.02,0.02,2.04,0.07,3.06,0.15
						c0.88,0.07,1.77,0.14,2.65,0.26c1.44,0.2,2.87,0.42,4.23,0.96c0.44,0.18,0.87,0.39,1.17,0.78c0.14,0.19,0.21,0.4,0.21,0.63
						c0,6.43,0,12.85,0,19.28c0,0.54-0.35,0.85-0.76,1.11c-0.66,0.4-1.39,0.61-2.13,0.79c-0.96,0.23-1.94,0.39-2.93,0.51
						c-1.37,0.17-2.74,0.28-4.12,0.33c-1.1,0.04-2.21,0.1-3.31,0.07c-1.26-0.03-2.53-0.05-3.79-0.15c-0.81-0.06-1.62-0.12-2.42-0.22
						c-1.57-0.2-3.14-0.43-4.62-1c-0.46-0.18-0.9-0.39-1.21-0.8c-0.15-0.2-0.21-0.42-0.21-0.68
						C216.7,138.88,216.7,135.68,216.7,132.49z"/>
					<path d="M217.66,124.02c0.97,0.48,1.99,0.7,3.02,0.89c0.69,0.13,1.39,0.23,2.09,0.31c0.83,0.1,1.65,0.18,2.48,0.23
						c0.73,0.05,1.46,0.08,2.18,0.1c1.01,0.03,2.02,0.05,3.02,0.03c1.13-0.03,2.26-0.06,3.39-0.15c0.68-0.05,1.36-0.1,2.03-0.18
						c1.67-0.21,3.34-0.43,4.93-1.04c0.05-0.02,0.1-0.04,0.15-0.06c0.28-0.12,0.28-0.12,0.28,0.18c0,5.86,0,11.72,0,17.59
						c0,0.22-0.08,0.35-0.25,0.46c-0.56,0.35-1.18,0.52-1.8,0.68c-1.01,0.26-2.04,0.42-3.07,0.54c-1.36,0.16-2.73,0.27-4.1,0.32
						c-1.04,0.03-2.08,0.08-3.13,0.06c-1.14-0.03-2.29-0.06-3.43-0.13c-1.17-0.07-2.33-0.19-3.49-0.36
						c-1.13-0.17-2.25-0.37-3.33-0.76c-0.28-0.1-0.56-0.22-0.81-0.4c-0.1-0.08-0.17-0.15-0.17-0.3c0-5.96,0-11.92,0-17.88
						C217.66,124.1,217.66,124.08,217.66,124.02z"/>
					<path d="M229.47,121c1.17-0.03,2.33,0.03,3.5,0.09c0.92,0.05,1.84,0.13,2.75,0.23c1.12,0.13,2.24,0.29,3.34,0.55
						c0.68,0.16,1.36,0.34,1.96,0.73c0.27,0.17,0.27,0.22,0.01,0.4c-0.45,0.31-0.97,0.47-1.49,0.61c-0.93,0.26-1.89,0.42-2.85,0.56
						c-0.85,0.12-1.7,0.21-2.56,0.28c-0.93,0.07-1.85,0.12-2.78,0.14c-0.88,0.02-1.75,0.05-2.63,0.03
						c-1.21-0.03-2.41-0.06-3.62-0.15c-0.78-0.06-1.56-0.12-2.34-0.22c-1.4-0.18-2.8-0.38-4.13-0.87c-0.3-0.11-0.6-0.24-0.86-0.45
						c-0.12-0.1-0.11-0.16,0-0.25c0.35-0.28,0.77-0.43,1.19-0.56c0.87-0.28,1.76-0.44,2.65-0.59c1.02-0.17,2.04-0.28,3.07-0.36
						c0.83-0.07,1.66-0.11,2.49-0.14C227.94,121.02,228.7,120.99,229.47,121z"/>
					<path class="st11" d="M222.8,132.69c-0.03-0.19,0.09-0.27,0.21-0.33c0.29-0.15,0.6-0.21,0.92-0.2c0.16,0,0.21-0.05,0.22-0.2
						c0.03-0.55,0.06-1.09,0.15-1.63c0.15-0.92,0.34-1.82,0.94-2.58c0.76-0.96,2.19-1.35,3.2-0.84c0.34,0.17,0.6,0.42,0.69,0.81
						c0.06,0.29-0.02,0.53-0.25,0.72c-0.21,0.18-0.63,0.16-0.81,0.08c-0.09-0.04-0.06-0.11-0.04-0.17c0.06-0.14,0.11-0.28,0.11-0.44
						c0-0.41-0.23-0.69-0.64-0.76c-0.72-0.12-1.3,0.16-1.67,0.8c-0.26,0.45-0.37,0.94-0.45,1.45c-0.14,0.86-0.15,1.73-0.19,2.59
						c-0.01,0.17,0.05,0.18,0.18,0.18c0.55,0,1.1,0,1.65,0c0.08,0,0.19-0.04,0.2,0.1c0.01,0.13,0.04,0.27-0.12,0.34
						c-0.09,0.04-0.19,0.06-0.3,0.06c-0.48,0.01-0.96-0.02-1.43-0.08c-0.08-0.01-0.19-0.06-0.19,0.11c-0.04,0.94-0.08,1.87-0.16,2.8
						c-0.09,1.09-0.21,2.17-0.47,3.23c-0.23,0.94-0.59,1.82-1.32,2.5c-0.72,0.67-1.96,0.82-2.75,0.32
						c-0.11-0.07-0.22-0.16-0.28-0.27c-0.24-0.41,0.06-0.75,0.42-0.81c0.11-0.02,0.14,0.06,0.19,0.13c0.24,0.33,0.54,0.55,0.96,0.63
						c0.6,0.11,1.04-0.12,1.37-0.59c0.36-0.5,0.52-1.09,0.63-1.68c0.21-1.13,0.28-2.27,0.31-3.41c0.02-0.67,0.03-1.33,0.04-2
						c0.01-0.28,0.01-0.56,0.02-0.83c0-0.09-0.01-0.13-0.12-0.13C223.61,132.57,223.21,132.57,222.8,132.69z"/>
					<path class="st11" d="M232.55,137.53c-0.3,0.51-0.58,1.01-0.98,1.42c-0.22,0.23-0.45,0.42-0.77,0.5
						c-0.25,0.06-0.56-0.04-0.68-0.21c-0.11-0.17-0.09-0.45,0.04-0.64c0.03-0.04,0.05-0.1,0.14-0.06c0.63,0.25,1.09,0,1.48-0.49
						c0.02-0.02,0.03-0.04,0.05-0.07c0.19-0.25,0.41-0.51,0.5-0.81c0.09-0.31-0.16-0.58-0.25-0.88c-0.09-0.31-0.21-0.61-0.33-0.9
						c-0.2-0.49-0.47-0.61-0.99-0.5c-0.09,0.02-0.25,0.14-0.3-0.09c-0.01-0.07,0-0.11,0.07-0.12c0.41-0.12,0.82-0.29,1.25-0.31
						c0.19-0.01,0.33,0.08,0.44,0.23c0.13,0.19,0.21,0.4,0.28,0.61c0.12,0.34,0.25,0.68,0.39,1.04c0.2-0.36,0.37-0.7,0.59-1.02
						c0.22-0.31,0.45-0.62,0.81-0.79c0.17-0.08,0.35-0.11,0.54-0.08c0.22,0.04,0.37,0.15,0.43,0.36c0.08,0.24-0.01,0.44-0.17,0.62
						c-0.05,0.05-0.09,0.07-0.17,0.01c-0.32-0.26-0.65-0.25-0.98,0.02c-0.41,0.34-0.64,0.81-0.88,1.27c-0.02,0.04-0.01,0.08,0,0.12
						c0.2,0.51,0.38,1.03,0.65,1.51c0.34,0.6,0.71,0.74,1.37,0.54c0.07-0.02,0.18-0.14,0.24,0.01c0.06,0.15-0.07,0.18-0.15,0.22
						c-0.38,0.21-0.78,0.37-1.23,0.38c-0.34,0.01-0.56-0.17-0.73-0.42c-0.28-0.41-0.44-0.88-0.63-1.34
						C232.6,137.63,232.58,137.59,232.55,137.53z"/>
					<path class="st11" d="M227.33,136.41c0.03-2.35,0.75-4.41,2.24-6.18c0.05-0.06,0.08-0.23,0.25-0.11
						c0.14,0.1,0.12,0.16,0.03,0.27c-0.89,1.14-1.43,2.43-1.71,3.84c-0.16,0.8-0.2,1.6-0.15,2.4c0.09,1.53,0.48,2.96,1.49,4.17
						c0.16,0.19,0.32,0.36,0.52,0.51c0.12,0.09,0.1,0.16-0.01,0.24c-0.2,0.15-0.42,0.13-0.62,0.03c-0.33-0.16-0.56-0.45-0.77-0.74
						c-0.56-0.8-0.87-1.71-1.08-2.65C227.39,137.58,227.34,136.98,227.33,136.41z"/>
					<path class="st11" d="M238.21,135.42c-0.04,2.26-0.77,4.34-2.29,6.13c-0.08,0.1-0.13,0.1-0.23,0.02
						c-0.09-0.08-0.1-0.12-0.02-0.22c0.83-1.05,1.36-2.24,1.66-3.54c0.17-0.76,0.27-1.53,0.25-2.31c-0.05-1.49-0.34-2.92-1.2-4.18
						c-0.24-0.35-0.52-0.66-0.83-0.93c-0.11-0.1-0.09-0.15,0-0.22c0.17-0.13,0.36-0.14,0.55-0.07c0.35,0.12,0.57,0.39,0.77,0.67
						c0.6,0.79,0.92,1.71,1.14,2.67C238.14,134.07,238.21,134.7,238.21,135.42z"/>
				</g>
			</g>
		</g>
	</g>
</g>
</svg>
