<?xml version="1.0" encoding="UTF-8" standalone="no"?>
<!-- Generator: Adobe Illustrator 23.0.6, SVG Export Plug-In . SVG Version: 6.00 Build 0)  -->

<svg
   xmlns:dc="http://purl.org/dc/elements/1.1/"
   xmlns:cc="http://creativecommons.org/ns#"
   xmlns:rdf="http://www.w3.org/1999/02/22-rdf-syntax-ns#"
   xmlns:svg="http://www.w3.org/2000/svg"
   xmlns="http://www.w3.org/2000/svg"
   xmlns:sodipodi="http://sodipodi.sourceforge.net/DTD/sodipodi-0.dtd"
   xmlns:inkscape="http://www.inkscape.org/namespaces/inkscape"
   version="1.1"
   id="Layer_1"
   x="0px"
   y="0px"
   viewBox="0 0 231.1 229.9"
   style="enable-background:new 0 0 231.1 229.9;"
   xml:space="preserve"
   sodipodi:docname="frmdb.svg"
   inkscape:version="0.92.4 (5da689c313, 2019-01-14)"><metadata
   id="metadata1025"><rdf:RDF><cc:Work
       rdf:about=""><dc:format>image/svg+xml</dc:format><dc:type
         rdf:resource="http://purl.org/dc/dcmitype/StillImage" /></cc:Work></rdf:RDF></metadata><defs
   id="defs1023" /><sodipodi:namedview
   pagecolor="#ffffff"
   bordercolor="#666666"
   borderopacity="1"
   objecttolerance="10"
   gridtolerance="10"
   guidetolerance="10"
   inkscape:pageopacity="0"
   inkscape:pageshadow="2"
   inkscape:window-width="1842"
   inkscape:window-height="1051"
   id="namedview1021"
   showgrid="false"
   inkscape:zoom="1.0265333"
   inkscape:cx="115.55"
   inkscape:cy="114.95"
   inkscape:window-x="-9"
   inkscape:window-y="-9"
   inkscape:window-maximized="1"
   inkscape:current-layer="Layer_1" />
<style
   type="text/css"
   id="style974">
	.st0{display:none;fill:#584898;stroke:#000000;stroke-miterlimit:10;}
	.st1{fill:#FFFFFF;stroke:#FFFFFF;stroke-miterlimit:10;}
	.st2{fill:#FFFFFF;}
	.st3{fill:none;}
	.st4{fill:#FFFFFF;stroke:#FFFFFF;stroke-width:5;}
</style>
<rect
   x="0.2"
   y="0.6"
   class="st0"
   width="502.4"
   height="228.8"
   id="rect976" />
<g
   id="g980"
   style="stroke:#666666;stroke-opacity:1;fill:#666666;fill-opacity:1">
	<path
   class="st1"
   d="M74.9,151.9"
   id="path978"
   style="stroke:#666666;stroke-opacity:1;fill:#666666;fill-opacity:1" />
</g>
<g
   id="g984"
   style="stroke:#666666;stroke-opacity:1;fill:#666666;fill-opacity:1">
	<path
   class="st1"
   d="M145.5,152.9"
   id="path982"
   style="stroke:#666666;stroke-opacity:1;fill:#666666;fill-opacity:1" />
</g>
<g
   id="g988"
   style="stroke:#666666;stroke-opacity:1;fill:#666666;fill-opacity:1">
	<path
   class="st1"
   d="M74.9,151.9"
   id="path986"
   style="stroke:#666666;stroke-opacity:1;fill:#666666;fill-opacity:1" />
</g>
<g
   id="g992"
   style="stroke:#666666;stroke-opacity:1;fill:#666666;fill-opacity:1">
	<path
   class="st1"
   d="M145.5,151.9"
   id="path990"
   style="stroke:#666666;stroke-opacity:1;fill:#666666;fill-opacity:1" />
</g>
<g
   id="g996"
   style="stroke:#666666;stroke-opacity:1;fill:#666666;fill-opacity:1">
	<path
   class="st2"
   d="M111.3,163.8c-20.1,0-35.8-3.6-35.8-8.1h1c0,4.1,15.9,7.5,34.8,7.5c20.2,0,34.8-4.5,34.8-7.5h1   C147.1,159.3,131.1,163.8,111.3,163.8z"
   id="path994"
   style="stroke:#666666;stroke-opacity:1;fill:#666666;fill-opacity:1" />
</g>
<g
   id="g1002"
   style="stroke:#666666;stroke-opacity:1;fill:#666666;fill-opacity:1">
	<line
   class="st3"
   x1="76"
   y1="155.6"
   x2="76"
   y2="73.7"
   id="line998"
   style="stroke:#666666;stroke-opacity:1;fill:#666666;fill-opacity:1" />
	<path
   class="st2"
   d="M76,156c-0.3,0-0.5-0.2-0.5-0.4V73.7c0-0.2,0.2-0.4,0.5-0.4s0.5,0.2,0.5,0.4v81.9C76.5,155.9,76.3,156,76,156z   "
   id="path1000"
   style="stroke:#666666;stroke-opacity:1;fill:#666666;fill-opacity:1" />
</g>
<g
   id="g1006"
   style="stroke:#666666;stroke-opacity:1;fill:#666666;fill-opacity:1">
	<path
   class="st2"
   d="M111.3,80.9c-17.6,0-35.8-2.8-35.8-7.4c0-4.6,18.2-7.4,35.8-7.4s35.8,2.8,35.8,7.4   C147.1,78.1,128.9,80.9,111.3,80.9z M111.3,66.9c-20.8,0-34.8,3.4-34.8,6.6s14,6.6,34.8,6.6s34.8-3.4,34.8-6.6   C146.1,70.3,132.1,66.9,111.3,66.9z"
   id="path1004"
   style="stroke:#666666;stroke-opacity:1;fill:#666666;fill-opacity:1" />
</g>
<path
   class="st2"
   d="M146.6,73.3c-0.3,0-0.5,0.2-0.5,0.4v40.5c0.2,0,0.3,0,0.5,0c0.1,0,0.2,0,0.3,0h0.2V73.7  C147.1,73.5,146.9,73.3,146.6,73.3z"
   id="path1008"
   style="stroke:#666666;stroke-opacity:1;fill:#666666;fill-opacity:1" />
<path
   class="st2"
   d="M146.6,91.7c-0.2,0-0.3,0-0.5,0v62.5c0,1.1,0.2,1.9,0.5,1.9c0.3,0,0.5-0.8,0.5-1.9V91.8h-0.2  C146.8,91.8,146.7,91.8,146.6,91.7z"
   id="path1010"
   style="stroke:#666666;stroke-opacity:1;fill:#666666;fill-opacity:1" />
<g
   id="g1014"
   style="stroke:#666666;stroke-opacity:1;fill:#666666;fill-opacity:1">
	<path
   class="st2"
   d="M129.9,136.5c-0.5-0.4-1.1-0.6-1.8-0.6c-2.6,0-4.8,1.6-6.5,4.7l-0.4,0.8l-0.1-0.9c-0.1-0.4-0.2-0.9-0.3-1.4   c-0.6-2.2-1.7-3.3-3.3-3.3c-2,0-4.2,1.6-6.6,4.9l1.3,0.8c0.1-0.1,0.2-0.3,0.5-0.6c0.3-0.4,0.6-0.8,1-1.3c1.2-1.4,2.6-2,3.4-2   c0.9,0,1.4,0.8,1.6,2.5c0.1,0.7,0.2,1.3,0.2,1.8s0,0.9,0,1.4v0.8v0.3h-0.8h-3.6l-0.3,0.4h3.8h0.9l0,0.3c-0.2,1.8-0.8,3.3-1.7,4.6   c-0.9,1.3-2.4,1.9-3.2,1.9h-0.3l0-0.3c-0.2-1.1-0.4-1.9-0.6-2.5c-0.2-0.4-0.4-0.6-0.7-0.7c-0.3-0.1-0.8-0.2-1.3-0.2   c-0.5,0-1,0.2-1.3,0.6c-0.4,0.4-0.6,0.9-0.6,1.5c0,2,1.1,2.9,3.4,2.9c1.1,0,2.3-0.4,3.6-1.3c1.2-0.8,2.3-2.1,3-3.6l0.6,0.1   c0,1.2,0.3,2.3,1,3.3c0.6,1,1.4,1.4,2.4,1.4c1.4,0,3-0.9,4.7-2.8c0.8-0.9,1.6-2,2.2-3.1l-0.8-0.7c-2,2.7-4,4.5-5.1,4.5   c-1.6,0-2.4-2.2-2.4-5.8v-0.3h0.3h4.4l-0.1-0.4h-4.3h-0.3v-0.3c0-1.2,0.8-2.4,1.4-3.5s1.4-2,2.5-2.7l0.3-0.2l0.1,0.3l0.3,0.7   c0.2,0.4,0.5,0.8,1,1.2c0.5,0.4,1,0.6,1.6,0.6c0.6,0,1-0.2,1.4-0.7c0.4-0.5,0.5-1.1,0.5-1.8C130.6,137.4,130.4,136.9,129.9,136.5z"
   id="path1012"
   style="stroke:#666666;stroke-opacity:1;fill:#666666;fill-opacity:1" />
</g>
<g
   id="g1018"
   style="stroke:#666666;stroke-opacity:1;fill:#666666;fill-opacity:1">
	<path
   class="st4"
   d="M110,122.6l-0.9,3.9c-1.7,7.1-3.1,12.2-4.2,15.1c-2.1,5.5-4.9,9-8.3,10.5c-1.4,0.6-2.8,0.9-4.2,0.9   c-1.4,0-2.4-0.3-3-0.8s-0.9-1.2-0.9-2s0.3-1.4,0.8-2c0.5-0.6,1.1-0.8,1.9-0.8c0.8,0,1.4,0.2,1.9,0.5c0.5,0.4,0.8,0.8,0.8,1.5   c0,0.6-0.2,1.2-0.5,1.8c2.6-0.4,4.9-5.3,7-14.8c0.3-1.5,0.7-3.3,1.1-5.3c0.4-2.1,0.7-3.6,1-4.5l0.9-3.9h-7.1l0.6-2.5h7   c3-12.2,6.5-20.7,10.6-25.5c3.3-4,7.3-5.9,12.1-5.9c2.1,0,3.9,0.4,5.3,1.3s2.2,2.3,2.2,4.3c0,1.2-0.4,2.1-1.2,2.7   c-0.8,0.7-1.7,1-2.8,1s-2-0.3-2.7-0.9c-0.7-0.6-1.1-1.4-1.1-2.4s0.3-1.9,1-2.9c-1.2-0.4-2.2-0.6-2.9-0.6s-1.6,0.3-2.5,1   c-1,0.7-1.8,1.6-2.6,2.8c-2.9,4.5-5.8,12.9-8.6,25.2h9l-0.6,2.5C119,122.6,110,122.6,110,122.6z"
   id="path1016"
   style="stroke:#666666;stroke-opacity:1;fill:#666666;fill-opacity:1" />
</g>
</svg>