<?xml version="1.0" encoding="utf-8"?>
<!-- Generator: Adobe Illustrator 23.0.3, SVG Export Plug-In . SVG Version: 6.00 Build 0)  -->
<svg version="1.1" id="Layer_1" xmlns="http://www.w3.org/2000/svg" xmlns:xlink="http://www.w3.org/1999/xlink" x="0px" y="0px"
	 viewBox="0 0 150 150" style="enable-background:new 0 0 150 150;" xml:space="preserve">
<style type="text/css">
	.st0{display:none;}
	.st1{display:inline;fill:#231F20;}
	.st2{display:inline;}
	.st3{fill:#231F20;}
	.st4{display:inline;fill:none;stroke:#231F20;stroke-width:3;stroke-miterlimit:10;}
	.st5{display:inline;fill:none;}
	.st6{display:inline;fill:none;stroke:#231F20;stroke-width:2;stroke-miterlimit:10;}
	.st7{fill:none;stroke:#231F20;stroke-width:2;stroke-miterlimit:10;}
</style>
<g class="st0">
	<path class="st1" d="M129.48,43.81H49.04c-2.33,0-4.22-1.89-4.22-4.22V28.28c0-2.33,1.89-4.22,4.22-4.22h80.45
		c2.33,0,4.22,1.89,4.22,4.22v11.31C133.71,41.92,131.82,43.81,129.48,43.81z"/>
	<path class="st1" d="M37.06,116.62h-14.6c-2.33,0-4.22-1.89-4.22-4.22V28.28c0-2.33,1.89-4.22,4.22-4.22h14.6
		c2.33,0,4.22,1.89,4.22,4.22v84.12C41.28,114.73,39.39,116.62,37.06,116.62z"/>
	<g class="st2">
		<path class="st3" d="M81.1,116.62H48.97c-2.3,0-4.16-1.86-4.16-4.16V98.42c0-2.3,1.86-4.16,4.16-4.16H81.1
			c2.3,0,4.16,1.86,4.16,4.16v14.03C85.26,114.76,83.39,116.62,81.1,116.62z"/>
		<path class="st3" d="M129.55,116.62H97.42c-2.3,0-4.16-1.86-4.16-4.16V98.42c0-2.3,1.86-4.16,4.16-4.16h32.13
			c2.3,0,4.16,1.86,4.16,4.16v14.03C133.71,114.76,131.84,116.62,129.55,116.62z"/>
	</g>
	<g class="st2">
		<path class="st3" d="M81.1,80.21H48.97c-2.3,0-4.16-1.86-4.16-4.16V62.02c0-2.3,1.86-4.16,4.16-4.16H81.1
			c2.3,0,4.16,1.86,4.16,4.16v14.03C85.26,78.35,83.39,80.21,81.1,80.21z"/>
		<path class="st3" d="M129.55,80.21H97.42c-2.3,0-4.16-1.86-4.16-4.16V62.02c0-2.3,1.86-4.16,4.16-4.16h32.13
			c2.3,0,4.16,1.86,4.16,4.16v14.03C133.71,78.35,131.84,80.21,129.55,80.21z"/>
	</g>
</g>
<g class="st0">
	<path class="st4" d="M130.02,116.5H27.48c-4.41,0-7.98-3.57-7.98-7.98v-76.1c0-4.41,3.57-7.98,7.98-7.98h102.54
		c4.41,0,7.98,3.57,7.98,7.98v76.1C138,112.93,134.43,116.5,130.02,116.5z"/>
	<path class="st1" d="M47.79,51.43l-17.46-0.08c-1.67-0.01-3.02-1.37-3.02-3.04L27.38,34c0.01-1.67,1.37-3.02,3.04-3.02l17.46,0.08
		c1.67,0.01,3.02,1.37,3.02,3.04l-0.06,14.32C50.82,50.09,49.46,51.44,47.79,51.43z"/>
	<path class="st1" d="M87.43,51.43l-17.46-0.08c-1.67-0.01-3.02-1.37-3.02-3.04L67.02,34c0.01-1.67,1.37-3.02,3.04-3.02l17.46,0.08
		c1.67,0.01,3.02,1.37,3.02,3.04l-0.06,14.32C90.47,50.09,89.11,51.44,87.43,51.43z"/>
	<path class="st1" d="M127.08,51.43l-17.46-0.08c-1.67-0.01-3.02-1.37-3.02-3.04L106.67,34c0.01-1.67,1.37-3.02,3.04-3.02
		l17.46,0.08c1.67,0.01,3.02,1.37,3.02,3.04l-0.06,14.32C130.12,50.09,128.75,51.44,127.08,51.43z"/>
	<g class="st2">
		<path class="st3" d="M47.79,81.13l-17.46-0.08c-1.67-0.01-3.02-1.37-3.02-3.04l0.06-14.32c0.01-1.67,1.37-3.02,3.04-3.02
			l17.46,0.08c1.67,0.01,3.02,1.37,3.02,3.04l-0.06,14.32C50.82,79.78,49.46,81.13,47.79,81.13z"/>
		<path class="st3" d="M87.43,81.13l-17.46-0.08c-1.67-0.01-3.02-1.37-3.02-3.04l0.06-14.32c0.01-1.67,1.37-3.02,3.04-3.02
			l17.46,0.08c1.67,0.01,3.02,1.37,3.02,3.04l-0.06,14.32C90.47,79.78,89.11,81.13,87.43,81.13z"/>
		<path class="st3" d="M127.08,81.13l-17.46-0.08c-1.67-0.01-3.02-1.37-3.02-3.04l0.06-14.32c0.01-1.67,1.37-3.02,3.04-3.02
			l17.46,0.08c1.67,0.01,3.02,1.37,3.02,3.04l-0.06,14.32C130.12,79.78,128.75,81.13,127.08,81.13z"/>
	</g>
	<g class="st2">
		<path class="st3" d="M47.79,110.82l-17.46-0.08c-1.67-0.01-3.02-1.37-3.02-3.04l0.06-14.32c0.01-1.67,1.37-3.02,3.04-3.02
			l17.46,0.08c1.67,0.01,3.02,1.37,3.02,3.04l-0.06,14.32C50.82,109.48,49.46,110.83,47.79,110.82z"/>
		<path class="st3" d="M87.43,110.82l-17.46-0.08c-1.67-0.01-3.02-1.37-3.02-3.04l0.06-14.32c0.01-1.67,1.37-3.02,3.04-3.02
			l17.46,0.08c1.67,0.01,3.02,1.37,3.02,3.04l-0.06,14.32C90.47,109.48,89.11,110.83,87.43,110.82z"/>
		<path class="st3" d="M127.08,110.82l-17.46-0.08c-1.67-0.01-3.02-1.37-3.02-3.04l0.06-14.32c0.01-1.67,1.37-3.02,3.04-3.02
			l17.46,0.08c1.67,0.01,3.02,1.37,3.02,3.04l-0.06,14.32C130.12,109.48,128.75,110.83,127.08,110.82z"/>
	</g>
</g>
<g class="st0">
	<path class="st4" d="M128.97,116.69H25.77c-4.44,0-8.03-3.6-8.03-8.03V32.06c0-4.44,3.6-8.03,8.03-8.03h103.19
		c4.44,0,8.03,3.6,8.03,8.03v76.59C137,113.09,133.4,116.69,128.97,116.69z"/>
	<rect x="24.12" y="31.26" class="st5" width="24.32" height="20.35"/>
	<g class="st2">
		<path class="st3" d="M45.02,51.2l-17.57-0.08c-1.68-0.01-3.04-1.38-3.03-3.06l0.06-14.41c0.01-1.68,1.38-3.04,3.06-3.03
			l17.57,0.08c1.68,0.01,3.04,1.38,3.03,3.06l-0.06,14.41C48.08,49.85,46.71,51.21,45.02,51.2z"/>
		<path class="st3" d="M45.02,80.61l-17.57-0.08c-1.68-0.01-3.04-1.38-3.03-3.06l0.06-14.41c0.01-1.68,1.38-3.04,3.06-3.03
			l17.57,0.08c1.68,0.01,3.04,1.38,3.03,3.06l-0.06,14.41C48.08,79.26,46.71,80.62,45.02,80.61z"/>
		<path class="st3" d="M45.02,110.02l-17.57-0.08c-1.68-0.01-3.04-1.38-3.03-3.06l0.06-14.41c0.01-1.68,1.38-3.04,3.06-3.03
			l17.57,0.08c1.68,0.01,3.04,1.38,3.03,3.06l-0.06,14.41C48.08,108.67,46.71,110.03,45.02,110.02z"/>
	</g>
	<g class="st2">
		<path class="st3" d="M72.44,51.2l-17.57-0.08c-1.68-0.01-3.04-1.38-3.03-3.06l0.06-14.41c0.01-1.68,1.38-3.04,3.06-3.03
			l17.57,0.08c1.68,0.01,3.04,1.38,3.03,3.06L75.5,48.16C75.5,49.85,74.13,51.21,72.44,51.2z"/>
		<path class="st3" d="M72.44,80.61l-17.57-0.08c-1.68-0.01-3.04-1.38-3.03-3.06l0.06-14.41c0.01-1.68,1.38-3.04,3.06-3.03
			l17.57,0.08c1.68,0.01,3.04,1.38,3.03,3.06L75.5,77.57C75.5,79.26,74.13,80.62,72.44,80.61z"/>
		<path class="st3" d="M72.44,110.02l-17.57-0.08c-1.68-0.01-3.04-1.38-3.03-3.06l0.06-14.41c0.01-1.68,1.38-3.04,3.06-3.03
			l17.57,0.08c1.68,0.01,3.04,1.38,3.03,3.06l-0.06,14.41C75.5,108.67,74.13,110.03,72.44,110.02z"/>
	</g>
	<g class="st2">
		<path class="st3" d="M99.86,51.2l-17.57-0.08c-1.68-0.01-3.04-1.38-3.03-3.06l0.06-14.41c0.01-1.68,1.38-3.04,3.06-3.03
			l17.57,0.08c1.68,0.01,3.04,1.38,3.03,3.06l-0.06,14.41C102.92,49.85,101.55,51.21,99.86,51.2z"/>
		<path class="st3" d="M99.86,80.61l-17.57-0.08c-1.68-0.01-3.04-1.38-3.03-3.06l0.06-14.41c0.01-1.68,1.38-3.04,3.06-3.03
			l17.57,0.08c1.68,0.01,3.04,1.38,3.03,3.06l-0.06,14.41C102.92,79.26,101.55,80.62,99.86,80.61z"/>
		<path class="st3" d="M99.86,110.02l-17.57-0.08c-1.68-0.01-3.04-1.38-3.03-3.06l0.06-14.41c0.01-1.68,1.38-3.04,3.06-3.03
			l17.57,0.08c1.68,0.01,3.04,1.38,3.03,3.06l-0.06,14.41C102.92,108.67,101.55,110.03,99.86,110.02z"/>
	</g>
	<g class="st2">
		<path class="st3" d="M127.28,51.2l-17.57-0.08c-1.68-0.01-3.04-1.38-3.03-3.06l0.06-14.41c0.01-1.68,1.38-3.04,3.06-3.03
			l17.57,0.08c1.68,0.01,3.04,1.38,3.03,3.06l-0.06,14.41C130.34,49.85,128.97,51.21,127.28,51.2z"/>
		<path class="st3" d="M127.28,80.61l-17.57-0.08c-1.68-0.01-3.04-1.38-3.03-3.06l0.06-14.41c0.01-1.68,1.38-3.04,3.06-3.03
			l17.57,0.08c1.68,0.01,3.04,1.38,3.03,3.06l-0.06,14.41C130.34,79.26,128.97,80.62,127.28,80.61z"/>
		<path class="st3" d="M127.28,110.02l-17.57-0.08c-1.68-0.01-3.04-1.38-3.03-3.06l0.06-14.41c0.01-1.68,1.38-3.04,3.06-3.03
			l17.57,0.08c1.68,0.01,3.04,1.38,3.03,3.06l-0.06,14.41C130.34,108.67,128.97,110.03,127.28,110.02z"/>
	</g>
</g>
<g class="st0">
	<path class="st6" d="M130.88,117.28H26.61c-4.48,0-8.12-3.63-8.12-8.12V31.77c0-4.48,3.63-8.12,8.12-8.12h104.27
		c4.48,0,8.12,3.63,8.12,8.12v77.39C139,113.64,135.37,117.28,130.88,117.28z"/>
	<path class="st1" d="M84.81,73.62H73.5c-2.16,0-3.92-1.75-3.92-3.92V39.8c0-2.16,1.75-3.92,3.92-3.92h11.3
		c2.16,0,3.92,1.75,3.92,3.92v29.9C88.72,71.87,86.97,73.62,84.81,73.62z"/>
	<g class="st2">
		<path class="st3" d="M48.06,105.59l-17.75-0.08c-1.7-0.01-3.07-1.39-3.07-3.09l0.06-14.56c0.01-1.7,1.39-3.07,3.09-3.07
			l17.75,0.08c1.7,0.01,3.07,1.39,3.07,3.09l-0.06,14.56C51.15,104.22,49.76,105.6,48.06,105.59z"/>
		<path class="st3" d="M87.42,105.59l-17.75-0.08c-1.7-0.01-3.07-1.39-3.07-3.09l0.06-14.56c0.01-1.7,1.39-3.07,3.09-3.07
			l17.75,0.08c1.7,0.01,3.07,1.39,3.07,3.09l-0.06,14.56C90.5,104.22,89.12,105.6,87.42,105.59z"/>
		<path class="st3" d="M127.09,105.59l-17.75-0.08c-1.7-0.01-3.07-1.39-3.07-3.09l0.06-14.56c0.01-1.7,1.39-3.07,3.09-3.07
			l17.75,0.08c1.7,0.01,3.07,1.39,3.07,3.09l-0.06,14.56C130.18,104.22,128.79,105.6,127.09,105.59z"/>
		<g>
			<path class="st3" d="M44.88,73.07h-11.3c-2.16,0-3.92-1.75-3.92-3.92v-29.9c0-2.16,1.75-3.92,3.92-3.92h11.3
				c2.16,0,3.92,1.75,3.92,3.92v29.9C48.8,71.32,47.04,73.07,44.88,73.07z"/>
			<path class="st3" d="M123.91,73.07h-11.3c-2.16,0-3.92-1.75-3.92-3.92v-29.9c0-2.16,1.75-3.92,3.92-3.92h11.3
				c2.16,0,3.92,1.75,3.92,3.92v29.9C127.83,71.32,126.07,73.07,123.91,73.07z"/>
		</g>
	</g>
</g>
<g class="st0">
	<path class="st6" d="M128.09,116.1H26.48c-4.37,0-7.91-3.54-7.91-7.91V32.78c0-4.37,3.54-7.91,7.91-7.91h101.61
		c4.37,0,7.91,3.54,7.91,7.91v75.41C136,112.56,132.46,116.1,128.09,116.1z"/>
	<path class="st1" d="M48.32,68.73H36.38c-1.85,0-3.35-1.5-3.35-3.35V43.74c0-1.85,1.5-3.35,3.35-3.35h11.94
		c1.85,0,3.35,1.5,3.35,3.35v21.64C51.67,67.23,50.17,68.73,48.32,68.73z"/>
	<path class="st1" d="M50.02,38.86H34.67c-0.91,0-1.65-0.74-1.65-1.65v-3.56c0-0.91,0.74-1.65,1.65-1.65h15.35
		c0.91,0,1.65,0.74,1.65,1.65v3.56C51.67,38.13,50.93,38.86,50.02,38.86z"/>
	<path class="st1" d="M85.41,38.86H70.06c-0.91,0-1.65-0.74-1.65-1.65v-3.56c0-0.91,0.74-1.65,1.65-1.65h15.35
		c0.91,0,1.65,0.74,1.65,1.65v3.56C87.06,38.13,86.32,38.86,85.41,38.86z"/>
	<path class="st1" d="M119.9,38.86h-15.35c-0.91,0-1.65-0.74-1.65-1.65v-3.56c0-0.91,0.74-1.65,1.65-1.65h15.35
		c0.91,0,1.65,0.74,1.65,1.65v3.56C121.54,38.13,120.8,38.86,119.9,38.86z"/>
	<path class="st1" d="M83.71,68.73H71.76c-1.85,0-3.35-1.5-3.35-3.35V43.74c0-1.85,1.5-3.35,3.35-3.35h11.94
		c1.85,0,3.35,1.5,3.35,3.35v21.64C87.06,67.23,85.56,68.73,83.71,68.73z"/>
	<path class="st1" d="M118.19,68.73h-11.94c-1.85,0-3.35-1.5-3.35-3.35V43.74c0-1.85,1.5-3.35,3.35-3.35h11.94
		c1.85,0,3.35,1.5,3.35,3.35v21.64C121.54,67.23,120.04,68.73,118.19,68.73z"/>
	<path class="st1" d="M50.02,78.94H34.67c-0.91,0-1.65-0.74-1.65-1.65v-3.56c0-0.91,0.74-1.65,1.65-1.65h15.35
		c0.91,0,1.65,0.74,1.65,1.65v3.56C51.67,78.2,50.93,78.94,50.02,78.94z"/>
	<path class="st1" d="M85.41,78.94H70.06c-0.91,0-1.65-0.74-1.65-1.65v-3.56c0-0.91,0.74-1.65,1.65-1.65h15.35
		c0.91,0,1.65,0.74,1.65,1.65v3.56C87.06,78.2,86.32,78.94,85.41,78.94z"/>
	<path class="st1" d="M119.9,78.94h-15.35c-0.91,0-1.65-0.74-1.65-1.65v-3.56c0-0.91,0.74-1.65,1.65-1.65h15.35
		c0.91,0,1.65,0.74,1.65,1.65v3.56C121.54,78.2,120.8,78.94,119.9,78.94z"/>
	<path class="st1" d="M118.19,108.95h-11.94c-1.85,0-3.35-1.5-3.35-3.35V83.97c0-1.85,1.5-3.35,3.35-3.35h11.94
		c1.85,0,3.35,1.5,3.35,3.35v21.64C121.54,107.45,120.04,108.95,118.19,108.95z"/>
	<path class="st1" d="M83.71,108.95H71.76c-1.85,0-3.35-1.5-3.35-3.35V83.97c0-1.85,1.5-3.35,3.35-3.35h11.94
		c1.85,0,3.35,1.5,3.35,3.35v21.64C87.06,107.45,85.56,108.95,83.71,108.95z"/>
	<path class="st1" d="M48.32,108.95H36.38c-1.85,0-3.35-1.5-3.35-3.35V83.97c0-1.85,1.5-3.35,3.35-3.35h11.94
		c1.85,0,3.35,1.5,3.35,3.35v21.64C51.67,107.45,50.17,108.95,48.32,108.95z"/>
</g>
<g class="st0">
	<path class="st6" d="M129.9,116.66H25.88c-4.47,0-8.1-3.63-8.1-8.1V31.35c0-4.47,3.63-8.1,8.1-8.1H129.9c4.47,0,8.1,3.63,8.1,8.1
		v77.21C138,113.03,134.37,116.66,129.9,116.66z"/>
	<g class="st2">
		<path class="st3" d="M48.42,42.56H32.71c-0.93,0-1.69-0.75-1.69-1.69v-3.64c0-0.93,0.75-1.69,1.69-1.69h15.71
			c0.93,0,1.69,0.75,1.69,1.69v3.64C50.11,41.8,49.35,42.56,48.42,42.56z"/>
		<path class="st3" d="M87.37,42.56H71.66c-0.93,0-1.69-0.75-1.69-1.69v-3.64c0-0.93,0.75-1.69,1.69-1.69h15.71
			c0.93,0,1.69,0.75,1.69,1.69v3.64C89.06,41.8,88.31,42.56,87.37,42.56z"/>
		<path class="st3" d="M123.07,42.56h-15.71c-0.93,0-1.69-0.75-1.69-1.69v-3.64c0-0.93,0.75-1.69,1.69-1.69h15.71
			c0.93,0,1.69,0.75,1.69,1.69v3.64C124.76,41.8,124,42.56,123.07,42.56z"/>
		<path class="st3" d="M123.07,104.37h-15.71c-0.93,0-1.69-0.75-1.69-1.69v-3.64c0-0.93,0.75-1.69,1.69-1.69h15.71
			c0.93,0,1.69,0.75,1.69,1.69v3.64C124.76,103.62,124,104.37,123.07,104.37z"/>
		<path class="st3" d="M87.37,104.37H71.66c-0.93,0-1.69-0.75-1.69-1.69v-3.64c0-0.93,0.75-1.69,1.69-1.69h15.71
			c0.93,0,1.69,0.75,1.69,1.69v3.64C89.06,103.62,88.31,104.37,87.37,104.37z"/>
		<path class="st3" d="M48.42,104.37H32.71c-0.93,0-1.69-0.75-1.69-1.69v-3.64c0-0.93,0.75-1.69,1.69-1.69h15.71
			c0.93,0,1.69,0.75,1.69,1.69v3.64C50.11,103.62,49.35,104.37,48.42,104.37z"/>
		<path class="st3" d="M46.2,88.68H34.93c-2.16,0-3.91-1.75-3.91-3.91V54.95c0-2.16,1.75-3.91,3.91-3.91H46.2
			c2.16,0,3.91,1.75,3.91,3.91v29.83C50.11,86.94,48.36,88.68,46.2,88.68z"/>
		<path class="st3" d="M85.15,88.68H73.88c-2.16,0-3.91-1.75-3.91-3.91V54.95c0-2.16,1.75-3.91,3.91-3.91h11.27
			c2.16,0,3.91,1.75,3.91,3.91v29.83C89.06,86.94,87.31,88.68,85.15,88.68z"/>
		<path class="st3" d="M120.85,88.68h-11.27c-2.16,0-3.91-1.75-3.91-3.91V54.95c0-2.16,1.75-3.91,3.91-3.91h11.27
			c2.16,0,3.91,1.75,3.91,3.91v29.83C124.76,86.94,123.01,88.68,120.85,88.68z"/>
	</g>
</g>
<g>
	<path class="st7" d="M129.01,115.86H26.35c-4.41,0-7.99-3.58-7.99-7.99V31.68c0-4.41,3.58-7.99,7.99-7.99h102.66
		c4.41,0,7.99,3.58,7.99,7.99v76.19C137,112.28,133.42,115.86,129.01,115.86z"/>
	<path class="st3" d="M45.17,67.95H34.05c-2.13,0-3.85-1.73-3.85-3.85V34.65c0-2.13,1.73-3.85,3.85-3.85h11.13
		c2.13,0,3.85,1.73,3.85,3.85v29.44C49.03,66.22,47.3,67.95,45.17,67.95z"/>
	<path class="st3" d="M83.6,67.95H72.47c-2.13,0-3.85-1.73-3.85-3.85V34.65c0-2.13,1.73-3.85,3.85-3.85H83.6
		c2.13,0,3.85,1.73,3.85,3.85v29.44C87.45,66.22,85.73,67.95,83.6,67.95z"/>
	<path class="st3" d="M121.32,67.95h-11.13c-2.13,0-3.85-1.73-3.85-3.85V34.65c0-2.13,1.73-3.85,3.85-3.85h11.13
		c2.13,0,3.85,1.73,3.85,3.85v29.44C125.17,66.22,123.44,67.95,121.32,67.95z"/>
	<path class="st3" d="M45.17,108.75H34.05c-2.13,0-3.85-1.73-3.85-3.85V75.45c0-2.13,1.73-3.85,3.85-3.85h11.13
		c2.13,0,3.85,1.73,3.85,3.85v29.44C49.03,107.02,47.3,108.75,45.17,108.75z"/>
	<path class="st3" d="M83.6,108.75H72.47c-2.13,0-3.85-1.73-3.85-3.85V75.45c0-2.13,1.73-3.85,3.85-3.85H83.6
		c2.13,0,3.85,1.73,3.85,3.85v29.44C87.45,107.02,85.73,108.75,83.6,108.75z"/>
	<path class="st3" d="M121.32,108.75h-11.13c-2.13,0-3.85-1.73-3.85-3.85V75.45c0-2.13,1.73-3.85,3.85-3.85h11.13
		c2.13,0,3.85,1.73,3.85,3.85v29.44C125.17,107.02,123.44,108.75,121.32,108.75z"/>
</g>
</svg>
