<?xml version="1.0" encoding="utf-8"?>
<!-- Generator: Adobe Illustrator 23.0.3, SVG Export Plug-In . SVG Version: 6.00 Build 0)  -->
<svg version="1.1" id="Layer_1" xmlns="http://www.w3.org/2000/svg" xmlns:xlink="http://www.w3.org/1999/xlink" x="0px" y="0px"
	 viewBox="0 0 150 150" style="enable-background:new 0 0 150 150;" xml:space="preserve">
<style type="text/css">
	.st0{display:none;}
	.st1{display:inline;fill:#231F20;}
	.st2{display:inline;}
	.st3{fill:#231F20;}
	.st4{fill:none;stroke:#231F20;stroke-width:3;stroke-miterlimit:10;}
	.st5{display:inline;fill:none;stroke:#231F20;stroke-width:3;stroke-miterlimit:10;}
	.st6{display:inline;fill:none;}
	.st7{display:inline;fill:none;stroke:#231F20;stroke-width:2;stroke-miterlimit:10;}
	.st8{fill:none;stroke:#231F20;stroke-width:2;stroke-miterlimit:10;}
</style>
<g class="st0">
	<path class="st1" d="M129.48,43.81H49.04c-2.33,0-4.22-1.89-4.22-4.22V28.28c0-2.33,1.89-4.22,4.22-4.22h80.45
		c2.33,0,4.22,1.89,4.22,4.22v11.31C133.71,41.92,131.82,43.81,129.48,43.81z"/>
	<path class="st1" d="M37.06,116.62h-14.6c-2.33,0-4.22-1.89-4.22-4.22V28.28c0-2.33,1.89-4.22,4.22-4.22h14.6
		c2.33,0,4.22,1.89,4.22,4.22v84.12C41.28,114.73,39.39,116.62,37.06,116.62z"/>
	<g class="st2">
		<path class="st3" d="M81.1,116.62H48.97c-2.3,0-4.16-1.86-4.16-4.16V98.42c0-2.3,1.86-4.16,4.16-4.16H81.1
			c2.3,0,4.16,1.86,4.16,4.16v14.03C85.26,114.76,83.39,116.62,81.1,116.62z"/>
		<path class="st3" d="M129.55,116.62H97.42c-2.3,0-4.16-1.86-4.16-4.16V98.42c0-2.3,1.86-4.16,4.16-4.16h32.13
			c2.3,0,4.16,1.86,4.16,4.16v14.03C133.71,114.76,131.84,116.62,129.55,116.62z"/>
	</g>
	<g class="st2">
		<path class="st3" d="M81.1,80.21H48.97c-2.3,0-4.16-1.86-4.16-4.16V62.02c0-2.3,1.86-4.16,4.16-4.16H81.1
			c2.3,0,4.16,1.86,4.16,4.16v14.03C85.26,78.35,83.39,80.21,81.1,80.21z"/>
		<path class="st3" d="M129.55,80.21H97.42c-2.3,0-4.16-1.86-4.16-4.16V62.02c0-2.3,1.86-4.16,4.16-4.16h32.13
			c2.3,0,4.16,1.86,4.16,4.16v14.03C133.71,78.35,131.84,80.21,129.55,80.21z"/>
	</g>
</g>
<g>
	<path class="st4" d="M130.02,116.5H27.48c-4.41,0-7.98-3.57-7.98-7.98v-76.1c0-4.41,3.57-7.98,7.98-7.98h102.54
		c4.41,0,7.98,3.57,7.98,7.98v76.1C138,112.93,134.43,116.5,130.02,116.5z"/>
	<path class="st3" d="M47.79,51.43l-17.46-0.08c-1.67-0.01-3.02-1.37-3.02-3.04L27.38,34c0.01-1.67,1.37-3.02,3.04-3.02l17.46,0.08
		c1.67,0.01,3.02,1.37,3.02,3.04l-0.06,14.32C50.82,50.09,49.46,51.44,47.79,51.43z"/>
	<path class="st3" d="M87.43,51.43l-17.46-0.08c-1.67-0.01-3.02-1.37-3.02-3.04L67.02,34c0.01-1.67,1.37-3.02,3.04-3.02l17.46,0.08
		c1.67,0.01,3.02,1.37,3.02,3.04l-0.06,14.32C90.47,50.09,89.11,51.44,87.43,51.43z"/>
	<path class="st3" d="M127.08,51.43l-17.46-0.08c-1.67-0.01-3.02-1.37-3.02-3.04L106.67,34c0.01-1.67,1.37-3.02,3.04-3.02
		l17.46,0.08c1.67,0.01,3.02,1.37,3.02,3.04l-0.06,14.32C130.12,50.09,128.75,51.44,127.08,51.43z"/>
	<g>
		<path class="st3" d="M47.79,81.13l-17.46-0.08c-1.67-0.01-3.02-1.37-3.02-3.04l0.06-14.32c0.01-1.67,1.37-3.02,3.04-3.02
			l17.46,0.08c1.67,0.01,3.02,1.37,3.02,3.04l-0.06,14.32C50.82,79.78,49.46,81.13,47.79,81.13z"/>
		<path class="st3" d="M87.43,81.13l-17.46-0.08c-1.67-0.01-3.02-1.37-3.02-3.04l0.06-14.32c0.01-1.67,1.37-3.02,3.04-3.02
			l17.46,0.08c1.67,0.01,3.02,1.37,3.02,3.04l-0.06,14.32C90.47,79.78,89.11,81.13,87.43,81.13z"/>
		<path class="st3" d="M127.08,81.13l-17.46-0.08c-1.67-0.01-3.02-1.37-3.02-3.04l0.06-14.32c0.01-1.67,1.37-3.02,3.04-3.02
			l17.46,0.08c1.67,0.01,3.02,1.37,3.02,3.04l-0.06,14.32C130.12,79.78,128.75,81.13,127.08,81.13z"/>
	</g>
	<g>
		<path class="st3" d="M47.79,110.82l-17.46-0.08c-1.67-0.01-3.02-1.37-3.02-3.04l0.06-14.32c0.01-1.67,1.37-3.02,3.04-3.02
			l17.46,0.08c1.67,0.01,3.02,1.37,3.02,3.04l-0.06,14.32C50.82,109.48,49.46,110.83,47.79,110.82z"/>
		<path class="st3" d="M87.43,110.82l-17.46-0.08c-1.67-0.01-3.02-1.37-3.02-3.04l0.06-14.32c0.01-1.67,1.37-3.02,3.04-3.02
			l17.46,0.08c1.67,0.01,3.02,1.37,3.02,3.04l-0.06,14.32C90.47,109.48,89.11,110.83,87.43,110.82z"/>
		<path class="st3" d="M127.08,110.82l-17.46-0.08c-1.67-0.01-3.02-1.37-3.02-3.04l0.06-14.32c0.01-1.67,1.37-3.02,3.04-3.02
			l17.46,0.08c1.67,0.01,3.02,1.37,3.02,3.04l-0.06,14.32C130.12,109.48,128.75,110.83,127.08,110.82z"/>
	</g>
</g>
<g class="st0">
	<path class="st5" d="M45.98,107.69H-66.5c-4.84,0-8.76-3.92-8.76-8.76V15.44c0-4.84,3.92-8.76,8.76-8.76H45.98
		c4.84,0,8.76,3.92,8.76,8.76v83.49C54.74,103.77,50.82,107.69,45.98,107.69z"/>
	<rect x="-68.31" y="14.57" class="st6" width="26.51" height="22.18"/>
	<g class="st2">
		<path class="st3" d="M-45.52,36.3l-19.15-0.08c-1.83-0.01-3.32-1.5-3.31-3.34l0.07-15.71c0.01-1.83,1.5-3.32,3.34-3.31l19.15,0.08
			c1.83,0.01,3.32,1.5,3.31,3.34l-0.07,15.71C-42.19,34.83-43.69,36.31-45.52,36.3z"/>
		<path class="st3" d="M-45.52,68.36l-19.15-0.08c-1.83-0.01-3.32-1.5-3.31-3.34l0.07-15.71c0.01-1.83,1.5-3.32,3.34-3.31
			l19.15,0.08c1.83,0.01,3.32,1.5,3.31,3.34l-0.07,15.71C-42.19,66.89-43.69,68.37-45.52,68.36z"/>
		<path class="st3" d="M-45.52,100.42l-19.15-0.08c-1.83-0.01-3.32-1.5-3.31-3.34l0.07-15.71c0.01-1.83,1.5-3.32,3.34-3.31
			l19.15,0.08c1.83,0.01,3.32,1.5,3.31,3.34l-0.07,15.71C-42.19,98.94-43.69,100.43-45.52,100.42z"/>
	</g>
	<g class="st2">
		<path class="st3" d="M-15.63,36.3l-19.15-0.08c-1.83-0.01-3.32-1.5-3.31-3.34l0.07-15.71c0.01-1.83,1.5-3.32,3.34-3.31l19.15,0.08
			c1.83,0.01,3.32,1.5,3.31,3.34l-0.07,15.71C-12.3,34.83-13.8,36.31-15.63,36.3z"/>
		<path class="st3" d="M-15.63,68.36l-19.15-0.08c-1.83-0.01-3.32-1.5-3.31-3.34l0.07-15.71c0.01-1.83,1.5-3.32,3.34-3.31
			l19.15,0.08c1.83,0.01,3.32,1.5,3.31,3.34l-0.07,15.71C-12.3,66.89-13.8,68.37-15.63,68.36z"/>
		<path class="st3" d="M-15.63,100.42l-19.15-0.08c-1.83-0.01-3.32-1.5-3.31-3.34l0.07-15.71c0.01-1.83,1.5-3.32,3.34-3.31
			l19.15,0.08c1.83,0.01,3.32,1.5,3.31,3.34l-0.07,15.71C-12.3,98.94-13.8,100.43-15.63,100.42z"/>
	</g>
	<g class="st2">
		<path class="st3" d="M14.26,36.3l-19.15-0.08c-1.83-0.01-3.32-1.5-3.31-3.34l0.07-15.71c0.01-1.83,1.5-3.32,3.34-3.31l19.15,0.08
			c1.83,0.01,3.32,1.5,3.31,3.34l-0.07,15.71C17.59,34.83,16.09,36.31,14.26,36.3z"/>
		<path class="st3" d="M14.26,68.36l-19.15-0.08c-1.83-0.01-3.32-1.5-3.31-3.34l0.07-15.71c0.01-1.83,1.5-3.32,3.34-3.31l19.15,0.08
			c1.83,0.01,3.32,1.5,3.31,3.34l-0.07,15.71C17.59,66.89,16.09,68.37,14.26,68.36z"/>
		<path class="st3" d="M14.26,100.42l-19.15-0.08c-1.83-0.01-3.32-1.5-3.31-3.34l0.07-15.71c0.01-1.83,1.5-3.32,3.34-3.31
			l19.15,0.08c1.83,0.01,3.32,1.5,3.31,3.34l-0.07,15.71C17.59,98.94,16.09,100.43,14.26,100.42z"/>
	</g>
	<g class="st2">
		<path class="st3" d="M44.15,36.3L25,36.22c-1.83-0.01-3.32-1.5-3.31-3.34l0.07-15.71c0.01-1.83,1.5-3.32,3.34-3.31l19.15,0.08
			c1.83,0.01,3.32,1.5,3.31,3.34l-0.07,15.71C47.48,34.83,45.98,36.31,44.15,36.3z"/>
		<path class="st3" d="M44.15,68.36L25,68.28c-1.83-0.01-3.32-1.5-3.31-3.34l0.07-15.71c0.01-1.83,1.5-3.32,3.34-3.31l19.15,0.08
			c1.83,0.01,3.32,1.5,3.31,3.34l-0.07,15.71C47.48,66.89,45.98,68.37,44.15,68.36z"/>
		<path class="st3" d="M44.15,100.42L25,100.34c-1.83-0.01-3.32-1.5-3.31-3.34l0.07-15.71c0.01-1.83,1.5-3.32,3.34-3.31l19.15,0.08
			c1.83,0.01,3.32,1.5,3.31,3.34l-0.07,15.71C47.48,98.94,45.98,100.43,44.15,100.42z"/>
	</g>
</g>
<g class="st0">
	<path class="st7" d="M345.74,108.28H233.25c-4.84,0-8.76-3.92-8.76-8.76V16.03c0-4.84,3.92-8.76,8.76-8.76h112.49
		c4.84,0,8.76,3.92,8.76,8.76v83.49C354.49,104.36,350.57,108.28,345.74,108.28z"/>
	<path class="st1" d="M296.03,61.18h-12.19c-2.33,0-4.22-1.89-4.22-4.22V24.7c0-2.33,1.89-4.22,4.22-4.22h12.19
		c2.33,0,4.22,1.89,4.22,4.22v32.26C300.25,59.29,298.36,61.18,296.03,61.18z"/>
	<g class="st2">
		<path class="st3" d="M256.39,95.67l-19.15-0.08c-1.83-0.01-3.32-1.5-3.31-3.34L234,76.54c0.01-1.83,1.5-3.32,3.34-3.31l19.15,0.08
			c1.83,0.01,3.32,1.5,3.31,3.34l-0.07,15.71C259.72,94.2,258.23,95.68,256.39,95.67z"/>
		<path class="st3" d="M298.85,95.67l-19.15-0.08c-1.83-0.01-3.32-1.5-3.31-3.34l0.07-15.71c0.01-1.83,1.5-3.32,3.34-3.31
			l19.15,0.08c1.83,0.01,3.32,1.5,3.31,3.34l-0.07,15.71C302.17,94.2,300.68,95.68,298.85,95.67z"/>
		<path class="st3" d="M341.65,95.67l-19.15-0.08c-1.83-0.01-3.32-1.5-3.31-3.34l0.07-15.71c0.01-1.83,1.5-3.32,3.34-3.31
			l19.15,0.08c1.83,0.01,3.32,1.5,3.31,3.34l-0.07,15.71C344.98,94.2,343.48,95.68,341.65,95.67z"/>
		<g>
			<path class="st3" d="M252.96,60.59h-12.19c-2.33,0-4.22-1.89-4.22-4.22V24.11c0-2.33,1.89-4.22,4.22-4.22h12.19
				c2.33,0,4.22,1.89,4.22,4.22v32.26C257.18,58.7,255.29,60.59,252.96,60.59z"/>
			<path class="st3" d="M338.22,60.59h-12.19c-2.33,0-4.22-1.89-4.22-4.22V24.11c0-2.33,1.89-4.22,4.22-4.22h12.19
				c2.33,0,4.22,1.89,4.22,4.22v32.26C342.44,58.7,340.55,60.59,338.22,60.59z"/>
		</g>
	</g>
</g>
<g class="st0">
	<path class="st7" d="M646.81,109.1H534.33c-4.84,0-8.76-3.92-8.76-8.76V16.86c0-4.84,3.92-8.76,8.76-8.76h112.49
		c4.84,0,8.76,3.92,8.76,8.76v83.49C655.57,105.18,651.65,109.1,646.81,109.1z"/>
	<path class="st1" d="M558.51,56.65h-13.22c-2.05,0-3.71-1.66-3.71-3.71V29c0-2.05,1.66-3.71,3.71-3.71h13.22
		c2.05,0,3.71,1.66,3.71,3.71v23.95C562.21,54.99,560.55,56.65,558.51,56.65z"/>
	<path class="st1" d="M560.39,23.6H543.4c-1.01,0-1.82-0.82-1.82-1.82v-3.94c0-1.01,0.82-1.82,1.82-1.82h16.99
		c1.01,0,1.82,0.82,1.82,1.82v3.94C562.21,22.78,561.4,23.6,560.39,23.6z"/>
	<path class="st1" d="M599.56,23.6h-16.99c-1.01,0-1.82-0.82-1.82-1.82v-3.94c0-1.01,0.82-1.82,1.82-1.82h16.99
		c1.01,0,1.82,0.82,1.82,1.82v3.94C601.39,22.78,600.57,23.6,599.56,23.6z"/>
	<path class="st1" d="M637.74,23.6h-16.99c-1.01,0-1.82-0.82-1.82-1.82v-3.94c0-1.01,0.82-1.82,1.82-1.82h16.99
		c1.01,0,1.82,0.82,1.82,1.82v3.94C639.56,22.78,638.75,23.6,637.74,23.6z"/>
	<path class="st1" d="M597.68,56.65h-13.22c-2.05,0-3.71-1.66-3.71-3.71V29c0-2.05,1.66-3.71,3.71-3.71h13.22
		c2.05,0,3.71,1.66,3.71,3.71v23.95C601.39,54.99,599.73,56.65,597.68,56.65z"/>
	<path class="st1" d="M635.86,56.65h-13.22c-2.05,0-3.71-1.66-3.71-3.71V29c0-2.05,1.66-3.71,3.71-3.71h13.22
		c2.05,0,3.71,1.66,3.71,3.71v23.95C639.56,54.99,637.9,56.65,635.86,56.65z"/>
	<path class="st1" d="M560.39,67.96H543.4c-1.01,0-1.82-0.82-1.82-1.82V62.2c0-1.01,0.82-1.82,1.82-1.82h16.99
		c1.01,0,1.82,0.82,1.82,1.82v3.94C562.21,67.14,561.4,67.96,560.39,67.96z"/>
	<path class="st1" d="M599.56,67.96h-16.99c-1.01,0-1.82-0.82-1.82-1.82V62.2c0-1.01,0.82-1.82,1.82-1.82h16.99
		c1.01,0,1.82,0.82,1.82,1.82v3.94C601.39,67.14,600.57,67.96,599.56,67.96z"/>
	<path class="st1" d="M637.74,67.96h-16.99c-1.01,0-1.82-0.82-1.82-1.82V62.2c0-1.01,0.82-1.82,1.82-1.82h16.99
		c1.01,0,1.82,0.82,1.82,1.82v3.94C639.56,67.14,638.75,67.96,637.74,67.96z"/>
	<path class="st1" d="M635.86,101.19h-13.22c-2.05,0-3.71-1.66-3.71-3.71V73.53c0-2.05,1.66-3.71,3.71-3.71h13.22
		c2.05,0,3.71,1.66,3.71,3.71v23.95C639.56,99.53,637.9,101.19,635.86,101.19z"/>
	<path class="st1" d="M597.68,101.19h-13.22c-2.05,0-3.71-1.66-3.71-3.71V73.53c0-2.05,1.66-3.71,3.71-3.71h13.22
		c2.05,0,3.71,1.66,3.71,3.71v23.95C601.39,99.53,599.73,101.19,597.68,101.19z"/>
	<path class="st1" d="M558.51,101.19h-13.22c-2.05,0-3.71-1.66-3.71-3.71V73.53c0-2.05,1.66-3.71,3.71-3.71h13.22
		c2.05,0,3.71,1.66,3.71,3.71v23.95C562.21,99.53,560.55,101.19,558.51,101.19z"/>
</g>
<g class="st0">
	<path class="st7" d="M796.02,109.66H683.54c-4.84,0-8.76-3.92-8.76-8.76V17.42c0-4.84,3.92-8.76,8.76-8.76h112.49
		c4.84,0,8.76,3.92,8.76,8.76v83.49C804.78,105.74,800.86,109.66,796.02,109.66z"/>
	<g class="st2">
		<path class="st3" d="M707.92,29.53h-16.99c-1.01,0-1.82-0.82-1.82-1.82v-3.94c0-1.01,0.82-1.82,1.82-1.82h16.99
			c1.01,0,1.82,0.82,1.82,1.82v3.94C709.74,28.71,708.92,29.53,707.92,29.53z"/>
		<path class="st3" d="M750.04,29.53h-16.99c-1.01,0-1.82-0.82-1.82-1.82v-3.94c0-1.01,0.82-1.82,1.82-1.82h16.99
			c1.01,0,1.82,0.82,1.82,1.82v3.94C751.86,28.71,751.04,29.53,750.04,29.53z"/>
		<path class="st3" d="M788.63,29.53h-16.99c-1.01,0-1.82-0.82-1.82-1.82v-3.94c0-1.01,0.82-1.82,1.82-1.82h16.99
			c1.01,0,1.82,0.82,1.82,1.82v3.94C790.46,28.71,789.64,29.53,788.63,29.53z"/>
		<path class="st3" d="M788.63,96.37h-16.99c-1.01,0-1.82-0.82-1.82-1.82v-3.94c0-1.01,0.82-1.82,1.82-1.82h16.99
			c1.01,0,1.82,0.82,1.82,1.82v3.94C790.46,95.56,789.64,96.37,788.63,96.37z"/>
		<path class="st3" d="M750.04,96.37h-16.99c-1.01,0-1.82-0.82-1.82-1.82v-3.94c0-1.01,0.82-1.82,1.82-1.82h16.99
			c1.01,0,1.82,0.82,1.82,1.82v3.94C751.86,95.56,751.04,96.37,750.04,96.37z"/>
		<path class="st3" d="M707.92,96.37h-16.99c-1.01,0-1.82-0.82-1.82-1.82v-3.94c0-1.01,0.82-1.82,1.82-1.82h16.99
			c1.01,0,1.82,0.82,1.82,1.82v3.94C709.74,95.56,708.92,96.37,707.92,96.37z"/>
		<path class="st3" d="M705.52,79.41h-12.19c-2.33,0-4.22-1.89-4.22-4.22V42.93c0-2.33,1.89-4.22,4.22-4.22h12.19
			c2.33,0,4.22,1.89,4.22,4.22v32.26C709.74,77.52,707.85,79.41,705.52,79.41z"/>
		<path class="st3" d="M747.63,79.41h-12.19c-2.33,0-4.22-1.89-4.22-4.22V42.93c0-2.33,1.89-4.22,4.22-4.22h12.19
			c2.33,0,4.22,1.89,4.22,4.22v32.26C751.86,77.52,749.97,79.41,747.63,79.41z"/>
		<path class="st3" d="M786.23,79.41h-12.19c-2.33,0-4.22-1.89-4.22-4.22V42.93c0-2.33,1.89-4.22,4.22-4.22h12.19
			c2.33,0,4.22,1.89,4.22,4.22v32.26C790.46,77.52,788.57,79.41,786.23,79.41z"/>
	</g>
</g>
<g>
	<path class="st8" d="M496.61,107.86H384.12c-4.84,0-8.76-3.92-8.76-8.76V15.62c0-4.84,3.92-8.76,8.76-8.76h112.49
		c4.84,0,8.76,3.92,8.76,8.76V99.1C505.36,103.94,501.44,107.86,496.61,107.86z"/>
	<path class="st3" d="M404.74,55.36h-12.19c-2.33,0-4.22-1.89-4.22-4.22V18.88c0-2.33,1.89-4.22,4.22-4.22h12.19
		c2.33,0,4.22,1.89,4.22,4.22v32.26C408.96,53.47,407.07,55.36,404.74,55.36z"/>
	<path class="st3" d="M446.85,55.36h-12.19c-2.33,0-4.22-1.89-4.22-4.22V18.88c0-2.33,1.89-4.22,4.22-4.22h12.19
		c2.33,0,4.22,1.89,4.22,4.22v32.26C451.07,53.47,449.18,55.36,446.85,55.36z"/>
	<path class="st3" d="M488.18,55.36h-12.19c-2.33,0-4.22-1.89-4.22-4.22V18.88c0-2.33,1.89-4.22,4.22-4.22h12.19
		c2.33,0,4.22,1.89,4.22,4.22v32.26C492.4,53.47,490.51,55.36,488.18,55.36z"/>
	<path class="st3" d="M404.74,100.07h-12.19c-2.33,0-4.22-1.89-4.22-4.22V63.58c0-2.33,1.89-4.22,4.22-4.22h12.19
		c2.33,0,4.22,1.89,4.22,4.22v32.26C408.96,98.18,407.07,100.07,404.74,100.07z"/>
	<path class="st3" d="M446.85,100.07h-12.19c-2.33,0-4.22-1.89-4.22-4.22V63.58c0-2.33,1.89-4.22,4.22-4.22h12.19
		c2.33,0,4.22,1.89,4.22,4.22v32.26C451.07,98.18,449.18,100.07,446.85,100.07z"/>
	<path class="st3" d="M488.18,100.07h-12.19c-2.33,0-4.22-1.89-4.22-4.22V63.58c0-2.33,1.89-4.22,4.22-4.22h12.19
		c2.33,0,4.22,1.89,4.22,4.22v32.26C492.4,98.18,490.51,100.07,488.18,100.07z"/>
</g>
</svg>
