<?xml version="1.0" encoding="UTF-8" standalone="no"?>
<svg
   xmlns:dc="http://purl.org/dc/elements/1.1/"
   xmlns:cc="http://creativecommons.org/ns#"
   xmlns:rdf="http://www.w3.org/1999/02/22-rdf-syntax-ns#"
   xmlns:svg="http://www.w3.org/2000/svg"
   xmlns="http://www.w3.org/2000/svg"
   xmlns:sodipodi="http://sodipodi.sourceforge.net/DTD/sodipodi-0.dtd"
   xmlns:inkscape="http://www.inkscape.org/namespaces/inkscape"
   version="1.1"
   x="0px"
   y="0px"
   viewBox="0 0 100 125"
   enable-background="new 0 0 100 100"
   xml:space="preserve"
   id="svg101"
   sodipodi:docname="icon3.svg"
   inkscape:version="0.92.4 (5da689c313, 2019-01-14)"><metadata
     id="metadata107"><rdf:RDF><cc:Work
         rdf:about=""><dc:format>image/svg+xml</dc:format><dc:type
           rdf:resource="http://purl.org/dc/dcmitype/StillImage" /><dc:title></dc:title></cc:Work></rdf:RDF></metadata><defs
     id="defs105" /><sodipodi:namedview
     pagecolor="#ffffff"
     bordercolor="#666666"
     borderopacity="1"
     objecttolerance="10"
     gridtolerance="10"
     guidetolerance="10"
     inkscape:pageopacity="0"
     inkscape:pageshadow="2"
     inkscape:window-width="3200"
     inkscape:window-height="1644"
     id="namedview103"
     showgrid="false"
     inkscape:zoom="10.536"
     inkscape:cx="51.566059"
     inkscape:cy="62.5"
     inkscape:window-x="-16"
     inkscape:window-y="-16"
     inkscape:window-maximized="1"
     inkscape:current-layer="svg101" /><path
     d="m 18.6,61.1 c -0.6,0.6 -0.6,1.6 0,2.3 0.6,0.6 1.6,0.6 2.3,0 L 23,61.3 v 8.1 c 0,6.9 5.6,12.5 12.5,12.5 h 5.7 c 0.9,0 1.6,-0.7 1.6,-1.6 0,-0.9 -0.7,-1.6 -1.6,-1.6 h -5.7 c -5.1,0 -9.3,-4.2 -9.3,-9.3 v -8.1 l 2.1,2.1 c 0.6,0.6 1.6,0.6 2.3,0 0.6,-0.6 0.6,-1.6 0,-2.3 l -4.8,-4.8 c -0.3,-0.3 -0.7,-0.5 -1.1,-0.5 -0.4,0 -0.8,0.2 -1.1,0.5 z m 32.2,-8.9 v 27.9 c 0,0.9 0.7,1.6 1.6,1.6 h 27.9 c 0.9,0 1.6,-0.7 1.6,-1.6 V 52.2 c 0,-0.9 -0.7,-1.6 -1.6,-1.6 H 52.4 c -0.9,0 -1.6,0.7 -1.6,1.6 z M 54,53.8 H 78.7 V 78.5 H 54 Z m 27.4,-14.9 -4.8,4.8 c -0.6,0.6 -1.7,0.6 -2.3,0 l -4.8,-4.8 c -0.6,-0.6 -0.6,-1.6 0,-2.3 0.6,-0.6 1.6,-0.6 2.3,0 l 2.1,2.1 v -8.1 c 0,-5.1 -4.2,-9.3 -9.3,-9.3 h -5.7 c -0.9,0 -1.6,-0.7 -1.6,-1.6 0,-0.9 0.7,-1.6 1.6,-1.6 h 5.7 c 6.9,0 12.5,5.6 12.5,12.5 v 8.1 l 2.1,-2.1 c 0.3,-0.3 0.7,-0.5 1.1,-0.5 0.4,0 0.8,0.2 1.1,0.5 0.7,0.6 0.7,1.6 0,2.3 z m -63.3,-19 v 27.9 c 0,0.9 0.7,1.6 1.6,1.6 h 27.9 c 0.9,0 1.6,-0.7 1.6,-1.6 V 19.9 c 0,-0.9 -0.7,-1.6 -1.6,-1.6 H 19.7 c -0.9,0 -1.6,0.7 -1.6,1.6 z m 3.2,1.6 H 46 V 46.2 H 21.3 Z"
     id="path95"
     inkscape:connector-curvature="0" /></svg>