<?xml version="1.0" encoding="utf-8"?>
<!-- Generator: Adobe Illustrator 23.0.6, SVG Export Plug-In . SVG Version: 6.00 Build 0)  -->
<svg version="1.1" id="Layer_1" xmlns="http://www.w3.org/2000/svg" xmlns:xlink="http://www.w3.org/1999/xlink" x="0px" y="0px"
	 viewBox="0 0 1450.2 1025.4" style="enable-background:new 0 0 1450.2 1025.4;" xml:space="preserve">
<style type="text/css">
	.st0{display:none;fill:#5A64AC;stroke:#000000;stroke-miterlimit:10;}
	.st1{opacity:0.41;fill:#6675B7;}
	.st2{display:none;fill:none;stroke:#000000;stroke-width:0.5;stroke-miterlimit:10;}
	.st3{fill:none;stroke:#000000;stroke-miterlimit:10;}
	.st4{display:none;}
	.st5{fill:none;stroke:#010202;stroke-width:0.25;stroke-miterlimit:10;}
	.st6{fill:#50579F;}
	.st7{fill:none;stroke:#000000;stroke-width:0.5;stroke-linecap:round;stroke-linejoin:round;stroke-miterlimit:10;}
	.st8{fill:#FFFFFF;}
	.st9{fill:#F7F7F0;}
	.st10{fill:none;stroke:#F7F7F0;stroke-width:0.5;stroke-miterlimit:10;}
	.st11{fill:none;stroke:#B0BCE1;stroke-miterlimit:10;}
	.st12{fill:#FAFAFA;}
	.st13{fill:none;stroke:#020304;stroke-linecap:round;stroke-miterlimit:10;}
	.st14{fill:none;stroke:#020304;stroke-miterlimit:10;}
	.st15{fill:none;stroke:#010202;stroke-miterlimit:10;}
	.st16{fill:none;stroke:#50579F;stroke-miterlimit:10;}
	.st17{fill:none;stroke:#364372;stroke-miterlimit:10;}
	.st18{fill:#52B583;}
	.st19{fill:#5A64AC;stroke:#364372;stroke-miterlimit:10;}
	.st20{fill:none;stroke:#000000;stroke-linecap:round;stroke-miterlimit:10;}
	.st21{fill:#111110;}
	.st22{fill:none;stroke:#52B583;stroke-miterlimit:10;}
	.st23{fill:#5A64AC;}
	.st24{fill:none;stroke:#DBDCF0;stroke-width:0.5;stroke-miterlimit:10;}
	.st25{fill:#DBDCF0;}
	.st26{fill:none;stroke:#000000;stroke-width:0.75;stroke-miterlimit:10;}
	.st27{fill:none;stroke:#000000;stroke-width:0.5;stroke-miterlimit:10;}
	.st28{fill:none;stroke:#FFFFFF;stroke-width:0.25;stroke-miterlimit:10;}
	.st29{fill:none;stroke:#DBDCF0;stroke-width:22;stroke-miterlimit:10;}
	.st30{fill:none;}
	.st31{fill:#FDE7DB;}
	.st32{fill:#F8BB97;}
	.st33{fill:#F2DFD7;}
	.st34{fill:none;stroke:#FFFFFF;stroke-miterlimit:10;}
	.st35{fill:none;stroke:#000000;stroke-linecap:round;stroke-linejoin:round;stroke-miterlimit:10;}
	.st36{stroke:#50579F;stroke-miterlimit:10;}
	.st37{fill:#5A64AC;stroke:#000000;stroke-miterlimit:10;}
	.st38{fill:#5A64AC;stroke:#FFFFFF;stroke-miterlimit:10;}
	.st39{fill:none;stroke:#52B583;stroke-width:0.5;stroke-miterlimit:10;}
	.st40{fill:#F8BB97;stroke:#FFFFFF;stroke-miterlimit:10;}
	.st41{fill:none;stroke:#FDE7DB;stroke-width:0.25;stroke-miterlimit:10;}
	.st42{fill:none;stroke:#FFFFFF;stroke-width:0.25;stroke-linecap:round;stroke-miterlimit:10;}
	.st43{fill:#F8BB97;stroke:#FFFFFF;stroke-linecap:round;stroke-miterlimit:10;}
	.st44{fill:none;stroke:#13110A;stroke-linecap:round;stroke-linejoin:round;stroke-miterlimit:10;}
	.st45{fill:#5261A9;stroke:#000000;stroke-miterlimit:10;}
	.st46{fill:#13110A;}
	.st47{fill:#6F6FB2;}
	.st48{fill:none;stroke:#080909;stroke-miterlimit:10;}
	.st49{fill:none;stroke:#E4E4EA;stroke-width:0.5;stroke-miterlimit:10;}
	.st50{fill:#EFD4C3;}
	.st51{fill:#5A64AC;stroke:#000000;stroke-width:0.5;stroke-miterlimit:10;}
	.st52{fill:none;stroke:#DBDCF0;stroke-miterlimit:10;}
	.st53{fill:none;stroke:#13110A;stroke-width:0.25;stroke-miterlimit:10;}
	.st54{fill:none;stroke:#13110A;stroke-linecap:round;stroke-miterlimit:10;}
	.st55{fill:none;stroke:#13110A;stroke-width:0.75;stroke-linecap:round;stroke-miterlimit:10;}
	.st56{stroke:#5A64AC;stroke-miterlimit:10;}
	.st57{display:none;fill:#5A64AC;}
	.st58{fill:none;stroke:#F8BB97;stroke-miterlimit:10;}
	.st59{fill:#E8C6B3;}
	.st60{fill:none;stroke:#EFD4C3;stroke-linecap:round;stroke-miterlimit:10;}
	.st61{fill:#010202;}
	.st62{fill:none;stroke:#010202;stroke-width:0.5;stroke-linecap:round;stroke-miterlimit:10;}
	.st63{clip-path:url(#SVGID_2_);}
	.st64{clip-path:url(#SVGID_4_);fill:#FFFFFF;}
	.st65{clip-path:url(#SVGID_4_);fill:none;stroke:#FFFFFF;stroke-width:2.4243;}
	.st66{fill:none;stroke:#DBDCF0;stroke-linecap:round;stroke-miterlimit:10;}
	.st67{fill:none;stroke:#DBDCF0;stroke-linecap:round;stroke-miterlimit:10;stroke-dasharray:2.9984,2.9984,2.9984,2.9984;}
	
		.st68{fill:none;stroke:#DBDCF0;stroke-linecap:round;stroke-miterlimit:10;stroke-dasharray:2.9984,2.9984,2.9984,2.9984,2.9984,2.9984;}
	.st69{font-family:'OpenSans-Semibold';}
	.st70{font-size:44.0891px;}
	.st71{fill:none;stroke:#FDFDFD;stroke-width:0.75;stroke-linecap:round;stroke-miterlimit:10;}
	.st72{fill:none;stroke:#E4E4EA;stroke-linecap:round;stroke-miterlimit:10;}
	.st73{fill:none;stroke:#E4E4EA;stroke-width:0.5;stroke-linecap:round;stroke-miterlimit:10;}
	.st74{font-family:'OpenSans-Bold';}
	.st75{font-size:60px;}
	.st76{fill:#5261A9}
</style>
<rect class="st0" width="1453" height="1024.6"/>
<image style="display:none;overflow:visible;" width="5312" height="2988" xlink:href="20190823_234712_HDR.jpg"  transform="matrix(0.1585 0 0 0.1585 -6.441520e-05 92.5275)">
</image>
<path class="st1" d="M-59.5,206.7c-6.7-47.3-1.5-94.9,23.8-136.5C-11.9,31,23.1,42.4,59.7,53.6c51.5,15.8,105.5,22.1,159,18.5
	c22.9-1.5,46.1-4.9,66.9-15c13.8-6.7,26.6-16.3,41.5-19.1c22.1-4.1,44.7,8.2,59.4,26c14.7,17.9,22.7,40.6,29.4,63.1
	c10.5,35.4,18.2,71.6,24,108.2c4.2,26.5,7.3,53.8,1.9,80.1c-5,24.2-16.8,46-28.6,67.5c-17,31-34,62.2-55.5,90.1
	c-2.8,3.6-5.9,7.3-10.3,8.2c-3.9,0.8-7.8-1-11.3-2.9C297,458,262.8,428,224,406.8s-86.2-33-126.2-14.2
	c-13.2,6.2-25.7,15.7-40.1,16.4c-23.2,1-41-20.7-53.9-41C-25.1,322.6-51.3,264.9-59.5,206.7z"/>
<path class="st1" d="M687.6,384.2c-25.6,6.4-52.2,6.3-76.6-5.2c-23-10.8-18.7-30.8-14.7-51.6c5.7-29.2,6-59.4,1-88.6
	c-2.2-12.5-5.4-25.1-12.2-36c-4.5-7.2-10.5-13.7-12.9-21.8c-3.5-11.9,1.9-25.1,10.9-34.2c9-9.1,21-14.9,33-19.8
	c18.9-7.8,38.4-14.2,58.2-19.5c14.3-3.8,29.2-7.2,44-5.7c13.6,1.3,26.3,6.6,38.8,11.8c18.1,7.5,36.3,15.1,52.8,25.3
	c2.1,1.3,4.4,2.8,5.1,5.2c0.6,2.1-0.1,4.3-0.9,6.4c-8.9,22.8-23.4,43.4-32.9,66c-9.4,22.6-13.2,49.4-0.5,70.3
	c4.2,6.9,10.2,13.2,11.3,21.1c1.9,12.7-9,23.8-19.4,32.1C749.4,358.5,719.2,376.2,687.6,384.2z"/>
<path class="st1" d="M843,494.4c2.1-76.9,84.2-82.1,172.6-197.5s21.8-167.4,118.5-203.8s178.8-14.6,205.9-4.2s218.3-125.8,176.8,27
	c-41.6,152.8-117.3,260.8-148.6,254.7s-62.5-109.1-196.6,19.8S874.2,589,851.3,542.2C828.4,495.4,843,494.4,843,494.4z"/>
<path class="st1" d="M1688.2,822.8c-25.5,72.6-105.3,52.5-224.7,135.4c-119.4,82.9-71.9,152.7-175.1,157.9
	c-103.2,5.1-174.7-40.7-197.3-58.9c-22.6-18.2-246.3,53.1-160.1-79.7s191.3-212.5,219.2-197.1c27.9,15.4,26.2,123,193.3,41.2
	s343.8-98.3,351.3-46.8C1702.3,826.2,1688.2,822.8,1688.2,822.8z"/>
<path class="st1" d="M642.3,553.6c1.6-32.8-304.1,65.5-321.3,37.4c-17.2-28.1-146.6,18.7-146.6,18.7s45.2,282.3,274.5,156
	s294.5-239.2,274.3-233.4C703.1,538,642.3,553.6,642.3,553.6z"/>
<path class="st2" d="M706.3,261.1l3.5-4.4c0.8-1.1,2.4-1.3,3.5-0.6l10.8,6.6c1.8,1.1,3.4,2.5,4.7,4.1c1.1,1.3,1.5,3.1,1.2,4.8
	l-0.1,0.4c-0.3,1.3,0.1,2.7,1.1,3.7c0,0,18.5,17.7,21.8,23.5c3.3,5.8,8.1,25.2,8.1,25.2c6,26.8-6.1,27.6-6.1,27.6"/>
<rect x="806.8" y="92" class="st3" width="411.6" height="359.7"/>
<image style="display:none;overflow:visible;" width="564" height="376" xlink:href="people/eaffb23e4ce2d2b1f4b2ee2360bb64d6.jpg"  transform="matrix(1 0 0 1 84.5199 159.7509)">
</image>
<image style="display:none;overflow:visible;" width="564" height="376" xlink:href="people/73320d05054a85861d7505618d6b0d28.jpg"  transform="matrix(1 0 0 1 304.1588 292.574)">
</image>
<image style="display:none;overflow:visible;" width="564" height="564" xlink:href="people/aede9e6a474bbd5f9c5c519217308fbb.jpg"  transform="matrix(1 0 0 1 268.8087 55.3538)">
</image>
<path class="st4" d="M729.2,304.9c0,0,2.8,8.3-0.3,9c0,0-2.6,1.5-3.1,0.5l-1.3,4.3l6.2,5.5l10.1-6.2l-3.8-9.4l-4.9-5.2L729.2,304.9z
	"/>
<path class="st0" d="M711.2,286.1l16.7,15.5c0,0,9.1,11.9-3.5,17.1c0,0,10.4,18.7,20.9,25.8c0,0,5.1,9.7,10.2,8.2
	c5.1-1.5,7.5-8.3,7.4-14.4c0,0-2.6-31.1-10.9-41.2l-21-21.5l-7.1-6.1l-2.3,3.5c0,0,25,21.1,25,23c0,0,2,12.1-0.5,12.2
	c0,0-2.1-1.4-4.4-3.5c0,0-14.8-5.7-28.5-20.4L711.2,286.1z"/>
<path class="st5" d="M560.4,646.1"/>
<g>
	<path class="st6" d="M186.3,195c0,8.7,5.3,15.7,11.7,15.7c2.1,0,4-0.7,5.7-2c0.2-0.1,0.3-0.3,0.5-0.4c0.2-0.2,0.4-0.4,0.6-0.6
		c3-2.8,4.9-7.5,4.9-12.7c0-8.7-5.3-15.7-11.7-15.7S186.3,186.3,186.3,195z"/>
	<path class="st3" d="M295.9,219.9"/>
	<path class="st3" d="M199.4,351.3"/>
	<g>
		<circle cx="202.4" cy="190.9" r="1.9"/>
		<path class="st7" d="M199.1,188.3c0,0,2.9-1.8,4.7-0.4"/>
		<polygon class="st8" points="204.2,190.2 203,190.5 204.2,191.6 		"/>
	</g>
	<polygon points="209.3,188.2 214.4,202.4 211.4,202.6 209.7,200.1 	"/>
	<path class="st9" d="M211.5,182.7c0,0-2.6,9.5-14.1-1.9c0,0-1.3,4.8-4.5,5.3c-3.2,0.5-4.3,3.6-4.4,8.1s-3.2,2.3-2.2,5.1
		c1,2.8-5.6,5.9-6.5,2.5c-0.9-3.4-0.1-18.6-0.1-18.6s0.4-9,4-10.7c3.6-1.7,5.4-1.3,7.3,0.3c1.9,1.6,11.1-5.9,15.3,0
		c4.1,5.9,6,4.4,5.4,7.3C211.2,182.9,211.5,182.7,211.5,182.7z"/>
	<path class="st10" d="M185.7,200.7c1.2,3.1-6.6,6.6-7.6,2.8c-1-3.8-0.1-20.9-0.1-20.9s0.5-10.1,4.7-11.9c4.2-1.9,6.3-1.4,8.5,0.4
		c2.2,1.8,11.2-6,16,0.6"/>
	<line x1="187.1" y1="200.9" x2="179.9" y2="216.4"/>
	<path class="st3" d="M195.4,221"/>
	<path class="st3" d="M197.5,211.1"/>
	<polyline class="st6" points="179.5,215.7 187.3,201.5 198.1,209.2 195.3,221 193,224.5 177.8,221.4 179.5,215.7 	"/>
	<polygon class="st11" points="374,203.4 348,269.7 315.9,264.9 263.9,257 284.5,191.2 	"/>
	<polygon class="st11" points="315.1,294.7 319.2,266.1 300.7,263.1 295.5,295.5 	"/>
	<circle class="st11" cx="327.6" cy="219.4" r="7.5"/>
	<line class="st11" x1="325.4" y1="206.9" x2="297.6" y2="203.7"/>
	<line class="st11" x1="307.3" y1="210.8" x2="293.6" y2="209"/>
	<path class="st3" d="M300.4,216.6"/>
	<line class="st11" x1="284.1" y1="213.8" x2="300.4" y2="216.6"/>
	<polygon class="st11" points="309.5,252.3 314.6,247.4 312.9,240.5 306,238.5 300.9,243.5 302.7,250.3 	"/>
	<g>
		<polyline class="st11" points="348.6,248.1 347.5,236.3 342.8,247.2 341.8,235.3 337.1,246.3 336,234.4 331.3,245.3 330.3,233.5 
			325.6,244.4 		"/>
	</g>
	<g>
		<path class="st12" d="M293.9,490.9H313l12.8,5c0,0,4.7-0.4,3.2,9.1l-35.8,0.9l-0.2-15L293.9,490.9z"/>
		<line class="st13" x1="293.8" y1="500.1" x2="328.7" y2="501"/>
		<path class="st13" d="M293.6,491.4c0,0,6.6,2.6,6.3,8.9"/>
		<path class="st14" d="M318.9,500.8l4.6-3.4c0.7-0.5,0.5-1.6-0.4-1.8c-13.4-3.2-10.8-4.9-10.8-4.9l3,1.1"/>
	</g>
	<line class="st13" x1="305.8" y1="484.3" x2="309.5" y2="491.1"/>
	<line class="st13" x1="295.3" y1="487.3" x2="297.4" y2="491.6"/>
	<line class="st15" x1="211.1" y1="466.2" x2="206.4" y2="472.2"/>
	<line class="st11" x1="317.9" y1="283.5" x2="336.9" y2="293.2"/>
	<line class="st11" x1="297.5" y1="280.9" x2="274.6" y2="292.5"/>
	<line class="st16" x1="318.2" y1="236.2" x2="308" y2="240.4"/>
	<line class="st16" x1="317.6" y1="232.3" x2="307.2" y2="236.9"/>
	<path class="st16" d="M319.5,213.9l-16.8,16c0,0-5.9,0.2-6.9,5.2c-1,4.9-1.6,6.2-1.6,6.2l-34.9,29l-2.9-1.7L232,254.4"/>
	<polyline class="st17" points="241.1,473.9 161.7,473.9 122.3,473.9 	"/>
	<polygon class="st17" points="161.7,473.9 162.3,369.4 201.7,369.4 201.7,473.1 	"/>
	<line class="st3" x1="225.5" y1="370.2" x2="133.1" y2="370.2"/>
	<path class="st18" d="M225,370.6l0.3-9c0-2.4-6.7-4.3-14.9-4.3h-62.1c-8.2,0-14.9,1.9-14.9,4.3l0.2,9.1"/>
	<polygon points="187.7,359.8 191.9,356 198.2,355.5 199.4,359.1 193.7,360.6 	"/>
	<path d="M225.1,326.4l-3.6,1.4c0,0-13.9,6.9-16.9,13.2c0,0-2.6,2.2-2.3,6.8c0.4,4.6,13.9-6.4,14.1-6.5s7.5-8.8,7.5-8.8L225.1,326.4
		z"/>
	<path class="st19" d="M364,293.6v14.5l-32-1l-121-1l-4.8-0.2l0.1-12.9c0,0,15.8,0,37.5,0l7,4c0,0,1.4,3.2,14.3-4
		C310,293.2,364.3,293.3,364,293.6z"/>
	<line class="st17" x1="333.3" y1="306.7" x2="333.3" y2="472"/>
	<line class="st17" x1="300.4" y1="307.3" x2="300.4" y2="472.6"/>
	<path class="st20" d="M204,208.6c-3.5-3.5-1.9-6.4-1.9-6.4"/>
	<line class="st16" x1="243.8" y1="293" x2="222.1" y2="280.5"/>
	<path class="st16" d="M309.6,243.3l8.9-4l-13.2,6.1c0,0-24.4,38.6-38.7,46.8c-0.5,0.3-1,0.6-1.5,0.8"/>
	<path class="st16" d="M305,235.1l10.2-6.2c4.7,4.2,3.3,10.3,3.3,10.3"/>
	<path class="st3" d="M302.7,229.9"/>
	<polygon points="192.6,365.2 239.1,367.7 261.4,390.3 260.1,418.1 241.4,400.3 234.1,391.8 217.3,385.6 195.5,372.4 	"/>
	<path d="M222.3,344.6L191.9,356l-14.4,3.5c0,0,36.2,31.2,55.2,34.4c0,0,29,70.4,60.4,93.6l15.8-3.9l-31.4-66.8"/>
	<line x1="229.2" y1="372.8" x2="218" y2="345.9"/>
	<path class="st21" d="M193,355.8l60.4,34.2l-45.8,73.6l14.6,12.3l69.6-74.2c10.7-22.3,0-27.8,0-27.8l-67.2-47.5l-19.3-0.2
		c0,0-13.9,6.5-13.9,8.4S193,355.8,193,355.8z"/>
	<path class="st8" d="M204.9,471.4l13.4,8.7c0,0-2.3,5.6,4.8,11.9c0,0,6.8,4.1,3.3,10.4l-11.6-1.8l-17.3-18.1
		C197.4,482.7,200.9,472.4,204.9,471.4z"/>
	<g>
		<path class="st22" d="M205.1,472.6c0,0,4.7,6.8-2,10.4"/>
		<polyline class="st22" points="200.6,480.8 214.7,497.1 227.1,499.2 		"/>
		<path class="st22" d="M223.9,493.2c0,0-6.4-2.4-11,1.3"/>
		<path class="st22" d="M217.2,479.1l-3.2-0.4c0,0-1.4,5.6,1.6,9.4"/>
	</g>
	<line class="st15" x1="219.1" y1="472.9" x2="214" y2="478.7"/>
	<polygon class="st23" points="218.5,472.7 214.3,477.4 207.1,472.7 211.7,468.8 	"/>
	<path class="st24" d="M212.7,341.9c0,0,82.3,36,69.4,52"/>
	<line class="st24" x1="277.8" y1="399" x2="246.2" y2="435.8"/>
	<line class="st24" x1="243" y1="441.7" x2="236.5" y2="448.8"/>
	<line class="st24" x1="230.7" y1="454.2" x2="229.8" y2="456.2"/>
	<line class="st24" x1="224.9" y1="462.6" x2="217.2" y2="469.7"/>
	<path class="st25" d="M179.4,214.4c0,0-11-1.3-21.3,24.5c0,0-9,18.4-5.8,61.6s7.1,55.2,7.1,55.2s21.9,7.9,33.6,0
		c10.9-7.3,9.7-8.9,9.7-8.9s-3.1-9.5,25.2-22.1c0,0-21.8-36.6-21.6-43.3v-6.7l14.8,8.6l11.6-31.9c0,0-2.8-3.1-7.2-7.5
		c-6.9-6.8-18-16.6-29.2-22.9C196.2,221.2,179.4,220.1,179.4,214.4z"/>
	<line class="st26" x1="206.2" y1="274.8" x2="193" y2="267"/>
	<path class="st27" d="M161.3,353.2c0,0,4.5,4.4,17.8,2.6"/>
	<path class="st27" d="M161.5,351.1c0,0,4.5,4.4,17.8,2.6"/>
	<path class="st27" d="M179.4,214.4c0,0-3.2,3.2,7.6,6.2"/>
	<path class="st25" d="M136.3,260.4"/>
	<line class="st26" x1="221.2" y1="240.1" x2="232.7" y2="251.5"/>
	<polyline class="st24" points="258.1,387 253.3,390 257.8,390.7 	"/>
	<path class="st28" d="M232.7,393.9c0,0,7.3-1.1,7.3-3.7"/>
</g>
<g>
	<line class="st29" x1="1020.8" y1="287.1" x2="1020.8" y2="357.1"/>
	<line class="st29" x1="986.4" y1="264.9" x2="986.4" y2="358.1"/>
	<line class="st29" x1="1056.8" y1="252" x2="1056.8" y2="357.1"/>
	<path class="st24" d="M1116.9,190.2h-239c-6.6,0-12-5.4-12-12v-10.3c0-6.6,5.4-12,12-12h239c6.6,0,12,5.4,12,12v10.3
		C1128.9,184.8,1123.5,190.2,1116.9,190.2z"/>
</g>
<path class="st30" d="M978.3,465.4"/>
<g>
	<g>
		<path class="st31" d="M1357.4,275l-67.2,88.9l-94.4-78.4c21.3-23.5,52.1-38.2,86.3-38.2C1310.8,247.4,1337.1,257.8,1357.4,275z"/>
		<path class="st32" d="M1400.3,370.3c0,64.4-52.2,116.5-116.5,116.5c-24,0-46.4-7.3-64.9-19.8l73.1-96.8l67.2-88.9
			C1384.2,302.8,1400.3,334.7,1400.3,370.3z"/>
		<path class="st33" d="M1290.3,370.3l-73.1,96.8c-31.1-20.9-51.6-56.5-51.6-96.8c0-30.2,11.5-57.6,30.3-78.4L1290.3,370.3z"/>
	</g>
	<g>
		<path class="st15" d="M1259.3,334.4"/>
		<path class="st34" d="M1258.7,361.5l45.3,42.2c0,0,0,0,0,0c0.2,0.4,10.4,18.3-2.5,17.7c-0.1,0-0.2,0.2-0.1,0.2l9.2,4"/>
		<path class="st35" d="M1246.1,376.7c0,0,5.7,23.7,11.5,22.8"/>
		<path class="st7" d="M1367.2,382.8c0,0-6.3-9.7-4-17.2c0,0,4.1-8.6-13.6-10.3c-16.6-1.6-19.2-16.4-19.5-18.3
			c0-0.1-0.1-0.3-0.1-0.4c-0.6-1.5-4.8-10.2-16.8-5.5c-12.3,4.9-26.1-6.5-27.8-8c-0.1-0.1-0.2-0.2-0.4-0.2"/>
		<path d="M1246.8,330.7c0,0-0.6,8.5-0.2,9.2s3.4-1.7,3.4-1.7L1246.8,330.7z"/>
		<path class="st3" d="M1229.4,335.1"/>
		<path class="st36" d="M1299.5,425.5c-0.9,1.4-2.7,2-4.3,1.2l-31.5-15.2c-1.1-0.5-2.3-0.9-3.6-0.9c-5-0.3-17.2,0.6-14.9,15.9
			c0.3,1.9,1.2,3.6,2.6,4.8l29.7,26.5"/>
		<path class="st27" d="M1257.1,399.9c-46.7,24.3-57.8,24.1-57.8,24.1l-4.1-9.3l50.7-37.7"/>
		<line class="st15" x1="1320.1" y1="493.2" x2="1334.9" y2="491.8"/>
		<polyline class="st3" points="1269.1,266 1262.9,248.1 1261.6,249.5 		"/>
		<polyline class="st3" points="1271.9,263.2 1265.8,246.2 1264.7,248.8 		"/>
		<polyline class="st3" points="1276.3,261.2 1270.1,246 1269.3,248.1 		"/>
		<path class="st3" d="M1278.4,249.8l2.4,10.7l4.1,18.6c0,0,26,57.6,23.8,74.8l-9.8-1.8l-14.4-8.8l-10.6-63.2l-4.8-7.6l-7.9-7.2"/>
		<polyline class="st3" points="1195.1,414.8 1186.7,418.7 1178.8,412.5 		"/>
		<polyline class="st3" points="1184.4,424.5 1179.3,426.7 1178,427.3 1178.9,423.9 		"/>
		<polyline class="st3" points="1183.6,422 1179.6,423.8 1178.3,424.4 1179.2,421 		"/>
		<polyline class="st3" points="1185.3,426.9 1179.8,429.4 1178.5,430 1179.4,426.6 		"/>
		<polyline class="st3" points="1179.8,429.1 1178.8,432.5 1180.2,431.9 1186,429.5 1199.3,423.4 		"/>
		<path class="st23" d="M1272.4,328.1c3.2,8.7,0.5,17.7-6,20.1c-6.5,2.4-14.4-2.7-17.6-11.4c-1.2-3.3-1.6-6.6-1.2-9.5
			c0.6-5,3.1-9,7.2-10.5C1261.4,314.3,1269.2,319.4,1272.4,328.1z"/>
		<path class="st20" d="M1255.9,346.7c0,0,3,0.5,3-3.4"/>
		<g>
			<circle cx="1251.5" cy="330.4" r="2"/>
			<path class="st7" d="M1252.4,326c0,0-3.7,0.4-4.2,2.8"/>
			<polygon class="st8" points="1249.4,331 1250.7,330.5 1250.3,332.1 			"/>
		</g>
		<ellipse class="st5" cx="1263.2" cy="335.7" rx="3.4" ry="4.8"/>
		<ellipse class="st5" cx="1263.2" cy="337.4" rx="2.2" ry="3"/>
		<line class="st3" x1="1285" y1="279.1" x2="1273.9" y2="280.1"/>
		<path class="st37" d="M1290.9,427.7"/>
		<path class="st3" d="M1283.7,379.6"/>
		<path class="st38" d="M1281.8,383.2"/>
		<path d="M1276.9,455.7l18.4,5.1c0,0,9.1-7,9.2-12c0.1-4.9-3.8-10.8-3.4-13.6c0.3-2.8-1.6-8.8-1.6-8.8l-21.1,0.8L1276.9,455.7z"/>
		<path class="st6" d="M1305.2,460.3"/>
		<path class="st36" d="M1299.5,425.5c0,6.5,9.3,17.5,15.1,21.3c5.9,3.8,17.6,2.5,20.5,13.3l4.5,10.3l-22.8,10l4.8,16.2l-67.2,18.8
			c-0.8,0-1.6-0.1-2.3-0.2c-4.8-0.6-8.9-3.9-10.7-8.4l-2.4-6c-3.8-10.9,11.5-22.4,11.5-22.4l46.4-36.4"/>
		<polygon points="1300.9,424.8 1299.9,427.9 1303.5,435.3 1308.3,441.3 1311.8,439.1 		"/>
		<path class="st32" d="M1245.8,376.7c0,0,5.7,21.7,11.8,22.6l18.7-15.3v6.2l28.4-34.6l-15.2-9.5c0,0-7-10-13.6,1.8
			c0,0,0.2,7-8.6,8.2c0,0-5.5-2.1-10.3,6.6L1245.8,376.7z"/>
		<circle class="st3" cx="1308.1" cy="357.8" r="3.6"/>
		<circle class="st3" cx="1304.7" cy="348" r="3.6"/>
		<circle class="st34" cx="1317.2" cy="357.3" r="3.6"/>
		<polygon class="st34" points="1281.8,383.2 1283.9,380.3 1261.5,358.1 1258.7,361.5 		"/>
		<path class="st23" d="M1261.6,348.4l6.9,10c0,0,6.6-2.7,8.7-6.3l-7.1-7.8L1261.6,348.4z"/>
		<line class="st39" x1="1335.7" y1="476.4" x2="1347.6" y2="503.6"/>
		<line class="st15" x1="1317.4" y1="482.8" x2="1329.1" y2="481.8"/>
		<path class="st25" d="M1327.3,481c0,0,4.7-0.3,4,10.6c0,0,8.4,12.6,15.3,12.1l1.7-0.5c0,0-8-23.7-11-27.6
			C1337.3,475.6,1331.2,476.2,1327.3,481z"/>
		<g>
			<path class="st39" d="M1334.4,492.5c0,0-2.6-0.1-1.8,1.5"/>
			<g>
				<path class="st39" d="M1342,502.9l-0.3-1.6c0,0,0.4-1.9,0.5-2.2c0.1-0.3,0.4-3.6,0.3-4.1c-0.1-0.6-0.8-1.3-0.5-3.8"/>
				<path class="st39" d="M1329.3,479.7c0,0,0.3,2.2,3,2.4l6.4,0.7"/>
				<path class="st39" d="M1335.4,494.5c0,0-2.9,0.1-1.7,1.3"/>
				<path class="st39" d="M1337.1,495.8c0,0-3.6,1.3-1.5,1.7"/>
				<path class="st39" d="M1339,498c0,0-3.9,0.6-2.1,1.1"/>
				<line class="st39" x1="1334.3" y1="490.1" x2="1336.5" y2="484.9"/>
				<line class="st39" x1="1336.3" y1="491.8" x2="1338.4" y2="488"/>
				<line class="st39" x1="1338.9" y1="493.5" x2="1339.8" y2="491.2"/>
			</g>
		</g>
		<g>
			<circle class="st34" cx="1264.3" cy="364.2" r="3.6"/>
			<circle class="st34" cx="1254.2" cy="381.3" r="3.6"/>
			<path class="st34" d="M1269,389.4c-1.8,1.6-3.6,3.1-5.4,4.5c-0.8-1.4-0.7-3.2,0.5-4.4C1265.5,388.2,1267.7,388.2,1269,389.4z"/>
			<circle class="st34" cx="1264.5" cy="382.5" r="3.6"/>
			<circle class="st34" cx="1278.6" cy="372.9" r="3.6"/>
			<circle class="st34" cx="1286.2" cy="361.2" r="3.6"/>
			<circle class="st34" cx="1284.9" cy="345.4" r="3.6"/>
			<circle class="st34" cx="1294.6" cy="365.1" r="3.6"/>
			<circle class="st34" cx="1278.6" cy="354.8" r="3.6"/>
		</g>
		<polygon class="st34" points="1276,348.2 1277.6,346.3 1299.4,362 1295.5,365.9 		"/>
		<path class="st40" d="M1304.5,356.1c44.4,41.3,44.7,94.4,44.7,94.4c2.2,16-9.4,19.5-10,19.4c-0.6-0.1-0.9-3.2-0.9-3.2
			c-2.3-9.4-9.2-15.5-9.2-15.5c-6.9-2.9-16.2-6.1-16.2-6.1c-10.7-8.6-14.2-20-14.2-20c4.9-12.9-6.7-21-6.7-21
			c-1.6-4.3-5.4-2.9-5.4-2.9c-8.7,4.7-10.9-12.2-10.9-12.2"/>
		<path d="M1251.6,322.1c0.2,3.7,1.7,9.4,8.5,10.3c0.5,0.1,1.1-0.2,1.4-0.6c1-1.2,3.4-3.1,5.2,3.8c0,0,0.8,10.5,7.6,3.2
			c0.2-0.2,0.3-0.4,0.4-0.6c0,0,0,0,0,0c0.5-1.6,2.8-1.5,3.1,0.1c0.7,3.3,3.8,7.8,16.1,6.4c0.8-0.1,1.5,0.4,1.7,1.2
			c1.1,4.1,5.3,16.6,13.7,20.6c0.2,0.1,0.4,0.1,0.6,0.1c2.5,0.2,19.6,1.9,19,18.4c0,0-12,26.6,18.8,11.5c0.1-0.1,0.2-0.1,0.3-0.1
			c2-0.5,22.1-5.4,17.9-12.2c0,0-6.3-9.7-4-17.2c0,0,4.1-8.6-13.6-10.3c-16.6-1.6-19.2-16.4-19.5-18.3c0-0.1-0.1-0.3-0.1-0.4
			c-0.6-1.5-4.8-10.2-16.8-5.5c-12.3,4.9-26.1-6.5-27.8-8c-0.1-0.1-0.2-0.2-0.4-0.2c-1.2-0.5-6.9-2.6-7,3.9
			c-0.1,6.8-3.7-5.5-4.1-6.9c0-0.1-0.1-0.2-0.1-0.3c-0.7-1.4-7.9-14.8-19-4C1252.2,318.3,1251.5,320.2,1251.6,322.1z"/>
		<path class="st41" d="M1337.9,390.7"/>
		<path class="st34" d="M1261.5,358.1c0,0,44.6,47,59.8,50.2c1.4,0.3,2.6,1.1,3.6,2.2c2.4,2.7,6.4,5.4,3.6-12.2
			c-0.3-2-1.3-3.9-2.9-5.3l-49.6-44.8l1.6-1.8l29.5,21.3"/>
		<g>
			<circle class="st34" cx="1299.1" cy="392.3" r="3.6"/>
			<circle class="st34" cx="1309.7" cy="388.7" r="3.6"/>
			<circle class="st34" cx="1307.8" cy="366.3" r="3.6"/>
			<circle class="st34" cx="1296.1" cy="374.7" r="3.6"/>
			<circle class="st34" cx="1325.3" cy="409.7" r="3.6"/>
			<circle class="st34" cx="1319.6" cy="415.1" r="3.6"/>
			<circle class="st34" cx="1333.8" cy="413.7" r="3.6"/>
			<circle class="st34" cx="1322.7" cy="390.4" r="3.6"/>
			<circle class="st34" cx="1312.6" cy="407.5" r="3.6"/>
			<circle class="st34" cx="1304.6" cy="420.9" r="3.6"/>
			<circle class="st34" cx="1300.6" cy="403.1" r="3.6"/>
			<circle class="st34" cx="1312.6" cy="424.7" r="3.6"/>
			<circle class="st34" cx="1282.9" cy="398.7" r="3.6"/>
		</g>
		<g>
			<path class="st42" d="M1298.8,426.1l5.7,3.6c1.6,1,3.4,1.5,5.2,1.6l4.9,0.2"/>
			<line class="st42" x1="1299.5" y1="421.7" x2="1310.7" y2="426"/>
			<line class="st42" x1="1299.1" y1="424.3" x2="1305.4" y2="426.6"/>
		</g>
		<polyline class="st43" points="1342.6,460.4 1340.4,467.5 1344.2,462.8 		"/>
		<line class="st40" x1="1280.7" y1="382.1" x2="1283.1" y2="379.9"/>
		<line class="st40" x1="1295.5" y1="365.9" x2="1299.4" y2="362"/>
	</g>
</g>
<g>
	<path class="st23" d="M460,354.8"/>
	<path class="st30" d="M466.2,341c0,0-10.8-1.3-4.6,9.4s3.9-1.2,3.9-1.2"/>
	<path class="st44" d="M466.3,360.8l-1.3,10.8L466.3,360.8z"/>
	<path class="st30" d="M451,367c0,0-8.1-0.1-4.2,3.5c0,0,15.7,10.2,25-1.8c0,0,2.7-3.9-4.2-2.9"/>
	<path class="st44" d="M446.9,370.5c0,0,8.4,8.1,25-1.8"/>
	<line class="st44" x1="492.3" y1="429.7" x2="524.9" y2="416.9"/>
	<path class="st44" d="M502.2,464.6c0,0,14,47.8,21,62.8c3.1,6.5,4.5,12,5.2,16.1"/>
	<line class="st44" x1="487" y1="560.1" x2="448.6" y2="485.6"/>
	<polygon class="st45" points="502.4,590.1 481.8,626.9 464.1,623 487,560.1 	"/>
	<path class="st44" d="M511.7,447.1l26.8,58.1c0.6,1.3,1.3,2.6,2,3.8c2,3.3,6.1,12.3-2.2,19.7c-2.1,1.9-3.9,4-5.3,6.5l-4.6,8.3"/>
	<polyline class="st44" points="451,371.6 457.4,349.6 451,371.6 	"/>
	<path class="st46" d="M481.4,333.5c-0.4,1-1.5,1.6-2.6,1.4c-3.7-0.8-12-2.9-12.6,3.1c-0.8,7.6-2.2-2.4-4.2,7.2s-6.8,10.6-9.2,9.6
		c-2.3-1-7.1-6.6-0.7-15.1c0.4-0.5,1-0.7,1.6-1.1c1.2-0.8,2.8-1.8,4-5.3c0.2-0.7,0.5-1.3,1.1-1.7l3.1-2.2c0.3-0.2,0.7-0.4,1.2-0.5
		c2.5-0.4,3.3-0.7,5.7-3.5c3.4-4,10.3-0.5,10.5,0C479.4,325.9,482.8,329.4,481.4,333.5z"/>
	<polygon class="st32" points="480.7,339.7 485.2,353.3 480.6,351.4 	"/>
	<path class="st7" d="M471.7,353.4c0,0,0.8,5.9,4.4,4.8"/>
	<g>
		<circle cx="475.6" cy="342.7" r="1.9"/>
		<path class="st7" d="M472.3,340c0,0,3-1.8,4.8-0.4"/>
		<polygon class="st8" points="477.5,342 476.3,342.3 477.5,343.3 		"/>
	</g>
	<g>
		<polygon class="st47" points="526.8,646.5 545.8,639.8 583.2,645.4 586.1,652.3 551.3,663.8 546.8,661.8 548.7,666.3 535.4,670.1 
					"/>
		<polyline class="st14" points="532.1,652.1 542.1,653.5 546.7,662.5 562.6,657.4 585.5,649.9 		"/>
		<line class="st14" x1="535.5" y1="665.4" x2="546.7" y2="662.5"/>
		<path class="st14" d="M562.6,657.4c0,0,0-7.2,4.6-8.1c0,0,8.8,0.1,7.8-3.9"/>
		<line class="st14" x1="555.4" y1="646.2" x2="562.1" y2="641"/>
		<line class="st14" x1="549.9" y1="645.6" x2="555.5" y2="640.7"/>
	</g>
	<g>
		<path class="st47" d="M448.4,648.5l11.9,9.4l0.8-3.3l4.6,0.9l2.1,9.4l19.7,3.1l11.7-1.7l-0.4-7.1l-10.4-3.5c0,0-7,0.6-8.6-10.5
			l-18.9-10.9C461.1,634.6,463.3,627.1,448.4,648.5z"/>
		<polyline class="st48" points="457.4,644.2 470.2,655.7 472.9,663.2 491.8,664.3 		"/>
		<polyline class="st48" points="462.1,647.8 466.7,641.2 465.9,634.2 		"/>
	</g>
	<path class="st48" d="M481,627.2"/>
	<line class="st48" x1="481" y1="627.2" x2="474.3" y2="641.5"/>
	<line class="st48" x1="465.9" y1="624" x2="461.1" y2="634.6"/>
	<path class="st48" d="M459.4,668.2"/>
	<line class="st48" x1="518.5" y1="617.2" x2="529.3" y2="645.4"/>
	<line class="st48" x1="538" y1="610.2" x2="543.1" y2="641.3"/>
	<path class="st3" d="M550.3,406.8l-2.2,10.7l-8.9,7.9l-10.8,9.6l3.1,2.4c-8.2-2.9-7.5-14.4-6.9-18.8c0.1-1.1,0.3-1.7,0.3-1.7
		s0.1-1.3,1.5-0.4"/>
	<polyline class="st3" points="541.3,419.1 545.7,415.2 548.9,404.4 	"/>
	<polyline class="st3" points="538.9,416.7 543.3,412.8 546.5,402 	"/>
	<path class="st3" d="M544.3,400.5l-3.2,10.7l-4.4,3.9c0,0-3.3,1.2-4.2-1.5l-1.5-1.5"/>
	<polyline class="st3" points="524.9,421.5 530.3,412.5 534.3,405.1 	"/>
	<line class="st44" x1="483.6" y1="654" x2="479" y2="655.4"/>
	<line class="st44" x1="488.7" y1="655.9" x2="483.3" y2="658"/>
	<ellipse class="st3" cx="469.4" cy="345.2" rx="12" ry="16"/>
	<line class="st49" x1="469.3" y1="479" x2="472.3" y2="484.9"/>
	<line class="st49" x1="476.2" y1="491.2" x2="505.1" y2="556.9"/>
	<line class="st49" x1="508.1" y1="565.6" x2="514" y2="579.8"/>
	<line class="st49" x1="517.5" y1="589.5" x2="519.7" y2="593.3"/>
	<path class="st24" d="M529,544.1c-6.5,2.5-13.6-0.5-13.6-0.5"/>
	<polyline class="st44" points="528.6,542.9 541.3,609.2 516.6,617.7 502.4,590.1 	"/>
	<path class="st44" d="M498.1,434.2"/>
	<path class="st44" d="M494.8,439.3c0,0,1-1.8,3.3-5.1l-4.6,1.3"/>
	<polyline class="st44" points="482.8,450.9 477.7,455.5 483.2,454.1 	"/>
	<path class="st44" d="M437.9,507.8"/>
	<polyline class="st44" points="438.1,505 434.6,511.1 439.9,506.8 	"/>
	<path class="st44" d="M429.8,497.8l1.2-0.8c2.2-1.5,3.5-4.1,3.5-6.7v0"/>
	<path class="st50" d="M466.8,395c0,0,20.4-2.8,23.7,0.4s20.2,23.2,20.2,23.2s-29.4,6.6-30.7,6.6S466.8,395,466.8,395z"/>
	<g>
		<path class="st50" d="M474,370l-2.2-1.3c0,0-25.1-9.4-25,1.8l-15.3,53.7c0,0-3.8,34.3,0,52.3c0,0-0.7,17.6-1.7,21.4
			c-0.9,3.8,2.3,17.9,9.2,12.8c6.9-5.1,13.7-12.2,13.7-12.2l-4.2-12.8c0,0-0.8-19.7,28.3-34.1c0,0-2.1,11.4,17.4,4.1"/>
		<path class="st50" d="M531.4,437.5l-41,20c-15,2.8-13.6-5.9-13.6-5.9l-24.1-34.6"/>
		<path class="st50" d="M531.4,437.5c0,0-7.2-2.6-7.3-15s-8-9.3-8-9.3l-29.2,6.4c0,0-4.4,8.2-4,8.5c0.3,0.2,28.6,12.7,28.6,12.7
			L531.4,437.5z"/>
	</g>
	<path class="st51" d="M590.8,391.4l-90.7,42.2c-1.8,0.8-3.9,0.1-4.7-1.7l-25.8-55.5c-0.8-1.8-0.1-3.9,1.7-4.7l90.7-42.2
		c1.8-0.8,3.9-0.1,4.7,1.7l25.8,55.5C593.3,388.5,592.5,390.6,590.8,391.4z"/>
	<g>
		
			<rect x="511.6" y="349.8" transform="matrix(0.9066 -0.422 0.422 0.9066 -98.5765 259.8125)" class="st52" width="52.1" height="5.6"/>
		
			<rect x="516.8" y="361" transform="matrix(0.9066 -0.422 0.422 0.9066 -102.8193 263.0612)" class="st52" width="52.1" height="5.6"/>
		
			<rect x="522" y="372.2" transform="matrix(0.9066 -0.422 0.422 0.9066 -107.0621 266.3099)" class="st52" width="52.1" height="5.6"/>
		<g>
			
				<rect x="557.2" y="375.9" transform="matrix(0.9066 -0.422 0.422 0.9066 -108.9765 275.7957)" class="st52" width="22.7" height="16.3"/>
			<g>
				<g>
					<path class="st52" d="M559.4,381.8c0.8-0.4,1.7,1.5,2.5,1.2c0.8-0.4-0.1-2.3,0.8-2.7c0.8-0.4,1.7,1.5,2.5,1.2
						c0.8-0.4-0.1-2.3,0.8-2.7c0.8-0.4,1.7,1.5,2.5,1.2c0.8-0.4-0.1-2.3,0.8-2.7c0.8-0.4,1.7,1.5,2.6,1.1c0.8-0.4-0.1-2.3,0.8-2.7"
						/>
				</g>
				<g>
					<path class="st52" d="M561.5,386.2c0.8-0.4,1.7,1.5,2.5,1.2c0.8-0.4-0.1-2.3,0.8-2.7c0.8-0.4,1.7,1.5,2.5,1.2
						c0.8-0.4-0.1-2.3,0.8-2.7c0.8-0.4,1.7,1.5,2.5,1.2c0.8-0.4-0.1-2.3,0.8-2.7c0.8-0.4,1.7,1.5,2.6,1.1c0.8-0.4-0.1-2.3,0.8-2.7"
						/>
				</g>
				<g>
					<path class="st52" d="M563.5,390.6c0.8-0.4,1.7,1.5,2.5,1.2c0.8-0.4-0.1-2.3,0.8-2.7c0.8-0.4,1.7,1.5,2.5,1.2
						c0.8-0.4-0.1-2.3,0.8-2.7c0.8-0.4,1.7,1.5,2.5,1.2c0.8-0.4-0.1-2.3,0.8-2.7c0.8-0.4,1.7,1.5,2.6,1.1c0.8-0.4-0.1-2.3,0.8-2.7"
						/>
				</g>
			</g>
		</g>
		<g>
			
				<rect x="531" y="388.1" transform="matrix(0.9066 -0.422 0.422 0.9066 -116.5814 265.8638)" class="st52" width="22.7" height="16.3"/>
			<line class="st52" x1="533.2" y1="396.3" x2="542" y2="392.1"/>
			<line class="st52" x1="535.2" y1="400.7" x2="539.7" y2="398.6"/>
			<line class="st52" x1="544.1" y1="396.6" x2="548.5" y2="394.5"/>
			<line class="st52" x1="546.1" y1="401" x2="550.5" y2="398.9"/>
			<line class="st52" x1="546.1" y1="401" x2="537.3" y2="405.1"/>
		</g>
	</g>
	<g>
		
			<image style="overflow:visible;" width="590" height="674" xlink:href="user.png"  transform="matrix(2.442656e-02 -1.137000e-02 1.137000e-02 2.442656e-02 484.5555 374.0212)">
		</image>
		<path class="st52" d="M509.1,383.4l-18.7,8.7c-0.9,0.4-2,0-2.4-0.9l-6.7-14.3c-0.4-0.9,0-2,0.9-2.4l18.7-8.7c0.9-0.4,2,0,2.4,0.9
			l6.7,14.3C510.4,381.8,510,382.9,509.1,383.4z"/>
	</g>
	<g>
		<g>
			<polyline class="st53" points="453.8,372.1 456.8,375 459.8,372.1 462.8,375 465.8,372.1 468.8,375 471.8,372.1 			"/>
		</g>
		<g>
			<polyline class="st53" points="461.8,381.7 466.1,382.9 467.8,378.8 472.1,380 473.8,375.9 478.1,377.1 479.8,373.1 			"/>
		</g>
		<g>
			<polyline class="st53" points="452.4,377.7 454,382.1 458.6,381.4 460.2,385.8 464.8,385 466.4,389.4 471.1,388.7 			"/>
		</g>
		<g>
			<polyline class="st53" points="443,387.1 446.7,390.4 450.2,386.8 453.9,390 457.4,386.4 461.1,389.7 464.6,386.1 			"/>
		</g>
		<g>
			<polyline class="st53" points="470.6,380.6 473.5,384.6 477.7,381.9 480.6,385.8 484.8,383.1 487.7,387.1 491.9,384.3 			"/>
		</g>
	</g>
	<g>
		<g>
			<polyline class="st53" points="439.6,407.8 443.4,408.5 444.8,404.9 448.6,405.7 450.1,402 453.9,402.8 455.3,399.2 			"/>
		</g>
		<g>
			<polyline class="st53" points="451.2,412.3 455.3,411.1 455.1,406.9 459.1,405.7 459,401.5 463,400.3 462.9,396.1 			"/>
		</g>
		<g>
			<polyline class="st53" points="440.9,413 444.4,416.6 448.1,413.2 451.6,416.8 455.3,413.4 458.8,417 462.5,413.7 			"/>
		</g>
		<g>
			<polyline class="st53" points="437.2,426.2 441.9,426.8 443.4,422.4 448,423.1 449.6,418.7 454.2,419.4 455.7,415 			"/>
		</g>
		<g>
			<polyline class="st53" points="458.3,407.1 462.7,409.1 465.1,404.8 469.6,406.8 471.9,402.5 476.4,404.4 478.7,400.2 			"/>
		</g>
	</g>
	<g>
		<g>
			<polyline class="st53" points="459.5,434.8 463.1,432.8 461.5,429.1 465.1,427.2 463.5,423.5 467,421.5 465.5,417.8 			"/>
		</g>
		<g>
			<polyline class="st53" points="471,430.4 473.8,426.8 470.3,423.8 473.1,420.1 469.6,417.2 472.4,413.5 468.8,410.5 			"/>
		</g>
		<g>
			<polyline class="st53" points="464.4,438.1 468.9,437.8 469.9,433.4 474.4,433.1 475.4,428.8 479.9,428.5 480.9,424.1 			"/>
		</g>
		<g>
			<polyline class="st53" points="470,450 474.2,447.5 472.1,443.1 476.3,440.6 474.2,436.2 478.4,433.7 476.3,429.3 			"/>
		</g>
		<g>
			<polyline class="st53" points="473.2,421.9 477.6,420.2 476.7,415.6 481.1,413.9 480.3,409.3 484.7,407.6 483.8,403 			"/>
		</g>
	</g>
	<g>
		<g>
			<polyline class="st53" points="433.6,460.4 437.1,458.5 435.5,454.8 439.1,452.8 437.5,449.1 441.1,447.2 439.5,443.5 			"/>
		</g>
		<g>
			<polyline class="st53" points="445,456 447.8,452.4 444.3,449.4 447.1,445.8 443.6,442.8 446.4,439.1 442.9,436.2 			"/>
		</g>
		<g>
			<polyline class="st53" points="438.4,463.7 442.9,463.4 443.9,459.1 448.4,458.8 449.4,454.4 453.9,454.1 454.9,449.8 			"/>
		</g>
		<g>
			<polyline class="st53" points="444.1,475.6 448.3,473.1 446.2,468.7 450.4,466.2 448.2,461.8 452.5,459.3 450.3,454.9 			"/>
		</g>
		<g>
			<polyline class="st53" points="447.3,447.5 451.7,445.9 450.8,441.2 455.2,439.6 454.3,434.9 458.7,433.3 457.8,428.7 			"/>
		</g>
	</g>
	<g>
		<polyline class="st53" points="427.6,502.5 431.2,500.5 429.6,496.8 433.2,494.9 431.6,491.2 435.2,489.3 433.6,485.5 		"/>
	</g>
	<g>
		<polyline class="st53" points="439.1,498.1 441.9,494.5 438.4,491.5 441.2,487.8 437.7,484.9 440.5,481.2 437,478.2 		"/>
	</g>
	<g>
		<polyline class="st53" points="432.5,505.8 437,505.5 438,501.1 442.5,500.8 443.5,496.5 448,496.2 449,491.8 		"/>
	</g>
	<g>
		<polyline class="st53" points="441.4,489.6 445.7,487.9 444.9,483.3 449.3,481.6 448.4,477 452.8,475.3 451.9,470.7 		"/>
	</g>
	<g>
		<polyline class="st53" points="484.5,461.7 488,459.8 486.5,456.1 490,454.1 488.5,450.4 492,448.5 490.5,444.8 		"/>
	</g>
	<g>
		<polyline class="st53" points="496,457.4 498.8,453.7 495.3,450.7 498.1,447.1 494.5,444.1 497.3,440.5 493.8,437.5 		"/>
	</g>
	<g>
		<polyline class="st53" points="498.2,448.8 502.6,447.2 501.7,442.5 506.1,440.9 505.2,436.3 509.6,434.6 508.8,430 		"/>
	</g>
	<polyline class="st54" points="487.6,439.7 494.6,435.9 489.9,441 	"/>
	<path class="st55" d="M473.9,438.3l3,13.3c0,0-1.4,5.3,5.8,6.6"/>
</g>
<g>
	<polygon class="st25" points="274.2,123.7 300.6,148.6 268.7,150.6 274.7,142.7 275.3,141.9 	"/>
	<line class="st56" x1="300.6" y1="148.6" x2="275.3" y2="141.9"/>
</g>
<g>
	<polygon class="st25" points="656.5,661.4 627.1,660 650,681.9 648.7,673 648.6,672.1 	"/>
	<g>
		<line class="st56" x1="627.1" y1="660" x2="648.6" y2="672.1"/>
	</g>
</g>
<g>
	<polygon class="st25" points="916.1,455.5 945.5,454.1 922.6,476 923.9,467.2 924.1,466.3 	"/>
	<line class="st56" x1="945.5" y1="454.1" x2="924.1" y2="466.3"/>
</g>
<g>
	<polygon class="st25" points="550.9,293.6 574.8,310.8 543.2,313.7 549.7,307.6 550.4,307 	"/>
	<line class="st56" x1="574.8" y1="310.8" x2="550.4" y2="307"/>
</g>
<g>
	<polygon class="st25" points="1311,585.3 1282,590.2 1302.1,565.7 1301.9,574.7 1301.9,575.6 	"/>
	<line class="st56" x1="1282" y1="590.2" x2="1301.9" y2="575.6"/>
</g>
<path class="st57" d="M203,210.5h-82.1c-6.6,0-12-5.4-12-12v-93c0-6.6,5.4-12,12-12H203c6.6,0,12,5.4,12,12v93
	C215,205.1,209.6,210.5,203,210.5z"/>
<g>
	<ellipse transform="matrix(0.866 -0.5 0.5 0.866 -64.4891 439.6935)" class="st3" cx="788.2" cy="340.2" rx="11.9" ry="15.8"/>
	<g>
		<circle cx="793.1" cy="334" r="1.9"/>
		<path class="st7" d="M788.9,333.3c0,0,1.7-3,4-2.6"/>
		<polygon class="st8" points="794.4,332.5 793.5,333.4 795,333.7 		"/>
	</g>
	<polygon points="793.4,328.4 804.5,332.5 800.4,337.7 	"/>
	<path class="st58" d="M746.1,420.9c-0.4-1.3-1.1-2.5-1.9-3.5c-4.1-4.7-13.8-16.9-7.4-22.9c0,0,9.2-5.5,6.8-18.8
		c-0.5-2.8,0.1-5.6,1.9-7.8c1.3-1.6,3-3.3,5-4.4c3.7-2.1,5.7-6.3,4.8-10.4c0-0.2-0.1-0.4-0.1-0.7c-0.8-3.9,1-7.8,4.4-9.9
		c2.6-1.6,4.4-3.5,5-5.4c0,0,9.6-15.8,19.2-14.7"/>
	<path class="st59" d="M781.3,520.1l6.9,21.3l-27.4,64.7l9.1,2.2l36.9-49.1c0,0,17.5-11.8,1.1-52"/>
	<polyline class="st50" points="842.2,607.8 861.6,626 861,631.8 848.1,625.5 836.2,617.5 836,608.8 	"/>
	<polyline class="st50" points="769.9,608.4 778,631 768.6,628.8 760.4,613.4 760.8,606.2 	"/>
	<path class="st60" d="M747.5,404.1c0,0-19.9,25.7-18.1,45.5l-0.3,64.2l-3.6,7.2l-0.5,9"/>
	<path class="st60" d="M757.7,415.3c0,0-12.3,23.8-14.5,46.6l-5.5,53.9l1,6.2c0,0,1.6,1.4,0.3,4.2"/>
	<line class="st60" x1="728.4" y1="521.4" x2="728.2" y2="531.2"/>
	<polyline class="st60" points="730.9,521.5 730.9,529.1 730.9,532.9 	"/>
	<line class="st60" x1="733.8" y1="522.2" x2="733.6" y2="531.3"/>
	<path class="st18" d="M838.6,634.9l-9.8-1.8c0,0-1-22.1,5.9-26.2c0,0,16.9,20.5,30.8,19c0,0,9.1,3.8,5.6,13.9l-23.8-6.5l-6.2-11.4
		L838.6,634.9z"/>
	<path class="st61" d="M757.1,628.6l4.8-6l1.1,10.8l9.3,7.3l14.9,0.2c0,0,1.1-8.2-9.1-12.1c0,0-8-1-9.4-11.4c0,0,0.1-10.9-5.7-14.7
		c0,0-7.2,2.7-13.3,20.4L757.1,628.6z"/>
	<path class="st50" d="M832.9,482.2c0,0-2.4-8.9-6.3-5.9c-3.9,3-26.3,26.1-26.3,26.1l2.5,6.3c0,0,12,14.2,29.1,14.5l-0.2,0.2
		l4.2,85.4l6.2-1l13.7-74.3c0,0,9.4-16.5-2-28.7c-5.6-6-14.3-16.3-21.9-25.8"/>
	<path class="st3" d="M812,442.2l-55.1,2.6l-4.6,0.3l3.3-23.5l11.4-38.4c0,0,9.8,22.3,22.8,0"/>
	<path class="st3" d="M835.4,477.1c0,0-9.4,31.4-68.1,47.2c0,0-21.6-46.1-11.2-77.4"/>
	<path class="st3" d="M788.8,355.9l6.3,10.6c0.3,0.5,0.4,1.2,0.2,1.8c-2.1,6.3-13.9,43.1-1.8,52.7c0.1,0.1,0.3,0.2,0.4,0.3
		c1.7,0.8,12.3,5.6,12.5-5.3c0.2-11.1,8-22.8,9-24.3c0.1-0.1,0.2-0.2,0.2-0.3l4.9-4.9c0.7-0.7,0.8-1.7,0.4-2.5l-13.7-25.3
		c-0.7-1.3-2.5-1.5-3.5-0.4l-8.1,9.1"/>
	<g>
		<path class="st32" d="M791.9,329.2c0,0-10.5,8-9.2,16.7c0.2,1.4,0.8,2.6,1.6,3.8c1.6,2.2,4.6,7.2,3.7,11.5
			c-1.2,5.6,9,10.1,6.3,19.1c-2.7,9-3.5,13.9-6.1,19.5s0.4,15.7-5.4,19.5c-5.2,3.4-6.2,11-11.3,8.5c-1.7-0.8-3.6-1.2-5.4-1
			c-5.3,0.6-15.5,0.8-17.1-5.4c-0.4-1.3-1.1-2.5-1.9-3.5c-4.1-4.7-13.8-16.9-7.4-22.9c0,0,9.2-5.5,6.8-18.8
			c-0.5-2.8,0.1-5.6,1.9-7.8c1.3-1.6,3-3.3,5-4.4c3.7-2.1,5.7-6.3,4.8-10.4c0-0.2-0.1-0.4-0.1-0.7c-0.8-3.9,1-7.8,4.4-9.9
			c2.6-1.6,4.8-3.6,5-5.4c0,0,6.5-16.9,16.1-15.9C783.2,321.8,799.3,324.1,791.9,329.2z"/>
		<g>
			<path class="st62" d="M759.6,375.1c-0.9,4.3-4.2,3.6-5.2,8c-0.9,4.3,2.4,5,1.5,9.4c-0.9,4.3-4.2,3.6-5.2,8
				c-0.9,4.3,2.4,5,1.5,9.4c-0.9,4.3-4.2,3.6-5.2,8c-0.9,4.3,2.4,5,1.5,9.4c-0.9,4.3-4.2,3.6-5.2,8c-0.9,4.3,2.4,5,1.5,9.4"/>
		</g>
		<g>
			<path class="st62" d="M767.2,377.5c-0.9,4.3-2.6,4-3.5,8.3c-0.9,4.3,0.7,4.7-0.2,9c-0.9,4.3-2.6,4-3.5,8.3
				c-0.9,4.3,0.7,4.7-0.2,9c-0.9,4.3-2.6,4-3.5,8.3c-0.9,4.3,0.7,4.7-0.2,9c-0.9,4.3-2.6,4-3.5,8.3c-0.9,4.3,0.7,4.7-0.2,9"/>
		</g>
		<g>
			<path class="st62" d="M775.8,379.5c-0.9,4.3-2.9,3.9-3.8,8.3c-0.9,4.3,1,4.7,0.1,9.1c-0.9,4.3-2.9,3.9-3.8,8.3
				c-0.9,4.3,1,4.7,0.1,9.1c-0.9,4.3-2.9,3.9-3.8,8.3c-0.9,4.3,1,4.7,0.1,9.1c-0.9,4.3-2.9,3.9-3.8,8.3c-0.9,4.3,1,4.8,0.1,9.1"/>
		</g>
	</g>
	<path d="M752.9,446.4l0.6-1.6l58.7-2.9c0,0,15.9,30.3,24.4,35.8c0,0-15.5,36.2-71.8,49.5c0,0-27.1-51.6-11.4-82.4"/>
	<path class="st37" d="M812.5,442.7c0,0-7.1-19.4-6-26.9"/>
	<line class="st52" x1="768.6" y1="443.3" x2="776.9" y2="505"/>
	<line class="st52" x1="788.2" y1="443.7" x2="797.8" y2="491.1"/>
	<line class="st52" x1="803.4" y1="442.9" x2="820.8" y2="484.6"/>
	<path d="M832,523.2l0.3-3L832,523.2z"/>
	<g>
		<path class="st60" d="M806.9,357.3c0,0,37.1-50.2,38-57.7l1.1-6.2"/>
		<path class="st60" d="M818.8,378.7c0,0,21.9-29.2,25.6-52.3l9.3-25.2l3.6-11.4"/>
		<line class="st60" x1="852.2" y1="296.9" x2="855.8" y2="287.4"/>
		<line class="st60" x1="849.6" y1="295.6" x2="854.7" y2="283.5"/>
		<line class="st60" x1="847.5" y1="294" x2="851.7" y2="284.2"/>
	</g>
	<g>
		<g>
			<defs>
				<rect id="SVGID_1_" x="816.7" y="238.2" width="112" height="111.5"/>
			</defs>
			<clipPath id="SVGID_2_">
				<use xlink:href="#SVGID_1_"  style="overflow:visible;"/>
			</clipPath>
			<g class="st63">
				<defs>
					<rect id="SVGID_3_" x="816.7" y="238.2" width="112" height="111.5"/>
				</defs>
				<clipPath id="SVGID_4_">
					<use xlink:href="#SVGID_3_"  style="overflow:visible;"/>
				</clipPath>
				<path class="st64" d="M870.7,317.6c-9.7,0-17.3-1.7-17.3-4h0.5c0,2,7.7,3.7,16.9,3.7c9.8,0,16.9-2.2,16.9-3.7h0.5
					C888,315.4,880.3,317.6,870.7,317.6"/>
				<path class="st64" d="M853.6,313.8c-0.1,0-0.2-0.1-0.2-0.2v-39.7c0-0.1,0.1-0.2,0.2-0.2s0.2,0.1,0.2,0.2v39.7
					C853.8,313.8,853.7,313.8,853.6,313.8"/>
				<path class="st64" d="M870.7,277.4c-8.5,0-17.3-1.3-17.3-3.6c0-2.2,8.8-3.6,17.3-3.6c8.5,0,17.3,1.3,17.3,3.6
					S879.2,277.4,870.7,277.4 M870.7,270.6c-10.1,0-16.9,1.7-16.9,3.2s6.8,3.2,16.9,3.2s16.9-1.7,16.9-3.2
					C887.5,272.3,880.8,270.6,870.7,270.6"/>
				<path class="st64" d="M887.8,273.7c-0.1,0-0.2,0.1-0.2,0.2v19.6c0.1,0,0.2,0,0.2,0c0,0,0.1,0,0.1,0h0.1v-19.6
					C888,273.8,887.9,273.7,887.8,273.7"/>
				<path class="st64" d="M887.8,282.7c-0.1,0-0.2,0-0.2,0v30.3c0,0.5,0.1,0.9,0.2,0.9c0.1,0,0.2-0.4,0.2-0.9v-30.2h-0.1
					C887.9,282.7,887.8,282.7,887.8,282.7"/>
				<path class="st64" d="M879.7,304.4c-0.2-0.2-0.5-0.3-0.8-0.3c-1.2,0-2.3,0.8-3.1,2.3l-0.2,0.4l-0.1-0.4c0-0.2-0.1-0.4-0.1-0.7
					c-0.3-1.1-0.8-1.6-1.6-1.6c-1,0-2,0.8-3.2,2.4l0.6,0.4c0,0,0.1-0.1,0.2-0.3c0.1-0.2,0.3-0.4,0.5-0.6c0.6-0.7,1.3-1,1.7-1
					c0.4,0,0.7,0.4,0.8,1.2c0,0.3,0.1,0.6,0.1,0.9c0,0.2,0,0.5,0,0.7v0.4v0.1H874h-1.7l-0.1,0.2h1.8h0.4l0,0.2
					c-0.1,0.9-0.4,1.6-0.8,2.2c-0.5,0.6-1.1,0.9-1.6,0.9h-0.1l0-0.1c-0.1-0.5-0.2-0.9-0.3-1.2c-0.1-0.2-0.2-0.3-0.3-0.4
					c-0.2-0.1-0.4-0.1-0.7-0.1c-0.3,0-0.5,0.1-0.6,0.3c-0.2,0.2-0.3,0.4-0.3,0.7c0,1,0.5,1.4,1.7,1.4c0.6,0,1.1-0.2,1.7-0.6
					c0.6-0.4,1.1-1,1.5-1.7l0.3,0.1c0,0.6,0.2,1.1,0.5,1.6c0.3,0.5,0.7,0.7,1.1,0.7c0.7,0,1.5-0.5,2.3-1.4c0.4-0.5,0.8-1,1.1-1.5
					l-0.4-0.4c-1,1.3-1.9,2.2-2.5,2.2c-0.8,0-1.2-1.1-1.2-2.8v-0.1h0.1h2.1l-0.1-0.2h-2.1h-0.1v-0.1c0-0.6,0.4-1.1,0.7-1.7
					c0.3-0.5,0.7-1,1.2-1.3l0.1-0.1l0.1,0.2l0.2,0.3c0.1,0.2,0.2,0.4,0.5,0.6c0.2,0.2,0.5,0.3,0.8,0.3c0.3,0,0.5-0.1,0.7-0.3
					c0.2-0.2,0.3-0.5,0.3-0.9C880,304.8,879.9,304.5,879.7,304.4"/>
				<path class="st64" d="M870.1,297.6l-0.4,1.9c-0.8,3.5-1.5,5.9-2,7.3c-1,2.7-2.4,4.4-4,5.1c-0.7,0.3-1.4,0.4-2,0.4
					c-0.7,0-1.2-0.1-1.5-0.4c-0.3-0.3-0.4-0.6-0.4-1c0-0.4,0.1-0.7,0.4-1c0.2-0.3,0.6-0.4,0.9-0.4s0.7,0.1,0.9,0.3
					c0.2,0.2,0.4,0.4,0.4,0.7c0,0.3-0.1,0.6-0.3,0.9c1.3-0.2,2.4-2.6,3.4-7.2c0.2-0.7,0.3-1.6,0.5-2.6c0.2-1,0.4-1.7,0.5-2.2
					l0.4-1.9h-3.4l0.3-1.2h3.4c1.5-5.9,3.2-10,5.1-12.4c1.6-1.9,3.6-2.9,5.9-2.9c1,0,1.9,0.2,2.6,0.6c0.7,0.4,1.1,1.1,1.1,2.1
					c0,0.6-0.2,1-0.6,1.3c-0.4,0.3-0.8,0.5-1.4,0.5s-1-0.2-1.3-0.5c-0.4-0.3-0.5-0.7-0.5-1.2c0-0.5,0.2-0.9,0.5-1.4
					c-0.6-0.2-1.1-0.3-1.4-0.3c-0.3,0-0.8,0.2-1.2,0.5c-0.5,0.3-0.9,0.8-1.3,1.3c-1.4,2.2-2.8,6.3-4.2,12.2h4.4l-0.3,1.2H870.1z"/>
				<path class="st65" d="M870.1,297.6l-0.4,1.9c-0.8,3.5-1.5,5.9-2,7.3c-1,2.7-2.4,4.4-4,5.1c-0.7,0.3-1.4,0.4-2,0.4
					c-0.7,0-1.2-0.1-1.5-0.4c-0.3-0.3-0.4-0.6-0.4-1c0-0.4,0.1-0.7,0.4-1c0.2-0.3,0.6-0.4,0.9-0.4s0.7,0.1,0.9,0.3
					c0.2,0.2,0.4,0.4,0.4,0.7c0,0.3-0.1,0.6-0.3,0.9c1.3-0.2,2.4-2.6,3.4-7.2c0.2-0.7,0.3-1.6,0.5-2.6c0.2-1,0.4-1.7,0.5-2.2
					l0.4-1.9h-3.4l0.3-1.2h3.4c1.5-5.9,3.2-10,5.1-12.4c1.6-1.9,3.6-2.9,5.9-2.9c1,0,1.9,0.2,2.6,0.6c0.7,0.4,1.1,1.1,1.1,2.1
					c0,0.6-0.2,1-0.6,1.3c-0.4,0.3-0.8,0.5-1.4,0.5s-1-0.2-1.3-0.5c-0.4-0.3-0.5-0.7-0.5-1.2c0-0.5,0.2-0.9,0.5-1.4
					c-0.6-0.2-1.1-0.3-1.4-0.3c-0.3,0-0.8,0.2-1.2,0.5c-0.5,0.3-0.9,0.8-1.3,1.3c-1.4,2.2-2.8,6.3-4.2,12.2h4.4l-0.3,1.2H870.1z"/>
			</g>
		</g>
	</g>
	<g>
		<path class="st34" d="M714.2,584.7c0.9-2.2,2.8-3.7,5-4.1l-0.5,1.2c-0.1,0.3-0.2,0.5-0.2,0.8c-0.2,1.4,0.4,2.6,1.8,3.2l1.6,0.7
			c1.5,0.6,3.3-0.1,3.9-1.6l0.5-1.1c1.1,1.7,1.3,4,0.5,6c-1.4,3.5-5.3,5.2-8.8,3.8C714.6,592.1,712.9,588.1,714.2,584.7z"/>
		<g>
			<path class="st34" d="M713.4,559.2"/>
			<path class="st34" d="M735.3,569.8"/>
			<path class="st34" d="M729.9,554.5"/>
			<path class="st34" d="M729.6,555.2"/>
			<path class="st34" d="M746.4,553.3c4.2-9.9-0.2-21.3-9.9-25.4c-9.7-4.1-20.9,0.7-25.1,10.6"/>
			<path class="st34" d="M736.1,560.4c6.7,4.1,8.1-1.9,10.6-7.8"/>
			<polyline class="st34" points="738.5,554.6 736.1,560.4 728.2,579.1 			"/>
			<line class="st34" x1="727" y1="561.2" x2="721" y2="576.2"/>
			<path class="st34" d="M713.9,552.4l-4.4,10.5c-0.6,1.5,0.1,3.3,1.6,3.9l1.6,0.7c1.5,0.6,3.3-0.1,3.9-1.6l4.4-10.5"/>
			<path class="st34" d="M707.9,546.8l-3.4,8c-0.6,1.5,0.1,3.3,1.6,3.9l1.6,0.7c1.5,0.6,3.3-0.1,3.9-1.6l3.4-8"/>
			<line class="st34" x1="711.4" y1="538.6" x2="705.3" y2="553.1"/>
			<path class="st34" d="M720.3,557.2l-4.3,10.3c-0.6,1.5,0.1,3.3,1.6,3.9l1.6,0.7c1.5,0.6,3.3-0.1,3.9-1.6l4.3-10.3"/>
		</g>
		<path class="st34" d="M711,582.7c1.8-4.2,5.8-6.7,10.1-6.6l-1.8,4.5l-0.5,1.2c-0.1,0.3-0.2,0.5-0.2,0.8c-0.2,1.4,0.4,2.6,1.8,3.2
			l1.6,0.7c1.5,0.6,3.3-0.1,3.9-1.6l0.5-1.1l2-4.7c3.3,3,4.5,7.9,2.7,12.3c-2.3,5.5-8.7,8.1-14.2,5.8
			C711.2,594.6,708.6,588.3,711,582.7z"/>
	</g>
</g>
<path class="st34" d="M-111,229.2"/>
<g>
	<g>
		<path class="st66" d="M-43.1,316.9c-0.1,0.5-0.1,1-0.2,1.5"/>
		<path class="st67" d="M-43.5,321.4c-0.1,3.6,0.5,7,1.4,10.4"/>
		<path class="st68" d="M-41.6,333.2c4.1,12.5,14.6,23.1,26.1,29.4c15.8,8.6,34,11.2,51.8,13.6c37.5,5.1,75.2,10.2,113,11
			c34.6,0.7,72.4-3.5,97-27.9c18.3-18.2,26-44.5,41.8-64.9c22.7-29.4,59.6-43.8,95.2-54.3c33.6-9.8,70-17.2,103-5.7
			c53.2,18.6,78.2,77.5,101.3,128.9c23.1,51.4,60.2,107.8,116.5,109.7c67.1,2.2,119.2-76.2,185.8-67.5c29.7,3.9,55.2,25.9,68.1,52.9
			c10,21.1,12.8,47.3,0.5,67.2c-12.3,19.8-42.8,28.2-60.2,12.6c-17.9-16.2-12-48,6.4-63.6c18.3-15.7,44.2-18.9,68.3-18.7
			c92.9,0.5,181.4,40.1,260.1,89.4c40,25.1,81.3,53.8,128.5,54.7c7,0.1,14.4-0.5,20.4-4.1c6.9-4.1,11.1-11.5,15-18.5
			c18.7-33.9,36.7-78.6,11.7-108.1c-15.2-18-40.9-22.2-64.2-25.3c-33.5-4.4-71.1-7.8-97.7,13.1c-21,16.5-29.5,43.9-36.8,69.5
			c-9.9,34.6-19.8,69.3-29.7,103.9c-7.9,27.6-16.7,56.7-38.1,75.7c-34.2,30.3-87.7,23.8-129.5,5.4c-41.8-18.4-79.8-46.8-124.4-56.7
			c-34.6-7.7-71.8-3.3-103.7,12.2c-32.1,15.6-57.9-5.6-88,13.5c-90.1,57.4-214.6-11.5-321.2-23.9"/>
		<path class="st66" d="M374,656.4c-0.5-0.1-1-0.1-1.5-0.2"/>
	</g>
</g>
<g>
	<g>
		<circle cx="1243.5" cy="643.8" r="2.4"/>
		<path class="st7" d="M1244.6,638.6c0,0-4.4,0.5-5,3.4"/>
		<polygon class="st8" points="1241,644.6 1242.5,644 1242.1,645.9 		"/>
	</g>
	<path d="M1239.7,633.5c-0.7,0.1-1.4-0.2-1.8-0.7c-3.2-3.4-12.8-14.2-3.3-13.8c0.9,0,2,0.2,3.3,0.4c0.4,0.1,0.8,0.3,1.1,0.5
		c2.2,2,12.2,10.6,16.7,9.6c0.4-0.1,0.7-0.1,1.1,0c3.8,1.5,25.3,10.8,9.9,27.4c-0.8,0.8-2,1-3,0.4l0,0c-0.8-0.5-1.2-1.4-1-2.3
		c0.7-4.7,2.3-18.7-4.6-13.2c-0.8,0.7-2.1,0.7-2.9,0C1251.7,639.3,1243.5,633,1239.7,633.5z"/>
	<path class="st3" d="M1256.4,641.7c-3.4-2.8-11.6-9-15.3-8.5c-0.7,0.1-1.4-0.2-1.8-0.7c-3.2-3.4-12.8-14.2-3.3-13.8
		c0.9,0,2,0.2,3.3,0.4"/>
	<path class="st3" d="M1257,629.4c0.4-0.1,0.7-0.1,1.1,0c3.8,1.5,25.3,10.8,9.9,27.4c-0.8,0.8-2,1-3,0.4l0,0"/>
	<path d="M1231.8,620.2c0,0,11.5-21,27.3,8.1C1274.9,657.4,1231.8,620.2,1231.8,620.2z"/>
	<path class="st20" d="M1237.6,615.3c4.5-4.2,13.3-7.9,24.2,12.1c2.3,4.3,3.4,7.1,3.5,8.9"/>
	<path class="st32" d="M1231.7,667.2c0,0.5,1.2-19.6,1.2-19.6l5.6,18.5L1231.7,667.2z"/>
	<path class="st3" d="M1243.6,667.6c0,0,7.5-1,4.8-6.6"/>
	<path class="st6" d="M1065.7,751.5v-24.4l-6.4-16.3c0,0,0.5-6-11.6-4.1l-1.1,45.7l19.1,0.3L1065.7,751.5z"/>
	<line class="st71" x1="1053.9" y1="751.6" x2="1052.7" y2="707"/>
	<path class="st71" d="M1064.9,751.9c0,0-3.3-8.4-11.3-8"/>
	<path class="st71" d="M1053,719.6l4.3-5.9c0.7-0.9,2.1-0.6,2.3,0.5c4.1,17.1,6.3,13.8,6.3,13.8l-1.4-3.8"/>
	<path class="st6" d="M1111.8,759.3v-24.4l-6.4-16.3c0,0,0.5-6-11.6-4.1l-1.1,45.7l19.1,0.3L1111.8,759.3z"/>
	<line class="st71" x1="1100.1" y1="759.4" x2="1098.8" y2="714.9"/>
	<path class="st71" d="M1111,759.7c0,0-3.3-8.4-11.3-8"/>
	<line class="st15" x1="1067.4" y1="733.9" x2="1079.7" y2="734.7"/>
	<line class="st15" x1="1066.5" y1="748.7" x2="1081.4" y2="750.3"/>
	<line class="st15" x1="1111" y1="740.5" x2="1122.1" y2="743.7"/>
	<line class="st15" x1="1110.6" y1="755.3" x2="1120.5" y2="756.9"/>
	<path class="st15" d="M1122.9,741.3l-2.7,17.2c0,0,45,12.1,51.2,4.9c6.2-7.1,4.8,31.5,37.7,52.2c0,0,26.9,13.3,45.4-20.2
		c0,0,6.6-5.9-21.1-27.7l-15.1-10.4l-29.9,3.6l-17.3-16.2L1122.9,741.3z"/>
	<polygon class="st61" points="1079.2,727.3 1093.4,728.1 1093.2,754.5 1080.8,753.9 	"/>
	<polyline class="st61" points="1121.2,743 1111.4,740.1 1109.9,730.2 1111.3,730 1156.8,729.7 1171.1,744.6 1122.9,741.3 
		1122.1,743.7 	"/>
	<path class="st61" d="M1222.2,737.8l-15.6-4.3l-1.4-9.5l19.8,1.9l16.7-32.5c0,0,2.7-9.3,9.3-10.3c0,0,10.3,0.9,19.1-8.2
		c0,0,25.7,14.6,28.2,24.7c0,0,2.2,19.4-14,54.4c0,0-4,18.5-10.9,16.1l-47.1-17.7l-8.6-2.9l1.9-12.4"/>
	<line class="st15" x1="1263.6" y1="660.6" x2="1268.9" y2="679.3"/>
	<line class="st15" x1="1253.9" y1="669.6" x2="1258.6" y2="687.5"/>
	<path class="st61" d="M1273.2,769.9c0,0-12.2,25.9-18.7,25.5l1.1-5.2c0,0-5.9-14-35.1-32.7l-1.4-2.5c0,0,2.3-5.5-1.7-5.7
		s11.9-0.9,11.9-0.9l43.9,18.1V769.9z"/>
	<polygon class="st15" points="1151.9,680.3 1156.8,729.7 1188.4,760.8 1219.2,755 1219.7,752.3 1212,744.8 1192.8,727 
		1183.7,729.5 1179.4,697.6 	"/>
	<polyline class="st15" points="1183.7,729.5 1187.9,757.6 1188.4,760.8 	"/>
	<line class="st15" x1="1219.7" y1="752.3" x2="1188.6" y2="758.4"/>
	<polyline class="st3" points="1187.9,733.7 1190.4,722 1205.4,725.3 	"/>
	<polyline class="st3" points="1190.3,735.8 1191.5,726.3 1195.1,726.3 	"/>
	<polyline class="st3" points="1193,734.7 1193.4,729.2 1195.2,728.5 	"/>
	<polyline class="st3" points="1195.2,733 1195.3,729.7 1198.9,731.4 	"/>
	<polyline class="st3" points="1193.1,744.6 1197.5,736.6 1206.3,737 1218.6,738.8 1220.3,739.1 1219.3,745.8 1208,743.2 
		1204.5,743.6 1203.5,746.6 	"/>
	<polyline class="st3" points="1195.6,748 1199.3,739.9 1205.7,739.5 	"/>
	<polyline class="st3" points="1199.8,746.8 1201.7,742 1207.2,741.4 	"/>
	<path class="st71" d="M1099.1,727.4l4.3-5.9c0.7-0.9,2.1-0.6,2.3,0.5c4.1,17.1,6.3,13.8,6.3,13.8l-1.4-3.8"/>
	<path class="st49" d="M1230.1,737.4c0,0,17.4,0,27.6,1.7c3.1,0.5,5.5,1.2,6.5,2"/>
	<line class="st49" x1="1272.4" y1="711.6" x2="1259.9" y2="739.5"/>
	<line class="st49" x1="1224.8" y1="726.7" x2="1221.9" y2="732.8"/>
	<path class="st49" d="M1255.9,777.1c4.3,2.7,0.8,15.6,0.8,15.6s3.4-5.8,3.7-7.5"/>
	<path class="st3" d="M1263.1,645.5c3.8,10.4,0.6,21.1-7.2,24c-7.8,2.9-17.2-3.2-21-13.6c-1.4-3.9-1.9-7.8-1.5-11.4
		c0.7-5.9,3.8-10.8,8.6-12.6C1249.9,629,1259.2,635.1,1263.1,645.5z"/>
	<line class="st49" x1="1235.4" y1="748.4" x2="1259.5" y2="762.1"/>
	<path class="st49" d="M1269.7,766.7c0,0,2.8,2.9,4.6,2.7l-1.6-2.8"/>
	<line class="st49" x1="1250.2" y1="694.9" x2="1237" y2="719"/>
	<path class="st72" d="M1143.7,751.4"/>
	<path class="st72" d="M1132.1,751.4"/>
	<path class="st72" d="M1145.3,795.4"/>
	<path class="st73" d="M1234.1,805.5c0,0-20.2,18.3-51.5-41.2c0,0-1.2-9.7-16.5-11.1"/>
	<path class="st73" d="M1157.5,752.8c-2.5,0-18.9-0.8-18.9-0.8"/>
</g>
<polygon class="st30" points="533.1,994.5 531.1,994.5 531.1,994.5 533.1,994.5 "/>
</svg>
